<svg width="132" height="129" viewBox="0 0 132 129" fill="none" xmlns="http://www.w3.org/2000/svg">
<path opacity="0.5" d="M122.724 81.3968L75.1839 129H56.342L9.88721 82.4787V63.612L57.4276 16.014H76.2694L122.724 62.5301V81.3968Z" fill="#FFF380"/>
<path d="M122.724 77.2019L75.1839 124.805H56.342L9.88721 78.2838V59.4171L57.4276 11.8191H76.2694L122.724 58.3352V77.2019Z" fill="#255DB0"/>
<g filter="url(#filter0_d_63_33806)">
<path d="M66.6833 16.5914L16.5078 66.8332L66.2581 116.649L116.434 66.4074L66.6833 16.5914Z" fill="#359AE5"/>
</g>
<path d="M18.6686 27.0319C18.4749 27.0319 18.2761 26.9554 18.1283 26.8074L16.3242 25.0008C16.0235 24.6997 16.0235 24.2149 16.3242 23.9189C16.6248 23.6178 17.109 23.6178 17.4046 23.9189L19.2088 25.7255C19.5095 26.0266 19.5095 26.5114 19.2088 26.8074C19.061 26.9554 18.8622 27.0319 18.6686 27.0319Z" fill="white"/>
<path d="M90.7235 99.1817C90.5298 99.1817 90.331 99.1052 90.1832 98.9572L86.58 95.3492C86.2793 95.0481 86.2793 94.5633 86.58 94.2673C86.8807 93.9662 87.3649 93.9662 87.6605 94.2673L91.2637 97.8753C91.5644 98.1764 91.5644 98.6612 91.2637 98.9572C91.1159 99.1052 90.9171 99.1817 90.7235 99.1817ZM83.517 91.9657C83.3233 91.9657 83.1246 91.8892 82.9768 91.7412L79.3735 88.1332C79.0728 87.8321 79.0728 87.3473 79.3735 87.0513C79.6742 86.7502 80.1584 86.7502 80.454 87.0513L84.0572 90.6593C84.3579 90.9604 84.3579 91.4452 84.0572 91.7412C83.9094 91.8892 83.7107 91.9657 83.517 91.9657ZM76.3105 84.7497C76.1168 84.7497 75.9181 84.6732 75.7703 84.5252L72.167 80.9172C71.8663 80.6161 71.8663 80.1313 72.167 79.8353C72.4677 79.5342 72.9519 79.5342 73.2475 79.8353L76.8507 83.4433C77.1514 83.7444 77.1514 84.2292 76.8507 84.5252C76.7029 84.6732 76.5042 84.7497 76.3105 84.7497ZM69.104 77.5337C68.9103 77.5337 68.7116 77.4572 68.5638 77.3092L64.9605 73.7012C64.6598 73.4001 64.6598 72.9153 64.9605 72.6193C65.2612 72.3182 65.7454 72.3182 66.041 72.6193L69.6442 76.2273C69.9449 76.5284 69.9449 77.0132 69.6442 77.3092C69.4964 77.4572 69.2977 77.5337 69.104 77.5337ZM61.8975 70.3177C61.7039 70.3177 61.5051 70.2412 61.3573 70.0932L57.7541 66.4852C57.4534 66.1841 57.4534 65.6993 57.7541 65.4033C58.0547 65.1022 58.5389 65.1022 58.8345 65.4033L62.4378 69.0113C62.7385 69.3124 62.7385 69.7972 62.4378 70.0932C62.29 70.2412 62.0912 70.3177 61.8975 70.3177ZM54.691 63.1017C54.4974 63.1017 54.2986 63.0252 54.1508 62.8772L50.5476 59.2692C50.2469 58.9681 50.2469 58.4833 50.5476 58.1873C50.8483 57.8862 51.3324 57.8862 51.628 58.1873L55.2313 61.7953C55.532 62.0964 55.532 62.5812 55.2313 62.8772C55.0835 63.0252 54.8847 63.1017 54.691 63.1017ZM47.4846 55.8857C47.2909 55.8857 47.0921 55.8092 46.9443 55.6612L43.3411 52.0532C43.0404 51.7521 43.0404 51.2673 43.3411 50.9713C43.6418 50.6702 44.1259 50.6702 44.4215 50.9713L48.0248 54.5793C48.3255 54.8804 48.3255 55.3652 48.0248 55.6612C47.877 55.8092 47.6782 55.8857 47.4846 55.8857ZM40.2781 48.6697C40.0844 48.6697 39.8856 48.5932 39.7378 48.4452L36.1346 44.8372C35.8339 44.5361 35.8339 44.0513 36.1346 43.7553C36.4353 43.4542 36.9195 43.4542 37.2151 43.7553L40.8183 47.3633C41.119 47.6644 41.119 48.1492 40.8183 48.4452C40.6705 48.5932 40.4717 48.6697 40.2781 48.6697ZM33.0716 41.4537C32.8779 41.4537 32.6791 41.3772 32.5313 41.2292L28.9281 37.6212C28.6274 37.3201 28.6274 36.8353 28.9281 36.5393C29.2288 36.2382 29.713 36.2382 30.0086 36.5393L33.6118 40.1473C33.9125 40.4484 33.9125 40.9332 33.6118 41.2292C33.464 41.3772 33.2652 41.4537 33.0716 41.4537ZM25.8651 34.2377C25.6714 34.2377 25.4727 34.1612 25.3249 34.0132L21.7216 30.4052C21.4209 30.1041 21.4209 29.6193 21.7216 29.3233C22.0223 29.0222 22.5065 29.0222 22.8021 29.3233L26.4053 32.9313C26.706 33.2324 26.706 33.7172 26.4053 34.0132C26.2575 34.1612 26.0588 34.2377 25.8651 34.2377Z" fill="white"/>
<path d="M96.1256 104.591C95.9319 104.591 95.7332 104.515 95.5854 104.367L93.7812 102.56C93.4805 102.259 93.4805 101.774 93.7812 101.478C94.0819 101.177 94.5661 101.177 94.8617 101.478L96.6658 103.285C96.9665 103.586 96.9665 104.071 96.6658 104.367C96.518 104.515 96.3193 104.591 96.1256 104.591Z" fill="white"/>
<path d="M114.29 26.1592C114.096 26.1592 113.897 26.0827 113.749 25.9347C113.449 25.6336 113.449 25.1488 113.749 24.8528L115.554 23.0463C115.854 22.7452 116.338 22.7452 116.634 23.0463C116.935 23.3473 116.935 23.8322 116.634 24.1281L114.83 25.9347C114.682 26.0827 114.483 26.1592 114.29 26.1592Z" fill="white"/>
<path d="M42.2399 98.309C42.0462 98.309 41.8474 98.2325 41.6996 98.0845C41.3989 97.7834 41.3989 97.2986 41.6996 97.0026L45.3029 93.3946C45.6036 93.0935 46.0878 93.0935 46.3834 93.3946C46.684 93.6957 46.684 94.1805 46.3834 94.4765L42.7801 98.0845C42.6323 98.2325 42.4335 98.309 42.2399 98.309ZM49.4464 91.093C49.2527 91.093 49.0539 91.0165 48.9061 90.8685C48.6054 90.5674 48.6054 90.0826 48.9061 89.7866L52.5094 86.1786C52.8101 85.8775 53.2942 85.8775 53.5898 86.1786C53.8905 86.4797 53.8905 86.9645 53.5898 87.2605L49.9866 90.8685C49.8388 91.0165 49.64 91.093 49.4464 91.093ZM56.6529 83.877C56.4592 83.877 56.2604 83.8005 56.1126 83.6525C55.8119 83.3514 55.8119 82.8666 56.1126 82.5706L59.7159 78.9626C60.0166 78.6615 60.5007 78.6615 60.7963 78.9626C61.097 79.2637 61.097 79.7485 60.7963 80.0445L57.1931 83.6525C57.0453 83.8005 56.8465 83.877 56.6529 83.877ZM63.8593 76.661C63.6657 76.661 63.4669 76.5845 63.3191 76.4365C63.0184 76.1354 63.0184 75.6506 63.3191 75.3546L66.9223 71.7466C67.223 71.4455 67.7072 71.4455 68.0028 71.7466C68.3035 72.0477 68.3035 72.5325 68.0028 72.8285L64.3996 76.4365C64.2518 76.5845 64.053 76.661 63.8593 76.661ZM71.0658 69.445C70.8722 69.445 70.6734 69.3685 70.5256 69.2205C70.2249 68.9194 70.2249 68.4346 70.5256 68.1386L74.1288 64.5306C74.4295 64.2295 74.9137 64.2295 75.2093 64.5306C75.51 64.8317 75.51 65.3165 75.2093 65.6125L71.6061 69.2205C71.4583 69.3685 71.2595 69.445 71.0658 69.445ZM78.2723 62.229C78.0786 62.229 77.8799 62.1525 77.7321 62.0045C77.4314 61.7034 77.4314 61.2186 77.7321 60.9226L81.3353 57.3146C81.636 57.0135 82.1202 57.0135 82.4158 57.3146C82.7165 57.6157 82.7165 58.1005 82.4158 58.3965L78.8125 62.0045C78.6647 62.1525 78.466 62.229 78.2723 62.229ZM85.4788 55.013C85.2851 55.013 85.0864 54.9365 84.9386 54.7885C84.6379 54.4874 84.6379 54.0026 84.9386 53.7066L88.5418 50.0986C88.8425 49.7975 89.3267 49.7975 89.6223 50.0986C89.923 50.3997 89.923 50.8845 89.6223 51.1805L86.019 54.7885C85.8712 54.9365 85.6725 55.013 85.4788 55.013ZM92.6853 47.797C92.4916 47.797 92.2929 47.7205 92.1451 47.5725C91.8444 47.2714 91.8444 46.7866 92.1451 46.4906L95.7483 42.8826C96.049 42.5815 96.5332 42.5815 96.8288 42.8826C97.1295 43.1837 97.1295 43.6685 96.8288 43.9645L93.2255 47.5725C93.0777 47.7205 92.879 47.797 92.6853 47.797ZM99.8918 40.581C99.6981 40.581 99.4993 40.5045 99.3515 40.3565C99.0508 40.0554 99.0508 39.5706 99.3515 39.2746L102.955 35.6666C103.255 35.3655 103.74 35.3655 104.035 35.6666C104.336 35.9677 104.336 36.4525 104.035 36.7485L100.432 40.3565C100.284 40.5045 100.085 40.581 99.8918 40.581ZM107.098 33.365C106.905 33.365 106.706 33.2885 106.558 33.1405C106.257 32.8394 106.257 32.3546 106.558 32.0586L110.161 28.4506C110.462 28.1495 110.946 28.1495 111.242 28.4506C111.542 28.7517 111.542 29.2365 111.242 29.5325L107.638 33.1405C107.491 33.2885 107.292 33.365 107.098 33.365Z" fill="white"/>
<path d="M36.8326 103.718C36.639 103.718 36.4402 103.642 36.2924 103.494C35.9917 103.193 35.9917 102.708 36.2924 102.412L38.0966 100.605C38.3973 100.304 38.8815 100.304 39.1771 100.605C39.4777 100.907 39.4777 101.391 39.1771 101.687L37.3729 103.494C37.2251 103.642 37.0263 103.718 36.8326 103.718Z" fill="white"/>
<path d="M86.4861 123.113L2.88184 39.398L-0.00119411 42.2848L83.6031 125.999L86.4861 123.113Z" fill="white"/>
<path d="M132.002 77.5395L66.2217 11.6727L63.3386 14.5596L129.119 80.4263L132.002 77.5395Z" fill="white"/>
<path d="M48.1345 125.738L131.739 42.0238L128.856 39.137L45.2515 122.852L48.1345 125.738Z" fill="white"/>
<path d="M3.1453 80.6867L70.3091 13.4343L67.4261 10.5474L0.262267 77.7999L3.1453 80.6867Z" fill="white"/>
<path d="M65.7448 83.3412C71.1041 83.3412 75.4486 78.9909 75.4486 73.6246C75.4486 68.2583 71.1041 63.908 65.7448 63.908C60.3855 63.908 56.041 68.2583 56.041 73.6246C56.041 78.9909 60.3855 83.3412 65.7448 83.3412Z" fill="white"/>
<path d="M65.4448 61.6677C64.558 60.6827 43.7285 37.4017 43.7285 23.526C43.7285 11.1149 53.8094 1.02063 66.2042 1.02063C78.5989 1.02063 88.6799 11.1149 88.6799 23.526C88.6799 37.4374 67.8453 60.6827 66.9585 61.6677L66.2042 62.5046L65.4499 61.6677H65.4448ZM66.1991 14.2125C60.8579 14.2125 56.5106 18.5656 56.5106 23.9138C56.5106 29.262 60.8579 33.6151 66.1991 33.6151C71.5403 33.6151 75.8876 29.262 75.8876 23.9138C75.8876 18.5656 71.5403 14.2125 66.1991 14.2125Z" fill="url(#paint0_linear_63_33806)"/>
<path d="M66.204 2.0413C78.0534 2.0413 87.6603 11.6609 87.6603 23.526C87.6603 37.2078 66.204 60.9839 66.204 60.9839C66.204 60.9839 44.7476 37.167 44.7476 23.526C44.7476 11.6609 54.3545 2.0413 66.204 2.0413ZM66.204 34.6358C72.1159 34.6358 76.9118 29.8336 76.9118 23.9138C76.9118 17.9941 72.1159 13.1919 66.204 13.1919C60.292 13.1919 55.4962 17.9941 55.4962 23.9138C55.4962 29.8336 60.292 34.6358 66.204 34.6358ZM66.204 0C53.2486 0 42.709 10.5535 42.709 23.526C42.709 37.7896 63.7933 61.3513 64.6903 62.3515L66.204 64.0305L67.7176 62.3515C68.6146 61.3564 89.6989 37.8253 89.6989 23.526C89.6989 10.5535 79.1593 0 66.204 0V0ZM66.204 34.6358C61.4234 34.6358 57.5348 30.742 57.5348 25.9551C57.5348 21.1683 61.4234 17.2745 66.204 17.2745C70.9845 17.2745 74.8732 21.1683 74.8732 25.9551C74.8732 30.742 70.9845 34.6358 66.204 34.6358Z" fill="#2E5799"/>
<path d="M66.2039 34.6358C72.1176 34.6358 76.9117 29.8354 76.9117 23.9138C76.9117 17.9923 72.1176 13.1919 66.2039 13.1919C60.2901 13.1919 55.4961 17.9923 55.4961 23.9138C55.4961 29.8354 60.2901 34.6358 66.2039 34.6358Z" fill="#2E5799"/>
<defs>
<filter id="filter0_d_63_33806" x="6.50781" y="11.5914" width="119.926" height="120.058" filterUnits="userSpaceOnUse" color-interpolation-filters="sRGB">
<feFlood flood-opacity="0" result="BackgroundImageFix"/>
<feColorMatrix in="SourceAlpha" type="matrix" values="0 0 0 0 0 0 0 0 0 0 0 0 0 0 0 0 0 0 127 0" result="hardAlpha"/>
<feOffset dy="5"/>
<feGaussianBlur stdDeviation="5"/>
<feColorMatrix type="matrix" values="0 0 0 0 0.0980392 0 0 0 0 0.227451 0 0 0 0 0.368627 0 0 0 0.3 0"/>
<feBlend mode="normal" in2="BackgroundImageFix" result="effect1_dropShadow_63_33806"/>
<feBlend mode="normal" in="SourceGraphic" in2="effect1_dropShadow_63_33806" result="shape"/>
</filter>
<linearGradient id="paint0_linear_63_33806" x1="66.2042" y1="1.02063" x2="66.2042" y2="62.5046" gradientUnits="userSpaceOnUse">
<stop stop-color="#FCEE21"/>
<stop offset="1" stop-color="#F7931E"/>
</linearGradient>
</defs>
</svg>
