<svg width="145" height="40" viewBox="0 0 145 40" fill="none" xmlns="http://www.w3.org/2000/svg">
<path d="M48.8818 10.3456C49.705 9.79431 50.6734 9.5 51.6641 9.5H139.856C142.617 9.5 144.856 11.7386 144.856 14.5V19.8027L126.802 38.4737C125.86 39.448 124.563 39.9981 123.208 39.9981H57.6981C56.9105 39.9981 56.1341 39.8121 55.432 39.4552L27 25L48.8818 10.3456Z" fill="#2B5BA3"/>
<path d="M122.376 35.1222L122.766 36.8632L138.778 20.4979L136.826 20.4979L122.376 35.1222Z" fill="#C7D6FD"/>
<path d="M57.2111 2.35376L19.7503 26.8671L8.00003 26.8671L43.8422 2.35376L57.2111 2.35376Z" fill="#001528"/>
<path d="M50.8064 39.3536L28.2944 27.5105L8.16984 27.5105L29.0633 39.3536L50.8064 39.3536Z" fill="#001528"/>
<path d="M55.2759 2.83007L23.9339 23.8861C23.769 23.9969 23.5749 24.056 23.3763 24.056L15.0844 24.056C14.1084 24.056 13.7105 22.8011 14.5082 22.2387L44.372 1.18272C44.5407 1.06383 44.7419 1 44.9483 1L54.7183 1C55.7058 1 56.0957 2.27935 55.2759 2.83007Z" stroke="#0B397D" stroke-width="2"/>
</svg>
