<svg width="184" height="28" viewBox="0 0 184 28" fill="none" xmlns="http://www.w3.org/2000/svg">
<path d="M1.77862 4.62071C1.97693 2.01394 4.14991 0 6.76421 0H178.752C181.662 0 183.958 2.47679 183.737 5.37927L182.368 23.3793C182.17 25.986 179.997 28 177.382 28H174.724C174.113 28 173.507 27.888 172.936 27.6695L166.446 25.1848C165.875 24.9663 165.27 24.8543 164.658 24.8543H17.0405C16.4177 24.8543 15.8005 24.9706 15.2204 25.1973L8.92675 27.657C8.34673 27.8837 7.72947 28 7.10672 28H5.39483C2.48395 28 0.188426 25.5232 0.409238 22.6207L1.77862 4.62071Z" fill="url(#paint0_linear_266_11200)"/>
<defs>
<linearGradient id="paint0_linear_266_11200" x1="128.896" y1="0" x2="128.896" y2="28" gradientUnits="userSpaceOnUse">
<stop stop-color="#2961B5"/>
<stop offset="1" stop-color="#154CA0"/>
</linearGradient>
</defs>
</svg>
