<svg width="248" height="58" viewBox="0 0 248 58" fill="none" xmlns="http://www.w3.org/2000/svg">
<path d="M11.7824 1.3909H243.621C245.867 1.3909 247.591 3.3829 247.268 5.60558L240.218 54.1525C239.955 55.9642 238.401 57.308 236.571 57.308H230.247C229.671 57.308 229.104 57.1733 228.59 56.9146L219.487 52.3333C218.859 52.0172 218.166 51.8525 217.463 51.8525H22.2268C21.5109 51.8525 20.8052 52.0232 20.1685 52.3503L11.312 56.9007C10.791 57.1684 10.2136 57.308 9.6279 57.308H4.73211C2.48611 57.308 0.762501 55.316 1.08529 53.0933L8.13554 4.54636C8.39864 2.73474 9.95173 1.3909 11.7824 1.3909Z" fill="url(#paint0_linear_266_11185)" stroke="white" stroke-width="0.818906"/>
<defs>
<linearGradient id="paint0_linear_266_11185" x1="30.6107" y1="0.981445" x2="30.6107" y2="57.7175" gradientUnits="userSpaceOnUse">
<stop stop-color="#124695"/>
<stop offset="1" stop-color="#073273"/>
</linearGradient>
</defs>
</svg>
