<svg width="302" height="31" viewBox="0 0 302 31" fill="none" xmlns="http://www.w3.org/2000/svg">
<path d="M2.9845 4.42923C3.27452 1.90525 5.41122 0 7.95181 0H296.393C299.38 0 301.701 2.60274 301.36 5.57075L299.016 25.9734C298.726 28.4974 296.589 30.4026 294.048 30.4026H285.655C285.241 30.4026 284.828 30.3512 284.427 30.2494L272.16 27.1403C271.759 27.0385 271.346 26.987 270.932 26.987H27.0373C26.6147 26.987 26.1939 27.0406 25.7848 27.1464L13.8166 30.2432C13.4075 30.3491 12.9866 30.4026 12.5641 30.4026H5.60744C2.61988 30.4026 0.299071 27.7999 0.640115 24.8319L2.9845 4.42923Z" fill="url(#paint0_linear_266_12119)"/>
<defs>
<linearGradient id="paint0_linear_266_12119" x1="211.389" y1="0" x2="211.389" y2="30.4026" gradientUnits="userSpaceOnUse">
<stop stop-color="#2961B5"/>
<stop offset="1" stop-color="#154CA0"/>
</linearGradient>
</defs>
</svg>
