<svg width="160" height="33" viewBox="0 0 160 33" fill="none" xmlns="http://www.w3.org/2000/svg">
<path d="M12.1093 29.6715C12.9626 31.3473 14.6842 32.4026 16.5648 32.4026H154.299C158.015 32.4026 160.432 28.4942 158.773 25.17L149.41 6.40772C148.564 4.71191 146.832 3.64034 144.936 3.64034H58.0786C57.1913 3.64034 56.32 3.40423 55.5541 2.95624L51.6697 0.684107C50.9038 0.236115 50.0325 0 49.1452 0H5.15703C1.42405 0 -0.992484 3.94235 0.701443 7.26887L12.1093 29.6715Z" fill="url(#paint0_linear_771_4688)"/>
<path d="M12.1093 29.6715C12.9626 31.3473 14.6842 32.4026 16.5648 32.4026H154.299C158.015 32.4026 160.432 28.4942 158.773 25.17L149.41 6.40772C148.564 4.71191 146.832 3.64034 144.936 3.64034H58.0786C57.1913 3.64034 56.32 3.40423 55.5541 2.95624L51.6697 0.684107C50.9038 0.236115 50.0325 0 49.1452 0H5.15703C1.42405 0 -0.992484 3.94235 0.701443 7.26887L12.1093 29.6715Z" fill="url(#paint1_linear_771_4688)"/>
<defs>
<linearGradient id="paint0_linear_771_4688" x1="119.663" y1="32.4026" x2="74" y2="32.4026" gradientUnits="userSpaceOnUse">
<stop stop-color="#255DB1"/>
<stop offset="1" stop-color="#164DA1"/>
</linearGradient>
<linearGradient id="paint1_linear_771_4688" x1="162.5" y1="32.4026" x2="9.99999" y2="32.4026" gradientUnits="userSpaceOnUse">
<stop stop-color="#203B63"/>
<stop offset="1" stop-color="#112A4F"/>
</linearGradient>
</defs>
</svg>
