<svg width="221" height="48" viewBox="0 0 221 48" fill="none" xmlns="http://www.w3.org/2000/svg">
<path d="M7.20579 3.53808C7.48066 1.73861 9.02827 0.409453 10.8486 0.409453H216.233C218.489 0.409453 220.216 2.41991 219.875 4.65096L213.794 44.4619C213.519 46.2614 211.972 47.5905 210.151 47.5905H204.952C204.401 47.5905 203.858 47.4672 203.361 47.2296L195.392 43.4162C194.785 43.1258 194.121 42.9751 193.448 42.9751H19.8441C19.159 42.9751 18.4829 43.1314 17.8673 43.4321L10.1196 47.2166C9.6159 47.4627 9.06272 47.5905 8.50216 47.5905H4.76746C2.51053 47.5905 0.783845 45.5801 1.12464 43.349L7.20579 3.53808Z" fill="url(#paint0_linear_266_12141)" stroke="white" stroke-width="0.818906"/>
<defs>
<linearGradient id="paint0_linear_266_12141" x1="27.2393" y1="0" x2="27.2393" y2="48" gradientUnits="userSpaceOnUse">
<stop stop-color="#124695"/>
<stop offset="1" stop-color="#073273"/>
</linearGradient>
</defs>
</svg>
