<svg width="362" height="373" viewBox="0 0 362 373" fill="none" xmlns="http://www.w3.org/2000/svg">
<path d="M291.832 4.99158H95.4967L0 372.495H269.25L349.747 62.6465L291.832 4.99158Z" fill="#698CB5"/>
<path opacity="0.9" d="M291.885 4.99162L104.828 4.95605L11.3352 364.592H271.277L349.801 62.4212L291.885 4.99162Z" fill="url(#paint0_linear_1929_208929)"/>
<path d="M6.69261 368.262L76.501 100.003H74.6039L4.43384 369.673H169.01L169.377 368.262H6.69261Z" fill="white"/>
<mask id="mask0_1929_208929" style="mask-type:alpha" maskUnits="userSpaceOnUse" x="11" y="4" width="339" height="361">
<path opacity="0.9" d="M291.885 4.99175L104.828 4.95618L11.335 364.592H271.277L349.8 62.4214L291.885 4.99175Z" fill="url(#paint1_linear_1929_208929)"/>
</mask>
<g mask="url(#mask0_1929_208929)">
<g opacity="0.45">
<g style="mix-blend-mode:multiply">
<g style="mix-blend-mode:multiply" opacity="0.65">
<g style="mix-blend-mode:multiply">
<path d="M256.225 -57.2697C305.977 -57.0385 348.752 -27.0935 367.818 15.6512L438.456 15.9832C416.704 -64.206 343.505 -123.497 256.516 -123.918C169.526 -124.339 95.7755 -65.7238 73.3242 14.2165L143.957 14.5485C163.402 -27.965 206.455 -57.5187 256.225 -57.2697ZM255.039 188.242C205.311 188.005 162.519 158.066 143.447 115.322L72.8262 115.001C94.5542 195.179 167.748 254.47 254.737 254.879C341.726 255.288 415.477 196.685 437.928 116.744L367.296 116.418C347.856 158.938 304.78 188.474 255.039 188.242Z" fill="#22C2D3"/>
</g>
</g>
<g style="mix-blend-mode:multiply">
<path d="M162.139 34.4565L73.2114 34.0356V33.0871L161.843 33.502C164.125 28.8363 195.268 -32.3461 256.106 -32.0615V-31.107C193.809 -31.4034 162.898 33.5139 162.596 34.1779L162.465 34.4565H162.139Z" fill="#0AA7C1"/>
<path d="M438.337 35.749L349.101 35.334L348.977 35.0553C348.674 34.3735 318.374 -30.8402 256.083 -31.107V-32.0615C316.903 -31.7769 347.471 29.6959 349.712 34.3735L438.343 34.7945L438.337 35.749Z" fill="#0AA7C1"/>
<path d="M255.163 164.042C194.348 163.758 163.775 102.285 161.54 97.5952L72.9085 97.1803V96.2317L162.145 96.6467L162.269 96.9253C162.566 97.5834 192.872 162.797 255.163 163.088V164.042Z" fill="#0AA7C1"/>
<path d="M255.163 164.042V163.088C317.472 163.384 348.371 98.4669 348.674 97.8029L348.804 97.5243L438.04 97.9452V98.8937L349.409 98.4788C347.127 103.145 315.984 164.327 255.163 164.042Z" fill="#0AA7C1"/>
<path d="M73.2078 33.0879L73.1734 40.3858L141.161 40.7062L141.195 33.4083L73.2078 33.0879Z" fill="#0AA7C1"/>
<path d="M370.096 91.2812L370.062 98.5792L438.049 98.8995L438.084 91.6016L370.096 91.2812Z" fill="#0AA7C1"/>
<path d="M154.1 279.376C71.0475 240.058 17.6552 155.315 18.088 63.4233C18.5208 -28.4688 72.7075 -112.654 156.14 -151.189L166.514 -128.72C91.7736 -94.2102 43.2249 -18.7282 42.8396 63.5656C42.4542 145.859 90.2678 221.78 164.694 257.007L154.1 279.376Z" fill="#0AA7C1"/>
<path d="M356.358 280.325L345.977 257.879C420.718 223.357 469.29 147.876 469.646 65.5935C470.002 -16.6884 422.224 -92.6566 347.779 -127.884L358.368 -150.252C441.432 -110.934 494.824 -26.1741 494.398 65.6824C493.971 157.539 439.784 241.789 356.358 280.325Z" fill="#0AA7C1"/>
<path d="M254.286 350.631C96.5459 349.896 -31.1841 220.956 -30.4431 63.2159C-29.702 -94.5243 99.2315 -222.254 256.972 -221.513C414.712 -220.772 542.448 -91.8387 541.707 65.9016C540.966 223.642 412.032 351.372 254.286 350.631ZM256.966 -219.61C100.305 -220.345 -27.8049 -93.469 -28.54 63.2278C-29.2752 219.925 97.6071 347.993 254.298 348.728C410.989 349.463 539.069 222.587 539.804 65.8897C540.539 -90.8071 413.657 -218.875 256.966 -219.61Z" fill="#0AA7C1"/>
<path d="M403.436 -175.514C405.583 -175.514 407.325 -177.255 407.325 -179.403C407.325 -181.551 405.583 -183.292 403.436 -183.292C401.288 -183.292 399.546 -181.551 399.546 -179.403C399.546 -177.255 401.288 -175.514 403.436 -175.514Z" fill="#0AA7C1"/>
<path d="M501.736 -76.0449C503.884 -76.0449 505.625 -77.7861 505.625 -79.934C505.625 -82.0819 503.884 -83.8232 501.736 -83.8232C499.588 -83.8232 497.847 -82.0819 497.847 -79.934C497.847 -77.7861 499.588 -76.0449 501.736 -76.0449Z" fill="#0AA7C1"/>
<path d="M401.172 306.013C403.32 306.013 405.061 304.272 405.061 302.124C405.061 299.976 403.32 298.235 401.172 298.235C399.024 298.235 397.283 299.976 397.283 302.124C397.283 304.272 399.024 306.013 401.172 306.013Z" fill="#0AA7C1"/>
<path d="M500.403 207.475C502.551 207.475 504.292 205.734 504.292 203.586C504.292 201.438 502.551 199.697 500.403 199.697C498.255 199.697 496.514 201.438 496.514 203.586C496.514 205.734 498.255 207.475 500.403 207.475Z" fill="#0AA7C1"/>
<path d="M541.725 65.9075C543.873 65.9075 545.614 64.1663 545.614 62.0184C545.614 59.8705 543.873 58.1293 541.725 58.1293C539.577 58.1293 537.836 59.8705 537.836 62.0184C537.836 64.1663 539.577 65.9075 541.725 65.9075Z" fill="#0AA7C1"/>
<path d="M36.1698 -100.447L20.1153 -110.685C20.8149 -111.776 37.5333 -137.684 72.1677 -165.18C104.022 -190.472 157.77 -221.94 232.961 -228.26L234.556 -209.289C99.8421 -197.965 36.7923 -101.39 36.1698 -100.447Z" fill="#62DBE8"/>
<path d="M256.113 151.35C208.091 151.124 169.248 111.889 169.473 63.8861C169.698 15.8828 208.927 -22.9787 256.931 -22.7534C304.934 -22.5281 343.801 16.7069 343.576 64.7042C343.351 112.702 304.116 151.575 256.113 151.35Z" fill="#62DBE8"/>
</g>
</g>
</g>
</g>
<path d="M319.743 0H124.979L124.107 3.3437H296.526L352.681 59.1963L283.407 326.531H286.94L361.005 40.729L319.743 0Z" fill="white"/>
<defs>
<linearGradient id="paint0_linear_1929_208929" x1="11.3352" y1="184.774" x2="349.801" y2="184.774" gradientUnits="userSpaceOnUse">
<stop stop-color="#94F3FF"/>
<stop offset="0.27" stop-color="#BAF7FF"/>
<stop offset="0.59" stop-color="#DFFBFF"/>
<stop offset="0.84" stop-color="#F6FEFF"/>
<stop offset="1" stop-color="white"/>
</linearGradient>
<linearGradient id="paint1_linear_1929_208929" x1="11.335" y1="184.774" x2="349.8" y2="184.774" gradientUnits="userSpaceOnUse">
<stop stop-color="#94F3FF"/>
<stop offset="0.27" stop-color="#BAF7FF"/>
<stop offset="0.59" stop-color="#DFFBFF"/>
<stop offset="0.84" stop-color="#F6FEFF"/>
<stop offset="1" stop-color="white"/>
</linearGradient>
</defs>
</svg>
