<svg width="44" height="30" viewBox="0 0 44 30" fill="none" xmlns="http://www.w3.org/2000/svg">
<path d="M33.414 12.4891H8.32851C7.30426 12.4891 6.47394 13.3195 6.47394 14.3437V17.0117C6.47394 18.0359 7.30426 18.8663 8.32851 18.8663H33.414C34.4383 18.8663 35.2686 18.0359 35.2686 17.0117V14.3437C35.2686 13.3195 34.4383 12.4891 33.414 12.4891Z" fill="#53BDF2"/>
<path d="M26.9401 23.259H1.85457C0.83032 23.259 0 24.0894 0 25.1136V27.7816C0 28.8058 0.83032 29.6362 1.85457 29.6362H26.9401C27.9644 29.6362 28.7947 28.8058 28.7947 27.7816V25.1136C28.7947 24.0894 27.9644 23.259 26.9401 23.259Z" fill="#53BDF2"/>
<path d="M41.5923 2.01261C41.6806 2.00971 41.7687 2.02425 41.8513 2.0554C41.934 2.08654 42.0098 2.13368 42.0742 2.19411C42.1387 2.25454 42.1906 2.32709 42.227 2.4076C42.2634 2.48812 42.2836 2.57502 42.2864 2.66333V6.33994C42.2836 6.42826 42.2634 6.51516 42.227 6.59567C42.1906 6.67618 42.1387 6.74873 42.0742 6.80917C42.0098 6.8696 41.934 6.91674 41.8513 6.94788C41.7687 6.97902 41.6806 6.99356 41.5923 6.99067H12.3747C12.2864 6.99356 12.1983 6.97902 12.1156 6.94788C12.033 6.91674 11.9572 6.8696 11.8927 6.80917C11.8283 6.74873 11.7764 6.67618 11.74 6.59567C11.7035 6.51516 11.6834 6.42826 11.6806 6.33994V2.66333C11.6834 2.57502 11.7035 2.48812 11.74 2.4076C11.7764 2.32709 11.8283 2.25454 11.8927 2.19411C11.9572 2.13368 12.033 2.08654 12.1156 2.0554C12.1983 2.02425 12.2864 2.00971 12.3747 2.01261H41.5923ZM41.8309 0.342407H12.1361C11.5608 0.342407 11.0091 0.570936 10.6023 0.977719C10.1955 1.3845 9.96698 1.93622 9.96698 2.5115V6.45924C9.96698 7.03452 10.1955 7.58624 10.6023 7.99302C11.0091 8.3998 11.5608 8.62833 12.1361 8.62833H41.8309C42.4062 8.62833 42.9579 8.3998 43.3647 7.99302C43.7715 7.58624 44 7.03452 44 6.45924V2.5115C44 1.93622 43.7715 1.3845 43.3647 0.977719C42.9579 0.570936 42.4062 0.342407 41.8309 0.342407V0.342407Z" fill="#53BDF2"/>
</svg>
