<svg width="322" height="73" viewBox="0 0 322 73" fill="none" xmlns="http://www.w3.org/2000/svg">
<path d="M321.984 34.6758L290.397 0.723145H224.193L220.82 4.34546H31.5872L0 38.2981L31.5872 72.2508H286.976L321.984 34.6758Z" fill="url(#paint0_linear_1401_207768)"/>
<path d="M282.819 0.723145H216.61L185.022 34.6758L216.61 68.6285H282.819L314.407 34.6758L282.819 0.723145Z" fill="#A2CFF4"/>
<path d="M268.709 0.723145H197.371L165.778 34.6758L197.371 68.6285H268.709L300.297 34.6758L268.709 0.723145Z" fill="#D2F0FF"/>
<path d="M261.607 0.723145H34.9652L3.37207 34.6758L34.9652 68.6285H261.607L293.194 34.6758L261.607 0.723145Z" fill="#2E5799"/>
<path d="M49.6946 55.8747C49.46 55.8747 49.2786 55.8107 49.1506 55.6827C49.0226 55.544 48.9586 55.352 48.9586 55.1067V45.2347C48.9586 44.9894 49.0226 44.8027 49.1506 44.6747C49.2893 44.5467 49.476 44.4827 49.7106 44.4827H53.5186C54.7346 44.4827 55.668 44.7814 56.3186 45.3787C56.98 45.976 57.3106 46.8134 57.3106 47.8907C57.3106 48.9787 56.98 49.8214 56.3186 50.4187C55.668 51.016 54.7346 51.3147 53.5186 51.3147H50.4466V55.1067C50.4466 55.352 50.3826 55.544 50.2546 55.6827C50.1373 55.8107 49.9506 55.8747 49.6946 55.8747ZM50.4466 50.1147H53.3266C54.1586 50.1147 54.7826 49.928 55.1986 49.5547C55.6253 49.1707 55.8386 48.616 55.8386 47.8907C55.8386 47.1654 55.6253 46.6214 55.1986 46.2587C54.7826 45.8854 54.1586 45.6987 53.3266 45.6987H50.4466V50.1147ZM62.1791 55.9067C61.3365 55.9067 60.6111 55.7467 60.0031 55.4267C59.4058 55.096 58.9418 54.632 58.6111 54.0347C58.2805 53.4267 58.1151 52.712 58.1151 51.8907C58.1151 51.08 58.2751 50.3707 58.5951 49.7627C58.9258 49.1547 59.3738 48.68 59.9391 48.3387C60.5151 47.9974 61.1711 47.8267 61.9071 47.8267C62.4298 47.8267 62.8991 47.9174 63.3151 48.0987C63.7418 48.2694 64.1045 48.52 64.4031 48.8507C64.7018 49.1814 64.9258 49.5867 65.0751 50.0667C65.2351 50.536 65.3151 51.0694 65.3151 51.6667C65.3151 51.8374 65.2618 51.9707 65.1551 52.0667C65.0591 52.152 64.9151 52.1947 64.7231 52.1947H59.2511V51.2667H64.3551L64.0831 51.4907C64.0831 50.936 63.9978 50.4667 63.8271 50.0827C63.6671 49.688 63.4271 49.3894 63.1071 49.1867C62.7978 48.984 62.4085 48.8827 61.9391 48.8827C61.4271 48.8827 60.9898 49.0054 60.6271 49.2507C60.2645 49.4854 59.9871 49.8214 59.7951 50.2587C59.6031 50.6854 59.5071 51.1814 59.5071 51.7467V51.8427C59.5071 52.8027 59.7365 53.528 60.1951 54.0187C60.6538 54.5094 61.3151 54.7547 62.1791 54.7547C62.5205 54.7547 62.8671 54.712 63.2191 54.6267C63.5818 54.5414 63.9285 54.3867 64.2591 54.1627C64.4191 54.0667 64.5631 54.024 64.6911 54.0347C64.8298 54.0347 64.9418 54.0774 65.0271 54.1627C65.1125 54.2374 65.1658 54.3334 65.1871 54.4507C65.2085 54.5574 65.1925 54.6747 65.1391 54.8027C65.0858 54.9307 64.9845 55.0427 64.8351 55.1387C64.4831 55.384 64.0618 55.576 63.5711 55.7147C63.0911 55.8427 62.6271 55.9067 62.1791 55.9067ZM70.3424 55.9067C69.713 55.9067 69.185 55.7947 68.7584 55.5707C68.3424 55.3467 68.0277 55.0214 67.8144 54.5947C67.6117 54.168 67.5104 53.6454 67.5104 53.0267V49.0907H66.4864C66.2944 49.0907 66.145 49.0427 66.0384 48.9467C65.9317 48.84 65.8784 48.7014 65.8784 48.5307C65.8784 48.3494 65.9317 48.2107 66.0384 48.1147C66.145 48.0187 66.2944 47.9707 66.4864 47.9707H67.5104V46.2267C67.5104 45.9814 67.5744 45.8 67.7024 45.6827C67.8304 45.5547 68.0117 45.4907 68.2464 45.4907C68.481 45.4907 68.657 45.5547 68.7744 45.6827C68.9024 45.8 68.9664 45.9814 68.9664 46.2267V47.9707H70.9024C71.105 47.9707 71.2597 48.0187 71.3664 48.1147C71.473 48.2107 71.5264 48.3494 71.5264 48.5307C71.5264 48.7014 71.473 48.84 71.3664 48.9467C71.2597 49.0427 71.105 49.0907 70.9024 49.0907H68.9664V52.8987C68.9664 53.4854 69.089 53.928 69.3344 54.2267C69.5797 54.5254 69.985 54.6747 70.5504 54.6747C70.753 54.6747 70.9237 54.6587 71.0624 54.6267C71.201 54.584 71.3237 54.5627 71.4304 54.5627C71.5264 54.552 71.6064 54.584 71.6704 54.6587C71.745 54.7334 71.7824 54.872 71.7824 55.0747C71.7824 55.224 71.7557 55.3627 71.7024 55.4907C71.6597 55.608 71.569 55.688 71.4304 55.7307C71.3024 55.7734 71.1317 55.8107 70.9184 55.8427C70.705 55.8854 70.513 55.9067 70.3424 55.9067ZM73.5968 55.8747C73.3514 55.8747 73.1648 55.8107 73.0368 55.6827C72.9088 55.5547 72.8448 55.368 72.8448 55.1227V48.5947C72.8448 48.3494 72.9088 48.168 73.0368 48.0507C73.1648 47.9227 73.3408 47.8587 73.5648 47.8587C73.7888 47.8587 73.9594 47.9227 74.0768 48.0507C74.2048 48.168 74.2688 48.3494 74.2688 48.5947V49.8267H74.1088C74.2794 49.1867 74.5994 48.7014 75.0688 48.3707C75.5381 48.04 76.1301 47.8534 76.8448 47.8107C77.0154 47.8 77.1541 47.8427 77.2608 47.9387C77.3674 48.024 77.4261 48.1734 77.4368 48.3867C77.4474 48.5894 77.3994 48.7547 77.2928 48.8827C77.1861 49 77.0208 49.0694 76.7968 49.0907L76.5088 49.1067C75.8048 49.1814 75.2608 49.4107 74.8768 49.7947C74.5034 50.1787 74.3168 50.7067 74.3168 51.3787V55.1227C74.3168 55.368 74.2528 55.5547 74.1248 55.6827C74.0074 55.8107 73.8314 55.8747 73.5968 55.8747ZM81.0904 55.9067C80.557 55.9067 80.0717 55.8 79.6344 55.5867C79.2077 55.3734 78.8717 55.0854 78.6264 54.7227C78.3917 54.36 78.2744 53.9547 78.2744 53.5067C78.2744 52.9307 78.4184 52.4774 78.7064 52.1467C78.9944 51.816 79.4797 51.5814 80.1624 51.4427C80.845 51.2934 81.7624 51.2187 82.9144 51.2187H83.6664V52.1467H82.9464C82.125 52.1467 81.4744 52.184 80.9944 52.2587C80.525 52.3334 80.1944 52.4667 80.0024 52.6587C79.8104 52.84 79.7144 53.096 79.7144 53.4267C79.7144 53.8427 79.8584 54.184 80.1464 54.4507C80.445 54.7174 80.8504 54.8507 81.3624 54.8507C81.7677 54.8507 82.125 54.7547 82.4344 54.5627C82.7437 54.36 82.989 54.0934 83.1704 53.7627C83.3517 53.4214 83.4424 53.032 83.4424 52.5947V50.7547C83.4424 50.1254 83.3144 49.672 83.0584 49.3947C82.8024 49.1067 82.3704 48.9627 81.7624 48.9627C81.4104 48.9627 81.0477 49.0107 80.6744 49.1067C80.301 49.2027 79.9117 49.352 79.5064 49.5547C79.3464 49.6294 79.2077 49.656 79.0904 49.6347C78.973 49.6027 78.877 49.5387 78.8024 49.4427C78.7384 49.336 78.701 49.224 78.6904 49.1067C78.6904 48.9787 78.717 48.856 78.7704 48.7387C78.8344 48.6214 78.941 48.536 79.0904 48.4827C79.5597 48.248 80.0237 48.0827 80.4824 47.9867C80.9517 47.88 81.389 47.8267 81.7944 47.8267C82.4877 47.8267 83.0584 47.9387 83.5064 48.1627C83.9544 48.376 84.2904 48.712 84.5144 49.1707C84.7384 49.6187 84.8504 50.1947 84.8504 50.8987V55.1227C84.8504 55.368 84.7917 55.5547 84.6744 55.6827C84.557 55.8107 84.3864 55.8747 84.1624 55.8747C83.949 55.8747 83.7784 55.8107 83.6504 55.6827C83.533 55.5547 83.4744 55.368 83.4744 55.1227V53.9867H83.6184C83.533 54.3814 83.373 54.7227 83.1384 55.0107C82.9037 55.2987 82.6104 55.5227 82.2584 55.6827C81.917 55.832 81.5277 55.9067 81.0904 55.9067ZM92.3055 55.7627C92.0495 55.7627 91.8522 55.6934 91.7135 55.5547C91.5748 55.416 91.5055 55.2187 91.5055 54.9627V45.2827C91.5055 45.0267 91.5748 44.8294 91.7135 44.6907C91.8522 44.552 92.0495 44.4827 92.3055 44.4827H95.3935C97.2388 44.4827 98.6575 44.968 99.6495 45.9387C100.652 46.8987 101.154 48.2907 101.154 50.1147C101.154 51.0214 101.026 51.8267 100.77 52.5307C100.514 53.2347 100.14 53.8267 99.6495 54.3067C99.1588 54.776 98.5562 55.1387 97.8415 55.3947C97.1375 55.64 96.3215 55.7627 95.3935 55.7627H92.3055ZM92.9935 54.4987H95.2975C96.0228 54.4987 96.6522 54.408 97.1855 54.2267C97.7188 54.0454 98.1615 53.7734 98.5135 53.4107C98.8762 53.048 99.1482 52.5947 99.3295 52.0507C99.5108 51.496 99.6015 50.8507 99.6015 50.1147C99.6015 48.6534 99.2388 47.56 98.5135 46.8347C97.7988 46.1094 96.7268 45.7467 95.2975 45.7467H92.9935V54.4987ZM103.987 55.8427C103.763 55.8427 103.587 55.7734 103.459 55.6347C103.331 55.496 103.267 55.304 103.267 55.0587V48.6747C103.267 48.4187 103.331 48.2267 103.459 48.0987C103.587 47.96 103.763 47.8907 103.987 47.8907C104.221 47.8907 104.403 47.96 104.531 48.0987C104.659 48.2267 104.723 48.4187 104.723 48.6747V55.0587C104.723 55.304 104.659 55.496 104.531 55.6347C104.413 55.7734 104.232 55.8427 103.987 55.8427ZM103.987 46.1627C103.699 46.1627 103.469 46.088 103.299 45.9387C103.139 45.7787 103.059 45.5707 103.059 45.3147C103.059 45.0374 103.139 44.8294 103.299 44.6907C103.469 44.5414 103.699 44.4667 103.987 44.4667C104.296 44.4667 104.525 44.5414 104.675 44.6907C104.835 44.8294 104.915 45.0374 104.915 45.3147C104.915 45.5707 104.835 45.7787 104.675 45.9387C104.525 46.088 104.296 46.1627 103.987 46.1627ZM110.568 58.7867C109.992 58.7867 109.432 58.7227 108.888 58.5947C108.354 58.4667 107.869 58.2694 107.432 58.0027C107.293 57.9174 107.197 57.816 107.144 57.6987C107.101 57.592 107.09 57.48 107.112 57.3627C107.144 57.2454 107.197 57.1387 107.272 57.0427C107.357 56.9574 107.453 56.8987 107.56 56.8667C107.677 56.8454 107.794 56.872 107.912 56.9467C108.381 57.2134 108.829 57.3947 109.256 57.4907C109.682 57.5867 110.088 57.6347 110.472 57.6347C111.229 57.6347 111.794 57.4374 112.168 57.0427C112.552 56.6587 112.744 56.0934 112.744 55.3467V53.6187H112.888C112.738 54.216 112.402 54.6907 111.88 55.0427C111.368 55.3947 110.77 55.5707 110.088 55.5707C109.384 55.5707 108.77 55.4107 108.248 55.0907C107.725 54.76 107.32 54.3067 107.032 53.7307C106.744 53.144 106.6 52.4667 106.6 51.6987C106.6 51.112 106.68 50.584 106.84 50.1147C107.01 49.6347 107.245 49.2294 107.544 48.8987C107.853 48.5574 108.221 48.296 108.648 48.1147C109.074 47.9227 109.554 47.8267 110.088 47.8267C110.781 47.8267 111.384 48.0027 111.896 48.3547C112.408 48.7067 112.738 49.1814 112.888 49.7787L112.712 50.0027V48.5947C112.712 48.3494 112.776 48.168 112.904 48.0507C113.032 47.9227 113.213 47.8587 113.448 47.8587C113.672 47.8587 113.848 47.9227 113.976 48.0507C114.104 48.168 114.168 48.3494 114.168 48.5947V55.1547C114.168 56.36 113.858 57.2667 113.24 57.8747C112.632 58.4827 111.741 58.7867 110.568 58.7867ZM110.408 54.4187C110.888 54.4187 111.298 54.312 111.64 54.0987C111.992 53.8747 112.258 53.56 112.44 53.1547C112.632 52.7387 112.728 52.2534 112.728 51.6987C112.728 50.856 112.52 50.1947 112.104 49.7147C111.688 49.224 111.122 48.9787 110.408 48.9787C109.928 48.9787 109.512 49.0907 109.16 49.3147C108.818 49.528 108.552 49.8374 108.36 50.2427C108.168 50.648 108.072 51.1334 108.072 51.6987C108.072 52.5307 108.28 53.192 108.696 53.6827C109.122 54.1734 109.693 54.4187 110.408 54.4187ZM117.221 55.8427C116.997 55.8427 116.821 55.7734 116.693 55.6347C116.565 55.496 116.501 55.304 116.501 55.0587V48.6747C116.501 48.4187 116.565 48.2267 116.693 48.0987C116.821 47.96 116.997 47.8907 117.221 47.8907C117.456 47.8907 117.637 47.96 117.765 48.0987C117.893 48.2267 117.957 48.4187 117.957 48.6747V55.0587C117.957 55.304 117.893 55.496 117.765 55.6347C117.648 55.7734 117.466 55.8427 117.221 55.8427ZM117.221 46.1627C116.933 46.1627 116.704 46.088 116.533 45.9387C116.373 45.7787 116.293 45.5707 116.293 45.3147C116.293 45.0374 116.373 44.8294 116.533 44.6907C116.704 44.5414 116.933 44.4667 117.221 44.4667C117.53 44.4667 117.76 44.5414 117.909 44.6907C118.069 44.8294 118.149 45.0374 118.149 45.3147C118.149 45.5707 118.069 45.7787 117.909 45.9387C117.76 46.088 117.53 46.1627 117.221 46.1627ZM123.53 55.9067C122.901 55.9067 122.373 55.7947 121.946 55.5707C121.53 55.3467 121.215 55.0214 121.002 54.5947C120.799 54.168 120.698 53.6454 120.698 53.0267V49.0907H119.674C119.482 49.0907 119.333 49.0427 119.226 48.9467C119.119 48.84 119.066 48.7014 119.066 48.5307C119.066 48.3494 119.119 48.2107 119.226 48.1147C119.333 48.0187 119.482 47.9707 119.674 47.9707H120.698V46.2267C120.698 45.9814 120.762 45.8 120.89 45.6827C121.018 45.5547 121.199 45.4907 121.434 45.4907C121.669 45.4907 121.845 45.5547 121.962 45.6827C122.09 45.8 122.154 45.9814 122.154 46.2267V47.9707H124.09C124.293 47.9707 124.447 48.0187 124.554 48.1147C124.661 48.2107 124.714 48.3494 124.714 48.5307C124.714 48.7014 124.661 48.84 124.554 48.9467C124.447 49.0427 124.293 49.0907 124.09 49.0907H122.154V52.8987C122.154 53.4854 122.277 53.928 122.522 54.2267C122.767 54.5254 123.173 54.6747 123.738 54.6747C123.941 54.6747 124.111 54.6587 124.25 54.6267C124.389 54.584 124.511 54.5627 124.618 54.5627C124.714 54.552 124.794 54.584 124.858 54.6587C124.933 54.7334 124.97 54.872 124.97 55.0747C124.97 55.224 124.943 55.3627 124.89 55.4907C124.847 55.608 124.757 55.688 124.618 55.7307C124.49 55.7734 124.319 55.8107 124.106 55.8427C123.893 55.8854 123.701 55.9067 123.53 55.9067ZM128.512 55.9067C127.979 55.9067 127.494 55.8 127.056 55.5867C126.63 55.3734 126.294 55.0854 126.048 54.7227C125.814 54.36 125.696 53.9547 125.696 53.5067C125.696 52.9307 125.84 52.4774 126.128 52.1467C126.416 51.816 126.902 51.5814 127.584 51.4427C128.267 51.2934 129.184 51.2187 130.336 51.2187H131.088V52.1467H130.368C129.547 52.1467 128.896 52.184 128.416 52.2587C127.947 52.3334 127.616 52.4667 127.424 52.6587C127.232 52.84 127.136 53.096 127.136 53.4267C127.136 53.8427 127.28 54.184 127.568 54.4507C127.867 54.7174 128.272 54.8507 128.784 54.8507C129.19 54.8507 129.547 54.7547 129.856 54.5627C130.166 54.36 130.411 54.0934 130.592 53.7627C130.774 53.4214 130.864 53.032 130.864 52.5947V50.7547C130.864 50.1254 130.736 49.672 130.48 49.3947C130.224 49.1067 129.792 48.9627 129.184 48.9627C128.832 48.9627 128.47 49.0107 128.096 49.1067C127.723 49.2027 127.334 49.352 126.928 49.5547C126.768 49.6294 126.63 49.656 126.512 49.6347C126.395 49.6027 126.299 49.5387 126.224 49.4427C126.16 49.336 126.123 49.224 126.112 49.1067C126.112 48.9787 126.139 48.856 126.192 48.7387C126.256 48.6214 126.363 48.536 126.512 48.4827C126.982 48.248 127.446 48.0827 127.904 47.9867C128.374 47.88 128.811 47.8267 129.216 47.8267C129.91 47.8267 130.48 47.9387 130.928 48.1627C131.376 48.376 131.712 48.712 131.936 49.1707C132.16 49.6187 132.272 50.1947 132.272 50.8987V55.1227C132.272 55.368 132.214 55.5547 132.096 55.6827C131.979 55.8107 131.808 55.8747 131.584 55.8747C131.371 55.8747 131.2 55.8107 131.072 55.6827C130.955 55.5547 130.896 55.368 130.896 55.1227V53.9867H131.04C130.955 54.3814 130.795 54.7227 130.56 55.0107C130.326 55.2987 130.032 55.5227 129.68 55.6827C129.339 55.832 128.95 55.9067 128.512 55.9067ZM137.012 55.9067C136.212 55.9067 135.604 55.672 135.188 55.2027C134.772 54.7227 134.564 54.0347 134.564 53.1387V45.1067C134.564 44.8614 134.628 44.68 134.756 44.5627C134.884 44.4347 135.06 44.3707 135.284 44.3707C135.518 44.3707 135.7 44.4347 135.828 44.5627C135.956 44.68 136.02 44.8614 136.02 45.1067V53.0267C136.02 53.5814 136.132 53.9974 136.356 54.2747C136.59 54.5414 136.921 54.6747 137.348 54.6747C137.444 54.6747 137.529 54.6747 137.604 54.6747C137.678 54.664 137.753 54.6534 137.828 54.6427C137.945 54.632 138.03 54.664 138.084 54.7387C138.137 54.8134 138.164 54.9627 138.164 55.1867C138.164 55.3894 138.116 55.5494 138.02 55.6667C137.934 55.7734 137.79 55.8427 137.588 55.8747C137.492 55.8854 137.396 55.8907 137.3 55.8907C137.204 55.9014 137.108 55.9067 137.012 55.9067ZM144.476 55.8747C144.241 55.8747 144.06 55.8107 143.932 55.6827C143.804 55.544 143.74 55.352 143.74 55.1067V45.1387C143.74 44.8827 143.804 44.6907 143.932 44.5627C144.06 44.4347 144.241 44.3707 144.476 44.3707C144.721 44.3707 144.908 44.4347 145.036 44.5627C145.164 44.6907 145.228 44.8827 145.228 45.1387V55.1067C145.228 55.352 145.164 55.544 145.036 55.6827C144.919 55.8107 144.732 55.8747 144.476 55.8747ZM148.455 55.8747C148.231 55.8747 148.055 55.8107 147.927 55.6827C147.799 55.5547 147.735 55.368 147.735 55.1227V48.5947C147.735 48.3494 147.799 48.168 147.927 48.0507C148.055 47.9227 148.231 47.8587 148.455 47.8587C148.679 47.8587 148.85 47.9227 148.967 48.0507C149.095 48.168 149.159 48.3494 149.159 48.5947V49.9067L148.983 49.6667C149.207 49.0587 149.57 48.6 150.071 48.2907C150.583 47.9814 151.165 47.8267 151.815 47.8267C152.445 47.8267 152.962 47.9387 153.367 48.1627C153.773 48.3867 154.077 48.728 154.279 49.1867C154.482 49.6454 154.583 50.2267 154.583 50.9307V55.1227C154.583 55.368 154.519 55.5547 154.391 55.6827C154.274 55.8107 154.098 55.8747 153.863 55.8747C153.629 55.8747 153.447 55.8107 153.319 55.6827C153.191 55.5547 153.127 55.368 153.127 55.1227V51.0107C153.127 50.3174 152.994 49.8107 152.727 49.4907C152.461 49.1707 152.034 49.0107 151.447 49.0107C150.765 49.0107 150.215 49.224 149.799 49.6507C149.394 50.0667 149.191 50.632 149.191 51.3467V55.1227C149.191 55.624 148.946 55.8747 148.455 55.8747ZM159.58 55.9067C159.1 55.9067 158.614 55.8534 158.124 55.7467C157.644 55.6294 157.19 55.432 156.764 55.1547C156.646 55.08 156.561 54.9894 156.508 54.8827C156.465 54.7654 156.449 54.6534 156.46 54.5467C156.481 54.4294 156.529 54.328 156.604 54.2427C156.678 54.1574 156.769 54.1094 156.876 54.0987C156.993 54.0774 157.116 54.104 157.244 54.1787C157.66 54.4134 158.06 54.5787 158.444 54.6747C158.838 54.7707 159.228 54.8187 159.612 54.8187C160.198 54.8187 160.641 54.712 160.94 54.4987C161.238 54.2854 161.388 54.0027 161.388 53.6507C161.388 53.352 161.286 53.1227 161.084 52.9627C160.892 52.792 160.588 52.664 160.172 52.5787L158.684 52.2747C158.022 52.1254 157.521 51.88 157.18 51.5387C156.849 51.1867 156.684 50.7387 156.684 50.1947C156.684 49.7147 156.812 49.2987 157.068 48.9467C157.334 48.584 157.702 48.3067 158.172 48.1147C158.641 47.9227 159.18 47.8267 159.788 47.8267C160.257 47.8267 160.7 47.8907 161.116 48.0187C161.542 48.136 161.926 48.3174 162.268 48.5627C162.396 48.6374 162.476 48.7334 162.508 48.8507C162.55 48.9574 162.556 49.0694 162.524 49.1867C162.502 49.2934 162.454 49.384 162.38 49.4587C162.305 49.5334 162.209 49.5814 162.092 49.6027C161.974 49.6134 161.846 49.5814 161.708 49.5067C161.398 49.2934 161.078 49.144 160.748 49.0587C160.428 48.9627 160.108 48.9147 159.788 48.9147C159.212 48.9147 158.774 49.0267 158.476 49.2507C158.188 49.4747 158.044 49.768 158.044 50.1307C158.044 50.408 158.129 50.6374 158.3 50.8187C158.481 51 158.764 51.1334 159.148 51.2187L160.636 51.5227C161.329 51.672 161.852 51.912 162.204 52.2427C162.556 52.5627 162.732 53 162.732 53.5547C162.732 54.28 162.444 54.856 161.868 55.2827C161.302 55.6987 160.54 55.9067 159.58 55.9067ZM167.78 55.9067C167.151 55.9067 166.623 55.7947 166.196 55.5707C165.78 55.3467 165.465 55.0214 165.252 54.5947C165.049 54.168 164.948 53.6454 164.948 53.0267V49.0907H163.924C163.732 49.0907 163.583 49.0427 163.476 48.9467C163.369 48.84 163.316 48.7014 163.316 48.5307C163.316 48.3494 163.369 48.2107 163.476 48.1147C163.583 48.0187 163.732 47.9707 163.924 47.9707H164.948V46.2267C164.948 45.9814 165.012 45.8 165.14 45.6827C165.268 45.5547 165.449 45.4907 165.684 45.4907C165.919 45.4907 166.095 45.5547 166.212 45.6827C166.34 45.8 166.404 45.9814 166.404 46.2267V47.9707H168.34C168.543 47.9707 168.697 48.0187 168.804 48.1147C168.911 48.2107 168.964 48.3494 168.964 48.5307C168.964 48.7014 168.911 48.84 168.804 48.9467C168.697 49.0427 168.543 49.0907 168.34 49.0907H166.404V52.8987C166.404 53.4854 166.527 53.928 166.772 54.2267C167.017 54.5254 167.423 54.6747 167.988 54.6747C168.191 54.6747 168.361 54.6587 168.5 54.6267C168.639 54.584 168.761 54.5627 168.868 54.5627C168.964 54.552 169.044 54.584 169.108 54.6587C169.183 54.7334 169.22 54.872 169.22 55.0747C169.22 55.224 169.193 55.3627 169.14 55.4907C169.097 55.608 169.007 55.688 168.868 55.7307C168.74 55.7734 168.569 55.8107 168.356 55.8427C168.143 55.8854 167.951 55.9067 167.78 55.9067ZM171.221 55.8267C170.943 55.8267 170.714 55.736 170.533 55.5547C170.351 55.3734 170.261 55.144 170.261 54.8667C170.261 54.5894 170.351 54.3654 170.533 54.1947C170.714 54.024 170.943 53.9387 171.221 53.9387C171.519 53.9387 171.749 54.024 171.909 54.1947C172.079 54.3654 172.165 54.5894 172.165 54.8667C172.165 55.144 172.079 55.3734 171.909 55.5547C171.749 55.736 171.519 55.8267 171.221 55.8267ZM182.311 55.9067C181.81 55.9067 181.324 55.864 180.855 55.7787C180.386 55.704 179.943 55.5867 179.527 55.4267C179.111 55.2667 178.738 55.0694 178.407 54.8347C178.268 54.7387 178.167 54.6214 178.103 54.4827C178.05 54.344 178.034 54.2107 178.055 54.0827C178.087 53.944 178.146 53.8267 178.231 53.7307C178.327 53.6347 178.439 53.576 178.567 53.5547C178.695 53.5334 178.834 53.576 178.983 53.6827C179.474 54.0134 179.986 54.2534 180.519 54.4027C181.063 54.552 181.66 54.6267 182.311 54.6267C183.25 54.6267 183.938 54.456 184.375 54.1147C184.823 53.7734 185.047 53.3254 185.047 52.7707C185.047 52.312 184.887 51.9547 184.567 51.6987C184.247 51.432 183.708 51.224 182.951 51.0747L181.255 50.7227C180.252 50.5094 179.5 50.1574 178.999 49.6667C178.508 49.176 178.263 48.52 178.263 47.6987C178.263 47.1974 178.364 46.744 178.567 46.3387C178.77 45.9227 179.058 45.5654 179.431 45.2667C179.804 44.968 180.242 44.7387 180.743 44.5787C181.255 44.4187 181.82 44.3387 182.439 44.3387C183.1 44.3387 183.719 44.4294 184.295 44.6107C184.882 44.792 185.41 45.0587 185.879 45.4107C186.007 45.5067 186.092 45.624 186.135 45.7627C186.178 45.8907 186.183 46.0187 186.151 46.1467C186.13 46.2747 186.071 46.3814 185.975 46.4667C185.89 46.552 185.778 46.6 185.639 46.6107C185.511 46.6214 185.367 46.5734 185.207 46.4667C184.78 46.168 184.343 45.9547 183.895 45.8267C183.447 45.688 182.956 45.6187 182.423 45.6187C181.879 45.6187 181.404 45.704 180.999 45.8747C180.604 46.0454 180.295 46.2854 180.071 46.5947C179.858 46.8934 179.751 47.2454 179.751 47.6507C179.751 48.1414 179.9 48.5254 180.199 48.8027C180.498 49.08 180.999 49.2934 181.703 49.4427L183.383 49.7787C184.45 50.0027 185.239 50.3494 185.751 50.8187C186.274 51.2774 186.535 51.896 186.535 52.6747C186.535 53.1654 186.434 53.608 186.231 54.0027C186.039 54.3974 185.762 54.7387 185.399 55.0267C185.036 55.304 184.594 55.5227 184.071 55.6827C183.548 55.832 182.962 55.9067 182.311 55.9067ZM191.499 55.9067C190.869 55.9067 190.341 55.7947 189.915 55.5707C189.499 55.3467 189.184 55.0214 188.971 54.5947C188.768 54.168 188.667 53.6454 188.667 53.0267V49.0907H187.643C187.451 49.0907 187.301 49.0427 187.195 48.9467C187.088 48.84 187.035 48.7014 187.035 48.5307C187.035 48.3494 187.088 48.2107 187.195 48.1147C187.301 48.0187 187.451 47.9707 187.643 47.9707H188.667V46.2267C188.667 45.9814 188.731 45.8 188.859 45.6827C188.987 45.5547 189.168 45.4907 189.403 45.4907C189.637 45.4907 189.813 45.5547 189.931 45.6827C190.059 45.8 190.123 45.9814 190.123 46.2267V47.9707H192.059C192.261 47.9707 192.416 48.0187 192.523 48.1147C192.629 48.2107 192.683 48.3494 192.683 48.5307C192.683 48.7014 192.629 48.84 192.523 48.9467C192.416 49.0427 192.261 49.0907 192.059 49.0907H190.123V52.8987C190.123 53.4854 190.245 53.928 190.491 54.2267C190.736 54.5254 191.141 54.6747 191.707 54.6747C191.909 54.6747 192.08 54.6587 192.219 54.6267C192.357 54.584 192.48 54.5627 192.587 54.5627C192.683 54.552 192.763 54.584 192.827 54.6587C192.901 54.7334 192.939 54.872 192.939 55.0747C192.939 55.224 192.912 55.3627 192.859 55.4907C192.816 55.608 192.725 55.688 192.587 55.7307C192.459 55.7734 192.288 55.8107 192.075 55.8427C191.861 55.8854 191.669 55.9067 191.499 55.9067ZM196.785 55.9067C196.156 55.9067 195.628 55.7894 195.201 55.5547C194.785 55.32 194.476 54.9734 194.273 54.5147C194.07 54.056 193.969 53.48 193.969 52.7867V48.5947C193.969 48.3494 194.028 48.168 194.145 48.0507C194.273 47.9227 194.454 47.8587 194.689 47.8587C194.924 47.8587 195.105 47.9227 195.233 48.0507C195.361 48.168 195.425 48.3494 195.425 48.5947V52.7867C195.425 53.448 195.558 53.9387 195.825 54.2587C196.092 54.568 196.513 54.7227 197.089 54.7227C197.729 54.7227 198.246 54.5094 198.641 54.0827C199.046 53.656 199.249 53.0907 199.249 52.3867V48.5947C199.249 48.3494 199.308 48.168 199.425 48.0507C199.553 47.9227 199.734 47.8587 199.969 47.8587C200.204 47.8587 200.385 47.9227 200.513 48.0507C200.641 48.168 200.705 48.3494 200.705 48.5947V55.1227C200.705 55.624 200.47 55.8747 200.001 55.8747C199.766 55.8747 199.585 55.8107 199.457 55.6827C199.34 55.5547 199.281 55.368 199.281 55.1227V53.7307L199.489 54.0027C199.276 54.6214 198.929 55.096 198.449 55.4267C197.98 55.7467 197.425 55.9067 196.785 55.9067ZM206.024 55.9067C205.341 55.9067 204.739 55.7467 204.216 55.4267C203.704 55.096 203.304 54.6267 203.016 54.0187C202.728 53.4 202.584 52.68 202.584 51.8587C202.584 51.0267 202.723 50.312 203 49.7147C203.288 49.1067 203.688 48.6427 204.2 48.3227C204.723 47.992 205.331 47.8267 206.024 47.8267C206.717 47.8267 207.315 48.0027 207.816 48.3547C208.317 48.696 208.653 49.1547 208.824 49.7307H208.648V45.1067C208.648 44.8614 208.707 44.68 208.824 44.5627C208.952 44.4347 209.133 44.3707 209.368 44.3707C209.603 44.3707 209.784 44.4347 209.912 44.5627C210.04 44.68 210.104 44.8614 210.104 45.1067V55.1227C210.104 55.368 210.04 55.5547 209.912 55.6827C209.784 55.8107 209.603 55.8747 209.368 55.8747C209.144 55.8747 208.968 55.8107 208.84 55.6827C208.712 55.5547 208.648 55.368 208.648 55.1227V53.6667L208.824 53.9547C208.664 54.552 208.328 55.0267 207.816 55.3787C207.315 55.7307 206.717 55.9067 206.024 55.9067ZM206.36 54.7547C206.829 54.7547 207.235 54.6427 207.576 54.4187C207.928 54.1947 208.195 53.8694 208.376 53.4427C208.568 53.016 208.664 52.488 208.664 51.8587C208.664 50.92 208.456 50.2054 208.04 49.7147C207.624 49.224 207.064 48.9787 206.36 48.9787C205.901 48.9787 205.496 49.0907 205.144 49.3147C204.803 49.528 204.536 49.848 204.344 50.2747C204.152 50.7014 204.056 51.2294 204.056 51.8587C204.056 52.7974 204.264 53.5174 204.68 54.0187C205.107 54.5094 205.667 54.7547 206.36 54.7547ZM216.039 55.9067C215.196 55.9067 214.471 55.7467 213.863 55.4267C213.265 55.096 212.801 54.632 212.471 54.0347C212.14 53.4267 211.975 52.712 211.975 51.8907C211.975 51.08 212.135 50.3707 212.455 49.7627C212.785 49.1547 213.233 48.68 213.799 48.3387C214.375 47.9974 215.031 47.8267 215.767 47.8267C216.289 47.8267 216.759 47.9174 217.175 48.0987C217.601 48.2694 217.964 48.52 218.263 48.8507C218.561 49.1814 218.785 49.5867 218.935 50.0667C219.095 50.536 219.175 51.0694 219.175 51.6667C219.175 51.8374 219.121 51.9707 219.015 52.0667C218.919 52.152 218.775 52.1947 218.583 52.1947H213.111V51.2667H218.215L217.943 51.4907C217.943 50.936 217.857 50.4667 217.687 50.0827C217.527 49.688 217.287 49.3894 216.967 49.1867C216.657 48.984 216.268 48.8827 215.799 48.8827C215.287 48.8827 214.849 49.0054 214.487 49.2507C214.124 49.4854 213.847 49.8214 213.655 50.2587C213.463 50.6854 213.367 51.1814 213.367 51.7467V51.8427C213.367 52.8027 213.596 53.528 214.055 54.0187C214.513 54.5094 215.175 54.7547 216.039 54.7547C216.38 54.7547 216.727 54.712 217.079 54.6267C217.441 54.5414 217.788 54.3867 218.119 54.1627C218.279 54.0667 218.423 54.024 218.551 54.0347C218.689 54.0347 218.801 54.0774 218.887 54.1627C218.972 54.2374 219.025 54.3334 219.047 54.4507C219.068 54.5574 219.052 54.6747 218.999 54.8027C218.945 54.9307 218.844 55.0427 218.695 55.1387C218.343 55.384 217.921 55.576 217.431 55.7147C216.951 55.8427 216.487 55.9067 216.039 55.9067ZM221.705 55.8747C221.481 55.8747 221.305 55.8107 221.177 55.6827C221.049 55.5547 220.985 55.368 220.985 55.1227V48.5947C220.985 48.3494 221.049 48.168 221.177 48.0507C221.305 47.9227 221.481 47.8587 221.705 47.8587C221.929 47.8587 222.1 47.9227 222.217 48.0507C222.345 48.168 222.409 48.3494 222.409 48.5947V49.9067L222.233 49.6667C222.457 49.0587 222.82 48.6 223.321 48.2907C223.833 47.9814 224.415 47.8267 225.065 47.8267C225.695 47.8267 226.212 47.9387 226.617 48.1627C227.023 48.3867 227.327 48.728 227.529 49.1867C227.732 49.6454 227.833 50.2267 227.833 50.9307V55.1227C227.833 55.368 227.769 55.5547 227.641 55.6827C227.524 55.8107 227.348 55.8747 227.113 55.8747C226.879 55.8747 226.697 55.8107 226.569 55.6827C226.441 55.5547 226.377 55.368 226.377 55.1227V51.0107C226.377 50.3174 226.244 49.8107 225.977 49.4907C225.711 49.1707 225.284 49.0107 224.697 49.0107C224.015 49.0107 223.465 49.224 223.049 49.6507C222.644 50.0667 222.441 50.632 222.441 51.3467V55.1227C222.441 55.624 222.196 55.8747 221.705 55.8747ZM233.374 55.9067C232.744 55.9067 232.216 55.7947 231.79 55.5707C231.374 55.3467 231.059 55.0214 230.846 54.5947C230.643 54.168 230.542 53.6454 230.542 53.0267V49.0907H229.518C229.326 49.0907 229.176 49.0427 229.07 48.9467C228.963 48.84 228.91 48.7014 228.91 48.5307C228.91 48.3494 228.963 48.2107 229.07 48.1147C229.176 48.0187 229.326 47.9707 229.518 47.9707H230.542V46.2267C230.542 45.9814 230.606 45.8 230.734 45.6827C230.862 45.5547 231.043 45.4907 231.278 45.4907C231.512 45.4907 231.688 45.5547 231.806 45.6827C231.934 45.8 231.998 45.9814 231.998 46.2267V47.9707H233.934C234.136 47.9707 234.291 48.0187 234.398 48.1147C234.504 48.2107 234.558 48.3494 234.558 48.5307C234.558 48.7014 234.504 48.84 234.398 48.9467C234.291 49.0427 234.136 49.0907 233.934 49.0907H231.998V52.8987C231.998 53.4854 232.12 53.928 232.366 54.2267C232.611 54.5254 233.016 54.6747 233.582 54.6747C233.784 54.6747 233.955 54.6587 234.094 54.6267C234.232 54.584 234.355 54.5627 234.462 54.5627C234.558 54.552 234.638 54.584 234.702 54.6587C234.776 54.7334 234.814 54.872 234.814 55.0747C234.814 55.224 234.787 55.3627 234.734 55.4907C234.691 55.608 234.6 55.688 234.462 55.7307C234.334 55.7734 234.163 55.8107 233.95 55.8427C233.736 55.8854 233.544 55.9067 233.374 55.9067Z" fill="#B3EFFF"/>
<path d="M57.5619 34.216C57.0759 34.216 56.6709 34.108 56.3469 33.892C56.0409 33.658 55.7889 33.316 55.5909 32.866L48.5439 17.044C48.3459 16.594 48.2919 16.198 48.3819 15.856C48.4719 15.514 48.6609 15.244 48.9489 15.046C49.2369 14.848 49.5789 14.749 49.9749 14.749C50.4969 14.749 50.8839 14.866 51.1359 15.1C51.4059 15.316 51.6309 15.649 51.8109 16.099L58.2099 30.922H57.0489L63.4209 16.072C63.6189 15.64 63.8529 15.316 64.1229 15.1C64.3929 14.866 64.7709 14.749 65.2569 14.749C65.6529 14.749 65.9769 14.848 66.2289 15.046C66.4989 15.244 66.6699 15.514 66.7419 15.856C66.8139 16.198 66.7509 16.594 66.5529 17.044L59.5059 32.866C59.3079 33.316 59.0559 33.658 58.7499 33.892C58.4619 34.108 58.0659 34.216 57.5619 34.216ZM71.6645 34.27C70.7105 34.27 69.8555 34.09 69.0995 33.73C68.3615 33.352 67.7765 32.848 67.3445 32.218C66.9305 31.588 66.7235 30.877 66.7235 30.085C66.7235 29.113 66.9755 28.348 67.4795 27.79C67.9835 27.214 68.8025 26.8 69.9365 26.548C71.0705 26.296 72.5915 26.17 74.4995 26.17H75.8495V28.114H74.5265C73.4105 28.114 72.5195 28.168 71.8535 28.276C71.1875 28.384 70.7105 28.573 70.4225 28.843C70.1525 29.095 70.0175 29.455 70.0175 29.923C70.0175 30.517 70.2245 31.003 70.6385 31.381C71.0525 31.759 71.6285 31.948 72.3665 31.948C72.9605 31.948 73.4825 31.813 73.9325 31.543C74.4005 31.255 74.7695 30.868 75.0395 30.382C75.3095 29.896 75.4445 29.338 75.4445 28.708V25.603C75.4445 24.703 75.2465 24.055 74.8505 23.659C74.4545 23.263 73.7885 23.065 72.8525 23.065C72.3305 23.065 71.7635 23.128 71.1515 23.254C70.5575 23.38 69.9275 23.596 69.2615 23.902C68.9195 24.064 68.6135 24.109 68.3435 24.037C68.0915 23.965 67.8935 23.821 67.7495 23.605C67.6055 23.371 67.5335 23.119 67.5335 22.849C67.5335 22.579 67.6055 22.318 67.7495 22.066C67.8935 21.796 68.1365 21.598 68.4785 21.472C69.3065 21.13 70.0985 20.887 70.8545 20.743C71.6285 20.599 72.3305 20.527 72.9605 20.527C74.2565 20.527 75.3185 20.725 76.1465 21.121C76.9925 21.517 77.6225 22.12 78.0365 22.93C78.4505 23.722 78.6575 24.748 78.6575 26.008V32.488C78.6575 33.046 78.5225 33.478 78.2525 33.784C77.9825 34.072 77.5955 34.216 77.0915 34.216C76.5875 34.216 76.1915 34.072 75.9035 33.784C75.6335 33.478 75.4985 33.046 75.4985 32.488V31.192H75.7145C75.5885 31.822 75.3365 32.371 74.9585 32.839C74.5985 33.289 74.1395 33.64 73.5815 33.892C73.0235 34.144 72.3845 34.27 71.6645 34.27ZM86.5921 34.27C85.0981 34.27 83.9731 33.847 83.2171 33.001C82.4611 32.137 82.0831 30.877 82.0831 29.221V16.45C82.0831 15.892 82.2271 15.469 82.5151 15.181C82.8031 14.893 83.2171 14.749 83.7571 14.749C84.2971 14.749 84.7111 14.893 84.9991 15.181C85.3051 15.469 85.4581 15.892 85.4581 16.45V29.059C85.4581 29.887 85.6291 30.499 85.9711 30.895C86.3311 31.291 86.8351 31.489 87.4831 31.489C87.6271 31.489 87.7621 31.489 87.8881 31.489C88.0141 31.471 88.1401 31.453 88.2661 31.435C88.5181 31.399 88.6891 31.471 88.7791 31.651C88.8691 31.813 88.9141 32.155 88.9141 32.677C88.9141 33.127 88.8241 33.478 88.6441 33.73C88.4641 33.982 88.1671 34.135 87.7531 34.189C87.5731 34.207 87.3841 34.225 87.1861 34.243C86.9881 34.261 86.7901 34.27 86.5921 34.27ZM97.0804 34.27C95.5864 34.27 94.2994 33.991 93.2194 33.433C92.1394 32.875 91.3024 32.083 90.7084 31.057C90.1324 30.031 89.8444 28.816 89.8444 27.412C89.8444 26.044 90.1234 24.847 90.6814 23.821C91.2574 22.795 92.0404 21.994 93.0304 21.418C94.0384 20.824 95.1814 20.527 96.4594 20.527C97.3954 20.527 98.2324 20.68 98.9704 20.986C99.7264 21.292 100.365 21.733 100.887 22.309C101.427 22.885 101.832 23.587 102.102 24.415C102.39 25.225 102.534 26.143 102.534 27.169C102.534 27.493 102.417 27.745 102.183 27.925C101.967 28.087 101.652 28.168 101.238 28.168H92.5714V26.224H100.158L99.7264 26.629C99.7264 25.801 99.6004 25.108 99.3484 24.55C99.1144 23.992 98.7634 23.569 98.2954 23.281C97.8454 22.975 97.2784 22.822 96.5944 22.822C95.8384 22.822 95.1904 23.002 94.6504 23.362C94.1284 23.704 93.7234 24.199 93.4354 24.847C93.1654 25.477 93.0304 26.233 93.0304 27.115V27.304C93.0304 28.78 93.3724 29.887 94.0564 30.625C94.7584 31.345 95.7844 31.705 97.1344 31.705C97.6024 31.705 98.1244 31.651 98.7004 31.543C99.2944 31.417 99.8524 31.21 100.374 30.922C100.752 30.706 101.085 30.616 101.373 30.652C101.661 30.67 101.886 30.769 102.048 30.949C102.228 31.129 102.336 31.354 102.372 31.624C102.408 31.876 102.354 32.137 102.21 32.407C102.084 32.677 101.859 32.911 101.535 33.109C100.905 33.505 100.176 33.802 99.3484 34C98.5384 34.18 97.7824 34.27 97.0804 34.27ZM106.935 34.216C106.377 34.216 105.945 34.072 105.639 33.784C105.351 33.478 105.207 33.046 105.207 32.488V22.282C105.207 21.724 105.351 21.301 105.639 21.013C105.927 20.725 106.332 20.581 106.854 20.581C107.376 20.581 107.781 20.725 108.069 21.013C108.357 21.301 108.501 21.724 108.501 22.282V23.983H108.231C108.483 22.903 108.978 22.084 109.716 21.526C110.454 20.968 111.435 20.635 112.659 20.527C113.037 20.491 113.334 20.59 113.55 20.824C113.784 21.04 113.919 21.382 113.955 21.85C113.991 22.3 113.883 22.669 113.631 22.957C113.397 23.227 113.037 23.389 112.551 23.443L111.957 23.497C110.859 23.605 110.031 23.947 109.473 24.523C108.915 25.081 108.636 25.873 108.636 26.899V32.488C108.636 33.046 108.492 33.478 108.204 33.784C107.916 34.072 107.493 34.216 106.935 34.216ZM117.454 34.189C116.914 34.189 116.5 34.027 116.212 33.703C115.924 33.379 115.78 32.929 115.78 32.353V22.444C115.78 21.85 115.924 21.4 116.212 21.094C116.5 20.77 116.914 20.608 117.454 20.608C117.994 20.608 118.408 20.77 118.696 21.094C119.002 21.4 119.155 21.85 119.155 22.444V32.353C119.155 32.929 119.011 33.379 118.723 33.703C118.435 34.027 118.012 34.189 117.454 34.189ZM117.454 18.097C116.824 18.097 116.329 17.944 115.969 17.638C115.627 17.314 115.456 16.873 115.456 16.315C115.456 15.739 115.627 15.298 115.969 14.992C116.329 14.686 116.824 14.533 117.454 14.533C118.102 14.533 118.597 14.686 118.939 14.992C119.281 15.298 119.452 15.739 119.452 16.315C119.452 16.873 119.281 17.314 118.939 17.638C118.597 17.944 118.102 18.097 117.454 18.097ZM129.169 34.27C127.675 34.27 126.388 33.991 125.308 33.433C124.228 32.875 123.391 32.083 122.797 31.057C122.221 30.031 121.933 28.816 121.933 27.412C121.933 26.044 122.212 24.847 122.77 23.821C123.346 22.795 124.129 21.994 125.119 21.418C126.127 20.824 127.27 20.527 128.548 20.527C129.484 20.527 130.321 20.68 131.059 20.986C131.815 21.292 132.454 21.733 132.976 22.309C133.516 22.885 133.921 23.587 134.191 24.415C134.479 25.225 134.623 26.143 134.623 27.169C134.623 27.493 134.506 27.745 134.272 27.925C134.056 28.087 133.741 28.168 133.327 28.168H124.66V26.224H132.247L131.815 26.629C131.815 25.801 131.689 25.108 131.437 24.55C131.203 23.992 130.852 23.569 130.384 23.281C129.934 22.975 129.367 22.822 128.683 22.822C127.927 22.822 127.279 23.002 126.739 23.362C126.217 23.704 125.812 24.199 125.524 24.847C125.254 25.477 125.119 26.233 125.119 27.115V27.304C125.119 28.78 125.461 29.887 126.145 30.625C126.847 31.345 127.873 31.705 129.223 31.705C129.691 31.705 130.213 31.651 130.789 31.543C131.383 31.417 131.941 31.21 132.463 30.922C132.841 30.706 133.174 30.616 133.462 30.652C133.75 30.67 133.975 30.769 134.137 30.949C134.317 31.129 134.425 31.354 134.461 31.624C134.497 31.876 134.443 32.137 134.299 32.407C134.173 32.677 133.948 32.911 133.624 33.109C132.994 33.505 132.265 33.802 131.437 34C130.627 34.18 129.871 34.27 129.169 34.27ZM146.57 34.216C146.066 34.216 145.679 34.072 145.409 33.784C145.139 33.496 145.004 33.1 145.004 32.596V16.369C145.004 15.847 145.148 15.451 145.436 15.181C145.724 14.893 146.12 14.749 146.624 14.749C147.074 14.749 147.425 14.839 147.677 15.019C147.947 15.181 148.19 15.469 148.406 15.883L155.075 28.222H154.211L160.88 15.883C161.096 15.469 161.33 15.181 161.582 15.019C161.834 14.839 162.185 14.749 162.635 14.749C163.139 14.749 163.526 14.893 163.796 15.181C164.066 15.451 164.201 15.847 164.201 16.369V32.596C164.201 33.1 164.066 33.496 163.796 33.784C163.544 34.072 163.157 34.216 162.635 34.216C162.131 34.216 161.744 34.072 161.474 33.784C161.204 33.496 161.069 33.1 161.069 32.596V20.095H161.663L155.993 30.436C155.813 30.742 155.624 30.967 155.426 31.111C155.228 31.255 154.958 31.327 154.616 31.327C154.274 31.327 153.995 31.255 153.779 31.111C153.563 30.949 153.374 30.724 153.212 30.436L147.488 20.068H148.136V32.596C148.136 33.1 148.001 33.496 147.731 33.784C147.479 34.072 147.092 34.216 146.57 34.216ZM172.414 34.27C171.46 34.27 170.605 34.09 169.849 33.73C169.111 33.352 168.526 32.848 168.094 32.218C167.68 31.588 167.473 30.877 167.473 30.085C167.473 29.113 167.725 28.348 168.229 27.79C168.733 27.214 169.552 26.8 170.686 26.548C171.82 26.296 173.341 26.17 175.249 26.17H176.599V28.114H175.276C174.16 28.114 173.269 28.168 172.603 28.276C171.937 28.384 171.46 28.573 171.172 28.843C170.902 29.095 170.767 29.455 170.767 29.923C170.767 30.517 170.974 31.003 171.388 31.381C171.802 31.759 172.378 31.948 173.116 31.948C173.71 31.948 174.232 31.813 174.682 31.543C175.15 31.255 175.519 30.868 175.789 30.382C176.059 29.896 176.194 29.338 176.194 28.708V25.603C176.194 24.703 175.996 24.055 175.6 23.659C175.204 23.263 174.538 23.065 173.602 23.065C173.08 23.065 172.513 23.128 171.901 23.254C171.307 23.38 170.677 23.596 170.011 23.902C169.669 24.064 169.363 24.109 169.093 24.037C168.841 23.965 168.643 23.821 168.499 23.605C168.355 23.371 168.283 23.119 168.283 22.849C168.283 22.579 168.355 22.318 168.499 22.066C168.643 21.796 168.886 21.598 169.228 21.472C170.056 21.13 170.848 20.887 171.604 20.743C172.378 20.599 173.08 20.527 173.71 20.527C175.006 20.527 176.068 20.725 176.896 21.121C177.742 21.517 178.372 22.12 178.786 22.93C179.2 23.722 179.407 24.748 179.407 26.008V32.488C179.407 33.046 179.272 33.478 179.002 33.784C178.732 34.072 178.345 34.216 177.841 34.216C177.337 34.216 176.941 34.072 176.653 33.784C176.383 33.478 176.248 33.046 176.248 32.488V31.192H176.464C176.338 31.822 176.086 32.371 175.708 32.839C175.348 33.289 174.889 33.64 174.331 33.892C173.773 34.144 173.134 34.27 172.414 34.27ZM184.506 34.216C183.966 34.216 183.552 34.072 183.264 33.784C182.976 33.478 182.832 33.046 182.832 32.488V16.45C182.832 15.892 182.976 15.469 183.264 15.181C183.552 14.893 183.966 14.749 184.506 14.749C185.046 14.749 185.46 14.893 185.748 15.181C186.054 15.469 186.207 15.892 186.207 16.45V23.443H185.829C186.225 22.489 186.837 21.769 187.665 21.283C188.511 20.779 189.465 20.527 190.527 20.527C191.589 20.527 192.462 20.725 193.146 21.121C193.83 21.517 194.343 22.12 194.685 22.93C195.027 23.722 195.198 24.73 195.198 25.954V32.488C195.198 33.046 195.054 33.478 194.766 33.784C194.478 34.072 194.064 34.216 193.524 34.216C192.984 34.216 192.561 34.072 192.255 33.784C191.967 33.478 191.823 33.046 191.823 32.488V26.116C191.823 25.09 191.625 24.343 191.229 23.875C190.851 23.407 190.257 23.173 189.447 23.173C188.457 23.173 187.665 23.488 187.071 24.118C186.495 24.73 186.207 25.549 186.207 26.575V32.488C186.207 33.64 185.64 34.216 184.506 34.216ZM200.354 34.216C199.796 34.216 199.364 34.072 199.058 33.784C198.77 33.478 198.626 33.046 198.626 32.488V22.282C198.626 21.724 198.77 21.301 199.058 21.013C199.346 20.725 199.751 20.581 200.273 20.581C200.795 20.581 201.2 20.725 201.488 21.013C201.776 21.301 201.92 21.724 201.92 22.282V23.983H201.65C201.902 22.903 202.397 22.084 203.135 21.526C203.873 20.968 204.854 20.635 206.078 20.527C206.456 20.491 206.753 20.59 206.969 20.824C207.203 21.04 207.338 21.382 207.374 21.85C207.41 22.3 207.302 22.669 207.05 22.957C206.816 23.227 206.456 23.389 205.97 23.443L205.376 23.497C204.278 23.605 203.45 23.947 202.892 24.523C202.334 25.081 202.055 25.873 202.055 26.899V32.488C202.055 33.046 201.911 33.478 201.623 33.784C201.335 34.072 200.912 34.216 200.354 34.216ZM213.415 34.27C212.461 34.27 211.606 34.09 210.85 33.73C210.112 33.352 209.527 32.848 209.094 32.218C208.681 31.588 208.474 30.877 208.474 30.085C208.474 29.113 208.726 28.348 209.23 27.79C209.734 27.214 210.553 26.8 211.687 26.548C212.821 26.296 214.342 26.17 216.25 26.17H217.6V28.114H216.277C215.161 28.114 214.27 28.168 213.604 28.276C212.938 28.384 212.461 28.573 212.173 28.843C211.903 29.095 211.768 29.455 211.768 29.923C211.768 30.517 211.975 31.003 212.389 31.381C212.803 31.759 213.379 31.948 214.117 31.948C214.711 31.948 215.233 31.813 215.683 31.543C216.151 31.255 216.52 30.868 216.79 30.382C217.06 29.896 217.195 29.338 217.195 28.708V25.603C217.195 24.703 216.997 24.055 216.601 23.659C216.205 23.263 215.539 23.065 214.603 23.065C214.081 23.065 213.514 23.128 212.902 23.254C212.308 23.38 211.678 23.596 211.012 23.902C210.67 24.064 210.364 24.109 210.094 24.037C209.842 23.965 209.644 23.821 209.5 23.605C209.356 23.371 209.284 23.119 209.284 22.849C209.284 22.579 209.356 22.318 209.5 22.066C209.644 21.796 209.887 21.598 210.229 21.472C211.057 21.13 211.849 20.887 212.605 20.743C213.379 20.599 214.081 20.527 214.711 20.527C216.007 20.527 217.069 20.725 217.897 21.121C218.743 21.517 219.373 22.12 219.787 22.93C220.201 23.722 220.408 24.748 220.408 26.008V32.488C220.408 33.046 220.273 33.478 220.003 33.784C219.733 34.072 219.346 34.216 218.842 34.216C218.338 34.216 217.942 34.072 217.654 33.784C217.384 33.478 217.249 33.046 217.249 32.488V31.192H217.465C217.339 31.822 217.087 32.371 216.709 32.839C216.349 33.289 215.89 33.64 215.332 33.892C214.774 34.144 214.135 34.27 213.415 34.27ZM225.507 34.216C224.967 34.216 224.553 34.072 224.265 33.784C223.977 33.478 223.833 33.046 223.833 32.488V22.282C223.833 21.724 223.977 21.301 224.265 21.013C224.553 20.725 224.958 20.581 225.48 20.581C226.002 20.581 226.407 20.725 226.695 21.013C226.983 21.301 227.127 21.724 227.127 22.282V24.118L226.83 23.443C227.226 22.489 227.838 21.769 228.666 21.283C229.512 20.779 230.466 20.527 231.528 20.527C232.59 20.527 233.463 20.725 234.147 21.121C234.831 21.517 235.344 22.12 235.686 22.93C236.028 23.722 236.199 24.73 236.199 25.954V32.488C236.199 33.046 236.055 33.478 235.767 33.784C235.479 34.072 235.065 34.216 234.525 34.216C233.985 34.216 233.562 34.072 233.256 33.784C232.968 33.478 232.824 33.046 232.824 32.488V26.116C232.824 25.09 232.626 24.343 232.23 23.875C231.852 23.407 231.258 23.173 230.448 23.173C229.458 23.173 228.666 23.488 228.072 24.118C227.496 24.73 227.208 25.549 227.208 26.575V32.488C227.208 33.64 226.641 34.216 225.507 34.216ZM241.301 34.189C240.761 34.189 240.347 34.027 240.059 33.703C239.771 33.379 239.627 32.929 239.627 32.353V22.444C239.627 21.85 239.771 21.4 240.059 21.094C240.347 20.77 240.761 20.608 241.301 20.608C241.841 20.608 242.255 20.77 242.543 21.094C242.849 21.4 243.002 21.85 243.002 22.444V32.353C243.002 32.929 242.858 33.379 242.57 33.703C242.282 34.027 241.859 34.189 241.301 34.189ZM241.301 18.097C240.671 18.097 240.176 17.944 239.816 17.638C239.474 17.314 239.303 16.873 239.303 16.315C239.303 15.739 239.474 15.298 239.816 14.992C240.176 14.686 240.671 14.533 241.301 14.533C241.949 14.533 242.444 14.686 242.786 14.992C243.128 15.298 243.299 15.739 243.299 16.315C243.299 16.873 243.128 17.314 242.786 17.638C242.444 17.944 241.949 18.097 241.301 18.097Z" fill="white"/>
<defs>
<linearGradient id="paint0_linear_1401_207768" x1="160.995" y1="72.2508" x2="160.995" y2="0.723145" gradientUnits="userSpaceOnUse">
<stop stop-color="#1696CC"/>
<stop offset="1" stop-color="#68C3E0"/>
</linearGradient>
</defs>
</svg>
