<svg width="1028" height="567" viewBox="0 0 1028 567" fill="none" xmlns="http://www.w3.org/2000/svg">
<mask id="path-1-inside-1_886_36560" fill="white">
<rect x="27.7563" y="18.9147" width="977.35" height="523.03" rx="4.08984"/>
</mask>
<rect x="27.7563" y="18.9147" width="977.35" height="523.03" rx="4.08984" stroke="#0E2B4D" stroke-width="32" mask="url(#path-1-inside-1_886_36560)"/>
<g filter="url(#filter0_di_886_36560)">
<path d="M17.836 254.812L37.9644 235.544C39.5763 234.001 40.4878 231.866 40.4878 229.635V81.8088C40.4878 79.8583 41.1848 77.972 42.453 76.4902L75.9163 37.3904C77.4703 35.5746 79.7407 34.5293 82.1307 34.5293H211.702C213.861 34.5293 215.932 33.676 217.464 32.1554L235.773 13.9855C240.956 8.8416 237.313 0 230.011 0H47.2695C45.1007 0 43.0207 0.861309 41.4868 2.39455L6.397 37.4695C4.86226 39.0036 4 41.0846 4 43.2546V248.903C4 256.105 12.6338 259.792 17.836 254.812Z" fill="#0E3765"/>
</g>
<path d="M4.58765 241.867L14.9298 248.754L35.5569 231.499V74.6114L76.3367 27.0716H209.566L229.145 11.4249L225.167 1.75281" stroke="#69DBFF" stroke-width="0.817969" stroke-linecap="round"/>
<path d="M22.009 22.4197L54.3821 50.9324" stroke="#69DBFF" stroke-width="0.817969"/>
<g filter="url(#filter1_di_886_36560)">
<path d="M1010.16 305.188L990.036 324.456C988.424 325.999 987.512 328.134 987.512 330.365V478.191C987.512 480.142 986.815 482.028 985.547 483.51L952.084 522.61C950.53 524.425 948.259 525.471 945.869 525.471H816.298C814.139 525.471 812.068 526.324 810.536 527.845L792.227 546.015C787.044 551.158 790.687 560 797.989 560H980.731C982.899 560 984.979 559.139 986.513 557.605L1021.6 522.531C1023.14 520.996 1024 518.915 1024 516.745V311.097C1024 303.895 1015.37 300.208 1010.16 305.188Z" fill="#0E3765"/>
</g>
<path d="M1023.41 318.133L1013.07 311.246L992.443 328.501V485.389L951.664 532.928H818.434L798.855 548.575L802.833 558.247" stroke="#69DBFF" stroke-width="0.817969" stroke-linecap="round"/>
<path d="M1005.99 537.58L973.618 509.067" stroke="#69DBFF" stroke-width="0.817969"/>
<defs>
<filter id="filter0_di_886_36560" x="0.728125" y="0" width="244.022" height="263.643" filterUnits="userSpaceOnUse" color-interpolation-filters="sRGB">
<feFlood flood-opacity="0" result="BackgroundImageFix"/>
<feColorMatrix in="SourceAlpha" type="matrix" values="0 0 0 0 0 0 0 0 0 0 0 0 0 0 0 0 0 0 127 0" result="hardAlpha"/>
<feOffset dy="3.27187"/>
<feGaussianBlur stdDeviation="1.63594"/>
<feComposite in2="hardAlpha" operator="out"/>
<feColorMatrix type="matrix" values="0 0 0 0 0 0 0 0 0 0 0 0 0 0 0 0 0 0 0.25 0"/>
<feBlend mode="normal" in2="BackgroundImageFix" result="effect1_dropShadow_886_36560"/>
<feBlend mode="normal" in="SourceGraphic" in2="effect1_dropShadow_886_36560" result="shape"/>
<feColorMatrix in="SourceAlpha" type="matrix" values="0 0 0 0 0 0 0 0 0 0 0 0 0 0 0 0 0 0 127 0" result="hardAlpha"/>
<feOffset dx="6.54375" dy="8.17969"/>
<feGaussianBlur stdDeviation="3.27187"/>
<feComposite in2="hardAlpha" operator="arithmetic" k2="-1" k3="1"/>
<feColorMatrix type="matrix" values="0 0 0 0 1 0 0 0 0 1 0 0 0 0 1 0 0 0 0.1 0"/>
<feBlend mode="normal" in2="shape" result="effect2_innerShadow_886_36560"/>
</filter>
<filter id="filter1_di_886_36560" x="786.521" y="302.901" width="244.022" height="263.643" filterUnits="userSpaceOnUse" color-interpolation-filters="sRGB">
<feFlood flood-opacity="0" result="BackgroundImageFix"/>
<feColorMatrix in="SourceAlpha" type="matrix" values="0 0 0 0 0 0 0 0 0 0 0 0 0 0 0 0 0 0 127 0" result="hardAlpha"/>
<feOffset dy="3.27187"/>
<feGaussianBlur stdDeviation="1.63594"/>
<feComposite in2="hardAlpha" operator="out"/>
<feColorMatrix type="matrix" values="0 0 0 0 0 0 0 0 0 0 0 0 0 0 0 0 0 0 0.25 0"/>
<feBlend mode="normal" in2="BackgroundImageFix" result="effect1_dropShadow_886_36560"/>
<feBlend mode="normal" in="SourceGraphic" in2="effect1_dropShadow_886_36560" result="shape"/>
<feColorMatrix in="SourceAlpha" type="matrix" values="0 0 0 0 0 0 0 0 0 0 0 0 0 0 0 0 0 0 127 0" result="hardAlpha"/>
<feOffset dx="6.54375" dy="8.17969"/>
<feGaussianBlur stdDeviation="3.27187"/>
<feComposite in2="hardAlpha" operator="arithmetic" k2="-1" k3="1"/>
<feColorMatrix type="matrix" values="0 0 0 0 1 0 0 0 0 1 0 0 0 0 1 0 0 0 0.1 0"/>
<feBlend mode="normal" in2="shape" result="effect2_innerShadow_886_36560"/>
</filter>
</defs>
</svg>
