<svg width="190" height="69" viewBox="0 0 190 69" fill="none" xmlns="http://www.w3.org/2000/svg">
<path d="M16.8749 31.5748C17.8198 30.5711 19.1371 30.002 20.5156 30.002H185C187.761 30.002 190 32.2405 190 35.002V48.8046L171.947 67.4756C171.005 68.4499 169.708 69.0001 168.352 69.0001H5C2.23858 69.0001 0 66.7615 0 64.0001V49.501L16.8749 31.5748Z" fill="#2B5BA3"/>
<path d="M23.1393 34.8753L22.7487 33.1343L7.51758 49.4996H9.47029L23.1393 34.8753Z" fill="#C7D6FD"/>
<path d="M167.52 64.1242L167.911 65.8652L183.923 49.5L181.97 49.5L167.52 64.1242Z" fill="#C7D6FD"/>
<path d="M51.1711 44.9108C51.1711 45.0308 51.1111 45.0908 50.9911 45.0908H44.6011C44.5531 45.0908 44.5291 45.1148 44.5291 45.1628V49.0328C44.5291 49.0808 44.5531 49.1048 44.6011 49.1048H48.9931C49.1131 49.1048 49.1731 49.1648 49.1731 49.2848V50.4188C49.1731 50.5388 49.1131 50.5988 48.9931 50.5988H44.6011C44.5531 50.5988 44.5291 50.6228 44.5291 50.6708V54.6308C44.5291 54.6788 44.5531 54.7028 44.6011 54.7028H50.9911C51.1111 54.7028 51.1711 54.7628 51.1711 54.8828V56.0168C51.1711 56.1368 51.1111 56.1968 50.9911 56.1968H42.9811C42.8611 56.1968 42.8011 56.1368 42.8011 56.0168V43.7768C42.8011 43.6568 42.8611 43.5968 42.9811 43.5968H50.9911C51.1111 43.5968 51.1711 43.6568 51.1711 43.7768V44.9108ZM52.8569 56.1968C52.7849 56.1968 52.7369 56.1788 52.7129 56.1428C52.6889 56.0948 52.6949 56.0408 52.7309 55.9808L56.4389 49.9508C56.4629 49.9148 56.4629 49.8788 56.4389 49.8428L52.7309 43.8128C52.7069 43.7648 52.6949 43.7288 52.6949 43.7048C52.6949 43.6328 52.7489 43.5968 52.8569 43.5968H54.3509C54.4349 43.5968 54.5069 43.6388 54.5669 43.7228L57.4649 48.4928C57.4769 48.5048 57.4949 48.5108 57.5189 48.5108C57.5429 48.5108 57.5609 48.5048 57.5729 48.4928L60.4709 43.7228C60.5309 43.6388 60.6029 43.5968 60.6869 43.5968H62.1629C62.2349 43.5968 62.2829 43.6208 62.3069 43.6688C62.3309 43.7048 62.3249 43.7528 62.2889 43.8128L58.5989 49.8608C58.5869 49.8968 58.5869 49.9328 58.5989 49.9688L62.2889 55.9808C62.3129 56.0288 62.3249 56.0648 62.3249 56.0888C62.3249 56.1608 62.2709 56.1968 62.1629 56.1968H60.6869C60.6029 56.1968 60.5309 56.1548 60.4709 56.0708L57.5729 51.3188C57.5609 51.2948 57.5429 51.2828 57.5189 51.2828C57.4949 51.2828 57.4769 51.2948 57.4649 51.3188L54.5669 56.0708C54.5069 56.1548 54.4349 56.1968 54.3509 56.1968H52.8569ZM64.6022 56.1968C64.4822 56.1968 64.4222 56.1368 64.4222 56.0168V43.7768C64.4222 43.6568 64.4822 43.5968 64.6022 43.5968H65.9702C66.0902 43.5968 66.1502 43.6568 66.1502 43.7768V56.0168C66.1502 56.1368 66.0902 56.1968 65.9702 56.1968H64.6022ZM77.108 43.5968C77.228 43.5968 77.288 43.6568 77.288 43.7768V44.9288C77.288 45.0488 77.228 45.1088 77.108 45.1088H73.652C73.604 45.1088 73.58 45.1328 73.58 45.1808V56.0168C73.58 56.1368 73.52 56.1968 73.4 56.1968H72.032C71.912 56.1968 71.852 56.1368 71.852 56.0168V45.1808C71.852 45.1328 71.828 45.1088 71.78 45.1088H68.486C68.366 45.1088 68.306 45.0488 68.306 44.9288V43.7768C68.306 43.6568 68.366 43.5968 68.486 43.5968H77.108Z" fill="#C7D6FD"/>
<rect x="119.107" y="7" width="37.4783" height="28.4986" fill="#2B5BA3"/>
<rect x="116.606" y="4.49951" width="41.9803" height="58.4976" fill="#2B5BA3"/>
<rect x="116.606" y="4.49951" width="41.9803" height="58.4976" stroke="white" stroke-width="8"/>
<rect x="116.606" y="4.49951" width="41.9803" height="58.4976" stroke="white" stroke-width="8"/>
<rect x="122.605" y="9.99854" width="30.4823" height="49.4976" fill="white"/>
<rect x="112.112" y="58.4976" width="51.9699" height="8.49958" fill="#2B5BA3"/>
</svg>
