<svg width="38" height="30" viewBox="0 0 38 30" fill="none" xmlns="http://www.w3.org/2000/svg">
<path d="M27.9781 1.4017L35.2422 8.55448V27.8897H14.3082V1.4017H27.9781ZM27.9781 0H14.2873C13.9097 0 13.5477 0.147678 13.2807 0.410548C13.0137 0.673417 12.8638 1.02994 12.8638 1.4017V27.8897C12.8638 28.2614 13.0137 28.6179 13.2807 28.8808C13.5477 29.1437 13.9097 29.2914 14.2873 29.2914H35.2213C35.5989 29.2914 35.9609 29.1437 36.2279 28.8808C36.4949 28.6179 36.6448 28.2614 36.6448 27.8897V8.55448C36.6453 8.37089 36.6091 8.18901 36.5381 8.01923C36.4672 7.84945 36.363 7.69511 36.2314 7.56505L28.9882 0.412264C28.72 0.148881 28.3569 0.000673291 27.9781 0V0Z" fill="#53BDF2"/>
<path d="M6.51573 12.1152L9.35752 14.9135V22.4785H1.16185V12.1152H6.51573ZM6.51573 10.9712H1.16185C0.853712 10.9712 0.558194 11.0917 0.340307 11.3063C0.12242 11.5208 1.18955e-05 11.8118 1.18955e-05 12.1152V22.4785C-0.000680944 22.6289 0.0288979 22.778 0.0870404 22.9171C0.145183 23.0562 0.230737 23.1826 0.338762 23.289C0.446787 23.3954 0.575142 23.4796 0.716416 23.5368C0.857689 23.5941 1.00908 23.6232 1.16185 23.6225H9.35752C9.51029 23.6232 9.66168 23.5941 9.80296 23.5368C9.94423 23.4796 10.0726 23.3954 10.1806 23.289C10.2886 23.1826 10.3742 23.0562 10.4323 22.9171C10.4905 22.778 10.5201 22.6289 10.5194 22.4785V14.9135C10.5177 14.6104 10.3956 14.3199 10.1792 14.1044L7.32692 11.3062C7.10803 11.093 6.81308 10.9728 6.50526 10.9712H6.51573Z" fill="#53BDF2"/>
<path d="M26.6283 12.9553C27.6884 12.9553 28.7247 13.2649 29.6062 13.845C30.4876 14.4251 31.1745 15.2495 31.5799 16.2141C31.9854 17.1786 32.0912 18.2399 31.884 19.2637C31.6768 20.2874 31.1659 21.2277 30.4159 21.9655C29.6659 22.7033 28.7105 23.2055 27.6706 23.4085C26.6306 23.6115 25.5529 23.5063 24.5738 23.1061C23.5946 22.7059 22.758 22.0287 22.1698 21.1603C21.5815 20.2918 21.2681 19.271 21.2691 18.2271C21.2691 17.5344 21.4078 16.8484 21.6772 16.2085C21.9466 15.5686 22.3414 14.9872 22.8391 14.4976C23.3368 14.008 23.9276 13.6198 24.5778 13.3551C25.228 13.0905 25.9247 12.9546 26.6283 12.9553ZM26.6283 11.5742C25.2905 11.5732 23.9824 11.963 22.8697 12.6942C21.7569 13.4254 20.8895 14.4652 20.377 15.682C19.8646 16.8988 19.7303 18.2379 19.991 19.5299C20.2517 20.822 20.8958 22.0088 21.8418 22.9402C22.7877 23.8717 23.993 24.5059 25.3052 24.7627C26.6173 25.0194 27.9773 24.8871 29.213 24.3825C30.4488 23.878 31.5048 23.0238 32.2473 21.9281C32.9899 20.8324 33.3857 19.5444 33.3847 18.2271C33.3833 16.4631 32.671 14.7717 31.4043 13.5243C30.1375 12.277 28.4198 11.5756 26.6283 11.5742Z" fill="#53BDF2"/>
<path d="M31.2353 21.4205L30.4064 22.2367C30.0876 22.5507 30.0876 23.0597 30.4064 23.3736L35.4393 28.3294C35.7581 28.6433 36.2751 28.6433 36.5939 28.3294L37.4228 27.5131C37.7417 27.1992 37.7417 26.6902 37.4228 26.3762L32.39 21.4205C32.0711 21.1065 31.5542 21.1065 31.2353 21.4205Z" fill="#53BDF2"/>
<path d="M23.896 19.5468C23.8961 18.8297 24.0862 18.1251 24.4475 17.5024C24.8088 16.8798 25.3287 16.3607 25.956 15.9965C26.5833 15.6322 27.2962 15.4354 28.0244 15.4254C28.7526 15.4154 29.4708 15.5926 30.1082 15.9395C29.7588 15.4163 29.2931 14.9783 28.7462 14.6588C28.1994 14.3392 27.5858 14.1466 26.952 14.0954C26.3183 14.0441 25.681 14.1358 25.0886 14.3632C24.4962 14.5907 23.9641 14.9481 23.5329 15.4082C23.1016 15.8683 22.7825 16.4192 22.5996 17.0189C22.4168 17.6186 22.3751 18.2514 22.4777 18.8693C22.5803 19.4873 22.8245 20.0741 23.1917 20.5852C23.559 21.0964 24.0397 21.5184 24.5973 21.8194C24.1402 21.1469 23.8961 20.356 23.896 19.5468Z" fill="#53BDF2"/>
</svg>
