<svg width="17" height="17" viewBox="0 0 17 17" fill="none" xmlns="http://www.w3.org/2000/svg">
<path d="M8.64518 16.7072C7.08048 16.7072 5.55091 16.2438 4.2499 15.3754C2.9489 14.5071 1.93489 13.2729 1.3361 11.8289C0.737315 10.3849 0.580645 8.79602 0.885904 7.2631C1.19116 5.73017 1.94464 4.32209 3.05105 3.21692C4.15747 2.11174 5.56712 1.35911 7.10176 1.05419C8.6364 0.749273 10.2271 0.905768 11.6727 1.50388C13.1183 2.102 14.3539 3.11488 15.2232 4.41443C16.0925 5.71398 16.5565 7.24183 16.5565 8.80479C16.5495 10.8985 15.7137 12.9045 14.2316 14.385C12.7495 15.8654 10.7412 16.7003 8.64518 16.7072ZM8.64518 1.73047C7.2457 1.73134 5.87788 2.14662 4.71461 2.9238C3.55135 3.70099 2.64485 4.8052 2.10969 6.09688C1.57453 7.38856 1.43474 8.80971 1.70798 10.1807C1.98122 11.5517 2.65523 12.8111 3.64481 13.7996C4.6344 14.788 5.89514 15.4613 7.2677 15.7342C8.64025 16.0072 10.063 15.8675 11.3561 15.333C12.6492 14.7984 13.7547 13.8929 14.5328 12.731C15.3108 11.569 15.7265 10.2027 15.7274 8.80479C15.7251 6.92968 14.978 5.13211 13.6502 3.80663C12.3224 2.48114 10.5224 1.73604 8.64518 1.73488V1.73047Z" fill="white"/>
<path d="M10.4884 12.9232L5.69043 8.80464L10.4884 4.68604V12.9232Z" fill="white" stroke="#231F20" stroke-width="0.03" stroke-miterlimit="10"/>
</svg>
