<svg width="20" height="25" viewBox="0 0 20 25" fill="none" xmlns="http://www.w3.org/2000/svg">
<path d="M2.68523 11.4491C2.68523 10.2322 2.68523 9.066 2.68523 7.8998C2.68566 6.13738 3.32934 4.43327 4.49988 3.09557C5.56323 1.76418 7.08193 0.854715 8.77574 0.535009C11.7369 0.0237417 14.1895 0.957544 16.1033 3.34909C17.1973 4.71349 17.7787 6.40548 17.7499 8.14064C17.7499 9.12938 17.7499 10.1181 17.7499 11.0984V11.4449C17.9826 11.4449 18.1809 11.4449 18.3964 11.4449C18.8069 11.473 19.1904 11.6552 19.4674 11.9534C19.7443 12.2517 19.8934 12.6431 19.8835 13.0463C19.8835 16.3618 19.8835 19.6815 19.8835 23.0054C19.9002 23.2316 19.867 23.4586 19.7863 23.6711C19.7055 23.8835 19.5791 24.0765 19.4155 24.2368C19.252 24.3972 19.0551 24.5211 18.8384 24.6003C18.6216 24.6794 18.3901 24.7119 18.1594 24.6956C14.8576 24.6956 11.5516 24.6956 8.24557 24.6956H2.18523C1.96033 24.6993 1.73705 24.6577 1.52922 24.5734C1.32139 24.4891 1.13345 24.3638 0.977049 24.2053C0.820648 24.0469 0.699123 23.8586 0.620008 23.6522C0.540893 23.4458 0.505874 23.2256 0.517123 23.0054C0.517123 19.7125 0.517123 16.4223 0.517123 13.135C0.501417 12.9152 0.532782 12.6946 0.609203 12.4874C0.685623 12.2801 0.805411 12.0908 0.960873 11.9317C1.11634 11.7725 1.30404 11.647 1.51192 11.5632C1.7198 11.4793 1.94328 11.439 2.16799 11.4449L2.68523 11.4491ZM14.5042 11.4491C14.5042 10.3125 14.5042 9.20966 14.5042 8.11107C14.5211 7.52865 14.415 6.9491 14.1924 6.40883C13.9699 5.86856 13.6358 5.37925 13.2111 4.97163C12.6415 4.36517 11.892 3.94924 11.0685 3.78247C10.2449 3.6157 9.38871 3.70649 8.62057 4.04205C7.81617 4.37968 7.13095 4.94197 6.65036 5.65879C6.16976 6.37561 5.91505 7.21526 5.91799 8.07304C5.91799 9.11247 5.91799 10.1519 5.91799 11.1913C5.92053 11.2776 5.92772 11.3636 5.93954 11.4491H14.5042ZM11.1852 17.859L11.4438 17.673C11.8316 17.3862 12.117 16.9867 12.2594 16.5314C12.4019 16.0761 12.394 15.5884 12.2369 15.1378C12.0932 14.6974 11.8094 14.3137 11.4269 14.043C11.0445 13.7722 10.5836 13.6288 10.1119 13.6336C9.65585 13.6673 9.22126 13.8373 8.86673 14.1206C8.51221 14.4039 8.2548 14.787 8.12919 15.2181C8.00272 15.6685 8.02002 16.146 8.17877 16.5864C8.33752 17.0268 8.6301 17.409 9.01712 17.6815C9.05292 17.6974 9.08514 17.7202 9.11191 17.7484C9.13869 17.7766 9.1595 17.8097 9.17313 17.8459C9.18675 17.882 9.19294 17.9205 9.19131 17.959C9.18969 17.9975 9.1803 18.0353 9.16367 18.0702C8.80161 19.266 8.45678 20.466 8.10764 21.666C7.96109 22.1773 8.17229 22.4688 8.68954 22.4688H11.7068C12.2585 22.4688 12.4654 22.1688 12.3059 21.6237C11.9309 20.3942 11.5602 19.1266 11.1852 17.859Z" fill="white"/>
</svg>
