<svg width="271" height="91" viewBox="0 0 271 91" fill="none" xmlns="http://www.w3.org/2000/svg">
<path d="M32.7213 23.5532C32.9895 21.7469 34.5403 20.4095 36.3664 20.4095H233.716C235.967 20.4095 237.692 22.4095 237.362 24.6358L228.18 86.4632C227.912 88.2695 226.361 89.607 224.535 89.607H27.185C24.9342 89.607 23.2093 87.607 23.5399 85.3806L32.7213 23.5532Z" fill="#2C6BCA" fill-opacity="0.8" stroke="white" stroke-width="0.818906"/>
<path d="M6.82318 3.62212C7.063 1.55742 8.81178 0 10.8904 0H266.124C268.573 0 270.474 2.13475 270.191 4.56693L263.899 58.7439C263.659 60.8086 261.91 62.366 259.831 62.366H252.7C251.969 62.366 251.252 62.1704 250.622 61.7994L240.652 55.926C240.022 55.555 239.304 55.3594 238.573 55.3594H24.4392C23.6957 55.3594 22.9662 55.5618 22.3291 55.945L12.6252 61.7804C11.9881 62.1636 11.2586 62.366 10.5151 62.366H4.59764C2.1491 62.366 0.247954 60.2313 0.530456 57.7991L6.82318 3.62212Z" fill="url(#paint0_linear_660_3342)"/>
<defs>
<linearGradient id="paint0_linear_660_3342" x1="33.3678" y1="0" x2="33.3678" y2="62.366" gradientUnits="userSpaceOnUse">
<stop stop-color="#124695"/>
<stop offset="1" stop-color="#073273"/>
</linearGradient>
</defs>
</svg>
