<svg width="29" height="29" viewBox="0 0 29 29" fill="none" xmlns="http://www.w3.org/2000/svg">
<path d="M19.3327 10.271C20.9434 12.4194 20.9434 16.5809 19.3327 18.7293M22.9577 6.04185C27.7765 10.6432 27.8055 18.3874 22.9577 22.9585M2.41602 18.0756V10.9235C2.41602 10.2299 2.95735 9.66685 3.62435 9.66685H7.95743C8.11733 9.66628 8.27547 9.63333 8.42229 9.56999C8.56911 9.50665 8.70159 9.41423 8.81172 9.2983L12.4367 5.20447C13.198 4.4118 14.4993 4.97368 14.4993 6.0938V22.9066C14.4993 24.0351 13.1823 24.5922 12.4258 23.7838L8.81293 19.7129C8.70248 19.5937 8.56867 19.4985 8.41982 19.4332C8.27098 19.3679 8.11029 19.334 7.94777 19.3335H3.62435C2.95735 19.3335 2.41602 18.7704 2.41602 18.0756Z" stroke="white" stroke-width="2.41667" stroke-linecap="round" stroke-linejoin="round"/>
</svg>
