<svg width="175" height="99" viewBox="0 0 175 99" fill="none" xmlns="http://www.w3.org/2000/svg">
<path d="M0 99H156.163L174.401 80.7624V22.4909H18.2376L0 40.7285V99Z" fill="#374A8E"/>
<path d="M5.42944 93.5H152.453L169.049 76.8973V26.8648H22.0503L5.42944 43.4675V93.5Z" fill="#2B2B56"/>
<path d="M46.6647 61C46.5127 61 46.3927 60.956 46.3047 60.868C46.2167 60.78 46.1727 60.664 46.1727 60.52C46.1727 60.368 46.2167 60.252 46.3047 60.172C46.3927 60.092 46.5127 60.052 46.6647 60.052H48.1767V53.464H48.7527L47.0007 54.592C46.8887 54.664 46.7807 54.696 46.6767 54.688C46.5807 54.672 46.4967 54.632 46.4247 54.568C46.3527 54.496 46.3047 54.412 46.2807 54.316C46.2567 54.22 46.2607 54.124 46.2927 54.028C46.3327 53.924 46.4127 53.84 46.5327 53.776L48.1887 52.696C48.3087 52.624 48.4207 52.568 48.5247 52.528C48.6367 52.48 48.7447 52.456 48.8487 52.456C48.9687 52.456 49.0727 52.492 49.1607 52.564C49.2487 52.636 49.2927 52.752 49.2927 52.912V60.052H50.6847C50.8447 60.052 50.9647 60.092 51.0447 60.172C51.1327 60.252 51.1767 60.368 51.1767 60.52C51.1767 60.672 51.1327 60.792 51.0447 60.88C50.9647 60.96 50.8447 61 50.6847 61H46.6647ZM53.56 61C53.368 61 53.224 60.956 53.128 60.868C53.04 60.772 52.996 60.644 52.996 60.484C52.996 60.388 53.02 60.292 53.068 60.196C53.116 60.1 53.188 60.004 53.284 59.908L55.912 57.088C56.312 56.664 56.6 56.272 56.776 55.912C56.952 55.552 57.04 55.188 57.04 54.82C57.04 54.356 56.896 54.004 56.608 53.764C56.328 53.516 55.916 53.392 55.372 53.392C55.036 53.392 54.712 53.448 54.4 53.56C54.096 53.664 53.796 53.828 53.5 54.052C53.388 54.132 53.284 54.168 53.188 54.16C53.092 54.152 53.008 54.116 52.936 54.052C52.872 53.98 52.824 53.9 52.792 53.812C52.768 53.716 52.772 53.616 52.804 53.512C52.836 53.408 52.904 53.32 53.008 53.248C53.336 52.992 53.716 52.792 54.148 52.648C54.58 52.504 55.024 52.432 55.48 52.432C56.056 52.432 56.54 52.524 56.932 52.708C57.332 52.884 57.636 53.144 57.844 53.488C58.052 53.824 58.156 54.236 58.156 54.724C58.156 55.06 58.1 55.392 57.988 55.72C57.876 56.04 57.708 56.368 57.484 56.704C57.268 57.04 56.988 57.388 56.644 57.748L54.148 60.376V60.052H58.084C58.244 60.052 58.364 60.092 58.444 60.172C58.532 60.252 58.576 60.368 58.576 60.52C58.576 60.672 58.532 60.792 58.444 60.88C58.364 60.96 58.244 61 58.084 61H53.56ZM62.7953 61.108C61.8193 61.108 61.0753 60.736 60.5633 59.992C60.0593 59.24 59.8073 58.164 59.8073 56.764C59.8073 55.812 59.9193 55.016 60.1433 54.376C60.3753 53.736 60.7113 53.252 61.1513 52.924C61.5993 52.596 62.1473 52.432 62.7953 52.432C63.7793 52.432 64.5233 52.8 65.0273 53.536C65.5313 54.264 65.7833 55.336 65.7833 56.752C65.7833 57.688 65.6673 58.48 65.4353 59.128C65.2113 59.776 64.8793 60.268 64.4393 60.604C63.9993 60.94 63.4513 61.108 62.7953 61.108ZM62.7953 60.16C63.4353 60.16 63.9113 59.884 64.2233 59.332C64.5353 58.78 64.6913 57.92 64.6913 56.752C64.6913 55.584 64.5353 54.732 64.2233 54.196C63.9193 53.652 63.4433 53.38 62.7953 53.38C62.1553 53.38 61.6793 53.652 61.3673 54.196C61.0553 54.732 60.8993 55.584 60.8993 56.752C60.8993 57.92 61.0553 58.78 61.3673 59.332C61.6793 59.884 62.1553 60.16 62.7953 60.16ZM74.2595 61.108C73.4195 61.108 72.6995 60.932 72.0995 60.58C71.4995 60.228 71.0355 59.728 70.7075 59.08C70.3875 58.424 70.2275 57.652 70.2275 56.764C70.2275 56.1 70.3195 55.504 70.5035 54.976C70.6875 54.44 70.9515 53.984 71.2955 53.608C71.6395 53.224 72.0595 52.932 72.5555 52.732C73.0595 52.532 73.6275 52.432 74.2595 52.432C74.7395 52.432 75.1995 52.5 75.6395 52.636C76.0875 52.772 76.4715 52.964 76.7915 53.212C76.9195 53.3 77.0035 53.4 77.0435 53.512C77.0835 53.624 77.0875 53.732 77.0555 53.836C77.0315 53.932 76.9795 54.016 76.8995 54.088C76.8275 54.152 76.7355 54.188 76.6235 54.196C76.5115 54.196 76.3915 54.152 76.2635 54.064C75.9835 53.848 75.6755 53.692 75.3395 53.596C75.0115 53.492 74.6595 53.44 74.2835 53.44C73.6675 53.44 73.1435 53.572 72.7115 53.836C72.2875 54.092 71.9635 54.468 71.7395 54.964C71.5235 55.452 71.4155 56.052 71.4155 56.764C71.4155 57.468 71.5235 58.072 71.7395 58.576C71.9635 59.072 72.2875 59.452 72.7115 59.716C73.1435 59.972 73.6675 60.1 74.2835 60.1C74.6595 60.1 75.0155 60.048 75.3515 59.944C75.6955 59.84 76.0115 59.68 76.2995 59.464C76.4275 59.376 76.5435 59.336 76.6475 59.344C76.7595 59.352 76.8515 59.388 76.9235 59.452C76.9955 59.508 77.0435 59.588 77.0675 59.692C77.0995 59.788 77.0995 59.888 77.0675 59.992C77.0355 60.096 76.9635 60.188 76.8515 60.268C76.5235 60.548 76.1315 60.76 75.6755 60.904C75.2275 61.04 74.7555 61.108 74.2595 61.108ZM81.9797 61.108C81.1797 61.108 80.4877 60.932 79.9037 60.58C79.3197 60.22 78.8637 59.716 78.5357 59.068C78.2157 58.412 78.0557 57.644 78.0557 56.764C78.0557 56.1 78.1477 55.504 78.3317 54.976C78.5157 54.44 78.7757 53.984 79.1117 53.608C79.4557 53.224 79.8677 52.932 80.3477 52.732C80.8357 52.532 81.3797 52.432 81.9797 52.432C82.7797 52.432 83.4717 52.608 84.0557 52.96C84.6397 53.312 85.0917 53.812 85.4117 54.46C85.7317 55.108 85.8917 55.872 85.8917 56.752C85.8917 57.416 85.7997 58.016 85.6157 58.552C85.4317 59.088 85.1677 59.548 84.8237 59.932C84.4877 60.316 84.0797 60.608 83.5997 60.808C83.1197 61.008 82.5797 61.108 81.9797 61.108ZM81.9797 60.124C82.5557 60.124 83.0477 59.992 83.4557 59.728C83.8637 59.464 84.1757 59.08 84.3917 58.576C84.6157 58.072 84.7277 57.468 84.7277 56.764C84.7277 55.7 84.4877 54.876 84.0077 54.292C83.5357 53.708 82.8597 53.416 81.9797 53.416C81.4037 53.416 80.9077 53.548 80.4917 53.812C80.0837 54.068 79.7717 54.448 79.5557 54.952C79.3397 55.448 79.2317 56.052 79.2317 56.764C79.2317 57.82 79.4717 58.644 79.9517 59.236C80.4317 59.828 81.1077 60.124 81.9797 60.124ZM90.9975 61.108C90.4375 61.108 89.9415 61.036 89.5095 60.892C89.0855 60.74 88.7295 60.52 88.4415 60.232C88.1535 59.936 87.9335 59.572 87.7815 59.14C87.6375 58.7 87.5655 58.192 87.5655 57.616V53.02C87.5655 52.828 87.6135 52.688 87.7095 52.6C87.8055 52.504 87.9415 52.456 88.1175 52.456C88.3015 52.456 88.4415 52.504 88.5375 52.6C88.6335 52.688 88.6815 52.828 88.6815 53.02V57.58C88.6815 58.436 88.8775 59.076 89.2695 59.5C89.6615 59.916 90.2375 60.124 90.9975 60.124C91.7575 60.124 92.3335 59.916 92.7255 59.5C93.1175 59.076 93.3135 58.436 93.3135 57.58V53.02C93.3135 52.828 93.3615 52.688 93.4575 52.6C93.5535 52.504 93.6895 52.456 93.8655 52.456C94.0415 52.456 94.1775 52.504 94.2735 52.6C94.3695 52.688 94.4175 52.828 94.4175 53.02V57.616C94.4175 58.376 94.2855 59.016 94.0215 59.536C93.7655 60.056 93.3815 60.448 92.8695 60.712C92.3655 60.976 91.7415 61.108 90.9975 61.108ZM96.9548 61.084C96.7788 61.084 96.6428 61.036 96.5468 60.94C96.4508 60.836 96.4028 60.692 96.4028 60.508V53.104C96.4028 52.92 96.4508 52.78 96.5468 52.684C96.6508 52.588 96.7908 52.54 96.9668 52.54H99.8228C100.735 52.54 101.435 52.756 101.923 53.188C102.419 53.612 102.667 54.216 102.667 55C102.667 55.512 102.555 55.952 102.331 56.32C102.107 56.68 101.783 56.956 101.359 57.148C100.935 57.34 100.423 57.436 99.8228 57.436L99.9428 57.268H100.207C100.527 57.268 100.803 57.348 101.035 57.508C101.275 57.668 101.487 57.924 101.671 58.276L102.775 60.304C102.847 60.432 102.879 60.556 102.871 60.676C102.863 60.796 102.819 60.896 102.739 60.976C102.659 61.048 102.543 61.084 102.391 61.084C102.231 61.084 102.103 61.052 102.007 60.988C101.911 60.916 101.827 60.812 101.755 60.676L100.459 58.3C100.283 57.964 100.083 57.744 99.8588 57.64C99.6348 57.528 99.3348 57.472 98.9588 57.472H97.5188V60.508C97.5188 60.692 97.4708 60.836 97.3748 60.94C97.2868 61.036 97.1468 61.084 96.9548 61.084ZM97.5188 56.608H99.6428C100.283 56.608 100.763 56.476 101.083 56.212C101.403 55.94 101.563 55.544 101.563 55.024C101.563 54.504 101.403 54.112 101.083 53.848C100.763 53.584 100.283 53.452 99.6428 53.452H97.5188V56.608ZM107.237 61.108C106.861 61.108 106.497 61.076 106.145 61.012C105.793 60.956 105.461 60.868 105.149 60.748C104.837 60.628 104.557 60.48 104.309 60.304C104.205 60.232 104.129 60.144 104.081 60.04C104.041 59.936 104.029 59.836 104.045 59.74C104.069 59.636 104.113 59.548 104.177 59.476C104.249 59.404 104.333 59.36 104.429 59.344C104.525 59.328 104.629 59.36 104.741 59.44C105.109 59.688 105.493 59.868 105.893 59.98C106.301 60.092 106.749 60.148 107.237 60.148C107.941 60.148 108.457 60.02 108.785 59.764C109.121 59.508 109.289 59.172 109.289 58.756C109.289 58.412 109.169 58.144 108.929 57.952C108.689 57.752 108.285 57.596 107.717 57.484L106.445 57.22C105.693 57.06 105.129 56.796 104.753 56.428C104.385 56.06 104.201 55.568 104.201 54.952C104.201 54.576 104.277 54.236 104.429 53.932C104.581 53.62 104.797 53.352 105.077 53.128C105.357 52.904 105.685 52.732 106.061 52.612C106.445 52.492 106.869 52.432 107.333 52.432C107.829 52.432 108.293 52.5 108.725 52.636C109.165 52.772 109.561 52.972 109.913 53.236C110.009 53.308 110.073 53.396 110.105 53.5C110.137 53.596 110.141 53.692 110.117 53.788C110.101 53.884 110.057 53.964 109.985 54.028C109.921 54.092 109.837 54.128 109.733 54.136C109.637 54.144 109.529 54.108 109.409 54.028C109.089 53.804 108.761 53.644 108.425 53.548C108.089 53.444 107.721 53.392 107.321 53.392C106.913 53.392 106.557 53.456 106.253 53.584C105.957 53.712 105.725 53.892 105.557 54.124C105.397 54.348 105.317 54.612 105.317 54.916C105.317 55.284 105.429 55.572 105.653 55.78C105.877 55.988 106.253 56.148 106.781 56.26L108.041 56.512C108.841 56.68 109.433 56.94 109.817 57.292C110.209 57.636 110.405 58.1 110.405 58.684C110.405 59.052 110.329 59.384 110.177 59.68C110.033 59.976 109.825 60.232 109.553 60.448C109.281 60.656 108.949 60.82 108.557 60.94C108.165 61.052 107.725 61.108 107.237 61.108ZM112.483 61C112.291 61 112.143 60.948 112.039 60.844C111.935 60.74 111.883 60.592 111.883 60.4V53.14C111.883 52.948 111.935 52.8 112.039 52.696C112.143 52.592 112.291 52.54 112.483 52.54H116.899C117.051 52.54 117.167 52.58 117.247 52.66C117.335 52.732 117.379 52.84 117.379 52.984C117.379 53.136 117.335 53.252 117.247 53.332C117.167 53.412 117.051 53.452 116.899 53.452H112.963V56.248H116.647C116.799 56.248 116.915 56.288 116.995 56.368C117.075 56.448 117.115 56.56 117.115 56.704C117.115 56.856 117.075 56.972 116.995 57.052C116.915 57.124 116.799 57.16 116.647 57.16H112.963V60.088H116.899C117.051 60.088 117.167 60.128 117.247 60.208C117.335 60.28 117.379 60.392 117.379 60.544C117.379 60.696 117.335 60.812 117.247 60.892C117.167 60.964 117.051 61 116.899 61H112.483ZM121.569 61.108C121.193 61.108 120.829 61.076 120.477 61.012C120.125 60.956 119.793 60.868 119.481 60.748C119.169 60.628 118.889 60.48 118.641 60.304C118.537 60.232 118.461 60.144 118.413 60.04C118.373 59.936 118.361 59.836 118.377 59.74C118.401 59.636 118.445 59.548 118.509 59.476C118.581 59.404 118.665 59.36 118.761 59.344C118.857 59.328 118.961 59.36 119.073 59.44C119.441 59.688 119.825 59.868 120.225 59.98C120.633 60.092 121.081 60.148 121.569 60.148C122.273 60.148 122.789 60.02 123.117 59.764C123.453 59.508 123.621 59.172 123.621 58.756C123.621 58.412 123.501 58.144 123.261 57.952C123.021 57.752 122.617 57.596 122.049 57.484L120.777 57.22C120.025 57.06 119.461 56.796 119.085 56.428C118.717 56.06 118.533 55.568 118.533 54.952C118.533 54.576 118.609 54.236 118.761 53.932C118.913 53.62 119.129 53.352 119.409 53.128C119.689 52.904 120.017 52.732 120.393 52.612C120.777 52.492 121.201 52.432 121.665 52.432C122.161 52.432 122.625 52.5 123.057 52.636C123.497 52.772 123.893 52.972 124.245 53.236C124.341 53.308 124.405 53.396 124.437 53.5C124.469 53.596 124.473 53.692 124.449 53.788C124.433 53.884 124.389 53.964 124.317 54.028C124.253 54.092 124.169 54.128 124.065 54.136C123.969 54.144 123.861 54.108 123.741 54.028C123.421 53.804 123.093 53.644 122.757 53.548C122.421 53.444 122.053 53.392 121.653 53.392C121.245 53.392 120.889 53.456 120.585 53.584C120.289 53.712 120.057 53.892 119.889 54.124C119.729 54.348 119.649 54.612 119.649 54.916C119.649 55.284 119.761 55.572 119.985 55.78C120.209 55.988 120.585 56.148 121.113 56.26L122.373 56.512C123.173 56.68 123.765 56.94 124.149 57.292C124.541 57.636 124.737 58.1 124.737 58.684C124.737 59.052 124.661 59.384 124.509 59.68C124.365 59.976 124.157 60.232 123.885 60.448C123.613 60.656 123.281 60.82 122.889 60.94C122.497 61.052 122.057 61.108 121.569 61.108ZM35.2364 77.084C35.0604 77.084 34.9244 77.036 34.8284 76.94C34.7324 76.844 34.6844 76.704 34.6844 76.52V75.236H31.3484C31.1724 75.236 31.0284 75.196 30.9164 75.116C30.8124 75.036 30.7604 74.912 30.7604 74.744C30.7604 74.648 30.7844 74.548 30.8324 74.444C30.8804 74.34 30.9644 74.2 31.0844 74.024L34.6484 68.828C34.7364 68.708 34.8284 68.616 34.9244 68.552C35.0284 68.488 35.1444 68.456 35.2724 68.456C35.4164 68.456 35.5364 68.504 35.6324 68.6C35.7364 68.688 35.7884 68.828 35.7884 69.02V74.288H36.6044C36.7804 74.288 36.9124 74.328 37.0004 74.408C37.0884 74.488 37.1324 74.604 37.1324 74.756C37.1324 74.916 37.0884 75.036 37.0004 75.116C36.9124 75.196 36.7804 75.236 36.6044 75.236H35.7884V76.52C35.7884 76.704 35.7404 76.844 35.6444 76.94C35.5484 77.036 35.4124 77.084 35.2364 77.084ZM34.6844 74.288V69.848H34.9844L31.7444 74.588V74.288H34.6844ZM39.2877 77C39.1357 77 39.0157 76.956 38.9277 76.868C38.8397 76.78 38.7957 76.664 38.7957 76.52C38.7957 76.368 38.8397 76.252 38.9277 76.172C39.0157 76.092 39.1357 76.052 39.2877 76.052H40.7997V69.464H41.3757L39.6237 70.592C39.5117 70.664 39.4037 70.696 39.2997 70.688C39.2037 70.672 39.1197 70.632 39.0477 70.568C38.9757 70.496 38.9277 70.412 38.9037 70.316C38.8797 70.22 38.8837 70.124 38.9157 70.028C38.9557 69.924 39.0357 69.84 39.1557 69.776L40.8117 68.696C40.9317 68.624 41.0437 68.568 41.1477 68.528C41.2597 68.48 41.3677 68.456 41.4717 68.456C41.5917 68.456 41.6957 68.492 41.7837 68.564C41.8717 68.636 41.9157 68.752 41.9157 68.912V76.052H43.3077C43.4677 76.052 43.5877 76.092 43.6677 76.172C43.7557 76.252 43.7997 76.368 43.7997 76.52C43.7997 76.672 43.7557 76.792 43.6677 76.88C43.5877 76.96 43.4677 77 43.3077 77H39.2877ZM48.652 77.084C48.508 77.084 48.392 77.052 48.304 76.988C48.224 76.924 48.176 76.836 48.16 76.724C48.144 76.612 48.168 76.488 48.232 76.352L51.508 68.936C51.58 68.768 51.672 68.648 51.784 68.576C51.896 68.496 52.02 68.456 52.156 68.456C52.292 68.456 52.412 68.496 52.516 68.576C52.628 68.648 52.724 68.768 52.804 68.936L56.08 76.352C56.144 76.488 56.168 76.616 56.152 76.736C56.144 76.848 56.1 76.936 56.02 77C55.94 77.056 55.828 77.084 55.684 77.084C55.524 77.084 55.396 77.044 55.3 76.964C55.204 76.876 55.12 76.752 55.048 76.592L54.196 74.6L54.712 74.888H49.576L50.092 74.6L49.24 76.592C49.168 76.768 49.088 76.896 49 76.976C48.912 77.048 48.796 77.084 48.652 77.084ZM52.132 69.8L50.26 74.228L49.972 73.976H54.316L54.04 74.228L52.156 69.8H52.132ZM61.1404 77.108C60.3004 77.108 59.5804 76.932 58.9804 76.58C58.3804 76.228 57.9164 75.728 57.5884 75.08C57.2684 74.424 57.1084 73.652 57.1084 72.764C57.1084 72.1 57.2004 71.504 57.3844 70.976C57.5684 70.44 57.8324 69.984 58.1764 69.608C58.5204 69.224 58.9404 68.932 59.4364 68.732C59.9404 68.532 60.5084 68.432 61.1404 68.432C61.6204 68.432 62.0804 68.5 62.5204 68.636C62.9684 68.772 63.3524 68.964 63.6724 69.212C63.8004 69.3 63.8844 69.4 63.9244 69.512C63.9644 69.624 63.9684 69.732 63.9364 69.836C63.9124 69.932 63.8604 70.016 63.7804 70.088C63.7084 70.152 63.6164 70.188 63.5044 70.196C63.3924 70.196 63.2724 70.152 63.1444 70.064C62.8644 69.848 62.5564 69.692 62.2204 69.596C61.8924 69.492 61.5404 69.44 61.1644 69.44C60.5484 69.44 60.0244 69.572 59.5924 69.836C59.1684 70.092 58.8444 70.468 58.6204 70.964C58.4044 71.452 58.2964 72.052 58.2964 72.764C58.2964 73.468 58.4044 74.072 58.6204 74.576C58.8444 75.072 59.1684 75.452 59.5924 75.716C60.0244 75.972 60.5484 76.1 61.1644 76.1C61.5404 76.1 61.8964 76.048 62.2324 75.944C62.5764 75.84 62.8924 75.68 63.1804 75.464C63.3084 75.376 63.4244 75.336 63.5284 75.344C63.6404 75.352 63.7324 75.388 63.8044 75.452C63.8764 75.508 63.9244 75.588 63.9484 75.692C63.9804 75.788 63.9804 75.888 63.9484 75.992C63.9164 76.096 63.8444 76.188 63.7324 76.268C63.4044 76.548 63.0124 76.76 62.5564 76.904C62.1084 77.04 61.6364 77.108 61.1404 77.108ZM66.07 77.084C65.894 77.084 65.758 77.036 65.662 76.94C65.566 76.836 65.518 76.692 65.518 76.508V69.032C65.518 68.84 65.566 68.696 65.662 68.6C65.758 68.504 65.894 68.456 66.07 68.456C66.254 68.456 66.394 68.504 66.49 68.6C66.586 68.696 66.634 68.84 66.634 69.032V72.236H71.53V69.032C71.53 68.84 71.578 68.696 71.674 68.6C71.77 68.504 71.91 68.456 72.094 68.456C72.27 68.456 72.406 68.504 72.502 68.6C72.598 68.696 72.646 68.84 72.646 69.032V76.508C72.646 76.692 72.598 76.836 72.502 76.94C72.406 77.036 72.27 77.084 72.094 77.084C71.91 77.084 71.77 77.036 71.674 76.94C71.578 76.836 71.53 76.692 71.53 76.508V73.184H66.634V76.508C66.634 76.692 66.586 76.836 66.49 76.94C66.402 77.036 66.262 77.084 66.07 77.084ZM75.2341 77.084C75.0581 77.084 74.9221 77.036 74.8261 76.94C74.7301 76.836 74.6821 76.692 74.6821 76.508V69.032C74.6821 68.84 74.7301 68.696 74.8261 68.6C74.9221 68.504 75.0581 68.456 75.2341 68.456C75.4181 68.456 75.5581 68.504 75.6541 68.6C75.7501 68.696 75.7981 68.84 75.7981 69.032V76.508C75.7981 76.692 75.7501 76.836 75.6541 76.94C75.5661 77.036 75.4261 77.084 75.2341 77.084ZM78.4227 77C78.2307 77 78.0827 76.948 77.9787 76.844C77.8747 76.74 77.8227 76.592 77.8227 76.4V69.14C77.8227 68.948 77.8747 68.8 77.9787 68.696C78.0827 68.592 78.2307 68.54 78.4227 68.54H82.8387C82.9907 68.54 83.1067 68.58 83.1867 68.66C83.2747 68.732 83.3187 68.84 83.3187 68.984C83.3187 69.136 83.2747 69.252 83.1867 69.332C83.1067 69.412 82.9907 69.452 82.8387 69.452H78.9027V72.248H82.5867C82.7387 72.248 82.8547 72.288 82.9347 72.368C83.0147 72.448 83.0547 72.56 83.0547 72.704C83.0547 72.856 83.0147 72.972 82.9347 73.052C82.8547 73.124 82.7387 73.16 82.5867 73.16H78.9027V76.088H82.8387C82.9907 76.088 83.1067 76.128 83.1867 76.208C83.2747 76.28 83.3187 76.392 83.3187 76.544C83.3187 76.696 83.2747 76.812 83.1867 76.892C83.1067 76.964 82.9907 77 82.8387 77H78.4227ZM87.9397 77.084C87.7717 77.084 87.6357 77.048 87.5317 76.976C87.4277 76.896 87.3397 76.776 87.2677 76.616L84.0157 69.188C83.9517 69.036 83.9317 68.908 83.9557 68.804C83.9877 68.692 84.0477 68.608 84.1357 68.552C84.2317 68.488 84.3437 68.456 84.4717 68.456C84.6397 68.456 84.7637 68.492 84.8437 68.564C84.9317 68.636 85.0077 68.744 85.0717 68.888L88.1677 76.076H87.7477L90.8317 68.888C90.8957 68.744 90.9717 68.636 91.0597 68.564C91.1477 68.492 91.2717 68.456 91.4317 68.456C91.5597 68.456 91.6637 68.488 91.7437 68.552C91.8317 68.616 91.8837 68.704 91.8997 68.816C91.9237 68.92 91.9077 69.044 91.8517 69.188L88.5877 76.616C88.5237 76.776 88.4397 76.896 88.3357 76.976C88.2397 77.048 88.1077 77.084 87.9397 77.084ZM93.7157 77C93.5237 77 93.3757 76.948 93.2717 76.844C93.1677 76.74 93.1157 76.592 93.1157 76.4V69.14C93.1157 68.948 93.1677 68.8 93.2717 68.696C93.3757 68.592 93.5237 68.54 93.7157 68.54H98.1317C98.2837 68.54 98.3997 68.58 98.4797 68.66C98.5677 68.732 98.6117 68.84 98.6117 68.984C98.6117 69.136 98.5677 69.252 98.4797 69.332C98.3997 69.412 98.2837 69.452 98.1317 69.452H94.1957V72.248H97.8797C98.0317 72.248 98.1477 72.288 98.2277 72.368C98.3077 72.448 98.3477 72.56 98.3477 72.704C98.3477 72.856 98.3077 72.972 98.2277 73.052C98.1477 73.124 98.0317 73.16 97.8797 73.16H94.1957V76.088H98.1317C98.2837 76.088 98.3997 76.128 98.4797 76.208C98.5677 76.28 98.6117 76.392 98.6117 76.544C98.6117 76.696 98.5677 76.812 98.4797 76.892C98.3997 76.964 98.2837 77 98.1317 77H93.7157ZM100.675 77.084C100.515 77.084 100.391 77.036 100.303 76.94C100.215 76.844 100.171 76.716 100.171 76.556V68.984C100.171 68.816 100.215 68.688 100.303 68.6C100.399 68.504 100.527 68.456 100.687 68.456C100.831 68.456 100.943 68.484 101.023 68.54C101.111 68.596 101.191 68.692 101.263 68.828L104.479 74.864H104.107L107.323 68.828C107.395 68.692 107.471 68.596 107.551 68.54C107.631 68.484 107.743 68.456 107.887 68.456C108.047 68.456 108.171 68.504 108.259 68.6C108.347 68.688 108.391 68.816 108.391 68.984V76.556C108.391 76.716 108.347 76.844 108.259 76.94C108.179 77.036 108.055 77.084 107.887 77.084C107.719 77.084 107.591 77.036 107.503 76.94C107.423 76.844 107.383 76.716 107.383 76.556V70.088H107.647L104.767 75.476C104.703 75.58 104.635 75.66 104.563 75.716C104.499 75.764 104.407 75.788 104.287 75.788C104.175 75.788 104.079 75.76 103.999 75.704C103.927 75.648 103.863 75.572 103.807 75.476L100.891 70.076H101.179V76.556C101.179 76.716 101.135 76.844 101.047 76.94C100.967 77.036 100.843 77.084 100.675 77.084ZM111.048 77C110.856 77 110.708 76.948 110.604 76.844C110.5 76.74 110.448 76.592 110.448 76.4V69.14C110.448 68.948 110.5 68.8 110.604 68.696C110.708 68.592 110.856 68.54 111.048 68.54H115.464C115.616 68.54 115.732 68.58 115.812 68.66C115.9 68.732 115.944 68.84 115.944 68.984C115.944 69.136 115.9 69.252 115.812 69.332C115.732 69.412 115.616 69.452 115.464 69.452H111.528V72.248H115.212C115.364 72.248 115.48 72.288 115.56 72.368C115.64 72.448 115.68 72.56 115.68 72.704C115.68 72.856 115.64 72.972 115.56 73.052C115.48 73.124 115.364 73.16 115.212 73.16H111.528V76.088H115.464C115.616 76.088 115.732 76.128 115.812 76.208C115.9 76.28 115.944 76.392 115.944 76.544C115.944 76.696 115.9 76.812 115.812 76.892C115.732 76.964 115.616 77 115.464 77H111.048ZM117.995 77.084C117.835 77.084 117.707 77.036 117.611 76.94C117.523 76.844 117.479 76.712 117.479 76.544V69.02C117.479 68.836 117.523 68.696 117.611 68.6C117.699 68.504 117.815 68.456 117.959 68.456C118.095 68.456 118.199 68.48 118.271 68.528C118.343 68.576 118.423 68.66 118.511 68.78L123.599 75.524H123.299V68.996C123.299 68.82 123.343 68.688 123.431 68.6C123.527 68.504 123.659 68.456 123.827 68.456C123.995 68.456 124.123 68.504 124.211 68.6C124.299 68.688 124.343 68.82 124.343 68.996V76.544C124.343 76.712 124.299 76.844 124.211 76.94C124.131 77.036 124.023 77.084 123.887 77.084C123.759 77.084 123.651 77.056 123.563 77C123.483 76.952 123.399 76.868 123.311 76.748L118.235 70.004H118.511V76.544C118.511 76.712 118.467 76.844 118.379 76.94C118.291 77.036 118.163 77.084 117.995 77.084ZM129.002 77.084C128.818 77.084 128.678 77.036 128.582 76.94C128.486 76.836 128.438 76.692 128.438 76.508V69.488H125.81C125.658 69.488 125.538 69.448 125.45 69.368C125.362 69.28 125.318 69.16 125.318 69.008C125.318 68.856 125.362 68.74 125.45 68.66C125.538 68.58 125.658 68.54 125.81 68.54H132.182C132.342 68.54 132.462 68.58 132.542 68.66C132.63 68.74 132.674 68.856 132.674 69.008C132.674 69.16 132.63 69.28 132.542 69.368C132.462 69.448 132.342 69.488 132.182 69.488H129.554V76.508C129.554 76.692 129.506 76.836 129.41 76.94C129.322 77.036 129.186 77.084 129.002 77.084ZM136.142 77.108C135.766 77.108 135.402 77.076 135.05 77.012C134.698 76.956 134.366 76.868 134.054 76.748C133.742 76.628 133.462 76.48 133.214 76.304C133.11 76.232 133.034 76.144 132.986 76.04C132.946 75.936 132.934 75.836 132.95 75.74C132.974 75.636 133.018 75.548 133.082 75.476C133.154 75.404 133.238 75.36 133.334 75.344C133.43 75.328 133.534 75.36 133.646 75.44C134.014 75.688 134.398 75.868 134.798 75.98C135.206 76.092 135.654 76.148 136.142 76.148C136.846 76.148 137.362 76.02 137.69 75.764C138.026 75.508 138.194 75.172 138.194 74.756C138.194 74.412 138.074 74.144 137.834 73.952C137.594 73.752 137.19 73.596 136.622 73.484L135.35 73.22C134.598 73.06 134.034 72.796 133.658 72.428C133.29 72.06 133.106 71.568 133.106 70.952C133.106 70.576 133.182 70.236 133.334 69.932C133.486 69.62 133.702 69.352 133.982 69.128C134.262 68.904 134.59 68.732 134.966 68.612C135.35 68.492 135.774 68.432 136.238 68.432C136.734 68.432 137.198 68.5 137.63 68.636C138.07 68.772 138.466 68.972 138.818 69.236C138.914 69.308 138.978 69.396 139.01 69.5C139.042 69.596 139.046 69.692 139.022 69.788C139.006 69.884 138.962 69.964 138.89 70.028C138.826 70.092 138.742 70.128 138.638 70.136C138.542 70.144 138.434 70.108 138.314 70.028C137.994 69.804 137.666 69.644 137.33 69.548C136.994 69.444 136.626 69.392 136.226 69.392C135.818 69.392 135.462 69.456 135.158 69.584C134.862 69.712 134.63 69.892 134.462 70.124C134.302 70.348 134.222 70.612 134.222 70.916C134.222 71.284 134.334 71.572 134.558 71.78C134.782 71.988 135.158 72.148 135.686 72.26L136.946 72.512C137.746 72.68 138.338 72.94 138.722 73.292C139.114 73.636 139.31 74.1 139.31 74.684C139.31 75.052 139.234 75.384 139.082 75.68C138.938 75.976 138.73 76.232 138.458 76.448C138.186 76.656 137.854 76.82 137.462 76.94C137.07 77.052 136.63 77.108 136.142 77.108Z" fill="#A6C4F1"/>
<path d="M9.34351 36.4029H147.806L161.519 22.6839V1.2066H23.0625L9.34351 14.9256V36.4029Z" fill="url(#paint0_linear_4_4440)"/>
<path d="M161.52 1.20659V22.6839L147.807 36.4029H9.34445V14.9255L23.0634 1.20659H161.52ZM162.726 0H22.5627L22.2128 0.355945L13.7666 8.80209L8.51793 14.0508L8.16199 14.4007V37.6095H148.302L148.652 37.2596L157.393 28.5178L162.37 23.5285L162.726 23.1726V0Z" fill="url(#paint1_linear_4_4440)"/>
<path d="M9.34351 36.4029H147.806L161.519 22.6839V1.2066H23.0625L9.34351 14.9256V36.4029Z" fill="#2E5799"/>
<path d="M159.709 3.01649V21.9359L155.697 25.9417L147.052 34.593H11.1534V15.6857L17.494 9.34507L23.8105 3.01649H159.709ZM161.519 1.2066H23.0625L9.34351 14.9256V36.4029H147.806L161.519 22.6839V1.2066Z" fill="url(#paint2_linear_4_4440)"/>
<path d="M40.3934 23.8037C39.9241 23.8037 39.4548 23.7664 38.9854 23.6917C38.5161 23.6277 38.0734 23.5264 37.6574 23.3877C37.2414 23.2384 36.8681 23.0571 36.5374 22.8437C36.3454 22.7157 36.2121 22.5611 36.1374 22.3797C36.0628 22.1984 36.0361 22.0224 36.0574 21.8517C36.0894 21.6704 36.1588 21.5157 36.2654 21.3877C36.3828 21.2491 36.5268 21.1637 36.6974 21.1317C36.8681 21.0997 37.0548 21.1477 37.2574 21.2757C37.7268 21.5531 38.2228 21.7557 38.7454 21.8837C39.2681 22.0117 39.8174 22.0757 40.3934 22.0757C41.2361 22.0757 41.8494 21.9371 42.2334 21.6597C42.6174 21.3717 42.8094 21.0037 42.8094 20.5557C42.8094 20.1824 42.6708 19.8891 42.3934 19.6757C42.1268 19.4624 41.6628 19.2864 41.0014 19.1477L39.2414 18.7797C38.2281 18.5664 37.4708 18.2091 36.9694 17.7077C36.4788 17.1957 36.2334 16.5237 36.2334 15.6917C36.2334 15.1691 36.3401 14.6944 36.5534 14.2677C36.7668 13.8411 37.0654 13.4731 37.4494 13.1637C37.8441 12.8544 38.3081 12.6197 38.8414 12.4597C39.3854 12.2891 39.9828 12.2037 40.6334 12.2037C41.2734 12.2037 41.8814 12.2837 42.4574 12.4437C43.0334 12.6037 43.5508 12.8384 44.0094 13.1477C44.1801 13.2651 44.2921 13.4091 44.3454 13.5797C44.4094 13.7504 44.4254 13.9211 44.3934 14.0917C44.3614 14.2517 44.2868 14.3904 44.1694 14.5077C44.0521 14.6251 43.9028 14.6944 43.7214 14.7157C43.5508 14.7371 43.3534 14.6837 43.1294 14.5557C42.7348 14.3317 42.3348 14.1717 41.9294 14.0757C41.5241 13.9797 41.0868 13.9317 40.6174 13.9317C40.1268 13.9317 39.7054 14.0011 39.3534 14.1397C39.0014 14.2784 38.7294 14.4757 38.5374 14.7317C38.3561 14.9771 38.2654 15.2704 38.2654 15.6117C38.2654 15.9957 38.3934 16.3051 38.6494 16.5397C38.9054 16.7637 39.3428 16.9397 39.9614 17.0677L41.7054 17.4357C42.7614 17.6597 43.5454 18.0117 44.0574 18.4917C44.5801 18.9717 44.8414 19.6117 44.8414 20.4117C44.8414 20.9237 44.7348 21.3877 44.5214 21.8037C44.3188 22.2197 44.0201 22.5771 43.6254 22.8757C43.2414 23.1744 42.7774 23.4037 42.2334 23.5637C41.6894 23.7237 41.0761 23.8037 40.3934 23.8037ZM49.9131 23.8037C49.2197 23.8037 48.6384 23.6864 48.1691 23.4517C47.7104 23.2171 47.3691 22.8757 47.1451 22.4277C46.9211 21.9691 46.8091 21.4037 46.8091 20.7317V17.3237H45.9771C45.7211 17.3237 45.5237 17.2597 45.3851 17.1317C45.2464 16.9931 45.1771 16.8064 45.1771 16.5717C45.1771 16.3264 45.2464 16.1397 45.3851 16.0117C45.5237 15.8837 45.7211 15.8197 45.9771 15.8197H46.8091V14.3637C46.8091 14.0331 46.8944 13.7824 47.0651 13.6117C47.2464 13.4411 47.4971 13.3557 47.8171 13.3557C48.1371 13.3557 48.3824 13.4411 48.5531 13.6117C48.7237 13.7824 48.8091 14.0331 48.8091 14.3637V15.8197H50.5051C50.7611 15.8197 50.9584 15.8837 51.0971 16.0117C51.2357 16.1397 51.3051 16.3264 51.3051 16.5717C51.3051 16.8064 51.2357 16.9931 51.0971 17.1317C50.9584 17.2597 50.7611 17.3237 50.5051 17.3237H48.8091V20.6197C48.8091 21.1317 48.9211 21.5157 49.1451 21.7717C49.3691 22.0277 49.7317 22.1557 50.2331 22.1557C50.4144 22.1557 50.5744 22.1397 50.7131 22.1077C50.8517 22.0757 50.9744 22.0544 51.0811 22.0437C51.2091 22.0331 51.3157 22.0757 51.4011 22.1717C51.4864 22.2571 51.5291 22.4384 51.5291 22.7157C51.5291 22.9291 51.4917 23.1211 51.4171 23.2917C51.3531 23.4517 51.2304 23.5637 51.0491 23.6277C50.9104 23.6704 50.7291 23.7077 50.5051 23.7397C50.2811 23.7824 50.0837 23.8037 49.9131 23.8037ZM56.2476 23.8037C55.3622 23.8037 54.5996 23.6384 53.9596 23.3077C53.3196 22.9771 52.8236 22.5077 52.4716 21.8997C52.1302 21.2917 51.9596 20.5717 51.9596 19.7397C51.9596 18.9291 52.1249 18.2197 52.4556 17.6117C52.7969 17.0037 53.2609 16.5291 53.8476 16.1877C54.4449 15.8357 55.1222 15.6597 55.8796 15.6597C56.4342 15.6597 56.9302 15.7504 57.3676 15.9317C57.8156 16.1131 58.1942 16.3744 58.5036 16.7157C58.8236 17.0571 59.0636 17.4731 59.2236 17.9637C59.3942 18.4437 59.4796 18.9877 59.4796 19.5957C59.4796 19.7877 59.4102 19.9371 59.2716 20.0437C59.1436 20.1397 58.9569 20.1877 58.7116 20.1877H53.5756V19.0357H58.0716L57.8156 19.2757C57.8156 18.7851 57.7409 18.3744 57.5916 18.0437C57.4529 17.7131 57.2449 17.4624 56.9676 17.2917C56.7009 17.1104 56.3649 17.0197 55.9596 17.0197C55.5116 17.0197 55.1276 17.1264 54.8076 17.3397C54.4982 17.5424 54.2582 17.8357 54.0876 18.2197C53.9276 18.5931 53.8476 19.0411 53.8476 19.5637V19.6757C53.8476 20.5504 54.0502 21.2064 54.4556 21.6437C54.8716 22.0704 55.4796 22.2837 56.2796 22.2837C56.5569 22.2837 56.8662 22.2517 57.2076 22.1877C57.5596 22.1131 57.8902 21.9904 58.1996 21.8197C58.4236 21.6917 58.6209 21.6384 58.7916 21.6597C58.9622 21.6704 59.0956 21.7291 59.1916 21.8357C59.2982 21.9424 59.3622 22.0757 59.3836 22.2357C59.4049 22.3851 59.3729 22.5397 59.2876 22.6997C59.2129 22.8597 59.0796 22.9984 58.8876 23.1157C58.5142 23.3504 58.0822 23.5264 57.5916 23.6437C57.1116 23.7504 56.6636 23.8037 56.2476 23.8037ZM62.0554 26.6517C61.7354 26.6517 61.4901 26.5664 61.3194 26.3957C61.1488 26.2251 61.0634 25.9744 61.0634 25.6437V16.6997C61.0634 16.3691 61.1488 16.1184 61.3194 15.9477C61.4901 15.7771 61.7301 15.6917 62.0394 15.6917C62.3594 15.6917 62.6048 15.7771 62.7754 15.9477C62.9461 16.1184 63.0314 16.3691 63.0314 16.6997V17.9477L62.8554 17.4677C63.0154 16.9237 63.3408 16.4864 63.8314 16.1557C64.3328 15.8251 64.9141 15.6597 65.5754 15.6597C66.2581 15.6597 66.8554 15.8251 67.3674 16.1557C67.8901 16.4864 68.2954 16.9557 68.5834 17.5637C68.8714 18.1611 69.0154 18.8811 69.0154 19.7237C69.0154 20.5557 68.8714 21.2811 68.5834 21.8997C68.2954 22.5077 67.8954 22.9771 67.3834 23.3077C66.8714 23.6384 66.2688 23.8037 65.5754 23.8037C64.9248 23.8037 64.3541 23.6437 63.8634 23.3237C63.3728 22.9931 63.0421 22.5664 62.8714 22.0437H63.0634V25.6437C63.0634 25.9744 62.9728 26.2251 62.7914 26.3957C62.6208 26.5664 62.3754 26.6517 62.0554 26.6517ZM65.0154 22.2837C65.4101 22.2837 65.7568 22.1877 66.0554 21.9957C66.3541 21.8037 66.5834 21.5211 66.7434 21.1477C66.9141 20.7637 66.9994 20.2891 66.9994 19.7237C66.9994 18.8704 66.8181 18.2357 66.4554 17.8197C66.0928 17.3931 65.6128 17.1797 65.0154 17.1797C64.6208 17.1797 64.2741 17.2757 63.9754 17.4677C63.6768 17.6491 63.4421 17.9317 63.2714 18.3157C63.1114 18.6891 63.0314 19.1584 63.0314 19.7237C63.0314 20.5664 63.2128 21.2064 63.5754 21.6437C63.9381 22.0704 64.4181 22.2837 65.0154 22.2837ZM71.6492 23.7717C71.3292 23.7717 71.0839 23.6864 70.9132 23.5157C70.7425 23.3344 70.6572 23.0784 70.6572 22.7477V13.2437C70.6572 12.9131 70.7425 12.6624 70.9132 12.4917C71.0839 12.3211 71.3292 12.2357 71.6492 12.2357C71.9692 12.2357 72.2145 12.3211 72.3852 12.4917C72.5665 12.6624 72.6572 12.9131 72.6572 13.2437V17.3877H72.4332C72.6679 16.8224 73.0305 16.3957 73.5212 16.1077C74.0225 15.8091 74.5879 15.6597 75.2172 15.6597C75.8465 15.6597 76.3639 15.7771 76.7692 16.0117C77.1745 16.2464 77.4785 16.6037 77.6812 17.0837C77.8839 17.5531 77.9852 18.1504 77.9852 18.8757V22.7477C77.9852 23.0784 77.8999 23.3344 77.7292 23.5157C77.5585 23.6864 77.3132 23.7717 76.9932 23.7717C76.6732 23.7717 76.4225 23.6864 76.2412 23.5157C76.0705 23.3344 75.9852 23.0784 75.9852 22.7477V18.9717C75.9852 18.3637 75.8679 17.9211 75.6332 17.6437C75.4092 17.3664 75.0572 17.2277 74.5772 17.2277C73.9905 17.2277 73.5212 17.4144 73.1692 17.7877C72.8279 18.1504 72.6572 18.6357 72.6572 19.2437V22.7477C72.6572 23.4304 72.3212 23.7717 71.6492 23.7717ZM82.5926 23.8037C82.0272 23.8037 81.5206 23.6971 81.0726 23.4837C80.6352 23.2597 80.2886 22.9611 80.0326 22.5877C79.7872 22.2144 79.6646 21.7931 79.6646 21.3237C79.6646 20.7477 79.8139 20.2944 80.1126 19.9637C80.4112 19.6224 80.8966 19.3771 81.5686 19.2277C82.2406 19.0784 83.1419 19.0037 84.2726 19.0037H85.0726V20.1557H84.2886C83.6272 20.1557 83.0992 20.1877 82.7046 20.2517C82.3099 20.3157 82.0272 20.4277 81.8566 20.5877C81.6966 20.7371 81.6166 20.9504 81.6166 21.2277C81.6166 21.5797 81.7392 21.8677 81.9846 22.0917C82.2299 22.3157 82.5712 22.4277 83.0086 22.4277C83.3606 22.4277 83.6699 22.3477 83.9366 22.1877C84.2139 22.0171 84.4326 21.7877 84.5926 21.4997C84.7526 21.2117 84.8326 20.8811 84.8326 20.5077V18.6677C84.8326 18.1344 84.7152 17.7504 84.4806 17.5157C84.2459 17.2811 83.8512 17.1637 83.2966 17.1637C82.9872 17.1637 82.6512 17.2011 82.2886 17.2757C81.9366 17.3504 81.5632 17.4784 81.1686 17.6597C80.9659 17.7557 80.7846 17.7824 80.6246 17.7397C80.4752 17.6971 80.3579 17.6117 80.2726 17.4837C80.1872 17.3451 80.1446 17.1957 80.1446 17.0357C80.1446 16.8757 80.1872 16.7211 80.2726 16.5717C80.3579 16.4117 80.5019 16.2944 80.7046 16.2197C81.1952 16.0171 81.6646 15.8731 82.1126 15.7877C82.5712 15.7024 82.9872 15.6597 83.3606 15.6597C84.1286 15.6597 84.7579 15.7771 85.2486 16.0117C85.7499 16.2464 86.1232 16.6037 86.3686 17.0837C86.6139 17.5531 86.7366 18.1611 86.7366 18.9077V22.7477C86.7366 23.0784 86.6566 23.3344 86.4966 23.5157C86.3366 23.6864 86.1072 23.7717 85.8086 23.7717C85.5099 23.7717 85.2752 23.6864 85.1046 23.5157C84.9446 23.3344 84.8646 23.0784 84.8646 22.7477V21.9797H84.9926C84.9179 22.3531 84.7686 22.6784 84.5446 22.9557C84.3312 23.2224 84.0592 23.4304 83.7286 23.5797C83.3979 23.7291 83.0192 23.8037 82.5926 23.8037ZM89.7586 23.7717C89.4386 23.7717 89.1932 23.6864 89.0226 23.5157C88.8519 23.3344 88.7666 23.0784 88.7666 22.7477V16.6997C88.7666 16.3691 88.8519 16.1184 89.0226 15.9477C89.1932 15.7771 89.4332 15.6917 89.7426 15.6917C90.0519 15.6917 90.2919 15.7771 90.4626 15.9477C90.6332 16.1184 90.7186 16.3691 90.7186 16.6997V17.7877L90.5426 17.3877C90.7772 16.8224 91.1399 16.3957 91.6306 16.1077C92.1319 15.8091 92.6972 15.6597 93.3266 15.6597C93.9559 15.6597 94.4732 15.7771 94.8786 16.0117C95.2839 16.2464 95.5879 16.6037 95.7906 17.0837C95.9932 17.5531 96.0946 18.1504 96.0946 18.8757V22.7477C96.0946 23.0784 96.0092 23.3344 95.8386 23.5157C95.6679 23.6864 95.4226 23.7717 95.1026 23.7717C94.7826 23.7717 94.5319 23.6864 94.3506 23.5157C94.1799 23.3344 94.0946 23.0784 94.0946 22.7477V18.9717C94.0946 18.3637 93.9772 17.9211 93.7426 17.6437C93.5186 17.3664 93.1666 17.2277 92.6866 17.2277C92.0999 17.2277 91.6306 17.4144 91.2786 17.7877C90.9372 18.1504 90.7666 18.6357 90.7666 19.2437V22.7477C90.7666 23.4304 90.4306 23.7717 89.7586 23.7717ZM99.1179 23.7557C98.7979 23.7557 98.5526 23.6597 98.3819 23.4677C98.2113 23.2757 98.1259 23.0091 98.1259 22.6677V16.7957C98.1259 16.4437 98.2113 16.1771 98.3819 15.9957C98.5526 15.8037 98.7979 15.7077 99.1179 15.7077C99.4379 15.7077 99.6833 15.8037 99.8539 15.9957C100.035 16.1771 100.126 16.4437 100.126 16.7957V22.6677C100.126 23.0091 100.041 23.2757 99.8699 23.4677C99.6993 23.6597 99.4486 23.7557 99.1179 23.7557ZM99.1179 14.2197C98.7446 14.2197 98.4513 14.1291 98.2379 13.9477C98.0353 13.7557 97.9339 13.4944 97.9339 13.1637C97.9339 12.8224 98.0353 12.5611 98.2379 12.3797C98.4513 12.1984 98.7446 12.1077 99.1179 12.1077C99.5019 12.1077 99.7953 12.1984 99.9979 12.3797C100.201 12.5611 100.302 12.8224 100.302 13.1637C100.302 13.4944 100.201 13.7557 99.9979 13.9477C99.7953 14.1291 99.5019 14.2197 99.1179 14.2197ZM106.06 23.8037C105.175 23.8037 104.412 23.6384 103.772 23.3077C103.132 22.9771 102.636 22.5077 102.284 21.8997C101.943 21.2917 101.772 20.5717 101.772 19.7397C101.772 18.9291 101.937 18.2197 102.268 17.6117C102.609 17.0037 103.073 16.5291 103.66 16.1877C104.257 15.8357 104.935 15.6597 105.692 15.6597C106.247 15.6597 106.743 15.7504 107.18 15.9317C107.628 16.1131 108.007 16.3744 108.316 16.7157C108.636 17.0571 108.876 17.4731 109.036 17.9637C109.207 18.4437 109.292 18.9877 109.292 19.5957C109.292 19.7877 109.223 19.9371 109.084 20.0437C108.956 20.1397 108.769 20.1877 108.524 20.1877H103.388V19.0357H107.884L107.628 19.2757C107.628 18.7851 107.553 18.3744 107.404 18.0437C107.265 17.7131 107.057 17.4624 106.78 17.2917C106.513 17.1104 106.177 17.0197 105.772 17.0197C105.324 17.0197 104.94 17.1264 104.62 17.3397C104.311 17.5424 104.071 17.8357 103.9 18.2197C103.74 18.5931 103.66 19.0411 103.66 19.5637V19.6757C103.66 20.5504 103.863 21.2064 104.268 21.6437C104.684 22.0704 105.292 22.2837 106.092 22.2837C106.369 22.2837 106.679 22.2517 107.02 22.1877C107.372 22.1131 107.703 21.9904 108.012 21.8197C108.236 21.6917 108.433 21.6384 108.604 21.6597C108.775 21.6704 108.908 21.7291 109.004 21.8357C109.111 21.9424 109.175 22.0757 109.196 22.2357C109.217 22.3851 109.185 22.5397 109.1 22.6997C109.025 22.8597 108.892 22.9984 108.7 23.1157C108.327 23.3504 107.895 23.5264 107.404 23.6437C106.924 23.7504 106.476 23.8037 106.06 23.8037ZM114.916 23.7557C114.617 23.7664 114.382 23.6864 114.212 23.5157C114.041 23.3451 113.956 23.1264 113.956 22.8597C113.956 22.6571 114.02 22.4811 114.148 22.3317C114.265 22.1717 114.441 22.0864 114.676 22.0757L115.156 22.0437C115.625 22.0117 115.977 21.8677 116.212 21.6117C116.457 21.3451 116.58 20.9664 116.58 20.4757V13.2757C116.58 12.9344 116.665 12.6784 116.836 12.5077C117.017 12.3264 117.273 12.2357 117.604 12.2357C117.934 12.2357 118.185 12.3264 118.356 12.5077C118.537 12.6784 118.628 12.9344 118.628 13.2757V20.4597C118.628 21.1317 118.505 21.7024 118.26 22.1717C118.025 22.6411 117.673 23.0091 117.204 23.2757C116.734 23.5317 116.153 23.6811 115.46 23.7237L114.916 23.7557ZM124.444 23.8037C123.633 23.8037 122.929 23.6384 122.332 23.3077C121.735 22.9771 121.271 22.5077 120.94 21.8997C120.609 21.2811 120.444 20.5557 120.444 19.7237C120.444 19.0944 120.535 18.5344 120.716 18.0437C120.908 17.5424 121.18 17.1157 121.532 16.7637C121.884 16.4011 122.305 16.1291 122.796 15.9477C123.287 15.7557 123.836 15.6597 124.444 15.6597C125.255 15.6597 125.959 15.8251 126.556 16.1557C127.153 16.4864 127.617 16.9557 127.948 17.5637C128.279 18.1717 128.444 18.8917 128.444 19.7237C128.444 20.3531 128.348 20.9184 128.156 21.4197C127.975 21.9211 127.708 22.3531 127.356 22.7157C127.004 23.0677 126.583 23.3397 126.092 23.5317C125.601 23.7131 125.052 23.8037 124.444 23.8037ZM124.444 22.2837C124.839 22.2837 125.185 22.1877 125.484 21.9957C125.783 21.8037 126.012 21.5211 126.172 21.1477C126.343 20.7637 126.428 20.2891 126.428 19.7237C126.428 18.8704 126.247 18.2357 125.884 17.8197C125.521 17.3931 125.041 17.1797 124.444 17.1797C124.049 17.1797 123.703 17.2757 123.404 17.4677C123.105 17.6491 122.871 17.9317 122.7 18.3157C122.54 18.6891 122.46 19.1584 122.46 19.7237C122.46 20.5664 122.641 21.2064 123.004 21.6437C123.367 22.0704 123.847 22.2837 124.444 22.2837ZM133.951 23.8037C133.065 23.8037 132.303 23.6384 131.663 23.3077C131.023 22.9771 130.527 22.5077 130.175 21.8997C129.833 21.2917 129.663 20.5717 129.663 19.7397C129.663 18.9291 129.828 18.2197 130.159 17.6117C130.5 17.0037 130.964 16.5291 131.551 16.1877C132.148 15.8357 132.825 15.6597 133.583 15.6597C134.137 15.6597 134.633 15.7504 135.071 15.9317C135.519 16.1131 135.897 16.3744 136.207 16.7157C136.527 17.0571 136.767 17.4731 136.927 17.9637C137.097 18.4437 137.183 18.9877 137.183 19.5957C137.183 19.7877 137.113 19.9371 136.975 20.0437C136.847 20.1397 136.66 20.1877 136.415 20.1877H131.279V19.0357H135.775L135.519 19.2757C135.519 18.7851 135.444 18.3744 135.295 18.0437C135.156 17.7131 134.948 17.4624 134.671 17.2917C134.404 17.1104 134.068 17.0197 133.663 17.0197C133.215 17.0197 132.831 17.1264 132.511 17.3397C132.201 17.5424 131.961 17.8357 131.791 18.2197C131.631 18.5931 131.551 19.0411 131.551 19.5637V19.6757C131.551 20.5504 131.753 21.2064 132.159 21.6437C132.575 22.0704 133.183 22.2837 133.983 22.2837C134.26 22.2837 134.569 22.2517 134.911 22.1877C135.263 22.1131 135.593 21.9904 135.903 21.8197C136.127 21.6917 136.324 21.6384 136.495 21.6597C136.665 21.6704 136.799 21.7291 136.895 21.8357C137.001 21.9424 137.065 22.0757 137.087 22.2357C137.108 22.3851 137.076 22.5397 136.991 22.6997C136.916 22.8597 136.783 22.9984 136.591 23.1157C136.217 23.3504 135.785 23.5264 135.295 23.6437C134.815 23.7504 134.367 23.8037 133.951 23.8037Z" fill="white"/>
<defs>
<linearGradient id="paint0_linear_4_4440" x1="85.4312" y1="1.2066" x2="85.4312" y2="36.4029" gradientUnits="userSpaceOnUse">
<stop stop-color="#DFF2F2"/>
<stop offset="0.48" stop-color="#C3F4F9"/>
<stop offset="1" stop-color="#A8F5FF"/>
</linearGradient>
<linearGradient id="paint1_linear_4_4440" x1="85.4322" y1="0" x2="85.4322" y2="37.6095" gradientUnits="userSpaceOnUse">
<stop stop-color="#DFF2F2"/>
<stop offset="0.48" stop-color="#C3F4F9"/>
<stop offset="1" stop-color="#A8F5FF"/>
</linearGradient>
<linearGradient id="paint2_linear_4_4440" x1="85.4312" y1="1.2066" x2="85.4312" y2="36.4029" gradientUnits="userSpaceOnUse">
<stop stop-color="#5D93CE"/>
<stop offset="1" stop-color="#202A64"/>
</linearGradient>
</defs>
</svg>
