<svg width="50" height="44" viewBox="0 0 50 44" fill="none" xmlns="http://www.w3.org/2000/svg">
<path d="M2.98535 4.88257L7.12479 0.183594H42.8707L47.0101 4.88257V18.6108H44.5643H43.5248L39.6727 14.6785H34.781L31.2868 9.43545H19.9316L16.4374 14.6785H10.3228L6.47065 18.6108H5.43117H2.98535V4.88257Z" fill="#02253F"/>
<path d="M2.98535 21.9013L5.4081 38.4432H44.5874L47.0101 21.9013H44.5643H42.3019L38.4497 17.969H34.781L31.1123 24.5228H20.1061L16.4374 17.969H11.5457L7.69356 21.9013H5.43117H2.98535Z" fill="#02253F"/>
<path d="M21.5752 11.7109L18.8848 15.5241V17.4306L21.5752 22.1971H29.6464L32.3368 17.4306V15.5241L29.6464 11.7109H21.5752Z" fill="#132C51"/>
<path d="M42.4424 40.6973H46.0419L47.011 34.9844H49.7106L48.7415 43.8135H42.4424V40.6973Z" fill="#132C51"/>
<path d="M43.4126 40.6973H3.90177L2.93267 34.9844H0.287712L1.25681 43.8135H43.4126V40.6973Z" fill="#132C51"/>
</svg>
