<svg width="145" height="128" viewBox="0 0 145 128" fill="none" xmlns="http://www.w3.org/2000/svg">
<path d="M7.88477 13.7342L19.9835 0H124.462L136.561 13.7342V53.8592H129.412H126.374L115.115 42.3659H100.817L90.6043 27.0414H57.4154L47.2024 42.3659H29.3307L18.0716 53.8592H15.0334H7.88477V13.7342Z" fill="#2C6BCA"/>
<path d="M7.88477 63.4766L14.966 111.825H129.479L136.561 63.4766H129.412H122.799L111.54 51.9832H100.817L90.0944 71.1388H57.9254L47.2024 51.9832H32.9051L21.6459 63.4766H15.0334H7.88477Z" fill="#2C6BCA"/>
<path d="M62.219 33.6914L54.3555 44.8365V50.409L62.219 64.3404H85.8096L93.6731 50.409V44.8365L85.8096 33.6914H62.219Z" fill="#FFF380"/>
<path d="M123.21 118.417H133.731L136.563 101.719H144.454L141.621 127.525H123.21V118.417Z" fill="#FFF380"/>
<path d="M126.046 118.417H10.5634L7.7309 101.719H0.000198364L2.83269 127.525H126.046V118.417Z" fill="#FFF380"/>
</svg>
