<svg width="56" height="52" viewBox="0 0 56 52" fill="none" xmlns="http://www.w3.org/2000/svg">
<path d="M3.81294 12.0924L7.25377 6.86415L42.642 1.91298L47.3972 5.99449L49.3171 19.5939L46.8958 19.9326L45.8667 20.0766L41.5031 16.7148L36.6604 17.3923L32.4679 12.6825L21.2264 14.2553L18.5003 19.9331L12.447 20.78L9.18332 25.209L8.15424 25.353L5.7329 25.6917L3.81294 12.0924Z" fill="#2C6BCA"/>
<path d="M6.19308 28.9513L10.905 45.0023L49.6923 39.5756L49.7773 22.8534L47.356 23.1922L45.1162 23.5056L40.7526 20.1437L37.1206 20.6519L34.4052 27.6524L23.5091 29.1768L18.9605 23.1927L14.1178 23.8702L10.8542 28.2992L8.61443 28.6125L6.19308 28.9513Z" fill="#2C6BCA"/>
<path d="M23.1723 16.2836L21.0421 20.4337L21.3087 22.3225L24.6389 26.6716L32.6296 25.5537L34.6265 20.4592L34.3598 18.5704L31.163 15.1656L23.1723 16.2836Z" fill="#FFF380"/>
<path d="M47.8839 42.0924L51.447 41.5939L51.6074 35.8009L54.2798 35.427L54.5552 44.3066L48.3196 45.1791L47.8839 42.0924Z" fill="#FFF380"/>
<path d="M48.8416 41.9639L9.7181 47.4402L7.95936 41.9114L5.34032 42.278L7.53497 50.8958L49.2775 45.0529L48.8416 41.9639Z" fill="#FFF380"/>
</svg>
