<svg width="17" height="17" viewBox="0 0 17 17" fill="none" xmlns="http://www.w3.org/2000/svg">
<circle cx="8.41748" cy="8.28174" r="6.95205" fill="#F4E763" stroke="#044067" stroke-width="0.8"/>
<circle cx="8.41809" cy="8.28235" r="6.73938" fill="#FF8A00" fill-opacity="0.25"/>
<g filter="url(#filter0_f_3134_247204)">
<path fill-rule="evenodd" clip-rule="evenodd" d="M8.41843 15.1718C12.2251 15.1718 15.311 12.0859 15.311 8.27927C15.311 4.47262 12.2251 1.38672 8.41843 1.38672C4.61178 1.38672 1.52588 4.47262 1.52588 8.27927C1.52588 12.0859 4.61178 15.1718 8.41843 15.1718ZM8.41831 14.7018C11.9654 14.7018 14.8409 11.8263 14.8409 8.27915C14.8409 4.73204 11.9654 1.85655 8.41831 1.85655C4.8712 1.85655 1.99571 4.73204 1.99571 8.27915C1.99571 11.8263 4.8712 14.7018 8.41831 14.7018Z" fill="#F4E763"/>
</g>
<g filter="url(#filter1_f_3134_247204)">
<path fill-rule="evenodd" clip-rule="evenodd" d="M8.41895 15.6338C12.4794 15.6338 15.771 12.3422 15.771 8.28174C15.771 4.22131 12.4794 0.929688 8.41895 0.929688C4.35852 0.929688 1.06689 4.22131 1.06689 8.28174C1.06689 12.3422 4.35852 15.6338 8.41895 15.6338ZM8.41875 15.1329C12.2023 15.1329 15.2695 12.0657 15.2695 8.28208C15.2695 4.4985 12.2023 1.4313 8.41875 1.4313C4.63517 1.4313 1.56797 4.4985 1.56797 8.28208C1.56797 12.0657 4.63517 15.1329 8.41875 15.1329Z" fill="#85CFFF" fill-opacity="0.31"/>
</g>
<path fill-rule="evenodd" clip-rule="evenodd" d="M13.7789 8.28275C13.7789 11.2435 11.3787 13.6436 8.418 13.6436C5.45727 13.6436 3.05713 11.2435 3.05713 8.28275C3.05713 5.32202 5.45727 2.92188 8.418 2.92188C11.3787 2.92188 13.7789 5.32202 13.7789 8.28275ZM13.5406 8.28275C13.5406 11.1119 11.2471 13.4054 8.418 13.4054C5.58886 13.4054 3.29539 11.1119 3.29539 8.28275C3.29539 5.45361 5.58886 3.16014 8.418 3.16014C11.2471 3.16014 13.5406 5.45361 13.5406 8.28275Z" fill="#FFDA7B" fill-opacity="0.69" style="mix-blend-mode:color-dodge"/>
<path d="M6.68961 2.00992C3.22588 2.96447 1.19178 6.54619 2.14633 10.0099C3.10087 13.4737 6.6826 15.5078 10.1463 14.5532C13.6101 13.5987 15.6442 10.0169 14.6896 6.5532L14.4109 6.63002C15.323 9.93981 13.3793 13.3623 10.0695 14.2745C6.75972 15.1866 3.33719 13.2429 2.42507 9.93311C1.51295 6.62332 3.45664 3.20078 6.76643 2.28866L6.68961 2.00992Z" fill="#FFE86D" fill-opacity="0.9" style="mix-blend-mode:color-dodge"/>
<path d="M10.8366 2.83597C7.82915 1.50054 4.30854 2.85601 2.97311 5.86348C1.63769 8.87095 2.99315 12.3916 6.00063 13.727C9.0081 15.0624 12.5287 13.707 13.8641 10.6995L13.6221 10.592C12.346 13.4658 8.9819 14.761 6.10809 13.485C3.23429 12.2089 1.93906 8.84476 3.21514 5.97095C4.49121 3.09714 7.85535 1.80192 10.7292 3.07799L10.8366 2.83597Z" fill="#FFE86D" fill-opacity="0.85" style="mix-blend-mode:color-dodge"/>
<g filter="url(#filter2_f_3134_247204)">
<path fill-rule="evenodd" clip-rule="evenodd" d="M5.19818 6.42969H4.86377L5.06388 6.69762L5.93921 7.86966L5.98949 7.93699H6.07352H6.6582L6.63948 7.96206L5.76414 9.1341L5.73082 9.17872V9.23441V10.9339V11.4173L6.03009 11.0376L7.13885 9.63119L7.17484 9.58555V9.52742V9.41292L7.28351 9.5659L8.32428 11.0309L8.45638 11.2169L8.5944 11.0353L11.8902 6.69875L12.0947 6.42969H11.7567H10.1956H10.1114L10.0611 6.49717L7.97204 9.30118H7.42017H7.17484V9.28483H7.70747H7.7915L7.84178 9.21751L8.71711 8.04547L8.79364 7.943L8.71503 7.84212L7.66463 6.49428L7.61429 6.42969H7.53241H5.19818ZM6.15754 7.60173L5.5326 6.76495H7.45052L8.37197 7.94733L7.62344 8.94957H7.00721H6.83958V9.1172V9.46929L6.06608 10.4505V9.29009L6.85781 8.23H7.64912H7.99698L7.78023 7.95792L7.54681 7.66491L7.49647 7.60173H7.41569H6.15754ZM8.19062 9.56896L10.2797 6.76495H11.4188L8.46549 10.6508L7.74487 9.63644H8.05619H8.14034L8.19062 9.56896Z" fill="#629CD0" style="mix-blend-mode:screen"/>
</g>
<path fill-rule="evenodd" clip-rule="evenodd" d="M5.19818 6.42969H4.86377L5.06388 6.69762L5.93921 7.86966L5.98949 7.93699H6.07352H6.6582L6.63948 7.96206L5.76414 9.1341L5.73082 9.17872V9.23441V10.9339V11.4173L6.03009 11.0376L7.13885 9.63119L7.17484 9.58555V9.52742V9.41292L7.28351 9.5659L8.32428 11.0309L8.45638 11.2169L8.5944 11.0353L11.8902 6.69875L12.0947 6.42969H11.7567H10.1956H10.1114L10.0611 6.49717L7.97204 9.30118H7.42017H7.17484V9.28483H7.70747H7.7915L7.84178 9.21751L8.71711 8.04547L8.79364 7.943L8.71503 7.84212L7.66463 6.49428L7.61429 6.42969H7.53241H5.19818ZM6.15754 7.60173L5.5326 6.76495H7.45052L8.37197 7.94733L7.62344 8.94957H7.00721H6.83958V9.1172V9.46929L6.06608 10.4505V9.29009L6.85781 8.23H7.64912H7.99698L7.78023 7.95792L7.54681 7.66491L7.49647 7.60173H7.41569H6.15754ZM8.19062 9.56896L10.2797 6.76495H11.4188L8.46549 10.6508L7.74487 9.63644H8.05619H8.14034L8.19062 9.56896Z" fill="#196697"/>
<defs>
<filter id="filter0_f_3134_247204" x="1.19062" y="1.05146" width="14.4557" height="14.4557" filterUnits="userSpaceOnUse" color-interpolation-filters="sRGB">
<feFlood flood-opacity="0" result="BackgroundImageFix"/>
<feBlend mode="normal" in="SourceGraphic" in2="BackgroundImageFix" result="shape"/>
<feGaussianBlur stdDeviation="0.16763" result="effect1_foregroundBlur_3134_247204"/>
</filter>
<filter id="filter1_f_3134_247204" x="0.899264" y="0.762057" width="15.0394" height="15.0384" filterUnits="userSpaceOnUse" color-interpolation-filters="sRGB">
<feFlood flood-opacity="0" result="BackgroundImageFix"/>
<feBlend mode="normal" in="SourceGraphic" in2="BackgroundImageFix" result="shape"/>
<feGaussianBlur stdDeviation="0.083815" result="effect1_foregroundBlur_3134_247204"/>
</filter>
<filter id="filter2_f_3134_247204" x="4.36088" y="5.9268" width="8.23674" height="5.99406" filterUnits="userSpaceOnUse" color-interpolation-filters="sRGB">
<feFlood flood-opacity="0" result="BackgroundImageFix"/>
<feBlend mode="normal" in="SourceGraphic" in2="BackgroundImageFix" result="shape"/>
<feGaussianBlur stdDeviation="0.251445" result="effect1_foregroundBlur_3134_247204"/>
</filter>
</defs>
</svg>
