<svg width="590" height="534" viewBox="0 0 590 534" fill="none" xmlns="http://www.w3.org/2000/svg">
<path d="M547.286 0.969727H40.7031L0 453.289L40.7031 533.442H547.286L571.662 64.7181L547.286 0.969727Z" fill="#C2BA6A"/>
<path d="M564.741 0.118164H49.0987L7.6676 433.621L49.0987 510.439H564.741L589.553 61.2146L564.741 0.118164Z" fill="#F7FBFF" fill-opacity="0.9"/>
<path d="M555.122 0.543945H48.3833L7.6676 445.264L48.3833 524.07H555.122L579.506 63.2214L555.122 0.543945Z" fill="#DEEEFB"/>
<path d="M540.959 13.749H62.2464L34.0782 403.518L62.2464 464.859H540.959L563.994 72.9599L540.959 13.749Z" fill="white"/>
<line x1="53.6702" y1="22.339" x2="22.0777" y2="403.157" stroke="#9DC0DD" stroke-width="1.70391"/>
<line x1="59.696" y1="497.972" x2="22.1398" y2="402.547" stroke="#9DC0DD" stroke-width="1.70391"/>
<line x1="60.4888" y1="496.808" x2="551.215" y2="496.808" stroke="#9DC0DD" stroke-width="1.70391"/>
<line x1="557.638" y1="75.8461" x2="537.191" y2="23.0249" stroke="#9DC0DD" stroke-width="13.6313"/>
<line x1="163.575" y1="21.4166" x2="543.547" y2="21.4166" stroke="#9DC0DD" stroke-width="1.70391"/>
<line x1="563.141" y1="73.4357" x2="540.138" y2="465.335" stroke="#9DC0DD" stroke-width="1.70391"/>
<path d="M529.916 21.417L531.194 25.6768L541.843 21.417H529.916Z" fill="#9DC0DD"/>
<path d="M563.994 73.3862L551.215 78.072L561.012 98.9449L563.994 73.3862Z" fill="#9DC0DD"/>
</svg>
