<svg width="29" height="33" viewBox="0 0 29 33" fill="none" xmlns="http://www.w3.org/2000/svg">
<path d="M2.00024 8.55738C2.00024 8.17845 2.21443 7.83207 2.55343 7.66275L13.2113 2.33981C13.8762 2.00775 14.6581 2.49126 14.6581 3.23444V18.1717C14.6581 18.5506 14.4439 18.897 14.1049 19.0663L3.44705 24.3892C2.78218 24.7213 2.00024 24.2378 2.00024 23.4946V8.55738Z" stroke="white" stroke-width="2"/>
<path d="M5.44922 11.4515C5.44922 11.0854 5.64929 10.7485 5.97079 10.5734L9.73083 8.52476C10.3972 8.16171 11.2093 8.64404 11.2093 9.40289V11.8287C11.2093 12.1949 11.0092 12.5317 10.6877 12.7069L6.92765 14.7555C6.26129 15.1185 5.44922 14.6362 5.44922 13.8773V11.4515Z" stroke="white" stroke-width="2"/>
<path d="M27.5916 8.55738C27.5916 8.17845 27.3774 7.83207 27.0384 7.66275L16.3805 2.33981C15.7156 2.00775 14.9337 2.49126 14.9337 3.23444V18.1717C14.9337 18.5506 15.1479 18.897 15.4869 19.0663L26.1447 24.3892C26.8096 24.7213 27.5916 24.2378 27.5916 23.4946V8.55738Z" stroke="white" stroke-width="2"/>
<path d="M24.1426 11.4561C24.1426 11.0902 23.9427 10.7535 23.6215 10.5782L19.8614 8.52705C19.1951 8.16352 18.3825 8.64584 18.3825 9.40492L18.3825 19.5842C18.3825 19.9501 18.5824 20.2868 18.9036 20.4621L22.6637 22.5132C23.3301 22.8768 24.1426 22.3944 24.1426 21.6354L24.1426 11.4561Z" stroke="white" stroke-width="2"/>
<path d="M15.6901 1.74055L26.6235 7.20725C27.3011 7.54604 27.7291 8.23856 27.7291 8.9961V23.8046C27.7291 24.5432 27.322 25.2217 26.6703 25.5693L15.7369 31.4004C15.1487 31.7142 14.4428 31.7142 13.8545 31.4004L2.92113 25.5693C2.2694 25.2217 1.8623 24.5432 1.8623 23.8046V8.99611C1.8623 8.23856 2.29031 7.54604 2.96788 7.20725L13.9013 1.74055C14.4643 1.45902 15.1271 1.45902 15.6901 1.74055Z" stroke="white" stroke-width="2"/>
</svg>
