<svg width="28" height="33" viewBox="0 0 28 33" fill="none" xmlns="http://www.w3.org/2000/svg">
<path d="M26.6792 7.06946L15.3208 0.356856C14.9183 0.122989 14.4631 0 14 0C13.5369 0 13.0817 0.122989 12.6793 0.356856L1.32077 7.06946C0.919656 7.30588 0.586486 7.6458 0.354672 8.05515C0.122858 8.4645 0.000550438 8.92886 1.27405e-05 9.4017V22.7977C-0.00143173 23.2719 0.119975 23.7382 0.351924 24.149C0.583874 24.5599 0.918117 24.9008 1.32077 25.1373L12.6793 31.8353C13.0801 32.0742 13.5359 32.2 14 32.2C14.4641 32.2 14.9199 32.0742 15.3208 31.8353L26.6792 25.1373C27.0798 24.9021 27.4127 24.5634 27.6445 24.1553C27.8763 23.7472 27.9989 23.2841 28 22.8123V9.4017C27.9995 8.92886 27.8772 8.4645 27.6453 8.05515C27.4135 7.6458 27.0804 7.30588 26.6792 7.06946ZM13.9786 29.7727L4.78329 24.3574L13.6359 19.1317C13.7444 19.0677 13.8675 19.0341 13.9929 19.0341C14.1182 19.0341 14.2413 19.0677 14.3498 19.1317L23.2024 24.3501L13.9786 29.7727ZM25.4013 22.7977L22.1673 20.9465V12.8272C22.1678 12.5003 22.0836 12.179 21.9231 11.8961C21.7626 11.6132 21.5315 11.3787 21.2534 11.2165L19.4758 10.1743C19.3227 10.0832 19.1488 10.035 18.9717 10.0345C18.7945 10.034 18.6204 10.0813 18.4668 10.1715C18.3133 10.2617 18.1858 10.3916 18.0972 10.5482C18.0086 10.7049 17.962 10.8826 17.9623 11.0635V18.4684L15.3779 16.9452C14.9753 16.6465 14.4905 16.4857 13.9929 16.4857C13.4952 16.4857 13.0104 16.6465 12.6079 16.9452L2.6558 22.7759V9.4017L14.0214 2.70369L25.3871 9.4017L25.4013 22.7977Z" fill="white"/>
</svg>
