<svg width="148" height="30" viewBox="0 0 148 30" fill="none" xmlns="http://www.w3.org/2000/svg">
<rect width="148" height="30" rx="1.15385" fill="#BDFFD6"/>
<rect x="2" y="2" width="144" height="26" rx="1" fill="#24D366"/>
<path d="M36.6191 15.0977C36.6191 14.332 36.7402 13.6621 36.9824 13.0879C37.2285 12.5137 37.5762 12.0645 38.0254 11.7402C38.4785 11.4121 39.0234 11.2051 39.6602 11.1191C40.2969 11.0332 41.0117 11.0977 41.8047 11.3125C42.0859 11.3867 42.2266 11.5723 42.2266 11.8691V12.1094C42.2266 12.2812 42.1758 12.4043 42.0742 12.4785C41.9727 12.5527 41.832 12.5684 41.6523 12.5254C41.1133 12.3926 40.6387 12.332 40.2285 12.3438C39.8223 12.3516 39.4766 12.4121 39.1914 12.5254C38.9062 12.6387 38.6738 12.8184 38.4941 13.0645C38.3184 13.3066 38.1895 13.5938 38.1074 13.9258C38.0293 14.2578 37.9902 14.6504 37.9902 15.1035C37.9902 15.5527 38.0293 15.9434 38.1074 16.2754C38.1895 16.6074 38.3184 16.8965 38.4941 17.1426C38.6738 17.3848 38.9062 17.5625 39.1914 17.6758C39.4766 17.7852 39.8223 17.8457 40.2285 17.8574C40.6387 17.8652 41.1133 17.8047 41.6523 17.6758C41.8281 17.6328 41.9668 17.6484 42.0684 17.7227C42.1738 17.793 42.2266 17.9141 42.2266 18.0859V18.3262C42.2266 18.627 42.0723 18.8164 41.7637 18.8945C40.709 19.1523 39.7988 19.1738 39.0332 18.959C38.2715 18.7441 37.6777 18.3008 37.252 17.6289C36.8301 16.957 36.6191 16.1133 36.6191 15.0977ZM45.8066 13.0234C46.877 13.0234 47.6836 13.2578 48.2266 13.7266C48.7695 14.1953 49.041 14.9727 49.041 16.0586V18.5078C49.041 18.8359 48.877 19 48.5488 19H48.2676C47.9395 19 47.7754 18.8359 47.7754 18.5078V16.0586C47.7754 15.3516 47.627 14.8652 47.3301 14.5996C47.0332 14.3301 46.5332 14.1953 45.8301 14.1953C45.5254 14.1953 45.1602 14.2168 44.7344 14.2598V18.5078C44.7344 18.8359 44.5703 19 44.2422 19H43.9609C43.6328 19 43.4688 18.8359 43.4688 18.5078V11.0898C43.4688 10.7617 43.6328 10.5977 43.9609 10.5977H44.2422C44.5703 10.5977 44.7344 10.7617 44.7344 11.0898V13.082C45.0938 13.043 45.4512 13.0234 45.8066 13.0234ZM52.9258 13.0234C53.7383 13.0234 54.3867 13.2109 54.8711 13.5859C55.3555 13.9609 55.5977 14.5215 55.5977 15.2676V17.2949C55.5977 17.8965 55.457 18.332 55.1758 18.6016C54.8945 18.8672 54.4297 19 53.7812 19H52.5273C51.7852 19 51.2246 18.8672 50.8457 18.6016C50.4707 18.332 50.2832 17.8691 50.2832 17.2129C50.2832 16.5527 50.4707 16.0898 50.8457 15.8242C51.2246 15.5586 51.7852 15.4258 52.5273 15.4258H54.3262V15.2676C54.3262 14.5566 53.8105 14.2012 52.7793 14.2012C52.3418 14.2012 51.8086 14.2656 51.1797 14.3945C51.0078 14.4297 50.873 14.4102 50.7754 14.3359C50.6777 14.2617 50.6289 14.1387 50.6289 13.9668V13.8086C50.6289 13.5117 50.7988 13.3223 51.1387 13.2402C51.7871 13.0957 52.3828 13.0234 52.9258 13.0234ZM53.6348 17.8926C53.9121 17.8926 54.0957 17.8398 54.1855 17.7344C54.2793 17.625 54.3262 17.457 54.3262 17.2305V16.5332H52.5332C52.1348 16.5332 51.8672 16.582 51.7305 16.6797C51.5977 16.7773 51.5312 16.9551 51.5312 17.2129C51.5312 17.4668 51.5996 17.6445 51.7363 17.7461C51.873 17.8438 52.1387 17.8926 52.5332 17.8926H53.6348ZM60.6895 13.8027C60.6895 14.1309 60.5273 14.2949 60.2031 14.2949H58.3398V16.8965C58.3398 17.2559 58.416 17.5137 58.5684 17.6699C58.7207 17.8262 58.9746 17.9043 59.3301 17.9043C59.4707 17.9043 59.6309 17.8906 59.8105 17.8633C59.9902 17.832 60.1152 17.8164 60.1855 17.8164C60.373 17.8164 60.502 17.8496 60.5723 17.916C60.6426 17.9785 60.6777 18.084 60.6777 18.2324V18.4199C60.6777 18.7207 60.5488 18.8984 60.291 18.9531C59.8262 19.082 59.3945 19.1328 58.9961 19.1055C58.6016 19.082 58.2598 18.9961 57.9707 18.8477C57.6855 18.6953 57.4609 18.4551 57.2969 18.127C57.1328 17.7949 57.0508 17.3848 57.0508 16.8965V12.2441C57.0508 11.916 57.2148 11.752 57.543 11.752H57.8477C58.1758 11.752 58.3398 11.916 58.3398 12.2441V13.1348H60.2031C60.5312 13.1348 60.6934 13.2969 60.6895 13.6211V13.8027ZM67.3223 19.1055C66.3965 19.1055 65.6797 18.8418 65.1719 18.3145C64.668 17.7871 64.416 17.0391 64.416 16.0703C64.416 15.0977 64.668 14.3477 65.1719 13.8203C65.6797 13.2891 66.3945 13.0234 67.3164 13.0234C68.2422 13.0234 68.959 13.2891 69.4668 13.8203C69.9746 14.3477 70.2285 15.0977 70.2285 16.0703C70.2285 17.0352 69.9746 17.7832 69.4668 18.3145C68.959 18.8418 68.2441 19.1055 67.3223 19.1055ZM67.3223 17.9395C67.8652 17.9395 68.2695 17.7871 68.5352 17.4824C68.8047 17.1738 68.9395 16.7031 68.9395 16.0703C68.9395 15.4297 68.8066 14.957 68.541 14.6523C68.2754 14.3477 67.8691 14.1953 67.3223 14.1953C66.7754 14.1953 66.3672 14.3477 66.0977 14.6523C65.832 14.957 65.6992 15.4297 65.6992 16.0703C65.6992 16.707 65.832 17.1777 66.0977 17.4824C66.3672 17.7871 66.7754 17.9395 67.3223 17.9395ZM73.1523 13.1582C73.4844 13.0684 73.8789 13.0234 74.3359 13.0234C74.793 13.0234 75.1875 13.0684 75.5195 13.1582C75.8555 13.248 76.1484 13.3984 76.3984 13.6094C76.6523 13.8164 76.8418 14.1016 76.9668 14.4648C77.0918 14.8281 77.1543 15.2715 77.1543 15.7949V18.5078C77.1543 18.8359 76.9902 19 76.6621 19H76.3809C76.0527 19 75.8887 18.8359 75.8887 18.5078V15.7891C75.8887 15.1797 75.7695 14.7617 75.5312 14.5352C75.2969 14.3086 74.8984 14.1953 74.3359 14.1953C73.7812 14.1953 73.3848 14.3105 73.1465 14.541C72.9082 14.7676 72.7891 15.1836 72.7891 15.7891V18.5078C72.7891 18.8359 72.625 19 72.2969 19H72.0156C71.6875 19 71.5234 18.8359 71.5234 18.5078V15.7949C71.5234 15.2715 71.5859 14.8281 71.7109 14.4648C71.8359 14.1016 72.0234 13.8164 72.2734 13.6094C72.5273 13.3984 72.8203 13.248 73.1523 13.1582ZM81.1797 11.7227C81.1602 11.5547 81.1895 11.4258 81.2676 11.3359C81.3496 11.2461 81.4746 11.2012 81.6426 11.2012H81.9648C82.2734 11.2012 82.4453 11.3555 82.4805 11.6641L83.1953 17.5879C83.207 17.6582 83.2461 17.6953 83.3125 17.6992C83.3828 17.6992 83.4258 17.666 83.4414 17.5996L84.5312 12.2559C84.6055 11.8848 84.7539 11.6172 84.9766 11.4531C85.1992 11.2852 85.5059 11.2012 85.8965 11.2012C86.291 11.2012 86.5996 11.2852 86.8223 11.4531C87.0449 11.6172 87.1934 11.8848 87.2676 12.2559L88.3574 17.5996C88.3691 17.6621 88.4102 17.6953 88.4805 17.6992C88.5508 17.6992 88.5918 17.6621 88.6035 17.5879L89.3125 11.6641C89.3477 11.3555 89.5195 11.2012 89.8281 11.2012H90.1621C90.3301 11.2012 90.4531 11.2461 90.5312 11.3359C90.6133 11.4258 90.6445 11.5547 90.625 11.7227L89.8926 17.6582C89.8301 18.1816 89.6914 18.5547 89.4766 18.7773C89.2656 18.9961 88.9492 19.1055 88.5273 19.1055C88.1133 19.1055 87.7969 18.9961 87.5781 18.7773C87.3633 18.5586 87.2012 18.1855 87.0918 17.6582L86.0898 12.7246C86.0586 12.5449 85.9941 12.4551 85.8965 12.4551C85.8027 12.4551 85.7402 12.5449 85.709 12.7246L84.707 17.6582C84.5977 18.1855 84.4355 18.5586 84.2207 18.7773C84.0059 18.9961 83.6895 19.1055 83.2715 19.1055C82.8496 19.1055 82.5332 18.9961 82.3223 18.7773C82.1113 18.5547 81.9746 18.1816 81.9121 17.6582L81.1797 11.7227ZM94.123 13.0234C95.1934 13.0234 96 13.2578 96.543 13.7266C97.0859 14.1953 97.3574 14.9727 97.3574 16.0586V18.5078C97.3574 18.8359 97.1934 19 96.8652 19H96.584C96.2559 19 96.0918 18.8359 96.0918 18.5078V16.0586C96.0918 15.3516 95.9434 14.8652 95.6465 14.5996C95.3496 14.3301 94.8496 14.1953 94.1465 14.1953C93.8418 14.1953 93.4766 14.2168 93.0508 14.2598V18.5078C93.0508 18.8359 92.8867 19 92.5586 19H92.2773C91.9492 19 91.7852 18.8359 91.7852 18.5078V11.0898C91.7852 10.7617 91.9492 10.5977 92.2773 10.5977H92.5586C92.8867 10.5977 93.0508 10.7617 93.0508 11.0898V13.082C93.4102 13.043 93.7676 13.0234 94.123 13.0234ZM101.242 13.0234C102.055 13.0234 102.703 13.2109 103.188 13.5859C103.672 13.9609 103.914 14.5215 103.914 15.2676V17.2949C103.914 17.8965 103.773 18.332 103.492 18.6016C103.211 18.8672 102.746 19 102.098 19H100.844C100.102 19 99.541 18.8672 99.1621 18.6016C98.7871 18.332 98.5996 17.8691 98.5996 17.2129C98.5996 16.5527 98.7871 16.0898 99.1621 15.8242C99.541 15.5586 100.102 15.4258 100.844 15.4258H102.643V15.2676C102.643 14.5566 102.127 14.2012 101.096 14.2012C100.658 14.2012 100.125 14.2656 99.4961 14.3945C99.3242 14.4297 99.1895 14.4102 99.0918 14.3359C98.9941 14.2617 98.9453 14.1387 98.9453 13.9668V13.8086C98.9453 13.5117 99.1152 13.3223 99.4551 13.2402C100.104 13.0957 100.699 13.0234 101.242 13.0234ZM101.951 17.8926C102.229 17.8926 102.412 17.8398 102.502 17.7344C102.596 17.625 102.643 17.457 102.643 17.2305V16.5332H100.85C100.451 16.5332 100.184 16.582 100.047 16.6797C99.9141 16.7773 99.8477 16.9551 99.8477 17.2129C99.8477 17.4668 99.916 17.6445 100.053 17.7461C100.189 17.8438 100.455 17.8926 100.85 17.8926H101.951ZM109.006 13.8027C109.006 14.1309 108.844 14.2949 108.52 14.2949H106.656V16.8965C106.656 17.2559 106.732 17.5137 106.885 17.6699C107.037 17.8262 107.291 17.9043 107.646 17.9043C107.787 17.9043 107.947 17.8906 108.127 17.8633C108.307 17.832 108.432 17.8164 108.502 17.8164C108.689 17.8164 108.818 17.8496 108.889 17.916C108.959 17.9785 108.994 18.084 108.994 18.2324V18.4199C108.994 18.7207 108.865 18.8984 108.607 18.9531C108.143 19.082 107.711 19.1328 107.312 19.1055C106.918 19.082 106.576 18.9961 106.287 18.8477C106.002 18.6953 105.777 18.4551 105.613 18.127C105.449 17.7949 105.367 17.3848 105.367 16.8965V12.2441C105.367 11.916 105.531 11.752 105.859 11.752H106.164C106.492 11.752 106.656 11.916 106.656 12.2441V13.1348H108.52C108.848 13.1348 109.01 13.2969 109.006 13.6211V13.8027ZM110.26 18.8535C109.986 18.7754 109.85 18.5898 109.85 18.2969V18.1504C109.85 17.9785 109.896 17.8555 109.99 17.7812C110.088 17.707 110.225 17.6875 110.4 17.7227C110.803 17.8086 111.172 17.8691 111.508 17.9043C111.848 17.9355 112.164 17.9453 112.457 17.9336C112.75 17.9219 112.979 17.8633 113.143 17.7578C113.311 17.6484 113.395 17.498 113.395 17.3066C113.395 17.1465 113.338 17.0195 113.225 16.9258C113.111 16.8281 112.93 16.7461 112.68 16.6797L111.35 16.3281C110.311 16.0586 109.791 15.5156 109.791 14.6992C109.791 14.3086 109.908 13.9824 110.143 13.7207C110.377 13.4551 110.688 13.2695 111.074 13.1641C111.461 13.0586 111.896 13.0137 112.381 13.0293C112.865 13.0449 113.363 13.1211 113.875 13.2578C114.156 13.332 114.297 13.5156 114.297 13.8086V13.9492C114.297 14.1211 114.248 14.2441 114.15 14.3184C114.053 14.3926 113.916 14.4062 113.74 14.3594C113.424 14.2852 113.111 14.2324 112.803 14.2012C112.494 14.1699 112.207 14.1602 111.941 14.1719C111.68 14.1836 111.467 14.2324 111.303 14.3184C111.139 14.4043 111.057 14.5254 111.057 14.6816C111.057 14.916 111.225 15.0781 111.561 15.168L113.008 15.5371C113.566 15.6816 113.98 15.8945 114.25 16.1758C114.52 16.4531 114.654 16.8145 114.654 17.2598C114.654 17.6973 114.521 18.0625 114.256 18.3555C113.994 18.6445 113.65 18.8457 113.225 18.959C112.799 19.0723 112.328 19.1191 111.812 19.0996C111.297 19.084 110.779 19.002 110.26 18.8535ZM122.078 19C121.789 19 121.605 18.8633 121.527 18.5898L120.988 16.8145H117.262L116.717 18.5898C116.639 18.8633 116.453 19 116.16 19H115.844C115.668 19 115.543 18.9512 115.469 18.8535C115.395 18.752 115.385 18.6152 115.439 18.4434L117.145 12.9004C117.348 12.2402 117.596 11.7734 117.889 11.5C118.186 11.2266 118.596 11.0898 119.119 11.0898C119.65 11.0898 120.066 11.2266 120.367 11.5C120.668 11.7734 120.912 12.2402 121.1 12.9004L122.811 18.4434C122.861 18.6152 122.85 18.752 122.775 18.8535C122.701 18.9512 122.576 19 122.4 19H122.078ZM117.625 15.6191H120.619L119.834 13.0586C119.74 12.7539 119.641 12.5469 119.535 12.4375C119.434 12.3242 119.295 12.2676 119.119 12.2676C118.943 12.2676 118.805 12.3242 118.703 12.4375C118.602 12.5469 118.504 12.7539 118.41 13.0586L117.625 15.6191ZM126.268 13.0234C127.338 13.0234 128.145 13.2598 128.688 13.7324C129.23 14.2051 129.502 14.9844 129.502 16.0703C129.502 17.1562 129.23 17.9336 128.688 18.4023C128.148 18.8711 127.342 19.1055 126.268 19.1055C125.912 19.1055 125.555 19.0859 125.195 19.0469V20.9102C125.195 21.2383 125.031 21.4023 124.703 21.4023H124.422C124.094 21.4023 123.93 21.2383 123.93 20.9102V14.8281C123.93 14.1914 124.107 13.7324 124.463 13.4512C124.818 13.166 125.42 13.0234 126.268 13.0234ZM126.355 17.9395C127.02 17.9395 127.498 17.8008 127.791 17.5234C128.088 17.2422 128.236 16.7578 128.236 16.0703C128.236 15.3789 128.088 14.8945 127.791 14.6172C127.498 14.3359 127.02 14.1953 126.355 14.1953C126.098 14.1953 125.891 14.2129 125.734 14.248C125.578 14.2793 125.461 14.3379 125.383 14.4238C125.305 14.5059 125.254 14.5957 125.23 14.6934C125.207 14.791 125.195 14.9238 125.195 15.0918V17.8516C125.645 17.9102 126.031 17.9395 126.355 17.9395ZM133.146 13.0234C134.217 13.0234 135.023 13.2598 135.566 13.7324C136.109 14.2051 136.381 14.9844 136.381 16.0703C136.381 17.1562 136.109 17.9336 135.566 18.4023C135.027 18.8711 134.221 19.1055 133.146 19.1055C132.791 19.1055 132.434 19.0859 132.074 19.0469V20.9102C132.074 21.2383 131.91 21.4023 131.582 21.4023H131.301C130.973 21.4023 130.809 21.2383 130.809 20.9102V14.8281C130.809 14.1914 130.986 13.7324 131.342 13.4512C131.697 13.166 132.299 13.0234 133.146 13.0234ZM133.234 17.9395C133.898 17.9395 134.377 17.8008 134.67 17.5234C134.967 17.2422 135.115 16.7578 135.115 16.0703C135.115 15.3789 134.967 14.8945 134.67 14.6172C134.377 14.3359 133.898 14.1953 133.234 14.1953C132.977 14.1953 132.77 14.2129 132.613 14.248C132.457 14.2793 132.34 14.3379 132.262 14.4238C132.184 14.5059 132.133 14.5957 132.109 14.6934C132.086 14.791 132.074 14.9238 132.074 15.0918V17.8516C132.523 17.9102 132.91 17.9395 133.234 17.9395Z" fill="white"/>
<g clip-path="url(#clip0_1110_185926)">
<path fill-rule="evenodd" clip-rule="evenodd" d="M23.0613 16.7865C22.8378 16.6748 21.742 16.1363 21.538 16.0613C21.334 15.987 21.1855 15.9503 21.0363 16.1738C20.8877 16.3958 20.461 16.8983 20.3312 17.0468C20.2007 17.196 20.071 17.214 19.8482 17.103C19.6255 16.9905 18.907 16.7558 18.0557 15.9968C17.3935 15.4058 16.9458 14.676 16.816 14.4525C16.6863 14.2298 16.8018 14.109 16.9135 13.998C17.014 13.8983 17.1362 13.7378 17.248 13.608C17.3597 13.4775 17.3965 13.3845 17.4708 13.2353C17.5458 13.0868 17.5082 12.957 17.452 12.8453C17.3965 12.7335 16.951 11.6363 16.765 11.19C16.5843 10.7558 16.4005 10.815 16.264 10.8075C16.1335 10.8015 15.985 10.8 15.8365 10.8C15.688 10.8 15.4465 10.8555 15.2425 11.079C15.0377 11.3018 14.4625 11.841 14.4625 12.9383C14.4625 14.0348 15.2605 15.0945 15.3723 15.2438C15.484 15.3923 16.9435 17.6438 19.1793 18.609C19.7118 18.8385 20.1265 18.9758 20.4497 19.0778C20.9837 19.248 21.4698 19.224 21.8538 19.1663C22.2812 19.1025 23.1723 18.627 23.3583 18.1065C23.5435 17.586 23.5435 17.1398 23.488 17.0468C23.4325 16.9538 23.284 16.8983 23.0605 16.7865H23.0613ZM18.9948 22.3388H18.9918C17.6638 22.339 16.3603 21.982 15.2177 21.3053L14.9478 21.1448L12.1413 21.8813L12.8905 19.1453L12.7143 18.8648C11.9719 17.683 11.579 16.3154 11.581 14.9198C11.5825 10.8323 14.908 7.50678 18.9977 7.50678C20.9777 7.50678 22.8393 8.27928 24.2388 9.68028C24.929 10.3677 25.4762 11.1852 25.8485 12.0855C26.2208 12.9857 26.4109 13.9508 26.4078 14.925C26.4062 19.0125 23.0807 22.3388 18.9948 22.3388ZM25.3038 8.61603C24.4774 7.78422 23.4942 7.12468 22.4111 6.67563C21.328 6.22658 20.1665 5.99694 18.994 6.00003C14.0785 6.00003 10.0765 10.0013 10.075 14.919C10.0727 16.4841 10.4833 18.0221 11.2652 19.3778L10 24L14.728 22.7595C16.0359 23.4721 17.5016 23.8455 18.991 23.8455H18.9948C23.9102 23.8455 27.9123 19.8443 27.9137 14.9258C27.9174 13.7537 27.6886 12.5926 27.2406 11.5096C26.7926 10.4265 26.1343 9.44303 25.3038 8.61603Z" fill="white"/>
</g>
<defs>
<clipPath id="clip0_1110_185926">
<rect width="18" height="18" fill="white" transform="translate(10 6)"/>
</clipPath>
</defs>
</svg>
