<svg width="52" height="35" viewBox="0 0 52 35" fill="none" xmlns="http://www.w3.org/2000/svg">
<path d="M2.6587 33.3115L10.486 2.00231H49.1876L41.3603 33.3115H2.6587Z" fill="#688FB3" stroke="#CBCFCE" stroke-width="2.89133"/>
<path fill-rule="evenodd" clip-rule="evenodd" d="M24.8452 6.02714C24.8454 5.82614 24.7827 5.63012 24.666 5.4665C24.5492 5.30288 24.3843 5.17986 24.1941 5.11464C24.004 5.04943 23.7983 5.04528 23.6057 5.10279C23.4131 5.16031 23.2433 5.27659 23.12 5.43538L16.3736 14.1094C16.242 14.2786 16.1705 14.4868 16.1705 14.7011C16.1705 14.9155 16.242 15.1237 16.3736 15.2929L23.12 23.9669C23.2433 24.1257 23.4131 24.242 23.6057 24.2995C23.7983 24.357 24.004 24.3529 24.1941 24.2876C24.3843 24.2224 24.5492 24.0994 24.666 23.9358C24.7827 23.7722 24.8454 23.5761 24.8452 23.3751V19.5297C30.0294 19.6376 32.5198 20.6216 33.7707 21.6914C34.9601 22.7082 35.1779 23.9043 35.4044 25.1572L35.4631 25.48C35.5064 25.7111 35.6326 25.9183 35.8179 26.0628C36.0033 26.2073 36.2351 26.2791 36.4697 26.2646C36.7043 26.2502 36.9255 26.1505 37.0918 25.9844C37.258 25.8182 37.3578 25.597 37.3724 25.3625C37.5372 22.714 37.2895 18.8762 35.4188 15.6659C33.6031 12.55 30.333 10.154 24.8452 9.90345V6.02714Z" fill="white"/>
</svg>
