<svg width="28" height="25" viewBox="0 0 28 25" fill="none" xmlns="http://www.w3.org/2000/svg">
<path d="M-0.00146484 7.54749L14.0584 24.2773L4.05853 7.54749H-0.00146484Z" fill="#2961B5"/>
<path d="M10.5883 0.261736C10.5883 0.399403 4.04785 7.54826 4.04785 7.54826H14.0588C14.0588 7.54826 10.5883 0.0786007 10.5883 0.261736Z" fill="#D9D9D9"/>
<path d="M14.0588 7.54749H4.04785L14.0588 24.2773V7.54749Z" fill="#C3C3C3"/>
<path d="M17.3511 0.258423C17.3511 0.258423 14.0586 7.63998 14.0586 7.5482C14.3033 7.5482 23.9806 7.5482 23.9806 7.5482L17.3511 0.258423Z" fill="#2B5BA3"/>
<path d="M14.0584 0.258423L10.5879 0.261674L14.0584 7.5482V0.258423Z" fill="#A5A7AB"/>
<path d="M14.0557 0.265625L17.3481 0.268876L14.0557 7.5554V0.265625Z" fill="#4E8DEB"/>
<path d="M27.9405 7.54932H23.9806L14.0586 24.2791L27.9405 7.54932Z" fill="#B4B4B4"/>
<path d="M21.9336 0.262085L23.9803 7.54861H27.9402L21.9336 0.262085Z" fill="#A2A2A2"/>
<path d="M6.02736 0.261963L-0.00146484 7.54849H4.04741L6.02736 0.261963Z" fill="#4E8DEB"/>
<path d="M6.0496 0.261674L6.02736 0.258423L-0.00146484 7.5482L6.0496 0.261674Z" fill="#A2A2A2"/>
<path d="M10.5883 0.258423H6.0278L4.04785 7.5482L10.5883 0.258423Z" fill="#2961B5"/>
<path d="M17.2838 0.262085H21.9529L23.98 7.55186L17.2838 0.262085Z" fill="#154CA0"/>
<path d="M6.0278 0.262085L4.04785 7.54861L6.0278 0.265389V0.262085Z" fill="#D3D2D2"/>
<path d="M23.9583 7.54749L14.0586 7.55404V24.2773L23.9583 7.54749Z" fill="#132C51"/>
</svg>
