<?xml version="1.0" standalone="yes"?>
<svg xmlns="http://www.w3.org/2000/svg" width="1920" height="900">
<path style="fill:#fcfcfc; stroke:none;" d="M0 0L0 529L23 515C18.6416 523.918 4.3038 524.62 0.603395 533.21C-3.79609 543.422 0 562.866 0 574L0 672L0 712C0 716.241 -1.39863 723.03 2 726L2 727L0 739L0 771L0 900L1292 900L1647 900L1742 900C1760.04 900 1777.84 902.598 1794 894L1787 899L1787 900L1920 900L1920 453L1920 305C1920 281.007 1922.13 255.923 1919.94 232.04C1919.34 225.508 1910.91 222.615 1906 219.576C1895.67 213.175 1885.42 206.652 1875 200.4C1868.01 196.208 1862.1 193.888 1862 185L1920 219L1920 49L1864 82C1873.18 70.1172 1892.36 62.6415 1905 54.6813C1909.28 51.9861 1916.38 49.3563 1918.97 44.8148C1921.08 41.1246 1920 35.0982 1920 31L1920 0L1586 0C1586 11.5992 1588.52 21.787 1578 29L1578 0L488 0L494 32C481.412 25.2853 486.999 12.2095 487 0L0 0z"/>
<path style="fill:#b1b1b1; stroke:none;" d="M487 0C486.993 11.3153 480.81 27.0924 494 32L487 0M1578 0L1578 29C1589.3 23.6053 1586 10.7474 1586 0L1578 0M301 2L300 19L299 19L299 5L298 5C298 12.6108 294.722 27.5316 303 31L301 2M211 82L210 82L204 78L207 85L297 30C290.67 28.4694 279.45 36.1938 273.961 39.439C253.992 51.2435 225.729 63.7879 211 82M304 30L305 31L304 30M306 32L306 33L312 35L312 34L306 32M494 32L495 33L494 32M313 36L313 37L330 47L313 36M1919 45L1880 69.5756L1864 82C1879.04 78.5497 1894.94 64.5605 1908 56.4236C1911.96 53.9579 1920.83 50.6627 1919 45M331 47L334 49L334 48L331 47M337 51L337 52L341 53L341 52L337 51M440 51L441 52L440 51M438 52L439 53L438 52M527 52L528 53L527 52M344 55L345 56L344 55M531 55L531 56L568 78C559.851 66.6272 544.791 57.3748 531 55M346 56L347 57L346 56M432 56L433 57L432 56M348 58L349 59L348 58M350 59L350 60L353 61L350 59M427 59L428 60L427 59M425 60L426 61L425 60M355 62L356 63L355 62M422 62L418 66L423 63L422 62M362 66L363 67L362 66M368 70L368 71L387.972 86.0401L389 117L389 192L391 192L391 115C391 106.933 387.994 91.274 392.028 84.1844C395.928 77.3297 410.045 70.4451 417 67C411.958 66.3039 406.254 71.5475 401 72.5324C389.476 74.6926 379.023 72.954 368 70M364 67L365 68L364 67M1677 86C1667.25 91.9207 1671 103.676 1671 114L1671 167C1671 173.561 1672.96 184.025 1669.82 189.957C1666.68 195.888 1657.51 199.435 1652 202.811C1637.29 211.82 1622.62 220.9 1608 230.05C1601.82 233.918 1593.31 237.233 1590 244L1615 229.95L1671 196C1671.04 207.818 1681.14 210.445 1690 216.053C1707.54 227.153 1725.26 238.022 1743 248.797C1751.82 254.154 1758.39 260.776 1769 258L1748 242.797L1699 212.576L1679.03 198.815L1679 172L1679 114L1677 86M206 91L206 191L207 191L207 122L206 91M1862 185C1862.03 194.795 1868.26 196.956 1876 201.6C1890.19 210.114 1904.52 222.14 1920 228C1920 224.926 1920.53 221.129 1918.4 218.61C1914.59 214.123 1907.01 211.02 1902 208C1890.02 200.784 1875.83 187.666 1862 185M475 239C485.007 251.116 494.536 240.555 505 234.203C528.162 220.142 551.535 206.156 574 191C567.006 188.619 558.19 193.048 552 196.17C534.742 204.874 516.785 216.022 501 227.144C492.769 232.944 485.718 242.175 475 239M205.667 196.333L206.333 196.667L205.667 196.333M298 259L299 259L300 256L301 256L301 268L302 268L302 255L298 259M487 255C484.229 276.923 486 299.9 486 322C486 328.902 488.651 342.925 484.258 348.621C479.584 354.681 469.473 358.697 463 362.601C447.904 371.707 432.986 381.139 418 390.424C410.965 394.783 399.741 399.39 396 407C417.708 400.083 439.542 381.11 459 369.189C465.157 365.417 475.657 355.62 483 355.426C488.343 355.285 495.568 361.739 500 364.4C514.451 373.074 528.557 382.316 543 391C552.048 396.44 560.917 402.191 570 407.568C572.505 409.051 579.18 411.821 578.534 406.049C577.813 399.612 562.003 393.254 557 390.189C540.942 380.351 525.126 370.127 509 360.399C503.393 357.016 493.093 352.406 490.603 345.961C488.359 340.149 490 331.176 490 325C490 309.999 489.89 294.991 489.997 279.996C490.051 272.403 491.462 261.522 487 255M205 418C197.468 418.909 200 438.315 200 444L200 490C200 497.572 201.372 506.71 199.06 514C197.464 519.034 193.225 522.379 191 527L200 524C201.098 534.654 210.784 539.308 219 544.425C236.627 555.405 254.244 566.423 272 577.203C279.951 582.03 288.773 589.576 298 584L298 595L299 595C299.012 592.026 298.535 588.508 302 588L302 582C296.746 583.32 293.333 579.879 289 577.192L262 560.424C248.672 552.166 235.269 544.04 222 535.681C217.604 532.912 209.657 530.021 207.603 524.907C204.522 517.235 207 504.235 207 496L207 430C207 425.64 206.189 420.327 207.318 416.09C208.734 410.775 214.591 408.306 210.156 402.329C205.299 395.783 193.891 391.411 187 387.189C170.281 376.946 153.754 366.38 137 356.203C131.992 353.161 126.612 348.617 121.004 346.837C118.225 345.955 113.844 347.084 115.256 350.915C117.358 356.618 129.108 360.957 134 364.053C151.567 375.174 169.375 385.917 187 396.95C196.566 402.938 205.211 405.658 205 418M112 351L110 352L110 353L112 351M301 353L301 358L302 358L301 353M106 355L107 356L106 355M274 370L275 371L274 370M263 377L264 378L263 377M260 378L261 379L260 378M256 381L257 382L256 381M254 382L255 383L254 382M249 385L250 386L249 385M243 389L244 390L243 389M238 392L239 393L238 392M236 393L237 394L236 393M231 396L229 397L229 398L231 396M227 399L228 400L227 399M225 400L226 401L225 400M218.667 404.333L219.333 404.667L218.667 404.333M214 407L215 408L214 407M1667 524L1671 523C1671.04 534.878 1682.99 538.645 1692 544.319C1706.61 553.524 1721.39 562.477 1736 571.681C1741.99 575.457 1750.78 579.09 1755.49 584.39C1760.72 590.283 1758 604.621 1758 612C1758 636.698 1760.1 662.502 1757 687L1767 685L1767 609L1766.36 581.39L1746 568.797L1700 540.424L1679.03 525.907L1678 494L1678 413C1667.88 416.966 1670 432.691 1670 442C1670 457.721 1669.02 474.424 1670.09 490C1670.87 501.409 1673.02 513.85 1667 524M0 532C7.2416 528.88 20.6605 522.953 23 515C15.9661 517.666 2.22065 524.495 0 532M189 527L190 528L189 527M113 575C106.646 586.588 108 598.066 108 611C108 634.397 111.008 659.925 102 682L116 682C110.421 658.566 115 629.101 115 605C115 595.666 116.9 583.688 113 575z"/>
<path style="fill:#676767; stroke:none;" d="M1761 579L1761 586L1767 585L1761 579z"/>
<path style="fill:#b1b1b1; stroke:none;" d="M298 669C298 675.29 295.59 685.75 303 688L302 679L301 679L301 683L300 683L298 669M1586 678L1588 683L1586 678M126 688L127 689L126 688M128 689L129 690L128 689M1599 689L1599 690L1651 722.495L1670.96 737.09L1671 767L1671 845L1673 845L1673 772L1673.6 741.184L1687 731L1687 730C1672.58 733.062 1658.8 725.373 1647 717.845C1631.57 708.002 1615.57 696.739 1599 689M309 692L309 693L385 740C381.263 733.187 371.438 729.467 365 725.474C347.594 714.677 328.435 698.433 309 692M134.667 693.333L135.333 693.667L134.667 693.333M139 696L140 697L139 696M141 697L142 698L141 697M145 700L145 701L149 702L149 701L145 700M150 703L151 704L150 703M152 704L153 705L152 704M156 707L156 708L160 709L160 708L156 707M163 711L163 712L166 713L163 711M168 714L171 716L171 715L168 714M172 716L173 717L172 716M174 718L174 719L179 721L179 720L174 718M181 722L184 724L184 723L181 722M185 724L201 739L211 734L211 733C200.678 732.915 193.848 728.709 185 724M0.666667 726.333L1.33333 726.667L0.666667 726.333M2 727L2 728L17 737L24 731L24 730C15.2791 731.852 10.2545 729.08 2 727M1510 736L1511 737L1510 736M200 741L200 846L201 846C203.447 837.72 202 827.607 202 819L202 768C202 760.573 204.588 747.056 200 741M385 741L385 743L387 743L387 741L385 741M1499 743L1500 744L1499 743M949 834L948 840L949 840L949 834z"/>
<path style="fill:#676767; stroke:none;" d="M950 834L951 835L950 834z"/>
<path style="fill:#b1b1b1; stroke:none;" d="M951 834L953 836L951 834z"/>
<path style="fill:#010101; stroke:none;" d="M949 835L946 841L946 844L949 844C949 853.593 949.338 858.55 960 859C960 853.529 958.576 846.991 964 844L964 840L952 841L952 835L949 835z"/>
<path style="fill:#333333; stroke:none;" d="M952 836L953 837L952 836z"/>
<path style="fill:#676767; stroke:none;" d="M952 837L952 840L953 840L952 837z"/>
<path style="fill:#b1b1b1; stroke:none;" d="M897 839L897 840L901 840L897 839M916 839L916 840L920 840L916 839M934 839L934 840L938 840L934 839M962 839L963 840L962 839M970 839L970 840L975 840L970 839M990 839L990 840L994 840L990 839M1014 839L1014 840L1019 840L1014 839M1029 839L1029 840L1034 840L1029 839M1046 839L1046 840L1049 840L1046 839M1056 839L1056 840L1059 840L1056 839M385 840L384 847L385 847L385 840M890 840L891 841L890 840z"/>
<path style="fill:#333333; stroke:none;" d="M891 840L892 841L891 840z"/>
<path style="fill:#676767; stroke:none;" d="M892 840L894 842L892 840z"/>
<path style="fill:#b1b1b1; stroke:none;" d="M895 840L896 841L895 840z"/>
<path style="fill:#010101; stroke:none;" d="M890 841L890 864L893 864L893 857C903.369 862.533 915.443 849.967 904.775 842.148C900.23 838.817 895.077 841.156 890 841z"/>
<path style="fill:#676767; stroke:none;" d="M902 840L903 841L902 840z"/>
<path style="fill:#b1b1b1; stroke:none;" d="M903 840L904 841L903 840M910 840L909 858L910 858L910 840z"/>
<path style="fill:#333333; stroke:none;" d="M911 840L912 841L911 840z"/>
<path style="fill:#676767; stroke:none;" d="M912 840L914 842L912 840z"/>
<path style="fill:#b1b1b1; stroke:none;" d="M913.667 840.333L914.333 840.667L913.667 840.333z"/>
<path style="fill:#333333; stroke:none;" d="M915 840L916 841L915 840z"/>
<path style="fill:#010101; stroke:none;" d="M910 841L910 859L913 859C913 856.251 914.856 837.356 920.972 846.323C923.102 849.445 922 855.391 922 859L925 859C925 853.45 927.273 842.182 919.982 840.476C916.84 839.741 913.241 841.099 910 841z"/>
<path style="fill:#676767; stroke:none;" d="M921 840L922 841L921 840M932 840L933 841L932 840z"/>
<path style="fill:#010101; stroke:none;" d="M932 859L928 859C930.313 865.43 940.179 867.867 943.972 860.941C946.752 855.867 945 846.66 945 841C941.119 841.113 936.732 839.329 933.015 840.746C923.965 844.199 927.153 853.758 932 859z"/>
<path style="fill:#676767; stroke:none;" d="M939 840L940 841L939 840z"/>
<path style="fill:#b1b1b1; stroke:none;" d="M940 840L941 841L940 840M942 840L943 841L942 840z"/>
<path style="fill:#333333; stroke:none;" d="M943 840L944 841L943 840z"/>
<path style="fill:#676767; stroke:none;" d="M944 840L944 841L947 841L947 840L944 840z"/>
<path style="fill:#b1b1b1; stroke:none;" d="M945 840L946 841L945 840z"/>
<path style="fill:#333333; stroke:none;" d="M947.667 840.333L948.333 840.667L947.667 840.333M952 840L952 841L955 841L952 840z"/>
<path style="fill:#b1b1b1; stroke:none;" d="M955.667 840.333L956.333 840.667L955.667 840.333z"/>
<path style="fill:#333333; stroke:none;" d="M957 840L958 841L957 840z"/>
<path style="fill:#676767; stroke:none;" d="M958 840L959 841L958 840z"/>
<path style="fill:#b1b1b1; stroke:none;" d="M959 840L960 841L959 840z"/>
<path style="fill:#676767; stroke:none;" d="M960 840L961 841L960 840z"/>
<path style="fill:#b1b1b1; stroke:none;" d="M968 840L969 841L968 840z"/>
<path style="fill:#333333; stroke:none;" d="M969 840L970 841L969 840z"/>
<path style="fill:#010101; stroke:none;" d="M982 852L983 852C986.178 861.122 997.822 861.122 1001 852C994.336 853.051 991.281 857.91 986 851L1001 851C1000.6 838.821 984.451 836.091 983 849C978.322 839.62 961.125 836.321 963.247 850.999C964.843 862.038 978.174 860.107 982 852z"/>
<path style="fill:#676767; stroke:none;" d="M976 840L977 841L976 840z"/>
<path style="fill:#b1b1b1; stroke:none;" d="M987 840L988 841L987 840z"/>
<path style="fill:#333333; stroke:none;" d="M988 840L989 841L988 840z"/>
<path style="fill:#676767; stroke:none;" d="M995 840L996 841L995 840z"/>
<path style="fill:#b1b1b1; stroke:none;" d="M996 840L997 841L996 840z"/>
<path style="fill:#676767; stroke:none;" d="M1012 840L1013 841L1012 840z"/>
<path style="fill:#010101; stroke:none;" d="M1023 855C1028.47 859.629 1036.13 860.977 1039 853L1040 853L1040 859L1044 859C1044 852.645 1042.76 846.502 1049 843L1050 859L1054 859C1054 855.758 1052.43 845.458 1057.04 844.631C1062.35 843.68 1061 856.181 1061 859C1065.47 856.103 1065.75 844.148 1060.77 841.183C1056.02 838.352 1045.39 840.575 1040 841L1040 846L1039 846C1035.77 839.3 1027.72 837.917 1024 845C1022.5 843.252 1021.2 841.578 1018.96 840.742C998.222 833.009 1011.77 874.717 1023 855z"/>
<path style="fill:#333333; stroke:none;" d="M1019 840L1020 841L1019 840z"/>
<path style="fill:#b1b1b1; stroke:none;" d="M1020 840L1021 841L1020 840M1026 840L1027 841L1026 840z"/>
<path style="fill:#676767; stroke:none;" d="M1027 840L1028 841L1027 840z"/>
<path style="fill:#b1b1b1; stroke:none;" d="M1035 840L1036 841L1035 840M1040 840L1041 841L1040 840z"/>
<path style="fill:#333333; stroke:none;" d="M1041.67 840.333L1042.33 840.667L1041.67 840.333z"/>
<path style="fill:#b1b1b1; stroke:none;" d="M1043.67 840.333L1044.33 840.667L1043.67 840.333z"/>
<path style="fill:#676767; stroke:none;" d="M1050 840L1051 841L1050 840M1054 840L1055 841L1054 840M1060 840L1061 841L1060 840z"/>
<path style="fill:#b1b1b1; stroke:none;" d="M1061 840L1062 841L1061 840z"/>
<path style="fill:#676767; stroke:none;" d="M904 841L905 842L904 841z"/>
<path style="fill:#b1b1b1; stroke:none;" d="M923 841L924 842L923 841z"/>
<path style="fill:#676767; stroke:none;" d="M930 841L931 842L930 841M941 841L942 842L941 841z"/>
<path style="fill:#b1b1b1; stroke:none;" d="M966 841L967 842L966 841z"/>
<path style="fill:#676767; stroke:none;" d="M978 841L979 842L978 841z"/>
<path style="fill:#b1b1b1; stroke:none;" d="M985 841L986 842L985 841z"/>
<path style="fill:#676767; stroke:none;" d="M986 841L987 842L986 841M997 841L998 842L997 841z"/>
<path style="fill:#b1b1b1; stroke:none;" d="M1010 841L1011 842L1010 841z"/>
<path style="fill:#676767; stroke:none;" d="M1021 841L1022 842L1021 841M1025 841L1026 842L1025 841M1036 841L1037 842L1036 841M1051 841L1052 842L1051 841z"/>
<path style="fill:#b1b1b1; stroke:none;" d="M1052 841L1053 842L1052 841M1062 841L1063 842L1062 841M1858 841C1856.56 846.467 1859.14 848.838 1864 851L1858 841z"/>
<path style="fill:#676767; stroke:none;" d="M905 842L906 843L905 842z"/>
<path style="fill:#b1b1b1; stroke:none;" d="M906 842L907 843L906 842M924 842L925 843L924 842z"/>
<path style="fill:#676767; stroke:none;" d="M929 842L930 843L929 842z"/>
<path style="fill:#333333; stroke:none;" d="M945 842L945 858L946 858L945 842z"/>
<path style="fill:#b1b1b1; stroke:none;" d="M965 842L966 843L965 842z"/>
<path style="fill:#676767; stroke:none;" d="M979 842L980 843L979 842z"/>
<path style="fill:#b1b1b1; stroke:none;" d="M984 842L985 843L984 842z"/>
<path style="fill:#676767; stroke:none;" d="M998 842L999 843L998 842z"/>
<path style="fill:#b1b1b1; stroke:none;" d="M1009 842L1010 843L1009 842z"/>
<path style="fill:#676767; stroke:none;" d="M1022 842L1023 843L1022 842M1024 842L1025 843L1024 842M1037 842L1038 843L1037 842z"/>
<path style="fill:#b1b1b1; stroke:none;" d="M1063 842L1064 843L1063 842z"/>
<path style="fill:#676767; stroke:none;" d="M928 843L929 844L928 843z"/>
<path style="fill:#333333; stroke:none;" d="M935.667 843.333L936.333 843.667L935.667 843.333z"/>
<path style="fill:#b1b1b1; stroke:none;" d="M964 843L965 844L964 843z"/>
<path style="fill:#333333; stroke:none;" d="M972 843L973 844L972 843z"/>
<path style="fill:#676767; stroke:none;" d="M980 843L981 844L980 843z"/>
<path style="fill:#333333; stroke:none;" d="M991.667 843.333L992.333 843.667L991.667 843.333z"/>
<path style="fill:#676767; stroke:none;" d="M999 843L1000 844L999 843z"/>
<path style="fill:#333333; stroke:none;" d="M1016 843L1017 844L1016 843z"/>
<path style="fill:#b1b1b1; stroke:none;" d="M1023 843L1024 844L1023 843z"/>
<path style="fill:#676767; stroke:none;" d="M1030.67 843.333L1031.33 843.667L1030.67 843.333z"/>
<path style="fill:#333333; stroke:none;" d="M1032 843L1033 844L1032 843z"/>
<path style="fill:#676767; stroke:none;" d="M1038 843L1039 844L1038 843M1047 843L1048 844L1047 843z"/>
<path style="fill:#333333; stroke:none;" d="M1048 843L1049 844L1048 843M1056 843L1057 844L1056 843z"/>
<path style="fill:#676767; stroke:none;" d="M1057.67 843.333L1058.33 843.667L1057.67 843.333z"/>
<path style="fill:#333333; stroke:none;" d="M1063 843L1064 844L1063 843z"/>
<path style="fill:#b1b1b1; stroke:none;" d="M16 844L17 845L16 844z"/>
<path style="fill:#676767; stroke:none;" d="M896 844L894 847L896 844z"/>
<path style="fill:#fcfcfc; stroke:none;" d="M897.147 845.086C891.249 848 895.979 857.56 901.683 853.957C906.26 851.066 902.303 842.54 897.147 845.086z"/>
<path style="fill:#b1b1b1; stroke:none;" d="M901 844L902 845L901 844z"/>
<path style="fill:#676767; stroke:none;" d="M907 844L908 845L907 844M915 844L916 845L915 844M920 844L921 845L920 844z"/>
<path style="fill:#b1b1b1; stroke:none;" d="M925 844L926 845L925 844M927 844L928 845L927 844M933 844L932 846L933 844z"/>
<path style="fill:#fcfcfc; stroke:none;" d="M934.147 845.086C928.345 847.954 933.275 857.267 938.682 853.953C943.305 851.119 939.29 842.545 934.147 845.086z"/>
<path style="fill:#b1b1b1; stroke:none;" d="M938 844L940 846L938 844z"/>
<path style="fill:#676767; stroke:none;" d="M939 844L940 845L939 844z"/>
<path style="fill:#b1b1b1; stroke:none;" d="M946 844L946 845L948 855L949 855L949 844L946 844z"/>
<path style="fill:#676767; stroke:none;" d="M952.333 844.667L952.667 845.333L952.333 844.667z"/>
<path style="fill:#b1b1b1; stroke:none;" d="M953 844L953 845L955 856L956 856L956 844L953 844z"/>
<path style="fill:#676767; stroke:none;" d="M961 844L962 845L961 844z"/>
<path style="fill:#b1b1b1; stroke:none;" d="M962 844L964 846L962 844z"/>
<path style="fill:#fcfcfc; stroke:none;" d="M963 844L964 845L963 844z"/>
<path style="fill:#333333; stroke:none;" d="M964 844L965 845L964 844z"/>
<path style="fill:#676767; stroke:none;" d="M969 844L967 848L978 848L977 845L976 845C976 848.359 970.797 847 968 847L969 844z"/>
<path style="fill:#fcfcfc; stroke:none;" d="M968 847L977 847C973.856 843.804 971.144 843.804 968 847z"/>
<path style="fill:#b1b1b1; stroke:none;" d="M975 844L976 845L975 844z"/>
<path style="fill:#676767; stroke:none;" d="M983 844L984 845L983 844M988 844L987 846L988 844z"/>
<path style="fill:#b1b1b1; stroke:none;" d="M989 844L990 845L989 844z"/>
<path style="fill:#fcfcfc; stroke:none;" d="M987 846L987 847L996 847C992.988 843.961 990.768 844.229 987 846z"/>
<path style="fill:#b1b1b1; stroke:none;" d="M994 844L995 845L994 844M1000 844L1001 845L1000 844z"/>
<path style="fill:#676767; stroke:none;" d="M1008 844L1009 845L1008 844M1013 844L1012 846L1013 844z"/>
<path style="fill:#fcfcfc; stroke:none;" d="M1014.31 845.086C1010.15 847.431 1012.54 856.836 1017.7 854.673C1024.06 852.008 1019.8 842.001 1014.31 845.086z"/>
<path style="fill:#b1b1b1; stroke:none;" d="M1018 844L1019 845L1018 844z"/>
<path style="fill:#676767; stroke:none;" d="M1023 844L1024 845L1023 844M1028 844L1027 846L1028 844z"/>
<path style="fill:#fcfcfc; stroke:none;" d="M1029.31 845.086C1024.59 847.739 1028.31 857.312 1033.57 853.953C1037.9 851.185 1034.2 842.341 1029.31 845.086z"/>
<path style="fill:#b1b1b1; stroke:none;" d="M1033 844L1035 846L1033 844z"/>
<path style="fill:#676767; stroke:none;" d="M1034 844L1035 845L1034 844M1045 844L1046 845L1045 844M1049 844L1050 845L1049 844M1055 844L1056 845L1055 844z"/>
<path style="fill:#b1b1b1; stroke:none;" d="M1059 844L1060 845L1059 844M902 845L903 846L902 845z"/>
<path style="fill:#676767; stroke:none;" d="M914 845L915 846L914 845z"/>
<path style="fill:#333333; stroke:none;" d="M921 845L922 846L921 845z"/>
<path style="fill:#676767; stroke:none;" d="M925.333 845.667L925.667 846.333L925.333 845.667M927 845L928 846L927 845z"/>
<path style="fill:#fcfcfc; stroke:none;" d="M953 845L954 855L955 855L955 845L953 845z"/>
<path style="fill:#676767; stroke:none;" d="M960 845L961 846L960 845M981 845L983 847L981 845z"/>
<path style="fill:#b1b1b1; stroke:none;" d="M982 845L983 846L982 845M995 845L996 846L995 845M1019 845L1020 846L1019 845z"/>
<path style="fill:#676767; stroke:none;" d="M1039 845L1040 846L1039 845M1044 845L1045 846L1044 845z"/>
<path style="fill:#b1b1b1; stroke:none;" d="M1049 845L1050 846L1049 845z"/>
<path style="fill:#676767; stroke:none;" d="M1054 845L1055 846L1054 845z"/>
<path style="fill:#b1b1b1; stroke:none;" d="M13 846L14 847L13 846M903 846L904 847L903 846z"/>
<path style="fill:#676767; stroke:none;" d="M908 846L909 847L908 846z"/>
<path style="fill:#b1b1b1; stroke:none;" d="M921 846L921 858L922 858L921 846z"/>
<path style="fill:#676767; stroke:none;" d="M931 846L932 847L931 846z"/>
<path style="fill:#b1b1b1; stroke:none;" d="M940 846L941 847L940 846z"/>
<path style="fill:#333333; stroke:none;" d="M952 846L952 854L953 854L952 846z"/>
<path style="fill:#b1b1b1; stroke:none;" d="M996 846L997 847L996 846M1001 846L1002 847L1001 846z"/>
<path style="fill:#676767; stroke:none;" d="M1007 846L1008 847L1007 846M1035 846L1036 847L1035 846z"/>
<path style="fill:#b1b1b1; stroke:none;" d="M1044 846L1044 858L1045 858L1044 846M1054 846L1055 847L1054 846z"/>
<path style="fill:#676767; stroke:none;" d="M1060 846L1060 857L1061 857L1060 846M904 847L905 848L904 847z"/>
<path style="fill:#333333; stroke:none;" d="M908 847L909 848L908 847M913 847L913 858L914 858L913 847M925 847L925 858L926 858L925 847z"/>
<path style="fill:#b1b1b1; stroke:none;" d="M926.333 847.667L926.667 848.333L926.333 847.667z"/>
<path style="fill:#676767; stroke:none;" d="M941 847L942 848L941 847z"/>
<path style="fill:#333333; stroke:none;" d="M982.333 847.667L982.667 848.333L982.333 847.667z"/>
<path style="fill:#676767; stroke:none;" d="M986 847L986 848L997 848L986 847z"/>
<path style="fill:#333333; stroke:none;" d="M997 847L998 848L997 847z"/>
<path style="fill:#676767; stroke:none;" d="M1001 847L1002 848L1001 847z"/>
<path style="fill:#333333; stroke:none;" d="M1007 847L1008 848L1007 847z"/>
<path style="fill:#676767; stroke:none;" d="M1011 847L1012 848L1011 847z"/>
<path style="fill:#b1b1b1; stroke:none;" d="M1020 847L1021 848L1020 847z"/>
<path style="fill:#676767; stroke:none;" d="M1021 847L1022 848L1021 847z"/>
<path style="fill:#333333; stroke:none;" d="M1022 847L1022 852L1023 852L1022 847z"/>
<path style="fill:#676767; stroke:none;" d="M1026 847L1027 848L1026 847z"/>
<path style="fill:#b1b1b1; stroke:none;" d="M1035 847L1036 848L1035 847z"/>
<path style="fill:#333333; stroke:none;" d="M893 848L894 849L893 848z"/>
<path style="fill:#b1b1b1; stroke:none;" d="M904 848L904 852L905 852L904 848z"/>
<path style="fill:#333333; stroke:none;" d="M930 848L930 851L931 851L930 848z"/>
<path style="fill:#b1b1b1; stroke:none;" d="M941 848L941 851L942 851L941 848M962 848L962 851L963 851L962 848z"/>
<path style="fill:#333333; stroke:none;" d="M1001.33 848.667L1001.67 849.333L1001.33 848.667z"/>
<path style="fill:#b1b1b1; stroke:none;" d="M1011 848L1011 851L1012 851L1011 848M1026 848L1026 851L1027 851L1026 848z"/>
<path style="fill:#676767; stroke:none;" d="M893.333 849.667L893.667 850.333L893.333 849.667M926.333 849.667L926.667 850.333L926.333 849.667z"/>
<path style="fill:#b1b1b1; stroke:none;" d="M1001 850L1002 851L1001 850M926 851L927 852L926 851z"/>
<path style="fill:#676767; stroke:none;" d="M941 851L942 852L941 851z"/>
<path style="fill:#b1b1b1; stroke:none;" d="M967 851L967 852L977 852L975 855L982 852L967 851M986 851L986 852L1001 852L986 851z"/>
<path style="fill:#676767; stroke:none;" d="M1011.33 851.667L1011.67 852.333L1011.33 851.667z"/>
<path style="fill:#b1b1b1; stroke:none;" d="M1021 851L1022 852L1021 851z"/>
<path style="fill:#676767; stroke:none;" d="M1026 851L1027 852L1026 851z"/>
<path style="fill:#b1b1b1; stroke:none;" d="M894 852L895 853L894 852z"/>
<path style="fill:#333333; stroke:none;" d="M904 852L905 853L904 852z"/>
<path style="fill:#676767; stroke:none;" d="M908 852L909 853L908 852z"/>
<path style="fill:#b1b1b1; stroke:none;" d="M931 852L932 853L931 852z"/>
<path style="fill:#676767; stroke:none;" d="M967 852L968 853L967 852z"/>
<path style="fill:#fcfcfc; stroke:none;" d="M968 852C971.144 855.196 973.856 855.196 977 852L968 852z"/>
<path style="fill:#676767; stroke:none;" d="M982 852L983 853L982 852z"/>
<path style="fill:#333333; stroke:none;" d="M986 852L987 853L986 852z"/>
<path style="fill:#fcfcfc; stroke:none;" d="M987 852C989.968 855.028 993.478 855.886 996 852L987 852z"/>
<path style="fill:#676767; stroke:none;" d="M1007 852L1008 853L1007 852z"/>
<path style="fill:#333333; stroke:none;" d="M1026 852L1027 853L1026 852z"/>
<path style="fill:#b1b1b1; stroke:none;" d="M1035 852L1036 853L1035 852z"/>
<path style="fill:#676767; stroke:none;" d="M903 853L904 854L903 853z"/>
<path style="fill:#b1b1b1; stroke:none;" d="M932 853L934 855L932 853z"/>
<path style="fill:#676767; stroke:none;" d="M940 853L941 854L940 853z"/>
<path style="fill:#b1b1b1; stroke:none;" d="M963 853L964 854L963 853M968 853L969 854L968 853M982 853L983 854L982 853z"/>
<path style="fill:#676767; stroke:none;" d="M987 853L988 854L987 853M996 853L997 854L996 853z"/>
<path style="fill:#b1b1b1; stroke:none;" d="M1007 853L1008 854L1007 853M1012 853L1013 854L1012 853M1019 853L1020 854L1019 853M1027 853L1028 854L1027 853z"/>
<path style="fill:#333333; stroke:none;" d="M1035 853L1036 854L1035 853z"/>
<path style="fill:#676767; stroke:none;" d="M1039 853L1040 854L1039 853M895 854L896 855L895 854z"/>
<path style="fill:#b1b1b1; stroke:none;" d="M896 854L897 855L896 854z"/>
<path style="fill:#676767; stroke:none;" d="M902 854L903 855L902 854z"/>
<path style="fill:#b1b1b1; stroke:none;" d="M927 854L928 855L927 854z"/>
<path style="fill:#333333; stroke:none;" d="M932 854L933 855L932 854z"/>
<path style="fill:#676767; stroke:none;" d="M939 854L940 855L939 854z"/>
<path style="fill:#b1b1b1; stroke:none;" d="M953 854L954 855L953 854M969 854L970 855L969 854M981 854L982 855L981 854z"/>
<path style="fill:#676767; stroke:none;" d="M983 854L984 855L983 854M988 854L989 855L988 854M995 854L996 855L995 854M1000 854L1001 855L1000 854z"/>
<path style="fill:#b1b1b1; stroke:none;" d="M1013 854L1014 855L1013 854z"/>
<path style="fill:#676767; stroke:none;" d="M1019 854L1020 855L1019 854z"/>
<path style="fill:#b1b1b1; stroke:none;" d="M1028 854L1029 855L1028 854z"/>
<path style="fill:#676767; stroke:none;" d="M1034 854L1035 855L1034 854z"/>
<path style="fill:#b1b1b1; stroke:none;" d="M1039 854L1040 855L1039 854z"/>
<path style="fill:#676767; stroke:none;" d="M897 855L898 856L897 855z"/>
<path style="fill:#b1b1b1; stroke:none;" d="M898.667 855.333L899.333 855.667L898.667 855.333z"/>
<path style="fill:#676767; stroke:none;" d="M900 855L901 856L900 855z"/>
<path style="fill:#b1b1b1; stroke:none;" d="M907 855L908 856L907 855z"/>
<path style="fill:#676767; stroke:none;" d="M928 855L929 856L928 855M934 855L935 856L934 855z"/>
<path style="fill:#b1b1b1; stroke:none;" d="M935.667 855.333L936.333 855.667L935.667 855.333z"/>
<path style="fill:#676767; stroke:none;" d="M937 855L938 856L937 855z"/>
<path style="fill:#b1b1b1; stroke:none;" d="M964 855L965 856L964 855z"/>
<path style="fill:#676767; stroke:none;" d="M970.667 855.333L971.333 855.667L970.667 855.333z"/>
<path style="fill:#b1b1b1; stroke:none;" d="M972.667 855.333L973.333 855.667L972.667 855.333z"/>
<path style="fill:#676767; stroke:none;" d="M974 855L975 856L974 855M980 855L981 856L980 855z"/>
<path style="fill:#b1b1b1; stroke:none;" d="M983 855L984 856L983 855z"/>
<path style="fill:#333333; stroke:none;" d="M989 855L990 856L989 855z"/>
<path style="fill:#676767; stroke:none;" d="M990 855L991 856L990 855z"/>
<path style="fill:#b1b1b1; stroke:none;" d="M991.667 855.333L992.333 855.667L991.667 855.333z"/>
<path style="fill:#676767; stroke:none;" d="M993 855L994 856L993 855z"/>
<path style="fill:#b1b1b1; stroke:none;" d="M1008 855L1009 856L1008 855M1014 855L1015 856L1014 855M1017 855L1018 856L1017 855z"/>
<path style="fill:#676767; stroke:none;" d="M1018 855L1019 856L1018 855M1023 855L1024 856L1023 855M1029 855L1030 856L1029 855z"/>
<path style="fill:#b1b1b1; stroke:none;" d="M1030.67 855.333L1031.33 855.667L1030.67 855.333z"/>
<path style="fill:#676767; stroke:none;" d="M1032 855L1033 856L1032 855M1038 855L1039 856L1038 855M906 856L907 857L906 856M929 856L931 858L929 856M949 856L950 857L949 856z"/>
<path style="fill:#333333; stroke:none;" d="M955 856L956 857L955 856z"/>
<path style="fill:#676767; stroke:none;" d="M965 856L966 857L965 856M979 856L980 857L979 856z"/>
<path style="fill:#b1b1b1; stroke:none;" d="M984 856L985 857L984 856M999 856L1000 857L999 856M1002 856L1003 857L1002 856z"/>
<path style="fill:#010101; stroke:none;" d="M1003 856L1003 860L1006 859L1006 857L1005 856L1003 856z"/>
<path style="fill:#676767; stroke:none;" d="M1005 856L1006 857L1005 856M1009 856L1010 857L1009 856M1024 856L1025 857L1024 856z"/>
<path style="fill:#b1b1b1; stroke:none;" d="M1038 856L1039 857L1038 856z"/>
<path style="fill:#676767; stroke:none;" d="M893 857L893 863L894 863L893 857M905 857L906 858L905 857z"/>
<path style="fill:#b1b1b1; stroke:none;" d="M929 857L932 859L932 858L929 857z"/>
<path style="fill:#676767; stroke:none;" d="M941 857L940 859L941 857M950 857L951 858L950 857M966 857L967 858L966 857M978 857L979 858L978 857z"/>
<path style="fill:#b1b1b1; stroke:none;" d="M985 857L986 858L985 857M998 857L999 858L998 857z"/>
<path style="fill:#333333; stroke:none;" d="M1002 857L1003 858L1002 857z"/>
<path style="fill:#676767; stroke:none;" d="M1010 857L1011 858L1010 857z"/>
<path style="fill:#b1b1b1; stroke:none;" d="M1022 857L1023 858L1022 857z"/>
<path style="fill:#676767; stroke:none;" d="M1025 857L1026 858L1025 857z"/>
<path style="fill:#b1b1b1; stroke:none;" d="M1037 857L1038 858L1037 857z"/>
<path style="fill:#333333; stroke:none;" d="M1060 857L1061 858L1060 857z"/>
<path style="fill:#b1b1b1; stroke:none;" d="M894 858L895 859L894 858z"/>
<path style="fill:#676767; stroke:none;" d="M903 858L904 859L903 858z"/>
<path style="fill:#b1b1b1; stroke:none;" d="M904 858L905 859L904 858M913 858L914 859L913 858M925 858L926 859L925 858z"/>
<path style="fill:#333333; stroke:none;" d="M941 858L942 859L941 858z"/>
<path style="fill:#676767; stroke:none;" d="M945 858L946 859L945 858z"/>
<path style="fill:#b1b1b1; stroke:none;" d="M951 858L952 859L951 858z"/>
<path style="fill:#333333; stroke:none;" d="M952 858L953 859L952 858z"/>
<path style="fill:#676767; stroke:none;" d="M955 858L956 859L955 858z"/>
<path style="fill:#b1b1b1; stroke:none;" d="M967 858L968 859L967 858z"/>
<path style="fill:#676767; stroke:none;" d="M968 858L969 859L968 858z"/>
<path style="fill:#b1b1b1; stroke:none;" d="M977 858L978 859L977 858z"/>
<path style="fill:#676767; stroke:none;" d="M987 858L988 859L987 858M996 858L997 859L996 858M1002 858L1003 859L1002 858M1011 858L1012 859L1011 858z"/>
<path style="fill:#333333; stroke:none;" d="M1020 858L1021 859L1020 858z"/>
<path style="fill:#b1b1b1; stroke:none;" d="M1021 858L1022 859L1021 858M1026 858L1027 859L1026 858z"/>
<path style="fill:#676767; stroke:none;" d="M1035 858L1036 859L1035 858z"/>
<path style="fill:#b1b1b1; stroke:none;" d="M1060 858L1061 859L1060 858z"/>
<path style="fill:#676767; stroke:none;" d="M1063 858L1064 859L1063 858z"/>
<path style="fill:#b1b1b1; stroke:none;" d="M896 859L897 860L896 859z"/>
<path style="fill:#676767; stroke:none;" d="M897 859L897 860L901 860L897 859z"/>
<path style="fill:#b1b1b1; stroke:none;" d="M901 859L902 860L901 859M911.667 859.333L912.333 859.667L911.667 859.333M923.667 859.333L924.333 859.667L923.667 859.333M932.667 859.333L933.333 859.667L932.667 859.333z"/>
<path style="fill:#676767; stroke:none;" d="M934 859L934 860L938 860L934 859z"/>
<path style="fill:#b1b1b1; stroke:none;" d="M938 859L938 860L941 860L941 859L938 859z"/>
<path style="fill:#fcfcfc; stroke:none;" d="M939 859L940 860L939 859z"/>
<path style="fill:#b1b1b1; stroke:none;" d="M945 859L946 860L945 859M954 859L955 860L954 859M957.667 859.333L958.333 859.667L957.667 859.333M969 859L970 860L969 859z"/>
<path style="fill:#676767; stroke:none;" d="M970 859L970 860L975 860L970 859z"/>
<path style="fill:#b1b1b1; stroke:none;" d="M975 859L976 860L975 859M989 859L990 860L989 859z"/>
<path style="fill:#676767; stroke:none;" d="M990 859L990 860L994 860L990 859z"/>
<path style="fill:#b1b1b1; stroke:none;" d="M994 859L995 860L994 859M1002 859L1003 860L1002 859M1005 859L1006 860L1005 859M1012 859L1013 860L1012 859z"/>
<path style="fill:#676767; stroke:none;" d="M1013 859L1014 860L1013 859z"/>
<path style="fill:#333333; stroke:none;" d="M1018 859L1019 860L1018 859z"/>
<path style="fill:#b1b1b1; stroke:none;" d="M1019 859L1020 860L1019 859M1028 859L1029 860L1028 859z"/>
<path style="fill:#676767; stroke:none;" d="M1029 859L1029 860L1033 860L1029 859z"/>
<path style="fill:#b1b1b1; stroke:none;" d="M1033 859L1034 860L1033 859M1041.67 859.333L1042.33 859.667L1041.67 859.333M1051.67 859.333L1052.33 859.667L1051.67 859.333M1061.67 859.333L1062.33 859.667L1061.67 859.333z"/>
<path style="fill:#676767; stroke:none;" d="M932 860L933 861L932 860z"/>
<path style="fill:#fcfcfc; stroke:none;" d="M933 860L933 861L939 861L933 860z"/>
<path style="fill:#676767; stroke:none;" d="M928 861L929 862L928 861M934 861L935 862L934 861z"/>
<path style="fill:#b1b1b1; stroke:none;" d="M935 861L935 862L938 862L935 861z"/>
<path style="fill:#676767; stroke:none;" d="M938 861L939 862L938 861z"/>
<path style="fill:#b1b1b1; stroke:none;" d="M944 861L945 862L944 861z"/>
<path style="fill:#676767; stroke:none;" d="M943 862L944 863L943 862z"/>
<path style="fill:#b1b1b1; stroke:none;" d="M893 863L894 864L893 863M929 863L930 864L929 863z"/>
<path style="fill:#676767; stroke:none;" d="M942 863L943 864L942 863z"/>
<path style="fill:#b1b1b1; stroke:none;" d="M1843 863L1844 864L1843 863M890 864L891 865L890 864z"/>
<path style="fill:#333333; stroke:none;" d="M891 864L892 865L891 864z"/>
<path style="fill:#b1b1b1; stroke:none;" d="M892 864L893 865L892 864z"/>
<path style="fill:#676767; stroke:none;" d="M931 864L932 865L931 864M941 864L942 865L941 864z"/>
<path style="fill:#b1b1b1; stroke:none;" d="M1841 864L1794 893L1794 894L1829.04 873.603L1841 864M933 865L934 866L933 865z"/>
<path style="fill:#333333; stroke:none;" d="M934 865L934 866L938 866L934 865z"/>
<path style="fill:#676767; stroke:none;" d="M938 865L939 866L938 865z"/>
<path style="fill:#b1b1b1; stroke:none;" d="M939 865L940 866L939 865M1784 899L1784 900L1794 894L1784 899z"/>
</svg>
