<svg width="289" height="144" viewBox="0 0 289 144" fill="none" xmlns="http://www.w3.org/2000/svg">
<rect opacity="0.5" x="7" y="8" width="132.56" height="132.56" rx="9.16" fill="#FFF380"/>
<mask id="mask0_373_10040" style="mask-type:alpha" maskUnits="userSpaceOnUse" x="4" y="3" width="133" height="133">
<rect x="5" y="4" width="130.563" height="130.563" rx="8.16" fill="#C4C4C4" stroke="white" stroke-width="2"/>
</mask>
<g mask="url(#mask0_373_10040)">
<rect x="4" y="4" width="132" height="132" rx="9.16" fill="#2C6EC2"/>
<g filter="url(#filter0_d_373_10040)">
<rect x="5" y="4" width="130.563" height="130.563" rx="8.16" stroke="white" stroke-width="2" shape-rendering="crispEdges"/>
</g>
</g>
<g filter="url(#filter1_d_373_10040)">
<path d="M12.8574 17.8439C12.8582 15.0834 15.0961 12.8454 17.8566 12.8444L39.268 12.8367C42.0303 12.8357 44.2696 15.0749 44.2688 17.8372L44.2628 39.2343C44.262 41.9948 42.0242 44.2328 39.2636 44.2338L17.8522 44.2415C15.0899 44.2425 12.8506 42.0033 12.8514 39.241L12.8574 17.8439Z" fill="#818181" fill-opacity="0.5" shape-rendering="crispEdges"/>
<path d="M13.8574 17.844C13.8581 15.6356 15.6483 13.8452 17.8568 13.8444L39.2682 13.8367C41.478 13.8359 43.2695 15.6273 43.2688 17.8371L43.2628 39.2342C43.2621 41.4426 41.4719 43.233 39.2634 43.2338L17.852 43.2415C15.6422 43.2423 13.8507 41.4509 13.8514 39.2411L13.8574 17.844Z" stroke="white" stroke-width="2" shape-rendering="crispEdges"/>
</g>
<rect opacity="0.5" x="147" y="8" width="132.56" height="132.56" rx="9.16" fill="#FFF380"/>
<mask id="mask1_373_10040" style="mask-type:alpha" maskUnits="userSpaceOnUse" x="143" y="3" width="133" height="133">
<rect x="144.437" y="4" width="130.563" height="130.563" rx="8.16" fill="#C4C4C4" stroke="white" stroke-width="2"/>
</mask>
<g mask="url(#mask1_373_10040)">
<rect x="144" y="4" width="132" height="132" rx="9.16" fill="#2C6EC2"/>
<g filter="url(#filter2_d_373_10040)">
<rect x="144.437" y="4" width="130.563" height="130.563" rx="8.16" stroke="white" stroke-width="2" shape-rendering="crispEdges"/>
</g>
</g>
<path d="M33.1831 23.3884C33.1831 25.8756 31.2169 27.8471 28.8463 27.8471C26.4757 27.8471 24.5096 25.8756 24.5096 23.3884C24.5096 20.9011 26.4757 18.9297 28.8463 18.9297C31.2169 18.9297 33.1831 20.9011 33.1831 23.3884Z" stroke="white" stroke-width="2.4"/>
<path d="M22.6572 35.9019C22.6572 32.4843 25.4278 29.7138 28.8454 29.7138C32.263 29.7138 35.0335 32.4843 35.0335 35.9019V39.6997H22.6572V35.9019Z" fill="white"/>
<g filter="url(#filter3_d_373_10040)">
<path d="M151.02 17.9834C151.021 15.2457 153.24 13.0262 155.978 13.0252L177.212 13.0176C179.951 13.0166 182.172 15.2372 182.171 17.9767L182.165 39.1968C182.165 41.9345 179.945 44.154 177.208 44.155L155.973 44.1626C153.234 44.1636 151.013 41.943 151.014 39.2035L151.02 17.9834Z" fill="#818181" fill-opacity="0.5" shape-rendering="crispEdges"/>
<path d="M152.012 17.9835C152.012 15.7933 153.788 14.0177 155.978 14.0169L177.212 14.0093C179.404 14.0085 181.18 15.785 181.18 17.9766L181.174 39.1967C181.173 41.3869 179.398 43.1625 177.207 43.1633L155.973 43.1709C153.782 43.1717 152.005 41.3952 152.006 39.2036L152.012 17.9835Z" stroke="white" stroke-width="1.98346" shape-rendering="crispEdges"/>
</g>
<path d="M171.178 23.4843C171.178 25.951 169.228 27.9061 166.877 27.9061C164.526 27.9061 162.576 25.951 162.576 23.4843C162.576 21.0176 164.526 19.0625 166.877 19.0625C169.228 19.0625 171.178 21.0176 171.178 23.4843Z" stroke="white" stroke-width="2.38016"/>
<path d="M160.739 35.8925C160.739 32.5032 163.486 29.7556 166.876 29.7556C170.265 29.7556 173.012 32.5032 173.012 35.8925V39.6589H160.739V35.8925Z" fill="white"/>
<path d="M161.043 26.1345C161.661 25.5165 161.558 24.5895 161.816 23.817L164.906 28.452H158.726C159.241 28.1945 160.425 26.7525 161.043 26.1345Z" fill="white"/>
<path d="M172.94 26.1345C172.322 25.5165 172.425 24.5895 172.168 23.817L169.078 28.452H175.258C174.743 28.1945 173.558 26.7525 172.94 26.1345Z" fill="white"/>
<rect x="4" y="-6.10352e-05" width="270" height="136" fill="white" fill-opacity="0.4"/>
<path d="M22.0146 97.9932L9.52588 87.4885V41.8494H259.008L271.497 52.3541V97.9932H22.0146Z" fill="#FFF380"/>
<path d="M258.486 43.3604L269.921 52.979V96.4748H22.7618L11.3265 86.8562V43.3604H258.486ZM259.98 40.3309H7.72485V88.1134L21.2581 99.5043H273.523V51.7256L259.98 40.3309Z" fill="white"/>
<path d="M261.25 39.8163H171.695V40.5737H257.315L272.987 53.7557V94.5742H273.887V50.4347L261.25 39.8163Z" fill="#2E5799"/>
<path d="M19.8761 99.9553H88.7893V99.1979H23.8109L8.13918 86.0197V45.1974H7.23877V89.337L19.8761 99.9553Z" fill="#2E5799"/>
<path d="M58.1503 78.7156C56.2791 78.7156 54.6717 78.3414 53.3278 77.5929C52.001 76.8274 50.9804 75.7558 50.2659 74.3779C49.5515 72.9831 49.1943 71.3415 49.1943 69.4534C49.1943 68.0415 49.3984 66.7742 49.8066 65.6515C50.2149 64.5118 50.8018 63.5422 51.5672 62.7427C52.3327 61.9262 53.2683 61.3053 54.374 60.8801C55.4967 60.4378 56.7554 60.2167 58.1503 60.2167C59.0859 60.2167 60.0045 60.3357 60.906 60.5739C61.8076 60.812 62.5986 61.1522 63.279 61.5945C63.6362 61.8156 63.8744 62.0878 63.9934 62.411C64.1125 62.7172 64.138 63.0234 64.07 63.3296C64.0019 63.6188 63.8573 63.8654 63.6362 64.0695C63.4321 64.2737 63.1684 64.3927 62.8452 64.4268C62.539 64.4438 62.1988 64.3332 61.8246 64.0951C61.2973 63.7548 60.7274 63.5082 60.115 63.3551C59.5026 63.202 58.8818 63.1255 58.2524 63.1255C57.0446 63.1255 56.024 63.3721 55.1905 63.8654C54.357 64.3587 53.7276 65.0732 53.3023 66.0087C52.877 66.9443 52.6644 68.0925 52.6644 69.4534C52.6644 70.7972 52.877 71.9454 53.3023 72.898C53.7276 73.8506 54.357 74.5735 55.1905 75.0668C56.024 75.5602 57.0446 75.8068 58.2524 75.8068C58.8988 75.8068 59.5367 75.7303 60.1661 75.5772C60.7954 75.4071 61.3908 75.1519 61.9522 74.8117C62.3264 74.5906 62.6581 74.497 62.9473 74.531C63.2535 74.548 63.5086 74.6501 63.7128 74.8372C63.9169 75.0243 64.053 75.2625 64.121 75.5516C64.189 75.8238 64.172 76.113 64.07 76.4192C63.9679 76.7084 63.7638 76.9635 63.4576 77.1847C62.7772 77.678 61.9607 78.0607 61.0081 78.3329C60.0725 78.588 59.1199 78.7156 58.1503 78.7156ZM74.6138 78.7156C72.8787 78.7156 71.3563 78.3329 70.0464 77.5674C68.7536 76.8019 67.75 75.7303 67.0356 74.3524C66.3211 72.9575 65.9639 71.3245 65.9639 69.4534C65.9639 68.0415 66.168 66.7742 66.5763 65.6515C66.9846 64.5118 67.5629 63.5422 68.3114 62.7427C69.0768 61.9262 69.9869 61.3053 71.0416 60.8801C72.1132 60.4378 73.304 60.2167 74.6138 60.2167C76.3659 60.2167 77.8883 60.5994 79.1811 61.3649C80.4739 62.1133 81.4775 63.1765 82.192 64.5543C82.9064 65.9322 83.2636 67.5567 83.2636 69.4279C83.2636 70.8397 83.0595 72.1155 82.6513 73.2552C82.243 74.3949 81.6561 75.373 80.8907 76.1895C80.1422 77.006 79.2321 77.6354 78.1605 78.0777C77.1058 78.503 75.9236 78.7156 74.6138 78.7156ZM74.6138 75.9089C75.7195 75.9089 76.655 75.6537 77.4205 75.1434C78.203 74.6331 78.7984 73.8931 79.2066 72.9235C79.6319 71.9539 79.8445 70.7972 79.8445 69.4534C79.8445 67.4121 79.3852 65.8301 78.4667 64.7074C77.5651 63.5847 76.2808 63.0234 74.6138 63.0234C73.5251 63.0234 72.5895 63.2785 71.807 63.7889C71.0246 64.2822 70.4207 65.0136 69.9954 65.9832C69.5872 66.9358 69.383 68.0925 69.383 69.4534C69.383 71.4776 69.8423 73.0596 70.7609 74.1993C71.6795 75.339 72.9638 75.9089 74.6138 75.9089ZM88.1156 78.6646C87.6393 78.6646 87.2736 78.5285 87.0184 78.2563C86.7633 77.9842 86.6357 77.6099 86.6357 77.1336V61.7986C86.6357 61.3053 86.7718 60.9311 87.044 60.6759C87.3161 60.4038 87.6904 60.2677 88.1667 60.2677C88.5919 60.2677 88.9236 60.3527 89.1618 60.5228C89.4169 60.6759 89.6466 60.9481 89.8507 61.3393L96.1531 73.0001H95.3366L101.639 61.3393C101.843 60.9481 102.064 60.6759 102.302 60.5228C102.541 60.3527 102.872 60.2677 103.298 60.2677C103.774 60.2677 104.14 60.4038 104.395 60.6759C104.65 60.9311 104.777 61.3053 104.777 61.7986V77.1336C104.777 77.6099 104.65 77.9842 104.395 78.2563C104.157 78.5285 103.791 78.6646 103.298 78.6646C102.821 78.6646 102.456 78.5285 102.2 78.2563C101.945 77.9842 101.818 77.6099 101.818 77.1336V65.3198H102.379L97.0206 75.0924C96.8505 75.3815 96.6719 75.5942 96.4848 75.7303C96.2977 75.8663 96.0425 75.9344 95.7193 75.9344C95.3961 75.9344 95.1325 75.8663 94.9283 75.7303C94.7242 75.5772 94.5456 75.3645 94.3925 75.0924L88.9832 65.2943H89.5955V77.1336C89.5955 77.6099 89.468 77.9842 89.2128 78.2563C88.9747 78.5285 88.6089 78.6646 88.1156 78.6646ZM110.37 78.6646C109.842 78.6646 109.434 78.52 109.145 78.2308C108.873 77.9246 108.737 77.5079 108.737 76.9805V61.9517C108.737 61.4074 108.873 60.9906 109.145 60.7015C109.434 60.4123 109.842 60.2677 110.37 60.2677C110.897 60.2677 111.297 60.4123 111.569 60.7015C111.858 60.9906 112.003 61.4074 112.003 61.9517V76.9805C112.003 77.5079 111.867 77.9246 111.594 78.2308C111.322 78.52 110.914 78.6646 110.37 78.6646ZM117.469 78.6646C116.975 78.6646 116.593 78.5285 116.321 78.2563C116.065 77.9842 115.938 77.5929 115.938 77.0826V61.9007C115.938 61.3734 116.065 60.9736 116.321 60.7015C116.593 60.4123 116.941 60.2677 117.367 60.2677C117.758 60.2677 118.047 60.3442 118.234 60.4973C118.438 60.6334 118.677 60.8716 118.949 61.2118L128.721 73.8931H128.058V61.8241C128.058 61.3308 128.185 60.9481 128.441 60.6759C128.713 60.4038 129.095 60.2677 129.589 60.2677C130.082 60.2677 130.456 60.4038 130.711 60.6759C130.967 60.9481 131.094 61.3308 131.094 61.8241V77.1336C131.094 77.6099 130.975 77.9842 130.737 78.2563C130.499 78.5285 130.176 78.6646 129.767 78.6646C129.376 78.6646 129.061 78.588 128.823 78.4349C128.602 78.2818 128.356 78.0352 128.083 77.695L118.336 65.0136H118.974V77.0826C118.974 77.5929 118.847 77.9842 118.591 78.2563C118.336 78.5285 117.962 78.6646 117.469 78.6646ZM143.675 78.7156C141.684 78.7156 140 78.3414 138.623 77.5929C137.262 76.8444 136.224 75.7813 135.51 74.4034C134.795 73.0256 134.438 71.3926 134.438 69.5044C134.438 68.0755 134.642 66.7912 135.05 65.6515C135.476 64.5118 136.079 63.5422 136.862 62.7427C137.661 61.9262 138.631 61.3053 139.771 60.8801C140.91 60.4378 142.203 60.2167 143.649 60.2167C144.602 60.2167 145.554 60.3357 146.507 60.5739C147.477 60.795 148.387 61.1777 149.237 61.7221C149.526 61.9092 149.713 62.1388 149.798 62.411C149.901 62.6832 149.918 62.9639 149.85 63.253C149.781 63.5252 149.654 63.7633 149.467 63.9675C149.28 64.1716 149.042 64.2992 148.752 64.3502C148.48 64.4012 148.174 64.3332 147.834 64.1461C147.187 63.7719 146.532 63.4997 145.869 63.3296C145.206 63.1595 144.466 63.0744 143.649 63.0744C142.39 63.0744 141.327 63.3296 140.46 63.8399C139.592 64.3332 138.937 65.0561 138.495 66.0087C138.07 66.9613 137.857 68.1265 137.857 69.5044C137.857 71.5967 138.359 73.1872 139.363 74.2759C140.366 75.3645 141.855 75.9089 143.828 75.9089C144.508 75.9089 145.197 75.8408 145.895 75.7047C146.592 75.5687 147.272 75.3815 147.936 75.1434L147.298 76.5978V71.1629H144.491C144.066 71.1629 143.734 71.0524 143.496 70.8312C143.275 70.6101 143.164 70.3124 143.164 69.9382C143.164 69.5469 143.275 69.2492 143.496 69.0451C143.734 68.841 144.066 68.7389 144.491 68.7389H148.701C149.127 68.7389 149.45 68.858 149.671 69.0962C149.909 69.3173 150.028 69.6405 150.028 70.0658V76.2661C150.028 76.6403 149.952 76.955 149.798 77.2102C149.662 77.4653 149.433 77.6524 149.11 77.7715C148.361 78.0437 147.502 78.2733 146.532 78.4604C145.563 78.6306 144.61 78.7156 143.675 78.7156ZM166.94 78.7156C166.192 78.7156 165.443 78.6561 164.695 78.537C163.946 78.4349 163.241 78.2733 162.577 78.0522C161.914 77.814 161.318 77.5249 160.791 77.1847C160.485 76.9805 160.272 76.7339 160.153 76.4447C160.034 76.1555 159.992 75.8748 160.026 75.6027C160.077 75.3135 160.187 75.0668 160.357 74.8627C160.544 74.6416 160.774 74.5055 161.046 74.4545C161.318 74.4034 161.616 74.48 161.939 74.6841C162.688 75.1264 163.479 75.4496 164.312 75.6537C165.146 75.8578 166.022 75.9599 166.94 75.9599C168.284 75.9599 169.262 75.7388 169.875 75.2965C170.487 74.8372 170.793 74.2503 170.793 73.5359C170.793 72.9405 170.572 72.4727 170.13 72.1325C169.705 71.7923 168.965 71.5116 167.91 71.2905L165.103 70.7036C163.487 70.3634 162.279 69.7936 161.48 68.9941C160.697 68.1776 160.306 67.1059 160.306 65.7791C160.306 64.9456 160.476 64.1886 160.817 63.5082C161.157 62.8278 161.633 62.2409 162.245 61.7476C162.875 61.2543 163.615 60.8801 164.465 60.6249C165.333 60.3527 166.285 60.2167 167.323 60.2167C168.344 60.2167 169.313 60.3442 170.232 60.5994C171.15 60.8545 171.975 61.2288 172.707 61.7221C172.979 61.9092 173.158 62.1388 173.243 62.411C173.345 62.6832 173.37 62.9553 173.319 63.2275C173.268 63.4827 173.149 63.7038 172.962 63.8909C172.775 64.078 172.537 64.1886 172.248 64.2226C171.975 64.2567 171.661 64.1716 171.304 63.9675C170.674 63.6103 170.036 63.3551 169.39 63.202C168.743 63.0489 168.046 62.9724 167.298 62.9724C166.515 62.9724 165.843 63.0829 165.282 63.3041C164.72 63.5252 164.287 63.8399 163.98 64.2481C163.691 64.6394 163.547 65.1072 163.547 65.6515C163.547 66.2639 163.751 66.7572 164.159 67.1314C164.567 67.4887 165.265 67.7693 166.251 67.9735L169.033 68.5603C170.717 68.9175 171.967 69.4789 172.783 70.2444C173.617 71.0098 174.034 72.0305 174.034 73.3063C174.034 74.1228 173.864 74.8627 173.523 75.5261C173.2 76.1895 172.724 76.7594 172.095 77.2357C171.482 77.712 170.742 78.0777 169.875 78.3329C169.007 78.588 168.029 78.7156 166.94 78.7156ZM184.9 78.7156C183.165 78.7156 181.642 78.3329 180.333 77.5674C179.04 76.8019 178.036 75.7303 177.322 74.3524C176.607 72.9575 176.25 71.3245 176.25 69.4534C176.25 68.0415 176.454 66.7742 176.862 65.6515C177.271 64.5118 177.849 63.5422 178.597 62.7427C179.363 61.9262 180.273 61.3053 181.328 60.8801C182.399 60.4378 183.59 60.2167 184.9 60.2167C186.652 60.2167 188.174 60.5994 189.467 61.3649C190.76 62.1133 191.764 63.1765 192.478 64.5543C193.192 65.9322 193.55 67.5567 193.55 69.4279C193.55 70.8397 193.346 72.1155 192.937 73.2552C192.529 74.3949 191.942 75.373 191.177 76.1895C190.428 77.006 189.518 77.6354 188.447 78.0777C187.392 78.503 186.21 78.7156 184.9 78.7156ZM184.9 75.9089C186.006 75.9089 186.941 75.6537 187.707 75.1434C188.489 74.6331 189.084 73.8931 189.493 72.9235C189.918 71.9539 190.131 70.7972 190.131 69.4534C190.131 67.4121 189.671 65.8301 188.753 64.7074C187.851 63.5847 186.567 63.0234 184.9 63.0234C183.811 63.0234 182.876 63.2785 182.093 63.7889C181.311 64.2822 180.707 65.0136 180.281 65.9832C179.873 66.9358 179.669 68.0925 179.669 69.4534C179.669 71.4776 180.128 73.0596 181.047 74.1993C181.966 75.339 183.25 75.9089 184.9 75.9089ZM204.934 78.7156C203.199 78.7156 201.676 78.3329 200.366 77.5674C199.074 76.8019 198.07 75.7303 197.356 74.3524C196.641 72.9575 196.284 71.3245 196.284 69.4534C196.284 68.0415 196.488 66.7742 196.896 65.6515C197.305 64.5118 197.883 63.5422 198.631 62.7427C199.397 61.9262 200.307 61.3053 201.362 60.8801C202.433 60.4378 203.624 60.2167 204.934 60.2167C206.686 60.2167 208.208 60.5994 209.501 61.3649C210.794 62.1133 211.797 63.1765 212.512 64.5543C213.226 65.9322 213.584 67.5567 213.584 69.4279C213.584 70.8397 213.379 72.1155 212.971 73.2552C212.563 74.3949 211.976 75.373 211.211 76.1895C210.462 77.006 209.552 77.6354 208.48 78.0777C207.426 78.503 206.244 78.7156 204.934 78.7156ZM204.934 75.9089C206.039 75.9089 206.975 75.6537 207.74 75.1434C208.523 74.6331 209.118 73.8931 209.527 72.9235C209.952 71.9539 210.164 70.7972 210.164 69.4534C210.164 67.4121 209.705 65.8301 208.787 64.7074C207.885 63.5847 206.601 63.0234 204.934 63.0234C203.845 63.0234 202.909 63.2785 202.127 63.7889C201.345 64.2822 200.741 65.0136 200.315 65.9832C199.907 66.9358 199.703 68.0925 199.703 69.4534C199.703 71.4776 200.162 73.0596 201.081 74.1993C201.999 75.339 203.284 75.9089 204.934 75.9089ZM218.436 78.6646C217.942 78.6646 217.56 78.5285 217.287 78.2563C217.032 77.9842 216.905 77.5929 216.905 77.0826V61.9007C216.905 61.3734 217.032 60.9736 217.287 60.7015C217.56 60.4123 217.908 60.2677 218.334 60.2677C218.725 60.2677 219.014 60.3442 219.201 60.4973C219.405 60.6334 219.643 60.8716 219.915 61.2118L229.688 73.8931H229.025V61.8241C229.025 61.3308 229.152 60.9481 229.407 60.6759C229.68 60.4038 230.062 60.2677 230.556 60.2677C231.049 60.2677 231.423 60.4038 231.678 60.6759C231.933 60.9481 232.061 61.3308 232.061 61.8241V77.1336C232.061 77.6099 231.942 77.9842 231.704 78.2563C231.466 78.5285 231.142 78.6646 230.734 78.6646C230.343 78.6646 230.028 78.588 229.79 78.4349C229.569 78.2818 229.322 78.0352 229.05 77.695L219.303 65.0136H219.941V77.0826C219.941 77.5929 219.813 77.9842 219.558 78.2563C219.303 78.5285 218.929 78.6646 218.436 78.6646Z" fill="#3A5CA6"/>
<defs>
<filter id="filter0_d_373_10040" x="0" y="3" width="140.563" height="140.563" filterUnits="userSpaceOnUse" color-interpolation-filters="sRGB">
<feFlood flood-opacity="0" result="BackgroundImageFix"/>
<feColorMatrix in="SourceAlpha" type="matrix" values="0 0 0 0 0 0 0 0 0 0 0 0 0 0 0 0 0 0 127 0" result="hardAlpha"/>
<feOffset dy="4"/>
<feGaussianBlur stdDeviation="2"/>
<feComposite in2="hardAlpha" operator="out"/>
<feColorMatrix type="matrix" values="0 0 0 0 0 0 0 0 0 0 0 0 0 0 0 0 0 0 0.25 0"/>
<feBlend mode="normal" in2="BackgroundImageFix" result="effect1_dropShadow_373_10040"/>
<feBlend mode="normal" in="SourceGraphic" in2="effect1_dropShadow_373_10040" result="shape"/>
</filter>
<filter id="filter1_d_373_10040" x="8.85132" y="12.8367" width="39.4175" height="39.4047" filterUnits="userSpaceOnUse" color-interpolation-filters="sRGB">
<feFlood flood-opacity="0" result="BackgroundImageFix"/>
<feColorMatrix in="SourceAlpha" type="matrix" values="0 0 0 0 0 0 0 0 0 0 0 0 0 0 0 0 0 0 127 0" result="hardAlpha"/>
<feOffset dy="4"/>
<feGaussianBlur stdDeviation="2"/>
<feComposite in2="hardAlpha" operator="out"/>
<feColorMatrix type="matrix" values="0 0 0 0 0.0666667 0 0 0 0 0.164706 0 0 0 0 0.309804 0 0 0 0.25 0"/>
<feBlend mode="normal" in2="BackgroundImageFix" result="effect1_dropShadow_373_10040"/>
<feBlend mode="normal" in="SourceGraphic" in2="effect1_dropShadow_373_10040" result="shape"/>
</filter>
<filter id="filter2_d_373_10040" x="139.437" y="3" width="140.563" height="140.563" filterUnits="userSpaceOnUse" color-interpolation-filters="sRGB">
<feFlood flood-opacity="0" result="BackgroundImageFix"/>
<feColorMatrix in="SourceAlpha" type="matrix" values="0 0 0 0 0 0 0 0 0 0 0 0 0 0 0 0 0 0 127 0" result="hardAlpha"/>
<feOffset dy="4"/>
<feGaussianBlur stdDeviation="2"/>
<feComposite in2="hardAlpha" operator="out"/>
<feColorMatrix type="matrix" values="0 0 0 0 0 0 0 0 0 0 0 0 0 0 0 0 0 0 0.25 0"/>
<feBlend mode="normal" in2="BackgroundImageFix" result="effect1_dropShadow_373_10040"/>
<feBlend mode="normal" in="SourceGraphic" in2="effect1_dropShadow_373_10040" result="shape"/>
</filter>
<filter id="filter3_d_373_10040" x="147.047" y="13.0176" width="39.0916" height="39.0789" filterUnits="userSpaceOnUse" color-interpolation-filters="sRGB">
<feFlood flood-opacity="0" result="BackgroundImageFix"/>
<feColorMatrix in="SourceAlpha" type="matrix" values="0 0 0 0 0 0 0 0 0 0 0 0 0 0 0 0 0 0 127 0" result="hardAlpha"/>
<feOffset dy="3.96693"/>
<feGaussianBlur stdDeviation="1.98346"/>
<feComposite in2="hardAlpha" operator="out"/>
<feColorMatrix type="matrix" values="0 0 0 0 0.0666667 0 0 0 0 0.164706 0 0 0 0 0.309804 0 0 0 0.25 0"/>
<feBlend mode="normal" in2="BackgroundImageFix" result="effect1_dropShadow_373_10040"/>
<feBlend mode="normal" in="SourceGraphic" in2="effect1_dropShadow_373_10040" result="shape"/>
</filter>
</defs>
</svg>
