<svg width="258" height="47" viewBox="0 0 258 47" fill="none" xmlns="http://www.w3.org/2000/svg">
<g opacity="0.8">
<path opacity="0.5" d="M256.855 45.9H7.99502L1.43555 39.3405V1.45068H250.32L256.879 8.01015L256.855 45.9Z" fill="#9BD2EA"/>
<path opacity="0.5" d="M256.653 45.3394H248.835V46.5439H257.976V37.3965H256.653V45.3394Z" fill="#142E5B"/>
<path opacity="0.5" d="M1.50058 1.71287H9.31827V0.508301H0.176758V9.64982H1.50058V1.71287Z" fill="#142E5B"/>
<path d="M56.7021 12.918C57.2715 13.0767 57.7101 13.3613 58.0181 13.772C58.3355 14.1827 58.4941 14.696 58.4941 15.312C58.4941 16.1613 58.2001 16.824 57.6121 17.3C57.0335 17.7667 56.2215 18 55.1761 18H51.6061C51.3821 18 51.2048 17.9393 51.0741 17.818C50.9528 17.6873 50.8921 17.5147 50.8921 17.3V8.83C50.8921 8.61533 50.9528 8.44733 51.0741 8.326C51.2048 8.19533 51.3821 8.13 51.6061 8.13H55.0221C56.0395 8.13 56.8328 8.35867 57.4021 8.816C57.9808 9.264 58.2701 9.894 58.2701 10.706C58.2701 11.2287 58.1301 11.6813 57.8501 12.064C57.5795 12.4467 57.1968 12.7313 56.7021 12.918ZM52.3061 12.4H54.7981C56.1795 12.4 56.8701 11.8773 56.8701 10.832C56.8701 10.3093 56.6975 9.922 56.3521 9.67C56.0161 9.418 55.4981 9.292 54.7981 9.292H52.3061V12.4ZM55.0221 16.838C55.7408 16.838 56.2681 16.7073 56.6041 16.446C56.9401 16.1847 57.1081 15.7787 57.1081 15.228C57.1081 14.668 56.9355 14.2527 56.5901 13.982C56.2541 13.702 55.7315 13.562 55.0221 13.562H52.3061V16.838H55.0221ZM69.0201 17.16C69.0667 17.272 69.0901 17.3653 69.0901 17.44C69.0901 17.6173 69.0154 17.7667 68.8661 17.888C68.7261 18.0093 68.5674 18.07 68.3901 18.07C68.2687 18.07 68.1521 18.0373 68.0401 17.972C67.9374 17.8973 67.8581 17.7947 67.8021 17.664L66.8781 15.564H61.7541L60.8301 17.664C60.7741 17.7947 60.6901 17.8973 60.5781 17.972C60.4661 18.0373 60.3494 18.07 60.2281 18.07C60.0414 18.07 59.8734 18.0093 59.7241 17.888C59.5841 17.7667 59.5141 17.6173 59.5141 17.44C59.5141 17.3653 59.5374 17.272 59.5841 17.16L63.5321 8.522C63.5974 8.37267 63.7001 8.256 63.8401 8.172C63.9894 8.088 64.1434 8.046 64.3021 8.046C64.4607 8.046 64.6101 8.088 64.7501 8.172C64.8994 8.256 65.0067 8.37267 65.0721 8.522L69.0201 17.16ZM62.2721 14.416H66.3741L64.3161 9.782L62.2721 14.416ZM74.5632 18.112C73.6205 18.112 72.7992 17.9113 72.0992 17.51C71.3992 17.0993 70.8625 16.516 70.4892 15.76C70.1159 14.9947 69.9292 14.094 69.9292 13.058C69.9292 12.0313 70.1159 11.14 70.4892 10.384C70.8625 9.61867 71.3992 9.03533 72.0992 8.634C72.7992 8.22333 73.6205 8.018 74.5632 8.018C75.1792 8.018 75.7625 8.116 76.3132 8.312C76.8639 8.49867 77.3445 8.774 77.7552 9.138C77.9325 9.278 78.0212 9.46467 78.0212 9.698C78.0212 9.866 77.9745 10.0107 77.8812 10.132C77.7879 10.244 77.6759 10.3 77.5452 10.3C77.3865 10.3 77.2325 10.2393 77.0832 10.118C76.6352 9.782 76.2245 9.54867 75.8512 9.418C75.4872 9.278 75.0719 9.208 74.6052 9.208C73.5785 9.208 72.7899 9.53933 72.2392 10.202C71.6885 10.8647 71.4132 11.8167 71.4132 13.058C71.4132 14.3087 71.6885 15.2653 72.2392 15.928C72.7899 16.5907 73.5785 16.922 74.6052 16.922C75.0532 16.922 75.4592 16.852 75.8232 16.712C76.1965 16.572 76.6165 16.3387 77.0832 16.012C77.2699 15.8907 77.4239 15.83 77.5452 15.83C77.6759 15.83 77.7879 15.8907 77.8812 16.012C77.9745 16.124 78.0212 16.264 78.0212 16.432C78.0212 16.6653 77.9325 16.852 77.7552 16.992C77.3445 17.356 76.8639 17.636 76.3132 17.832C75.7625 18.0187 75.1792 18.112 74.5632 18.112ZM87.0898 16.908C87.2485 17.0573 87.3278 17.2207 87.3278 17.398C87.3278 17.5753 87.2578 17.7293 87.1178 17.86C86.9871 17.9907 86.8331 18.056 86.6558 18.056C86.4785 18.056 86.3151 17.9813 86.1658 17.832L81.1818 13.338V17.342C81.1818 17.566 81.1165 17.7433 80.9858 17.874C80.8645 18.0047 80.6871 18.07 80.4538 18.07C80.2391 18.07 80.0665 18.0047 79.9358 17.874C79.8051 17.7433 79.7398 17.566 79.7398 17.342V8.788C79.7398 8.57333 79.8051 8.40067 79.9358 8.27C80.0665 8.13 80.2391 8.06 80.4538 8.06C80.6778 8.06 80.8551 8.12533 80.9858 8.256C81.1165 8.38667 81.1818 8.564 81.1818 8.788V12.624L85.9558 8.27C86.0865 8.13933 86.2405 8.074 86.4178 8.074C86.5951 8.074 86.7491 8.13933 86.8798 8.27C87.0105 8.40067 87.0758 8.55 87.0758 8.718C87.0758 8.89533 86.9965 9.05867 86.8378 9.208L82.6658 12.932L87.0898 16.908ZM95.7457 12.764C95.9231 12.764 96.0631 12.8153 96.1657 12.918C96.2777 13.0207 96.3337 13.1607 96.3337 13.338V16.614C96.3337 16.9313 96.2871 17.16 96.1937 17.3C96.1097 17.44 95.9371 17.552 95.6757 17.636C95.3024 17.7853 94.8591 17.902 94.3457 17.986C93.8324 18.07 93.3237 18.112 92.8197 18.112C91.8211 18.112 90.9577 17.9113 90.2297 17.51C89.5017 17.1087 88.9464 16.53 88.5637 15.774C88.1811 15.018 87.9897 14.1127 87.9897 13.058C87.9897 12.022 88.1811 11.126 88.5637 10.37C88.9464 9.614 89.4924 9.03533 90.2017 8.634C90.9204 8.22333 91.7604 8.018 92.7217 8.018C93.3751 8.018 93.9771 8.116 94.5277 8.312C95.0877 8.49867 95.5637 8.774 95.9557 9.138C96.1424 9.28733 96.2357 9.474 96.2357 9.698C96.2357 9.866 96.1891 10.0107 96.0957 10.132C96.0024 10.244 95.8904 10.3 95.7597 10.3C95.6757 10.3 95.6011 10.286 95.5357 10.258C95.4704 10.23 95.3864 10.1833 95.2837 10.118C94.8264 9.782 94.4111 9.54867 94.0377 9.418C93.6644 9.278 93.2351 9.208 92.7497 9.208C91.6857 9.208 90.8737 9.53933 90.3137 10.202C89.7537 10.8553 89.4737 11.8073 89.4737 13.058C89.4737 14.3367 89.7584 15.3073 90.3277 15.97C90.9064 16.6233 91.7511 16.95 92.8617 16.95C93.6084 16.95 94.3271 16.838 95.0177 16.614V13.856H93.1837C92.9971 13.856 92.8477 13.8093 92.7357 13.716C92.6331 13.6133 92.5817 13.478 92.5817 13.31C92.5817 13.142 92.6331 13.0113 92.7357 12.918C92.8477 12.8153 92.9971 12.764 93.1837 12.764H95.7457ZM106.211 17.104C106.295 17.2253 106.337 17.356 106.337 17.496C106.337 17.664 106.267 17.8087 106.127 17.93C105.997 18.042 105.843 18.098 105.665 18.098C105.404 18.098 105.194 17.9813 105.035 17.748L103.159 14.836C102.945 14.5 102.716 14.2667 102.473 14.136C102.231 13.996 101.913 13.926 101.521 13.926H99.9393V17.342C99.9393 17.566 99.8739 17.7433 99.7433 17.874C99.6219 18.0047 99.4493 18.07 99.2253 18.07C99.0106 18.07 98.8379 18.0047 98.7073 17.874C98.5766 17.7433 98.5113 17.566 98.5113 17.342V8.83C98.5113 8.61533 98.5719 8.44733 98.6933 8.326C98.8239 8.19533 99.0013 8.13 99.2253 8.13H102.711C103.803 8.13 104.634 8.37267 105.203 8.858C105.782 9.34333 106.071 10.0527 106.071 10.986C106.071 11.7607 105.852 12.3907 105.413 12.876C104.975 13.352 104.349 13.6553 103.537 13.786C103.78 13.8513 103.999 13.968 104.195 14.136C104.391 14.304 104.583 14.5373 104.769 14.836L106.211 17.104ZM102.543 12.764C103.271 12.764 103.808 12.624 104.153 12.344C104.508 12.0547 104.685 11.6113 104.685 11.014C104.685 10.4167 104.513 9.98267 104.167 9.712C103.822 9.432 103.281 9.292 102.543 9.292H99.9253V12.764H102.543ZM112.351 18.112C111.418 18.112 110.606 17.9067 109.915 17.496C109.234 17.0853 108.706 16.502 108.333 15.746C107.96 14.99 107.773 14.0987 107.773 13.072C107.773 12.036 107.955 11.14 108.319 10.384C108.692 9.61867 109.224 9.03533 109.915 8.634C110.606 8.22333 111.418 8.018 112.351 8.018C113.294 8.018 114.11 8.22333 114.801 8.634C115.492 9.03533 116.019 9.61867 116.383 10.384C116.756 11.14 116.943 12.0313 116.943 13.058C116.943 14.0847 116.756 14.9807 116.383 15.746C116.019 16.502 115.492 17.0853 114.801 17.496C114.11 17.9067 113.294 18.112 112.351 18.112ZM112.351 16.936C113.34 16.936 114.11 16.6 114.661 15.928C115.212 15.256 115.487 14.2993 115.487 13.058C115.487 11.8167 115.212 10.8647 114.661 10.202C114.12 9.53 113.35 9.194 112.351 9.194C111.371 9.194 110.606 9.53 110.055 10.202C109.514 10.8647 109.243 11.8167 109.243 13.058C109.243 14.2993 109.514 15.256 110.055 15.928C110.606 16.6 111.371 16.936 112.351 16.936ZM122.858 18.112C121.542 18.112 120.543 17.7713 119.862 17.09C119.18 16.4087 118.84 15.4053 118.84 14.08V8.788C118.84 8.564 118.905 8.38667 119.036 8.256C119.166 8.12533 119.339 8.06 119.554 8.06C119.768 8.06 119.941 8.12533 120.072 8.256C120.202 8.38667 120.268 8.564 120.268 8.788V14.178C120.268 15.0833 120.482 15.7693 120.912 16.236C121.35 16.7027 121.999 16.936 122.858 16.936C123.707 16.936 124.351 16.7027 124.79 16.236C125.228 15.7693 125.448 15.0833 125.448 14.178V8.788C125.448 8.57333 125.513 8.40067 125.644 8.27C125.774 8.13 125.947 8.06 126.162 8.06C126.376 8.06 126.549 8.12533 126.68 8.256C126.81 8.38667 126.876 8.564 126.876 8.788V14.08C126.876 15.396 126.53 16.3993 125.84 17.09C125.158 17.7713 124.164 18.112 122.858 18.112ZM136.515 8.06C136.721 8.06 136.884 8.13 137.005 8.27C137.136 8.40067 137.201 8.57333 137.201 8.788V17.342C137.201 17.5567 137.136 17.734 137.005 17.874C136.875 18.0047 136.707 18.07 136.501 18.07C136.259 18.07 136.072 17.9767 135.941 17.79L130.453 10.552V17.342C130.453 17.5567 130.388 17.734 130.257 17.874C130.136 18.0047 129.973 18.07 129.767 18.07C129.562 18.07 129.399 18.0047 129.277 17.874C129.156 17.7433 129.095 17.566 129.095 17.342V8.788C129.095 8.57333 129.161 8.40067 129.291 8.27C129.422 8.13 129.59 8.06 129.795 8.06C130.038 8.06 130.225 8.15333 130.355 8.34L135.843 15.592V8.788C135.843 8.57333 135.904 8.40067 136.025 8.27C136.147 8.13 136.31 8.06 136.515 8.06ZM140.214 18C139.99 18 139.812 17.9393 139.682 17.818C139.56 17.6873 139.5 17.5147 139.5 17.3V8.83C139.5 8.61533 139.56 8.44733 139.682 8.326C139.812 8.19533 139.99 8.13 140.214 8.13H142.958C144.554 8.13 145.79 8.55933 146.668 9.418C147.545 10.2767 147.984 11.49 147.984 13.058C147.984 14.626 147.545 15.844 146.668 16.712C145.79 17.5707 144.554 18 142.958 18H140.214ZM142.874 16.796C145.3 16.796 146.514 15.55 146.514 13.058C146.514 10.5753 145.3 9.334 142.874 9.334H140.942V16.796H142.874ZM161.336 17.104C161.42 17.2253 161.462 17.356 161.462 17.496C161.462 17.664 161.392 17.8087 161.252 17.93C161.122 18.042 160.968 18.098 160.79 18.098C160.529 18.098 160.319 17.9813 160.16 17.748L158.284 14.836C158.07 14.5 157.841 14.2667 157.598 14.136C157.356 13.996 157.038 13.926 156.646 13.926H155.064V17.342C155.064 17.566 154.999 17.7433 154.868 17.874C154.747 18.0047 154.574 18.07 154.35 18.07C154.136 18.07 153.963 18.0047 153.832 17.874C153.702 17.7433 153.636 17.566 153.636 17.342V8.83C153.636 8.61533 153.697 8.44733 153.818 8.326C153.949 8.19533 154.126 8.13 154.35 8.13H157.836C158.928 8.13 159.759 8.37267 160.328 8.858C160.907 9.34333 161.196 10.0527 161.196 10.986C161.196 11.7607 160.977 12.3907 160.538 12.876C160.1 13.352 159.474 13.6553 158.662 13.786C158.905 13.8513 159.124 13.968 159.32 14.136C159.516 14.304 159.708 14.5373 159.894 14.836L161.336 17.104ZM157.668 12.764C158.396 12.764 158.933 12.624 159.278 12.344C159.633 12.0547 159.81 11.6113 159.81 11.014C159.81 10.4167 159.638 9.98267 159.292 9.712C158.947 9.432 158.406 9.292 157.668 9.292H155.05V12.764H157.668ZM164.016 18C163.792 18 163.615 17.9393 163.484 17.818C163.363 17.6873 163.302 17.5147 163.302 17.3V8.83C163.302 8.61533 163.363 8.44733 163.484 8.326C163.615 8.19533 163.792 8.13 164.016 8.13H169.168C169.383 8.13 169.546 8.18133 169.658 8.284C169.78 8.38667 169.84 8.53133 169.84 8.718C169.84 8.90467 169.78 9.04933 169.658 9.152C169.546 9.24533 169.383 9.292 169.168 9.292H164.716V12.4H168.888C169.103 12.4 169.266 12.4513 169.378 12.554C169.5 12.6567 169.56 12.8013 169.56 12.988C169.56 13.1747 169.5 13.3193 169.378 13.422C169.266 13.5247 169.103 13.576 168.888 13.576H164.716V16.838H169.168C169.616 16.838 169.84 17.0293 169.84 17.412C169.84 17.5987 169.78 17.7433 169.658 17.846C169.546 17.9487 169.383 18 169.168 18H164.016ZM183.967 8.494C184.023 8.34467 184.107 8.23267 184.219 8.158C184.331 8.08333 184.457 8.046 184.597 8.046C184.774 8.046 184.928 8.10667 185.059 8.228C185.199 8.34 185.269 8.48933 185.269 8.676C185.269 8.77867 185.25 8.872 185.213 8.956L182.119 17.608C182.053 17.7667 181.951 17.888 181.811 17.972C181.671 18.056 181.517 18.098 181.349 18.098C181.19 18.098 181.041 18.056 180.901 17.972C180.761 17.888 180.663 17.7667 180.607 17.608L178.059 10.384L175.455 17.608C175.399 17.7667 175.301 17.888 175.161 17.972C175.021 18.056 174.871 18.098 174.713 18.098C174.545 18.098 174.391 18.056 174.251 17.972C174.12 17.888 174.022 17.7667 173.957 17.608L170.863 8.956C170.825 8.872 170.807 8.77867 170.807 8.676C170.807 8.48933 170.877 8.34 171.017 8.228C171.157 8.10667 171.325 8.046 171.521 8.046C171.661 8.046 171.787 8.08333 171.899 8.158C172.02 8.23267 172.109 8.34467 172.165 8.494L174.755 15.942L177.387 8.564C177.443 8.40533 177.531 8.284 177.653 8.2C177.783 8.116 177.923 8.074 178.073 8.074C178.222 8.074 178.357 8.12067 178.479 8.214C178.6 8.298 178.693 8.41933 178.759 8.578L181.335 16.012L183.967 8.494ZM194.719 17.16C194.766 17.272 194.789 17.3653 194.789 17.44C194.789 17.6173 194.715 17.7667 194.565 17.888C194.425 18.0093 194.267 18.07 194.089 18.07C193.968 18.07 193.851 18.0373 193.739 17.972C193.637 17.8973 193.557 17.7947 193.501 17.664L192.577 15.564H187.453L186.529 17.664C186.473 17.7947 186.389 17.8973 186.277 17.972C186.165 18.0373 186.049 18.07 185.927 18.07C185.741 18.07 185.573 18.0093 185.423 17.888C185.283 17.7667 185.213 17.6173 185.213 17.44C185.213 17.3653 185.237 17.272 185.283 17.16L189.231 8.522C189.297 8.37267 189.399 8.256 189.539 8.172C189.689 8.088 189.843 8.046 190.001 8.046C190.16 8.046 190.309 8.088 190.449 8.172C190.599 8.256 190.706 8.37267 190.771 8.522L194.719 17.16ZM187.971 14.416H192.073L190.015 9.782L187.971 14.416ZM203.993 17.104C204.077 17.2253 204.119 17.356 204.119 17.496C204.119 17.664 204.049 17.8087 203.909 17.93C203.778 18.042 203.624 18.098 203.447 18.098C203.185 18.098 202.975 17.9813 202.817 17.748L200.941 14.836C200.726 14.5 200.497 14.2667 200.255 14.136C200.012 13.996 199.695 13.926 199.303 13.926H197.721V17.342C197.721 17.566 197.655 17.7433 197.525 17.874C197.403 18.0047 197.231 18.07 197.007 18.07C196.792 18.07 196.619 18.0047 196.489 17.874C196.358 17.7433 196.293 17.566 196.293 17.342V8.83C196.293 8.61533 196.353 8.44733 196.475 8.326C196.605 8.19533 196.783 8.13 197.007 8.13H200.493C201.585 8.13 202.415 8.37267 202.985 8.858C203.563 9.34333 203.853 10.0527 203.853 10.986C203.853 11.7607 203.633 12.3907 203.195 12.876C202.756 13.352 202.131 13.6553 201.319 13.786C201.561 13.8513 201.781 13.968 201.977 14.136C202.173 14.304 202.364 14.5373 202.551 14.836L203.993 17.104ZM200.325 12.764C201.053 12.764 201.589 12.624 201.935 12.344C202.289 12.0547 202.467 11.6113 202.467 11.014C202.467 10.4167 202.294 9.98267 201.949 9.712C201.603 9.432 201.062 9.292 200.325 9.292H197.707V12.764H200.325ZM206.673 18C206.449 18 206.271 17.9393 206.141 17.818C206.019 17.6873 205.959 17.5147 205.959 17.3V8.83C205.959 8.61533 206.019 8.44733 206.141 8.326C206.271 8.19533 206.449 8.13 206.673 8.13H209.417C211.013 8.13 212.249 8.55933 213.127 9.418C214.004 10.2767 214.443 11.49 214.443 13.058C214.443 14.626 214.004 15.844 213.127 16.712C212.249 17.5707 211.013 18 209.417 18H206.673ZM209.333 16.796C211.759 16.796 212.973 15.55 212.973 13.058C212.973 10.5753 211.759 9.334 209.333 9.334H207.401V16.796H209.333Z" fill="#0071BC"/>
<path d="M74.1825 39.162C72.9585 39.162 71.8845 38.898 70.9605 38.37C70.0485 37.842 69.3465 37.086 68.8545 36.102C68.3625 35.118 68.1165 33.966 68.1165 32.646C68.1165 31.326 68.3625 30.18 68.8545 29.208C69.3465 28.224 70.0485 27.468 70.9605 26.94C71.8845 26.412 72.9585 26.148 74.1825 26.148C74.9745 26.148 75.7185 26.268 76.4145 26.508C77.1105 26.736 77.7285 27.072 78.2685 27.516C78.4245 27.636 78.5325 27.762 78.5925 27.894C78.6525 28.026 78.6825 28.188 78.6825 28.38C78.6825 28.644 78.6105 28.866 78.4665 29.046C78.3225 29.226 78.1485 29.316 77.9445 29.316C77.7045 29.316 77.4585 29.232 77.2065 29.064C76.6905 28.68 76.2105 28.416 75.7665 28.272C75.3225 28.116 74.8305 28.038 74.2905 28.038C73.0425 28.038 72.0945 28.428 71.4465 29.208C70.8105 29.988 70.4925 31.134 70.4925 32.646C70.4925 34.17 70.8105 35.322 71.4465 36.102C72.0945 36.882 73.0425 37.272 74.2905 37.272C74.8065 37.272 75.2805 37.194 75.7125 37.038C76.1565 36.882 76.6545 36.618 77.2065 36.246C77.3265 36.174 77.4465 36.114 77.5665 36.066C77.6865 36.018 77.8125 35.994 77.9445 35.994C78.1485 35.994 78.3225 36.084 78.4665 36.264C78.6105 36.444 78.6825 36.666 78.6825 36.93C78.6825 37.11 78.6525 37.272 78.5925 37.416C78.5325 37.548 78.4245 37.674 78.2685 37.794C77.7285 38.238 77.1105 38.58 76.4145 38.82C75.7185 39.048 74.9745 39.162 74.1825 39.162ZM86.1352 39.162C84.8992 39.162 83.8252 38.898 82.9132 38.37C82.0132 37.842 81.3172 37.086 80.8252 36.102C80.3332 35.118 80.0872 33.966 80.0872 32.646C80.0872 31.326 80.3272 30.18 80.8072 29.208C81.2992 28.224 82.0012 27.468 82.9132 26.94C83.8252 26.412 84.8992 26.148 86.1352 26.148C87.3712 26.148 88.4392 26.412 89.3392 26.94C90.2512 27.468 90.9472 28.224 91.4272 29.208C91.9192 30.18 92.1652 31.326 92.1652 32.646C92.1652 33.966 91.9192 35.118 91.4272 36.102C90.9352 37.086 90.2332 37.842 89.3212 38.37C88.4212 38.898 87.3592 39.162 86.1352 39.162ZM86.1352 37.308C87.2992 37.308 88.2052 36.906 88.8532 36.102C89.5132 35.298 89.8432 34.146 89.8432 32.646C89.8432 31.146 89.5132 30 88.8532 29.208C88.2052 28.404 87.2992 28.002 86.1352 28.002C84.9592 28.002 84.0412 28.404 83.3812 29.208C82.7332 30 82.4092 31.146 82.4092 32.646C82.4092 34.146 82.7332 35.298 83.3812 36.102C84.0412 36.906 84.9592 37.308 86.1352 37.308ZM105.779 26.22C106.115 26.22 106.385 26.328 106.589 26.544C106.793 26.748 106.895 27.024 106.895 27.372V38.028C106.895 38.364 106.799 38.628 106.607 38.82C106.415 39.012 106.163 39.108 105.851 39.108C105.539 39.108 105.293 39.012 105.113 38.82C104.933 38.628 104.843 38.364 104.843 38.028V30.612L101.783 36.408C101.639 36.672 101.483 36.87 101.315 37.002C101.147 37.122 100.949 37.182 100.721 37.182C100.493 37.182 100.295 37.122 100.127 37.002C99.9586 36.882 99.8026 36.684 99.6586 36.408L96.5806 30.702V38.028C96.5806 38.352 96.4846 38.616 96.2926 38.82C96.1126 39.012 95.8666 39.108 95.5546 39.108C95.2426 39.108 94.9966 39.012 94.8166 38.82C94.6366 38.628 94.5466 38.364 94.5466 38.028V27.372C94.5466 27.024 94.6426 26.748 94.8346 26.544C95.0386 26.328 95.3086 26.22 95.6446 26.22C96.1126 26.22 96.4786 26.478 96.7426 26.994L100.739 34.608L104.717 26.994C104.981 26.478 105.335 26.22 105.779 26.22ZM110.797 39.108C110.449 39.108 110.167 39 109.951 38.784C109.747 38.568 109.645 38.286 109.645 37.938V27.372C109.645 27.024 109.747 26.748 109.951 26.544C110.167 26.328 110.449 26.22 110.797 26.22C111.157 26.22 111.439 26.328 111.643 26.544C111.859 26.748 111.967 27.024 111.967 27.372V37.938C111.967 38.286 111.859 38.568 111.643 38.784C111.439 39 111.157 39.108 110.797 39.108ZM124.32 26.22C124.656 26.22 124.92 26.328 125.112 26.544C125.316 26.748 125.418 27.024 125.418 27.372V37.938C125.418 38.286 125.316 38.568 125.112 38.784C124.908 39 124.644 39.108 124.32 39.108C123.936 39.108 123.642 38.97 123.438 38.694L116.868 30.144V37.938C116.868 38.286 116.772 38.568 116.58 38.784C116.388 39 116.124 39.108 115.788 39.108C115.452 39.108 115.188 39 114.996 38.784C114.804 38.568 114.708 38.286 114.708 37.938V27.372C114.708 27.024 114.81 26.748 115.014 26.544C115.218 26.328 115.488 26.22 115.824 26.22C116.196 26.22 116.484 26.358 116.688 26.634L123.24 35.148V27.372C123.24 27.024 123.336 26.748 123.528 26.544C123.732 26.328 123.996 26.22 124.32 26.22ZM137.821 32.142C138.097 32.142 138.319 32.226 138.487 32.394C138.655 32.55 138.739 32.76 138.739 33.024V36.894C138.739 37.446 138.667 37.836 138.523 38.064C138.379 38.292 138.085 38.478 137.641 38.622C137.161 38.79 136.603 38.922 135.967 39.018C135.331 39.114 134.719 39.162 134.131 39.162C132.823 39.162 131.689 38.904 130.729 38.388C129.769 37.872 129.031 37.128 128.515 36.156C128.011 35.172 127.759 34.002 127.759 32.646C127.759 31.314 128.011 30.162 128.515 29.19C129.031 28.206 129.757 27.456 130.693 26.94C131.629 26.412 132.733 26.148 134.005 26.148C135.697 26.148 137.083 26.604 138.163 27.516C138.307 27.648 138.409 27.78 138.469 27.912C138.541 28.044 138.577 28.2 138.577 28.38C138.577 28.644 138.505 28.866 138.361 29.046C138.217 29.226 138.043 29.316 137.839 29.316C137.707 29.316 137.587 29.298 137.479 29.262C137.371 29.214 137.245 29.142 137.101 29.046C136.573 28.674 136.081 28.416 135.625 28.272C135.169 28.116 134.653 28.038 134.077 28.038C132.769 28.038 131.779 28.428 131.107 29.208C130.447 29.976 130.117 31.122 130.117 32.646C130.117 35.766 131.485 37.326 134.221 37.326C135.037 37.326 135.853 37.212 136.669 36.984V33.798H134.635C134.347 33.798 134.119 33.726 133.951 33.582C133.795 33.438 133.717 33.234 133.717 32.97C133.717 32.706 133.795 32.502 133.951 32.358C134.119 32.214 134.347 32.142 134.635 32.142H137.821ZM150.635 39.162C149.711 39.162 148.835 39.042 148.007 38.802C147.191 38.55 146.525 38.214 146.009 37.794C145.733 37.59 145.595 37.302 145.595 36.93C145.595 36.678 145.667 36.462 145.811 36.282C145.967 36.09 146.147 35.994 146.351 35.994C146.567 35.994 146.813 36.078 147.089 36.246C147.605 36.618 148.145 36.888 148.709 37.056C149.273 37.224 149.897 37.308 150.581 37.308C151.457 37.308 152.129 37.158 152.597 36.858C153.065 36.546 153.299 36.096 153.299 35.508C153.299 35.052 153.077 34.704 152.633 34.464C152.201 34.212 151.475 33.972 150.455 33.744C149.399 33.516 148.541 33.252 147.881 32.952C147.221 32.652 146.723 32.268 146.387 31.8C146.051 31.332 145.883 30.738 145.883 30.018C145.883 29.274 146.093 28.608 146.513 28.02C146.933 27.432 147.515 26.976 148.259 26.652C149.015 26.316 149.861 26.148 150.797 26.148C152.513 26.148 153.911 26.604 154.991 27.516C155.147 27.648 155.255 27.78 155.315 27.912C155.387 28.032 155.423 28.188 155.423 28.38C155.423 28.632 155.345 28.854 155.189 29.046C155.045 29.226 154.871 29.316 154.667 29.316C154.547 29.316 154.433 29.298 154.325 29.262C154.229 29.226 154.097 29.16 153.929 29.064C153.437 28.704 152.957 28.44 152.489 28.272C152.033 28.092 151.469 28.002 150.797 28.002C149.981 28.002 149.333 28.17 148.853 28.506C148.385 28.83 148.151 29.286 148.151 29.874C148.151 30.366 148.361 30.744 148.781 31.008C149.201 31.272 149.915 31.518 150.923 31.746C151.991 31.986 152.855 32.256 153.515 32.556C154.187 32.844 154.697 33.216 155.045 33.672C155.405 34.128 155.585 34.698 155.585 35.382C155.585 36.126 155.375 36.786 154.955 37.362C154.547 37.926 153.965 38.37 153.209 38.694C152.465 39.006 151.607 39.162 150.635 39.162ZM163.374 39.162C162.138 39.162 161.064 38.898 160.152 38.37C159.252 37.842 158.556 37.086 158.064 36.102C157.572 35.118 157.326 33.966 157.326 32.646C157.326 31.326 157.566 30.18 158.046 29.208C158.538 28.224 159.24 27.468 160.152 26.94C161.064 26.412 162.138 26.148 163.374 26.148C164.61 26.148 165.678 26.412 166.578 26.94C167.49 27.468 168.186 28.224 168.666 29.208C169.158 30.18 169.404 31.326 169.404 32.646C169.404 33.966 169.158 35.118 168.666 36.102C168.174 37.086 167.472 37.842 166.56 38.37C165.66 38.898 164.598 39.162 163.374 39.162ZM163.374 37.308C164.538 37.308 165.444 36.906 166.092 36.102C166.752 35.298 167.082 34.146 167.082 32.646C167.082 31.146 166.752 30 166.092 29.208C165.444 28.404 164.538 28.002 163.374 28.002C162.198 28.002 161.28 28.404 160.62 29.208C159.972 30 159.648 31.146 159.648 32.646C159.648 34.146 159.972 35.298 160.62 36.102C161.28 36.906 162.198 37.308 163.374 37.308ZM177.401 39.162C176.165 39.162 175.091 38.898 174.179 38.37C173.279 37.842 172.583 37.086 172.091 36.102C171.599 35.118 171.353 33.966 171.353 32.646C171.353 31.326 171.593 30.18 172.073 29.208C172.565 28.224 173.267 27.468 174.179 26.94C175.091 26.412 176.165 26.148 177.401 26.148C178.637 26.148 179.705 26.412 180.605 26.94C181.517 27.468 182.213 28.224 182.693 29.208C183.185 30.18 183.431 31.326 183.431 32.646C183.431 33.966 183.185 35.118 182.693 36.102C182.201 37.086 181.499 37.842 180.587 38.37C179.687 38.898 178.625 39.162 177.401 39.162ZM177.401 37.308C178.565 37.308 179.471 36.906 180.119 36.102C180.779 35.298 181.109 34.146 181.109 32.646C181.109 31.146 180.779 30 180.119 29.208C179.471 28.404 178.565 28.002 177.401 28.002C176.225 28.002 175.307 28.404 174.647 29.208C173.999 30 173.675 31.146 173.675 32.646C173.675 34.146 173.999 35.298 174.647 36.102C175.307 36.906 176.225 37.308 177.401 37.308ZM195.388 26.22C195.724 26.22 195.988 26.328 196.18 26.544C196.384 26.748 196.486 27.024 196.486 27.372V37.938C196.486 38.286 196.384 38.568 196.18 38.784C195.976 39 195.712 39.108 195.388 39.108C195.004 39.108 194.71 38.97 194.506 38.694L187.936 30.144V37.938C187.936 38.286 187.84 38.568 187.648 38.784C187.456 39 187.192 39.108 186.856 39.108C186.52 39.108 186.256 39 186.064 38.784C185.872 38.568 185.776 38.286 185.776 37.938V27.372C185.776 27.024 185.878 26.748 186.082 26.544C186.286 26.328 186.556 26.22 186.892 26.22C187.264 26.22 187.552 26.358 187.756 26.634L194.308 35.148V27.372C194.308 27.024 194.404 26.748 194.596 26.544C194.8 26.328 195.064 26.22 195.388 26.22Z" fill="#0071BC"/>
</g>
</svg>
