<svg width="277" height="79" viewBox="0 0 277 79" fill="none" xmlns="http://www.w3.org/2000/svg">
<path d="M14.3164 77.089L2.4082 67.0726V23.5551H240.293L252.201 33.5715V77.089H14.3164Z" fill="#FFF380"/>
<path d="M239.795 24.9959L250.699 34.1674V75.6411H15.0293L4.12563 66.4697V24.9959H239.795ZM241.22 22.1073H0.691406V67.6685L13.5955 78.5298H254.133V32.9722L241.22 22.1073Z" fill="white"/>
<path d="M242.43 21.6166H157.038V22.3388H238.678L253.621 34.908V73.8289H254.48V31.7413L242.43 21.6166Z" fill="#2E5799"/>
<path d="M12.2774 78.9599H77.9869V78.2377H16.0293L1.08609 65.6721V26.7476H0.227539V68.8352L12.2774 78.9599Z" fill="#2E5799"/>
<path d="M48.4318 58.7965C46.7774 58.7965 45.3257 58.4397 44.0768 57.726C42.8441 57.0124 41.8953 55.9905 41.2303 54.6605C40.5652 53.3305 40.2327 51.7734 40.2327 49.9892C40.2327 48.205 40.5652 46.6561 41.2303 45.3423C41.8953 44.0122 42.8441 42.9904 44.0768 42.2767C45.3257 41.5631 46.7774 41.2062 48.4318 41.2062C49.5023 41.2062 50.508 41.3684 51.4487 41.6928C52.3894 42.001 53.2248 42.4551 53.9547 43.0553C54.1655 43.2175 54.3115 43.3878 54.3926 43.5662C54.4737 43.7446 54.5142 43.9636 54.5142 44.2231C54.5142 44.5799 54.4169 44.88 54.2223 45.1233C54.0276 45.3666 53.7925 45.4882 53.5167 45.4882C53.1923 45.4882 52.8598 45.3747 52.5192 45.1476C51.8218 44.6286 51.173 44.2718 50.5728 44.0771C49.9727 43.8663 49.3077 43.7608 48.5778 43.7608C46.891 43.7608 45.6096 44.288 44.7337 45.3423C43.8741 46.3965 43.4443 47.9455 43.4443 49.9892C43.4443 52.0491 43.8741 53.6062 44.7337 54.6605C45.6096 55.7148 46.891 56.2419 48.5778 56.2419C49.2753 56.2419 49.9159 56.1365 50.4998 55.9256C51.1 55.7148 51.7731 55.358 52.5192 54.8551C52.6814 54.7578 52.8436 54.6767 53.0058 54.6118C53.168 54.547 53.3383 54.5145 53.5167 54.5145C53.7925 54.5145 54.0276 54.6362 54.2223 54.8795C54.4169 55.1228 54.5142 55.4228 54.5142 55.7797C54.5142 56.023 54.4737 56.2419 54.3926 56.4366C54.3115 56.615 54.1655 56.7853 53.9547 56.9475C53.2248 57.5476 52.3894 58.0099 51.4487 58.3343C50.508 58.6425 49.5023 58.7965 48.4318 58.7965ZM64.5876 58.7965C62.917 58.7965 61.4653 58.4397 60.2326 57.726C59.0162 57.0124 58.0754 55.9905 57.4104 54.6605C56.7454 53.3305 56.4129 51.7734 56.4129 49.9892C56.4129 48.205 56.7373 46.6561 57.3861 45.3423C58.0511 44.0122 58.9999 42.9904 60.2326 42.2767C61.4653 41.5631 62.917 41.2062 64.5876 41.2062C66.2583 41.2062 67.7018 41.5631 68.9183 42.2767C70.151 42.9904 71.0918 44.0122 71.7406 45.3423C72.4056 46.6561 72.7381 48.205 72.7381 49.9892C72.7381 51.7734 72.4056 53.3305 71.7406 54.6605C71.0755 55.9905 70.1267 57.0124 68.894 57.726C67.6775 58.4397 66.2421 58.7965 64.5876 58.7965ZM64.5876 56.2906C66.161 56.2906 67.3856 55.7472 68.2614 54.6605C69.1535 53.5738 69.5995 52.0167 69.5995 49.9892C69.5995 47.9618 69.1535 46.4128 68.2614 45.3423C67.3856 44.2555 66.161 43.7122 64.5876 43.7122C62.9981 43.7122 61.7573 44.2555 60.8652 45.3423C59.9893 46.4128 59.5514 47.9618 59.5514 49.9892C59.5514 52.0167 59.9893 53.5738 60.8652 54.6605C61.7573 55.7472 62.9981 56.2906 64.5876 56.2906ZM91.1385 41.3035C91.5926 41.3035 91.9576 41.4495 92.2333 41.7415C92.5091 42.0172 92.6469 42.3903 92.6469 42.8606V57.2638C92.6469 57.7179 92.5172 58.0748 92.2577 58.3343C91.9981 58.5938 91.6575 58.7236 91.2358 58.7236C90.8141 58.7236 90.4816 58.5938 90.2383 58.3343C89.995 58.0748 89.8733 57.7179 89.8733 57.2638V47.24L85.7373 55.0741C85.5427 55.4309 85.3318 55.6986 85.1047 55.877C84.8777 56.0392 84.61 56.1203 84.3019 56.1203C83.9937 56.1203 83.7261 56.0392 83.499 55.877C83.2719 55.7148 83.0611 55.4472 82.8664 55.0741L78.7061 47.3616V57.2638C78.7061 57.7017 78.5763 58.0585 78.3168 58.3343C78.0735 58.5938 77.741 58.7236 77.3193 58.7236C76.8975 58.7236 76.565 58.5938 76.3217 58.3343C76.0785 58.0748 75.9568 57.7179 75.9568 57.2638V42.8606C75.9568 42.3903 76.0866 42.0172 76.3461 41.7415C76.6218 41.4495 76.9868 41.3035 77.4409 41.3035C78.0735 41.3035 78.5682 41.6523 78.925 42.3497L84.3262 52.6411L89.703 42.3497C90.0599 41.6523 90.5384 41.3035 91.1385 41.3035ZM97.9221 58.7236C97.4517 58.7236 97.0705 58.5776 96.7786 58.2856C96.5029 57.9937 96.365 57.6125 96.365 57.1421V42.8606C96.365 42.3903 96.5029 42.0172 96.7786 41.7415C97.0705 41.4495 97.4517 41.3035 97.9221 41.3035C98.4087 41.3035 98.7898 41.4495 99.0656 41.7415C99.3575 42.0172 99.5035 42.3903 99.5035 42.8606V57.1421C99.5035 57.6125 99.3575 57.9937 99.0656 58.2856C98.7898 58.5776 98.4087 58.7236 97.9221 58.7236ZM116.2 41.3035C116.654 41.3035 117.011 41.4495 117.27 41.7415C117.546 42.0172 117.684 42.3903 117.684 42.8606V57.1421C117.684 57.6125 117.546 57.9937 117.27 58.2856C116.994 58.5776 116.638 58.7236 116.2 58.7236C115.681 58.7236 115.283 58.537 115.008 58.164L106.127 46.6074V57.1421C106.127 57.6125 105.997 57.9937 105.738 58.2856C105.478 58.5776 105.122 58.7236 104.667 58.7236C104.213 58.7236 103.856 58.5776 103.597 58.2856C103.337 57.9937 103.208 57.6125 103.208 57.1421V42.8606C103.208 42.3903 103.346 42.0172 103.621 41.7415C103.897 41.4495 104.262 41.3035 104.716 41.3035C105.219 41.3035 105.608 41.4901 105.884 41.8631L114.74 53.371V42.8606C114.74 42.3903 114.87 42.0172 115.129 41.7415C115.405 41.4495 115.762 41.3035 116.2 41.3035ZM134.449 49.308C134.822 49.308 135.122 49.4215 135.349 49.6486C135.576 49.8595 135.689 50.1433 135.689 50.5001V55.731C135.689 56.4771 135.592 57.0043 135.397 57.3124C135.203 57.6206 134.805 57.872 134.205 58.0667C133.557 58.2937 132.802 58.4721 131.943 58.6019C131.083 58.7317 130.256 58.7965 129.461 58.7965C127.693 58.7965 126.16 58.4478 124.863 57.7504C123.565 57.0529 122.568 56.0473 121.87 54.7335C121.189 53.4035 120.848 51.8221 120.848 49.9892C120.848 48.1888 121.189 46.6317 121.87 45.3179C122.568 43.9879 123.549 42.9742 124.814 42.2767C126.079 41.5631 127.571 41.2062 129.291 41.2062C131.578 41.2062 133.451 41.8226 134.911 43.0553C135.106 43.2337 135.243 43.4121 135.325 43.5905C135.422 43.7689 135.47 43.9798 135.47 44.2231C135.47 44.5799 135.373 44.88 135.179 45.1233C134.984 45.3666 134.749 45.4882 134.473 45.4882C134.295 45.4882 134.132 45.4639 133.986 45.4152C133.84 45.3504 133.67 45.2531 133.475 45.1233C132.762 44.6205 132.097 44.2718 131.48 44.0771C130.864 43.8663 130.167 43.7608 129.388 43.7608C127.62 43.7608 126.282 44.288 125.374 45.3423C124.482 46.3803 124.036 47.9293 124.036 49.9892C124.036 54.2064 125.885 56.3149 129.583 56.3149C130.686 56.3149 131.789 56.1608 132.892 55.8527V51.5463H130.142C129.753 51.5463 129.445 51.449 129.218 51.2544C129.007 51.0597 128.901 50.784 128.901 50.4272C128.901 50.0703 129.007 49.7946 129.218 49.5999C129.445 49.4053 129.753 49.308 130.142 49.308H134.449ZM151.768 58.7965C150.52 58.7965 149.336 58.6343 148.216 58.3099C147.113 57.9693 146.213 57.5152 145.516 56.9475C145.143 56.6718 144.956 56.2825 144.956 55.7797C144.956 55.4391 145.053 55.1471 145.248 54.9038C145.459 54.6443 145.702 54.5145 145.978 54.5145C146.27 54.5145 146.602 54.6281 146.976 54.8551C147.673 55.358 148.403 55.7229 149.165 55.95C149.928 56.1771 150.771 56.2906 151.695 56.2906C152.88 56.2906 153.788 56.0878 154.42 55.6824C155.053 55.2606 155.369 54.6524 155.369 53.8576C155.369 53.2413 155.069 52.7709 154.469 52.4465C153.885 52.1059 152.904 51.7815 151.525 51.4733C150.098 51.1652 148.938 50.8083 148.046 50.4028C147.154 49.9973 146.481 49.4783 146.027 48.8457C145.573 48.2132 145.345 47.4103 145.345 46.4371C145.345 45.4315 145.629 44.5313 146.197 43.7365C146.765 42.9417 147.551 42.3254 148.557 41.8875C149.579 41.4333 150.722 41.2062 151.987 41.2062C154.307 41.2062 156.196 41.8226 157.656 43.0553C157.867 43.2337 158.013 43.4121 158.094 43.5905C158.191 43.7527 158.24 43.9636 158.24 44.2231C158.24 44.5637 158.135 44.8638 157.924 45.1233C157.729 45.3666 157.494 45.4882 157.218 45.4882C157.056 45.4882 156.902 45.4639 156.756 45.4152C156.626 45.3666 156.448 45.2774 156.221 45.1476C155.556 44.661 154.907 44.3042 154.274 44.0771C153.658 43.8338 152.896 43.7122 151.987 43.7122C150.884 43.7122 150.009 43.9393 149.36 44.3934C148.727 44.8313 148.411 45.4477 148.411 46.2425C148.411 46.9075 148.695 47.4184 149.263 47.7752C149.83 48.1321 150.795 48.4646 152.158 48.7727C153.601 49.0971 154.769 49.4621 155.661 49.8676C156.57 50.2568 157.259 50.7597 157.729 51.376C158.216 51.9924 158.459 52.7628 158.459 53.6873C158.459 54.6929 158.175 55.585 157.608 56.3636C157.056 57.1259 156.269 57.726 155.248 58.164C154.242 58.5857 153.082 58.7965 151.768 58.7965ZM168.986 58.7965C167.316 58.7965 165.864 58.4397 164.631 57.726C163.415 57.0124 162.474 55.9905 161.809 54.6605C161.144 53.3305 160.812 51.7734 160.812 49.9892C160.812 48.205 161.136 46.6561 161.785 45.3423C162.45 44.0122 163.399 42.9904 164.631 42.2767C165.864 41.5631 167.316 41.2062 168.986 41.2062C170.657 41.2062 172.101 41.5631 173.317 42.2767C174.55 42.9904 175.491 44.0122 176.139 45.3423C176.804 46.6561 177.137 48.205 177.137 49.9892C177.137 51.7734 176.804 53.3305 176.139 54.6605C175.474 55.9905 174.525 57.0124 173.293 57.726C172.076 58.4397 170.641 58.7965 168.986 58.7965ZM168.986 56.2906C170.56 56.2906 171.784 55.7472 172.66 54.6605C173.552 53.5738 173.998 52.0167 173.998 49.9892C173.998 47.9618 173.552 46.4128 172.66 45.3423C171.784 44.2555 170.56 43.7122 168.986 43.7122C167.397 43.7122 166.156 44.2555 165.264 45.3423C164.388 46.4128 163.95 47.9618 163.95 49.9892C163.95 52.0167 164.388 53.5738 165.264 54.6605C166.156 55.7472 167.397 56.2906 168.986 56.2906ZM187.946 58.7965C186.276 58.7965 184.824 58.4397 183.591 57.726C182.375 57.0124 181.434 55.9905 180.769 54.6605C180.104 53.3305 179.772 51.7734 179.772 49.9892C179.772 48.205 180.096 46.6561 180.745 45.3423C181.41 44.0122 182.359 42.9904 183.591 42.2767C184.824 41.5631 186.276 41.2062 187.946 41.2062C189.617 41.2062 191.061 41.5631 192.277 42.2767C193.51 42.9904 194.451 44.0122 195.099 45.3423C195.764 46.6561 196.097 48.205 196.097 49.9892C196.097 51.7734 195.764 53.3305 195.099 54.6605C194.434 55.9905 193.485 57.0124 192.253 57.726C191.036 58.4397 189.601 58.7965 187.946 58.7965ZM187.946 56.2906C189.52 56.2906 190.744 55.7472 191.62 54.6605C192.512 53.5738 192.958 52.0167 192.958 49.9892C192.958 47.9618 192.512 46.4128 191.62 45.3423C190.744 44.2555 189.52 43.7122 187.946 43.7122C186.357 43.7122 185.116 44.2555 184.224 45.3423C183.348 46.4128 182.91 47.9618 182.91 49.9892C182.91 52.0167 183.348 53.5738 184.224 54.6605C185.116 55.7472 186.357 56.2906 187.946 56.2906ZM212.259 41.3035C212.713 41.3035 213.07 41.4495 213.329 41.7415C213.605 42.0172 213.743 42.3903 213.743 42.8606V57.1421C213.743 57.6125 213.605 57.9937 213.329 58.2856C213.054 58.5776 212.697 58.7236 212.259 58.7236C211.74 58.7236 211.343 58.537 211.067 58.164L202.186 46.6074V57.1421C202.186 57.6125 202.057 57.9937 201.797 58.2856C201.538 58.5776 201.181 58.7236 200.727 58.7236C200.273 58.7236 199.916 58.5776 199.656 58.2856C199.397 57.9937 199.267 57.6125 199.267 57.1421V42.8606C199.267 42.3903 199.405 42.0172 199.681 41.7415C199.956 41.4495 200.321 41.3035 200.775 41.3035C201.278 41.3035 201.667 41.4901 201.943 41.8631L210.799 53.371V42.8606C210.799 42.3903 210.929 42.0172 211.188 41.7415C211.464 41.4495 211.821 41.3035 212.259 41.3035Z" fill="#3A5CA6"/>
</svg>
