<svg width="296" height="268" viewBox="0 0 296 268" fill="none" xmlns="http://www.w3.org/2000/svg">
<path opacity="0.8" d="M295.892 0.546387H0V268H295.892V0.546387Z" fill="white"/>
<g opacity="0.8">
<path opacity="0.5" d="M274.855 225.9H25.995L19.4355 219.341V181.451H268.32L274.879 188.01L274.855 225.9Z" fill="#9BD2EA"/>
<path opacity="0.5" d="M274.653 225.339H266.835V226.544H275.976V217.396H274.653V225.339Z" fill="#142E5B"/>
<path opacity="0.5" d="M19.5006 181.713H27.3183V180.508H18.1768V189.65H19.5006V181.713Z" fill="#142E5B"/>
<path d="M65.6009 198C65.3489 198 65.1529 197.935 65.0129 197.804C64.8823 197.664 64.8169 197.468 64.8169 197.216V188.914C64.8169 188.662 64.8823 188.471 65.0129 188.34C65.1529 188.2 65.3489 188.13 65.6009 188.13H68.9329C69.6143 188.13 70.1929 188.233 70.6689 188.438C71.1543 188.643 71.5229 188.937 71.7749 189.32C72.0363 189.703 72.1669 190.165 72.1669 190.706C72.1669 191.303 71.9896 191.807 71.6349 192.218C71.2803 192.629 70.7996 192.904 70.1929 193.044V192.834C70.8836 192.927 71.4249 193.189 71.8169 193.618C72.2089 194.038 72.4049 194.589 72.4049 195.27C72.4049 196.147 72.1156 196.824 71.5369 197.3C70.9583 197.767 70.1463 198 69.1009 198H65.6009ZM66.2169 196.88H68.9329C69.6329 196.88 70.1509 196.745 70.4869 196.474C70.8229 196.194 70.9909 195.774 70.9909 195.214C70.9909 194.654 70.8229 194.239 70.4869 193.968C70.1509 193.697 69.6329 193.562 68.9329 193.562H66.2169V196.88ZM66.2169 192.442H68.7089C69.3809 192.442 69.8896 192.307 70.2349 192.036C70.5803 191.765 70.7529 191.369 70.7529 190.846C70.7529 190.323 70.5803 189.927 70.2349 189.656C69.8896 189.385 69.3809 189.25 68.7089 189.25H66.2169V192.442ZM74.2219 198.098C74.0352 198.098 73.8859 198.056 73.7739 197.972C73.6619 197.888 73.5965 197.776 73.5779 197.636C73.5592 197.496 73.5872 197.337 73.6619 197.16L77.4559 188.648C77.5492 188.424 77.6659 188.265 77.8059 188.172C77.9552 188.079 78.1185 188.032 78.2959 188.032C78.4639 188.032 78.6179 188.079 78.7579 188.172C78.9072 188.265 79.0285 188.424 79.1219 188.648L82.9159 197.16C82.9999 197.337 83.0325 197.501 83.0139 197.65C82.9952 197.79 82.9346 197.902 82.8319 197.986C82.7292 198.061 82.5846 198.098 82.3979 198.098C82.1926 198.098 82.0292 198.047 81.9079 197.944C81.7865 197.841 81.6792 197.683 81.5859 197.468L80.6059 195.2L81.2639 195.592H75.2999L75.9439 195.2L74.9779 197.468C74.8845 197.692 74.7819 197.855 74.6699 197.958C74.5579 198.051 74.4085 198.098 74.2219 198.098ZM78.2679 189.74L76.1539 194.752L75.8039 194.416H80.7459L80.4239 194.752L78.2959 189.74H78.2679ZM88.8191 198.126C87.8204 198.126 86.9664 197.921 86.2571 197.51C85.5477 197.099 85.0017 196.516 84.6191 195.76C84.2457 194.995 84.0591 194.094 84.0591 193.058C84.0591 192.283 84.1664 191.588 84.3811 190.972C84.5957 190.347 84.9037 189.815 85.3051 189.376C85.7157 188.928 86.2151 188.587 86.8031 188.354C87.4004 188.121 88.0724 188.004 88.8191 188.004C89.3697 188.004 89.8971 188.079 90.4011 188.228C90.9144 188.377 91.3577 188.592 91.7311 188.872C91.8897 188.975 91.9924 189.101 92.0391 189.25C92.0951 189.39 92.1044 189.525 92.0671 189.656C92.0391 189.787 91.9784 189.899 91.8851 189.992C91.7917 190.076 91.6704 190.123 91.5211 190.132C91.3811 190.141 91.2271 190.09 91.0591 189.978C90.7511 189.745 90.4104 189.572 90.0371 189.46C89.6637 189.348 89.2717 189.292 88.8611 189.292C88.1517 189.292 87.5544 189.441 87.0691 189.74C86.5837 190.029 86.2151 190.454 85.9631 191.014C85.7111 191.574 85.5851 192.255 85.5851 193.058C85.5851 193.861 85.7111 194.547 85.9631 195.116C86.2151 195.676 86.5837 196.105 87.0691 196.404C87.5544 196.693 88.1517 196.838 88.8611 196.838C89.2717 196.838 89.6637 196.782 90.0371 196.67C90.4197 196.549 90.7791 196.371 91.1151 196.138C91.2831 196.035 91.4324 195.989 91.5631 195.998C91.7031 196.007 91.8197 196.054 91.9131 196.138C92.0064 196.222 92.0671 196.329 92.0951 196.46C92.1324 196.581 92.1277 196.712 92.0811 196.852C92.0437 196.983 91.9551 197.095 91.8151 197.188C91.4324 197.496 90.9797 197.729 90.4571 197.888C89.9344 198.047 89.3884 198.126 88.8191 198.126ZM94.584 198.098C94.3507 198.098 94.1687 198.033 94.038 197.902C93.9167 197.771 93.856 197.589 93.856 197.356V188.76C93.856 188.517 93.9167 188.335 94.038 188.214C94.1687 188.093 94.3507 188.032 94.584 188.032C94.8173 188.032 94.9947 188.093 95.116 188.214C95.2467 188.335 95.312 188.517 95.312 188.76V192.568H95.34L99.638 188.41C99.778 188.279 99.9087 188.186 100.03 188.13C100.161 188.065 100.305 188.032 100.464 188.032C100.679 188.032 100.833 188.088 100.926 188.2C101.029 188.303 101.071 188.429 101.052 188.578C101.033 188.727 100.954 188.872 100.814 189.012L96.348 193.268L96.376 192.554L101.024 197.034C101.192 197.193 101.281 197.356 101.29 197.524C101.299 197.692 101.248 197.832 101.136 197.944C101.024 198.047 100.865 198.098 100.66 198.098C100.473 198.098 100.324 198.061 100.212 197.986C100.1 197.911 99.9693 197.804 99.82 197.664L95.34 193.394H95.312V197.356C95.312 197.589 95.2513 197.771 95.13 197.902C95.0087 198.033 94.8267 198.098 94.584 198.098ZM107.062 198.126C105.989 198.126 105.083 197.925 104.346 197.524C103.609 197.113 103.049 196.53 102.666 195.774C102.293 195.018 102.106 194.117 102.106 193.072C102.106 192.288 102.213 191.588 102.428 190.972C102.652 190.347 102.969 189.815 103.38 189.376C103.8 188.928 104.309 188.587 104.906 188.354C105.513 188.121 106.199 188.004 106.964 188.004C107.524 188.004 108.075 188.079 108.616 188.228C109.157 188.368 109.652 188.601 110.1 188.928C110.231 189.021 110.315 189.129 110.352 189.25C110.389 189.371 110.389 189.497 110.352 189.628C110.324 189.749 110.263 189.857 110.17 189.95C110.086 190.043 109.979 190.099 109.848 190.118C109.727 190.137 109.591 190.099 109.442 190.006C109.078 189.754 108.695 189.572 108.294 189.46C107.893 189.339 107.449 189.278 106.964 189.278C106.236 189.278 105.62 189.427 105.116 189.726C104.621 190.025 104.248 190.459 103.996 191.028C103.744 191.588 103.618 192.269 103.618 193.072C103.618 194.313 103.912 195.256 104.5 195.9C105.088 196.544 105.961 196.866 107.118 196.866C107.538 196.866 107.949 196.829 108.35 196.754C108.761 196.67 109.153 196.553 109.526 196.404L109.232 197.132V193.87H107.426C107.239 193.87 107.09 193.823 106.978 193.73C106.875 193.627 106.824 193.487 106.824 193.31C106.824 193.133 106.875 193.002 106.978 192.918C107.09 192.825 107.239 192.778 107.426 192.778H109.848C110.044 192.778 110.193 192.829 110.296 192.932C110.399 193.035 110.45 193.184 110.45 193.38V196.908C110.45 197.076 110.417 197.221 110.352 197.342C110.296 197.454 110.198 197.538 110.058 197.594C109.657 197.753 109.185 197.883 108.644 197.986C108.103 198.079 107.575 198.126 107.062 198.126ZM113.41 198.098C113.177 198.098 112.995 198.033 112.864 197.902C112.743 197.771 112.682 197.589 112.682 197.356V188.872C112.682 188.629 112.748 188.447 112.878 188.326C113.009 188.195 113.191 188.13 113.424 188.13H116.77C117.834 188.13 118.656 188.382 119.234 188.886C119.813 189.39 120.102 190.104 120.102 191.028C120.102 191.625 119.972 192.139 119.71 192.568C119.449 192.997 119.066 193.324 118.562 193.548C118.068 193.772 117.47 193.884 116.77 193.884L116.896 193.688H117.26C117.634 193.688 117.956 193.781 118.226 193.968C118.506 194.155 118.758 194.453 118.982 194.864L120.186 197.104C120.28 197.272 120.322 197.435 120.312 197.594C120.312 197.743 120.256 197.865 120.144 197.958C120.042 198.051 119.892 198.098 119.696 198.098C119.491 198.098 119.323 198.056 119.192 197.972C119.071 197.879 118.959 197.743 118.856 197.566L117.386 194.85C117.19 194.486 116.966 194.243 116.714 194.122C116.462 193.991 116.131 193.926 115.72 193.926H114.138V197.356C114.138 197.589 114.078 197.771 113.956 197.902C113.835 198.033 113.653 198.098 113.41 198.098ZM114.138 192.834H116.532C117.242 192.834 117.778 192.685 118.142 192.386C118.506 192.087 118.688 191.644 118.688 191.056C118.688 190.477 118.506 190.039 118.142 189.74C117.778 189.441 117.242 189.292 116.532 189.292H114.138V192.834ZM126.372 198.126C125.439 198.126 124.622 197.921 123.922 197.51C123.232 197.09 122.695 196.502 122.312 195.746C121.939 194.981 121.752 194.085 121.752 193.058C121.752 192.283 121.86 191.588 122.074 190.972C122.289 190.347 122.597 189.815 122.998 189.376C123.4 188.928 123.885 188.587 124.454 188.354C125.024 188.121 125.663 188.004 126.372 188.004C127.315 188.004 128.132 188.209 128.822 188.62C129.513 189.031 130.045 189.614 130.418 190.37C130.801 191.126 130.992 192.017 130.992 193.044C130.992 193.819 130.885 194.519 130.67 195.144C130.456 195.769 130.143 196.306 129.732 196.754C129.331 197.202 128.846 197.543 128.276 197.776C127.707 198.009 127.072 198.126 126.372 198.126ZM126.372 196.866C127.026 196.866 127.581 196.717 128.038 196.418C128.505 196.119 128.86 195.685 129.102 195.116C129.354 194.547 129.48 193.861 129.48 193.058C129.48 191.854 129.21 190.921 128.668 190.258C128.127 189.595 127.362 189.264 126.372 189.264C125.719 189.264 125.159 189.413 124.692 189.712C124.235 190.001 123.88 190.431 123.628 191C123.386 191.569 123.264 192.255 123.264 193.058C123.264 194.253 123.535 195.186 124.076 195.858C124.627 196.53 125.392 196.866 126.372 196.866ZM136.934 198.126C136.271 198.126 135.688 198.042 135.184 197.874C134.68 197.697 134.255 197.435 133.91 197.09C133.574 196.745 133.317 196.315 133.14 195.802C132.963 195.289 132.874 194.696 132.874 194.024V188.76C132.874 188.517 132.935 188.335 133.056 188.214C133.187 188.093 133.369 188.032 133.602 188.032C133.835 188.032 134.013 188.093 134.134 188.214C134.265 188.335 134.33 188.517 134.33 188.76V193.996C134.33 194.957 134.549 195.676 134.988 196.152C135.436 196.628 136.085 196.866 136.934 196.866C137.793 196.866 138.441 196.628 138.88 196.152C139.319 195.676 139.538 194.957 139.538 193.996V188.76C139.538 188.517 139.599 188.335 139.72 188.214C139.851 188.093 140.028 188.032 140.252 188.032C140.485 188.032 140.663 188.093 140.784 188.214C140.905 188.335 140.966 188.517 140.966 188.76V194.024C140.966 194.92 140.812 195.676 140.504 196.292C140.205 196.899 139.757 197.356 139.16 197.664C138.563 197.972 137.821 198.126 136.934 198.126ZM143.897 198.098C143.683 198.098 143.515 198.037 143.393 197.916C143.272 197.795 143.211 197.622 143.211 197.398V188.76C143.211 188.527 143.267 188.349 143.379 188.228C143.501 188.097 143.659 188.032 143.855 188.032C144.023 188.032 144.149 188.065 144.233 188.13C144.327 188.186 144.434 188.293 144.555 188.452L150.323 196.054H149.973V188.718C149.973 188.503 150.029 188.335 150.141 188.214C150.263 188.093 150.431 188.032 150.645 188.032C150.869 188.032 151.037 188.093 151.149 188.214C151.261 188.335 151.317 188.503 151.317 188.718V197.412C151.317 197.627 151.261 197.795 151.149 197.916C151.047 198.037 150.907 198.098 150.729 198.098C150.561 198.098 150.421 198.065 150.309 198C150.207 197.935 150.095 197.823 149.973 197.664L144.233 190.076H144.555V197.398C144.555 197.622 144.499 197.795 144.387 197.916C144.275 198.037 144.112 198.098 143.897 198.098ZM154.4 198C154.148 198 153.952 197.935 153.812 197.804C153.681 197.664 153.616 197.468 153.616 197.216V188.914C153.616 188.662 153.681 188.471 153.812 188.34C153.952 188.2 154.148 188.13 154.4 188.13H157.102C158.726 188.13 159.976 188.555 160.854 189.404C161.74 190.244 162.184 191.462 162.184 193.058C162.184 193.851 162.072 194.556 161.848 195.172C161.624 195.788 161.292 196.306 160.854 196.726C160.424 197.137 159.897 197.454 159.272 197.678C158.646 197.893 157.923 198 157.102 198H154.4ZM155.072 196.782H157.018C157.634 196.782 158.166 196.707 158.614 196.558C159.071 196.399 159.454 196.166 159.762 195.858C160.07 195.55 160.298 195.163 160.448 194.696C160.597 194.229 160.672 193.683 160.672 193.058C160.672 191.817 160.364 190.888 159.748 190.272C159.141 189.656 158.231 189.348 157.018 189.348H155.072V196.782ZM168.549 198.098C168.316 198.098 168.134 198.033 168.003 197.902C167.882 197.771 167.821 197.589 167.821 197.356V188.872C167.821 188.629 167.886 188.447 168.017 188.326C168.148 188.195 168.33 188.13 168.563 188.13H171.909C172.973 188.13 173.794 188.382 174.373 188.886C174.952 189.39 175.241 190.104 175.241 191.028C175.241 191.625 175.11 192.139 174.849 192.568C174.588 192.997 174.205 193.324 173.701 193.548C173.206 193.772 172.609 193.884 171.909 193.884L172.035 193.688H172.399C172.772 193.688 173.094 193.781 173.365 193.968C173.645 194.155 173.897 194.453 174.121 194.864L175.325 197.104C175.418 197.272 175.46 197.435 175.451 197.594C175.451 197.743 175.395 197.865 175.283 197.958C175.18 198.051 175.031 198.098 174.835 198.098C174.63 198.098 174.462 198.056 174.331 197.972C174.21 197.879 174.098 197.743 173.995 197.566L172.525 194.85C172.329 194.486 172.105 194.243 171.853 194.122C171.601 193.991 171.27 193.926 170.859 193.926H169.277V197.356C169.277 197.589 169.216 197.771 169.095 197.902C168.974 198.033 168.792 198.098 168.549 198.098ZM169.277 192.834H171.671C172.38 192.834 172.917 192.685 173.281 192.386C173.645 192.087 173.827 191.644 173.827 191.056C173.827 190.477 173.645 190.039 173.281 189.74C172.917 189.441 172.38 189.292 171.671 189.292H169.277V192.834ZM178.079 198C177.827 198 177.631 197.935 177.491 197.804C177.361 197.664 177.295 197.468 177.295 197.216V188.914C177.295 188.662 177.361 188.471 177.491 188.34C177.631 188.2 177.827 188.13 178.079 188.13H183.189C183.385 188.13 183.535 188.181 183.637 188.284C183.74 188.377 183.791 188.517 183.791 188.704C183.791 188.9 183.74 189.049 183.637 189.152C183.535 189.255 183.385 189.306 183.189 189.306H178.695V192.4H182.881C183.087 192.4 183.236 192.451 183.329 192.554C183.432 192.657 183.483 192.801 183.483 192.988C183.483 193.184 183.432 193.333 183.329 193.436C183.236 193.529 183.087 193.576 182.881 193.576H178.695V196.824H183.189C183.385 196.824 183.535 196.875 183.637 196.978C183.74 197.081 183.791 197.225 183.791 197.412C183.791 197.608 183.74 197.757 183.637 197.86C183.535 197.953 183.385 198 183.189 198H178.079ZM188.789 198.098C188.584 198.098 188.416 198.047 188.285 197.944C188.164 197.841 188.061 197.683 187.977 197.468L184.967 188.886C184.883 188.643 184.897 188.443 185.009 188.284C185.131 188.116 185.327 188.032 185.597 188.032C185.803 188.032 185.961 188.079 186.073 188.172C186.195 188.265 186.288 188.415 186.353 188.62L189.083 196.656H188.565L191.365 188.648C191.449 188.443 191.547 188.289 191.659 188.186C191.771 188.083 191.921 188.032 192.107 188.032C192.294 188.032 192.439 188.083 192.541 188.186C192.653 188.289 192.751 188.447 192.835 188.662L195.579 196.656H195.117L197.875 188.62C197.941 188.424 198.029 188.279 198.141 188.186C198.263 188.083 198.421 188.032 198.617 188.032C198.86 188.032 199.037 188.116 199.149 188.284C199.271 188.443 199.285 188.643 199.191 188.886L196.167 197.482C196.083 197.687 195.981 197.841 195.859 197.944C195.738 198.047 195.575 198.098 195.369 198.098C195.155 198.098 194.987 198.047 194.865 197.944C194.744 197.841 194.646 197.683 194.571 197.468L191.925 189.894H192.233L189.559 197.482C189.485 197.687 189.387 197.841 189.265 197.944C189.153 198.047 188.995 198.098 188.789 198.098ZM200.126 198.098C199.94 198.098 199.79 198.056 199.678 197.972C199.566 197.888 199.501 197.776 199.482 197.636C199.464 197.496 199.492 197.337 199.566 197.16L203.36 188.648C203.454 188.424 203.57 188.265 203.71 188.172C203.86 188.079 204.023 188.032 204.2 188.032C204.368 188.032 204.522 188.079 204.662 188.172C204.812 188.265 204.933 188.424 205.026 188.648L208.82 197.16C208.904 197.337 208.937 197.501 208.918 197.65C208.9 197.79 208.839 197.902 208.736 197.986C208.634 198.061 208.489 198.098 208.302 198.098C208.097 198.098 207.934 198.047 207.812 197.944C207.691 197.841 207.584 197.683 207.49 197.468L206.51 195.2L207.168 195.592H201.204L201.848 195.2L200.882 197.468C200.789 197.692 200.686 197.855 200.574 197.958C200.462 198.051 200.313 198.098 200.126 198.098ZM204.172 189.74L202.058 194.752L201.708 194.416H206.65L206.328 194.752L204.2 189.74H204.172ZM211.219 198.098C210.985 198.098 210.803 198.033 210.673 197.902C210.551 197.771 210.491 197.589 210.491 197.356V188.872C210.491 188.629 210.556 188.447 210.687 188.326C210.817 188.195 210.999 188.13 211.233 188.13H214.579C215.643 188.13 216.464 188.382 217.043 188.886C217.621 189.39 217.911 190.104 217.911 191.028C217.911 191.625 217.78 192.139 217.519 192.568C217.257 192.997 216.875 193.324 216.371 193.548C215.876 193.772 215.279 193.884 214.579 193.884L214.705 193.688H215.069C215.442 193.688 215.764 193.781 216.035 193.968C216.315 194.155 216.567 194.453 216.791 194.864L217.995 197.104C218.088 197.272 218.13 197.435 218.121 197.594C218.121 197.743 218.065 197.865 217.953 197.958C217.85 198.051 217.701 198.098 217.505 198.098C217.299 198.098 217.131 198.056 217.001 197.972C216.879 197.879 216.767 197.743 216.665 197.566L215.195 194.85C214.999 194.486 214.775 194.243 214.523 194.122C214.271 193.991 213.939 193.926 213.529 193.926H211.947V197.356C211.947 197.589 211.886 197.771 211.765 197.902C211.643 198.033 211.461 198.098 211.219 198.098ZM211.947 192.834H214.341C215.05 192.834 215.587 192.685 215.951 192.386C216.315 192.087 216.497 191.644 216.497 191.056C216.497 190.477 216.315 190.039 215.951 189.74C215.587 189.441 215.05 189.292 214.341 189.292H211.947V192.834ZM220.749 198C220.497 198 220.301 197.935 220.161 197.804C220.031 197.664 219.965 197.468 219.965 197.216V188.914C219.965 188.662 220.031 188.471 220.161 188.34C220.301 188.2 220.497 188.13 220.749 188.13H223.451C225.075 188.13 226.326 188.555 227.203 189.404C228.09 190.244 228.533 191.462 228.533 193.058C228.533 193.851 228.421 194.556 228.197 195.172C227.973 195.788 227.642 196.306 227.203 196.726C226.774 197.137 226.247 197.454 225.621 197.678C224.996 197.893 224.273 198 223.451 198H220.749ZM221.421 196.782H223.367C223.983 196.782 224.515 196.707 224.963 196.558C225.421 196.399 225.803 196.166 226.111 195.858C226.419 195.55 226.648 195.163 226.797 194.696C226.947 194.229 227.021 193.683 227.021 193.058C227.021 191.817 226.713 190.888 226.097 190.272C225.491 189.656 224.581 189.348 223.367 189.348H221.421V196.782Z" fill="#0071BC"/>
<path d="M88.1093 219.18C86.7893 219.18 85.6553 218.916 84.7073 218.388C83.7713 217.848 83.0513 217.092 82.5473 216.12C82.0433 215.136 81.7913 213.978 81.7913 212.646C81.7913 211.65 81.9353 210.756 82.2233 209.964C82.5113 209.16 82.9253 208.476 83.4653 207.912C84.0053 207.336 84.6653 206.898 85.4453 206.598C86.2373 206.286 87.1253 206.13 88.1093 206.13C88.7693 206.13 89.4173 206.214 90.0533 206.382C90.6893 206.55 91.2473 206.79 91.7273 207.102C91.9793 207.258 92.1473 207.45 92.2313 207.678C92.3153 207.894 92.3333 208.11 92.2853 208.326C92.2373 208.53 92.1353 208.704 91.9793 208.848C91.8353 208.992 91.6493 209.076 91.4213 209.1C91.2053 209.112 90.9653 209.034 90.7013 208.866C90.3293 208.626 89.9273 208.452 89.4953 208.344C89.0633 208.236 88.6253 208.182 88.1813 208.182C87.3293 208.182 86.6093 208.356 86.0213 208.704C85.4333 209.052 84.9893 209.556 84.6893 210.216C84.3893 210.876 84.2393 211.686 84.2393 212.646C84.2393 213.594 84.3893 214.404 84.6893 215.076C84.9893 215.748 85.4333 216.258 86.0213 216.606C86.6093 216.954 87.3293 217.128 88.1813 217.128C88.6373 217.128 89.0873 217.074 89.5313 216.966C89.9753 216.846 90.3953 216.666 90.7913 216.426C91.0553 216.27 91.2893 216.204 91.4933 216.228C91.7093 216.24 91.8893 216.312 92.0333 216.444C92.1773 216.576 92.2733 216.744 92.3213 216.948C92.3693 217.14 92.3573 217.344 92.2853 217.56C92.2133 217.764 92.0693 217.944 91.8533 218.1C91.3733 218.448 90.7973 218.718 90.1253 218.91C89.4653 219.09 88.7933 219.18 88.1093 219.18ZM99.7234 219.18C98.4994 219.18 97.4254 218.91 96.5014 218.37C95.5894 217.83 94.8814 217.074 94.3774 216.102C93.8734 215.118 93.6214 213.966 93.6214 212.646C93.6214 211.65 93.7654 210.756 94.0534 209.964C94.3414 209.16 94.7494 208.476 95.2774 207.912C95.8174 207.336 96.4594 206.898 97.2034 206.598C97.9594 206.286 98.7994 206.13 99.7234 206.13C100.959 206.13 102.033 206.4 102.945 206.94C103.857 207.468 104.565 208.218 105.069 209.19C105.573 210.162 105.825 211.308 105.825 212.628C105.825 213.624 105.681 214.524 105.393 215.328C105.105 216.132 104.691 216.822 104.151 217.398C103.623 217.974 102.981 218.418 102.225 218.73C101.481 219.03 100.647 219.18 99.7234 219.18ZM99.7234 217.2C100.503 217.2 101.163 217.02 101.703 216.66C102.255 216.3 102.675 215.778 102.963 215.094C103.263 214.41 103.413 213.594 103.413 212.646C103.413 211.206 103.089 210.09 102.441 209.298C101.805 208.506 100.899 208.11 99.7234 208.11C98.9554 208.11 98.2954 208.29 97.7434 208.65C97.1914 208.998 96.7654 209.514 96.4654 210.198C96.1774 210.87 96.0334 211.686 96.0334 212.646C96.0334 214.074 96.3574 215.19 97.0054 215.994C97.6534 216.798 98.5594 217.2 99.7234 217.2ZM109.248 219.144C108.912 219.144 108.654 219.048 108.474 218.856C108.294 218.664 108.204 218.4 108.204 218.064V207.246C108.204 206.898 108.3 206.634 108.492 206.454C108.684 206.262 108.948 206.166 109.284 206.166C109.584 206.166 109.818 206.226 109.986 206.346C110.166 206.454 110.328 206.646 110.472 206.922L114.918 215.148H114.342L118.788 206.922C118.932 206.646 119.088 206.454 119.256 206.346C119.424 206.226 119.658 206.166 119.958 206.166C120.294 206.166 120.552 206.262 120.732 206.454C120.912 206.634 121.002 206.898 121.002 207.246V218.064C121.002 218.4 120.912 218.664 120.732 218.856C120.564 219.048 120.306 219.144 119.958 219.144C119.622 219.144 119.364 219.048 119.184 218.856C119.004 218.664 118.914 218.4 118.914 218.064V209.73H119.31L115.53 216.624C115.41 216.828 115.284 216.978 115.152 217.074C115.02 217.17 114.84 217.218 114.612 217.218C114.384 217.218 114.198 217.17 114.054 217.074C113.91 216.966 113.784 216.816 113.676 216.624L109.86 209.712H110.292V218.064C110.292 218.4 110.202 218.664 110.022 218.856C109.854 219.048 109.596 219.144 109.248 219.144ZM124.947 219.144C124.575 219.144 124.287 219.042 124.083 218.838C123.891 218.622 123.795 218.328 123.795 217.956V207.354C123.795 206.97 123.891 206.676 124.083 206.472C124.287 206.268 124.575 206.166 124.947 206.166C125.319 206.166 125.601 206.268 125.793 206.472C125.997 206.676 126.099 206.97 126.099 207.354V217.956C126.099 218.328 126.003 218.622 125.811 218.838C125.619 219.042 125.331 219.144 124.947 219.144ZM129.955 219.144C129.607 219.144 129.337 219.048 129.145 218.856C128.965 218.664 128.875 218.388 128.875 218.028V207.318C128.875 206.946 128.965 206.664 129.145 206.472C129.337 206.268 129.583 206.166 129.883 206.166C130.159 206.166 130.363 206.22 130.495 206.328C130.639 206.424 130.807 206.592 130.999 206.832L137.893 215.778H137.425V207.264C137.425 206.916 137.515 206.646 137.695 206.454C137.887 206.262 138.157 206.166 138.505 206.166C138.853 206.166 139.117 206.262 139.297 206.454C139.477 206.646 139.567 206.916 139.567 207.264V218.064C139.567 218.4 139.483 218.664 139.315 218.856C139.147 219.048 138.919 219.144 138.631 219.144C138.355 219.144 138.133 219.09 137.965 218.982C137.809 218.874 137.635 218.7 137.443 218.46L130.567 209.514H131.017V218.028C131.017 218.388 130.927 218.664 130.747 218.856C130.567 219.048 130.303 219.144 129.955 219.144ZM148.442 219.18C147.038 219.18 145.85 218.916 144.878 218.388C143.918 217.86 143.186 217.11 142.682 216.138C142.178 215.166 141.926 214.014 141.926 212.682C141.926 211.674 142.07 210.768 142.358 209.964C142.658 209.16 143.084 208.476 143.636 207.912C144.2 207.336 144.884 206.898 145.688 206.598C146.492 206.286 147.404 206.13 148.424 206.13C149.096 206.13 149.768 206.214 150.44 206.382C151.124 206.538 151.766 206.808 152.366 207.192C152.57 207.324 152.702 207.486 152.762 207.678C152.834 207.87 152.846 208.068 152.798 208.272C152.75 208.464 152.66 208.632 152.528 208.776C152.396 208.92 152.228 209.01 152.024 209.046C151.832 209.082 151.616 209.034 151.376 208.902C150.92 208.638 150.458 208.446 149.99 208.326C149.522 208.206 149 208.146 148.424 208.146C147.536 208.146 146.786 208.326 146.174 208.686C145.562 209.034 145.1 209.544 144.788 210.216C144.488 210.888 144.338 211.71 144.338 212.682C144.338 214.158 144.692 215.28 145.4 216.048C146.108 216.816 147.158 217.2 148.55 217.2C149.03 217.2 149.516 217.152 150.008 217.056C150.5 216.96 150.98 216.828 151.448 216.66L150.998 217.686V213.852H149.018C148.718 213.852 148.484 213.774 148.316 213.618C148.16 213.462 148.082 213.252 148.082 212.988C148.082 212.712 148.16 212.502 148.316 212.358C148.484 212.214 148.718 212.142 149.018 212.142H151.988C152.288 212.142 152.516 212.226 152.672 212.394C152.84 212.55 152.924 212.778 152.924 213.078V217.452C152.924 217.716 152.87 217.938 152.762 218.118C152.666 218.298 152.504 218.43 152.276 218.514C151.748 218.706 151.142 218.868 150.458 219C149.774 219.12 149.102 219.18 148.442 219.18ZM164.855 219.18C164.327 219.18 163.799 219.138 163.271 219.054C162.743 218.982 162.245 218.868 161.777 218.712C161.309 218.544 160.889 218.34 160.517 218.1C160.301 217.956 160.151 217.782 160.067 217.578C159.983 217.374 159.953 217.176 159.977 216.984C160.013 216.78 160.091 216.606 160.211 216.462C160.343 216.306 160.505 216.21 160.697 216.174C160.889 216.138 161.099 216.192 161.327 216.336C161.855 216.648 162.413 216.876 163.001 217.02C163.589 217.164 164.207 217.236 164.855 217.236C165.803 217.236 166.493 217.08 166.925 216.768C167.357 216.444 167.573 216.03 167.573 215.526C167.573 215.106 167.417 214.776 167.105 214.536C166.805 214.296 166.283 214.098 165.539 213.942L163.559 213.528C162.419 213.288 161.567 212.886 161.003 212.322C160.451 211.746 160.175 210.99 160.175 210.054C160.175 209.466 160.295 208.932 160.535 208.452C160.775 207.972 161.111 207.558 161.543 207.21C161.987 206.862 162.509 206.598 163.109 206.418C163.721 206.226 164.393 206.13 165.125 206.13C165.845 206.13 166.529 206.22 167.177 206.4C167.825 206.58 168.407 206.844 168.923 207.192C169.115 207.324 169.241 207.486 169.301 207.678C169.373 207.87 169.391 208.062 169.355 208.254C169.319 208.434 169.235 208.59 169.103 208.722C168.971 208.854 168.803 208.932 168.599 208.956C168.407 208.98 168.185 208.92 167.933 208.776C167.489 208.524 167.039 208.344 166.583 208.236C166.127 208.128 165.635 208.074 165.107 208.074C164.555 208.074 164.081 208.152 163.685 208.308C163.289 208.464 162.983 208.686 162.767 208.974C162.563 209.25 162.461 209.58 162.461 209.964C162.461 210.396 162.605 210.744 162.893 211.008C163.181 211.26 163.673 211.458 164.369 211.602L166.331 212.016C167.519 212.268 168.401 212.664 168.977 213.204C169.565 213.744 169.859 214.464 169.859 215.364C169.859 215.94 169.739 216.462 169.499 216.93C169.271 217.398 168.935 217.8 168.491 218.136C168.059 218.472 167.537 218.73 166.925 218.91C166.313 219.09 165.623 219.18 164.855 219.18ZM177.524 219.18C176.3 219.18 175.226 218.91 174.302 218.37C173.39 217.83 172.682 217.074 172.178 216.102C171.674 215.118 171.422 213.966 171.422 212.646C171.422 211.65 171.566 210.756 171.854 209.964C172.142 209.16 172.55 208.476 173.078 207.912C173.618 207.336 174.26 206.898 175.004 206.598C175.76 206.286 176.6 206.13 177.524 206.13C178.76 206.13 179.834 206.4 180.746 206.94C181.658 207.468 182.366 208.218 182.87 209.19C183.374 210.162 183.626 211.308 183.626 212.628C183.626 213.624 183.482 214.524 183.194 215.328C182.906 216.132 182.492 216.822 181.952 217.398C181.424 217.974 180.782 218.418 180.026 218.73C179.282 219.03 178.448 219.18 177.524 219.18ZM177.524 217.2C178.304 217.2 178.964 217.02 179.504 216.66C180.056 216.3 180.476 215.778 180.764 215.094C181.064 214.41 181.214 213.594 181.214 212.646C181.214 211.206 180.89 210.09 180.242 209.298C179.606 208.506 178.7 208.11 177.524 208.11C176.756 208.11 176.096 208.29 175.544 208.65C174.992 208.998 174.566 209.514 174.266 210.198C173.978 210.87 173.834 211.686 173.834 212.646C173.834 214.074 174.158 215.19 174.806 215.994C175.454 216.798 176.36 217.2 177.524 217.2ZM191.657 219.18C190.433 219.18 189.359 218.91 188.435 218.37C187.523 217.83 186.815 217.074 186.311 216.102C185.807 215.118 185.555 213.966 185.555 212.646C185.555 211.65 185.699 210.756 185.987 209.964C186.275 209.16 186.683 208.476 187.211 207.912C187.751 207.336 188.393 206.898 189.137 206.598C189.893 206.286 190.733 206.13 191.657 206.13C192.893 206.13 193.967 206.4 194.879 206.94C195.791 207.468 196.499 208.218 197.003 209.19C197.507 210.162 197.759 211.308 197.759 212.628C197.759 213.624 197.615 214.524 197.327 215.328C197.039 216.132 196.625 216.822 196.085 217.398C195.557 217.974 194.915 218.418 194.159 218.73C193.415 219.03 192.581 219.18 191.657 219.18ZM191.657 217.2C192.437 217.2 193.097 217.02 193.637 216.66C194.189 216.3 194.609 215.778 194.897 215.094C195.197 214.41 195.347 213.594 195.347 212.646C195.347 211.206 195.023 210.09 194.375 209.298C193.739 208.506 192.833 208.11 191.657 208.11C190.889 208.11 190.229 208.29 189.677 208.65C189.125 208.998 188.699 209.514 188.399 210.198C188.111 210.87 187.967 211.686 187.967 212.646C187.967 214.074 188.291 215.19 188.939 215.994C189.587 216.798 190.493 217.2 191.657 217.2ZM201.182 219.144C200.834 219.144 200.564 219.048 200.372 218.856C200.192 218.664 200.102 218.388 200.102 218.028V207.318C200.102 206.946 200.192 206.664 200.372 206.472C200.564 206.268 200.81 206.166 201.11 206.166C201.386 206.166 201.59 206.22 201.722 206.328C201.866 206.424 202.034 206.592 202.226 206.832L209.12 215.778H208.652V207.264C208.652 206.916 208.742 206.646 208.922 206.454C209.114 206.262 209.384 206.166 209.732 206.166C210.08 206.166 210.344 206.262 210.524 206.454C210.704 206.646 210.794 206.916 210.794 207.264V218.064C210.794 218.4 210.71 218.664 210.542 218.856C210.374 219.048 210.146 219.144 209.858 219.144C209.582 219.144 209.36 219.09 209.192 218.982C209.036 218.874 208.862 218.7 208.67 218.46L201.794 209.514H202.244V218.028C202.244 218.388 202.154 218.664 201.974 218.856C201.794 219.048 201.53 219.144 201.182 219.144Z" fill="#0071BC"/>
</g>
</svg>
