<svg width="258" height="47" viewBox="0 0 258 47" fill="none" xmlns="http://www.w3.org/2000/svg">
<g opacity="0.8">
<path opacity="0.5" d="M256.855 45.9H7.99502L1.43555 39.3405V1.45068H250.32L256.879 8.01015L256.855 45.9Z" fill="#9BD2EA"/>
<path opacity="0.5" d="M256.653 45.3394H248.835V46.5439H257.976V37.3965H256.653V45.3394Z" fill="#142E5B"/>
<path opacity="0.5" d="M1.50058 1.71287H9.31827V0.508301H0.176758V9.64983H1.50058V1.71287Z" fill="#142E5B"/>
<path d="M73.4094 18.098C73.2227 18.098 73.0734 18.056 72.9614 17.972C72.8494 17.888 72.784 17.776 72.7654 17.636C72.7467 17.496 72.7747 17.3373 72.8494 17.16L76.6434 8.648C76.7367 8.424 76.8534 8.26533 76.9934 8.172C77.1427 8.07867 77.306 8.032 77.4834 8.032C77.6514 8.032 77.8054 8.07867 77.9454 8.172C78.0947 8.26533 78.216 8.424 78.3094 8.648L82.1034 17.16C82.1874 17.3373 82.22 17.5007 82.2014 17.65C82.1827 17.79 82.1221 17.902 82.0194 17.986C81.9167 18.0607 81.7721 18.098 81.5854 18.098C81.3801 18.098 81.2167 18.0467 81.0954 17.944C80.974 17.8413 80.8667 17.6827 80.7734 17.468L79.7934 15.2L80.4514 15.592H74.4874L75.1314 15.2L74.1654 17.468C74.072 17.692 73.9694 17.8553 73.8574 17.958C73.7454 18.0513 73.596 18.098 73.4094 18.098ZM77.4554 9.74L75.3414 14.752L74.9914 14.416H79.9334L79.6114 14.752L77.4834 9.74H77.4554ZM86.733 18.098C86.5277 18.098 86.355 18.0513 86.215 17.958C86.0843 17.8553 85.977 17.706 85.893 17.51L82.127 8.984C82.0523 8.788 82.0337 8.62 82.071 8.48C82.1083 8.34 82.183 8.23267 82.295 8.158C82.4163 8.074 82.561 8.032 82.729 8.032C82.9437 8.032 83.107 8.07867 83.219 8.172C83.331 8.26533 83.4243 8.40533 83.499 8.592L87.027 16.768H86.509L90.009 8.578C90.093 8.40067 90.191 8.26533 90.303 8.172C90.4243 8.07867 90.5877 8.032 90.793 8.032C90.961 8.032 91.0963 8.074 91.199 8.158C91.311 8.23267 91.381 8.34 91.409 8.48C91.437 8.62 91.409 8.788 91.325 8.984L87.573 17.51C87.489 17.706 87.3817 17.8553 87.251 17.958C87.1203 18.0513 86.9477 18.098 86.733 18.098ZM91.9348 18.098C91.7481 18.098 91.5988 18.056 91.4868 17.972C91.3748 17.888 91.3094 17.776 91.2908 17.636C91.2721 17.496 91.3001 17.3373 91.3748 17.16L95.1688 8.648C95.2621 8.424 95.3788 8.26533 95.5188 8.172C95.6681 8.07867 95.8314 8.032 96.0088 8.032C96.1768 8.032 96.3308 8.07867 96.4708 8.172C96.6201 8.26533 96.7414 8.424 96.8348 8.648L100.629 17.16C100.713 17.3373 100.745 17.5007 100.727 17.65C100.708 17.79 100.647 17.902 100.545 17.986C100.442 18.0607 100.297 18.098 100.111 18.098C99.9054 18.098 99.7421 18.0467 99.6208 17.944C99.4994 17.8413 99.3921 17.6827 99.2988 17.468L98.3188 15.2L98.9768 15.592H93.0128L93.6568 15.2L92.6908 17.468C92.5974 17.692 92.4948 17.8553 92.3828 17.958C92.2708 18.0513 92.1214 18.098 91.9348 18.098ZM95.9808 9.74L93.8668 14.752L93.5168 14.416H98.4588L98.1368 14.752L96.0088 9.74H95.9808ZM104.355 18.098C104.122 18.098 103.94 18.0327 103.809 17.902C103.688 17.7713 103.627 17.5893 103.627 17.356V9.348H100.659C100.463 9.348 100.309 9.29667 100.197 9.194C100.085 9.082 100.029 8.928 100.029 8.732C100.029 8.536 100.085 8.38667 100.197 8.284C100.309 8.18133 100.463 8.13 100.659 8.13H108.037C108.243 8.13 108.401 8.18133 108.513 8.284C108.625 8.38667 108.681 8.536 108.681 8.732C108.681 8.928 108.625 9.082 108.513 9.194C108.401 9.29667 108.243 9.348 108.037 9.348H105.069V17.356C105.069 17.5893 105.009 17.7713 104.887 17.902C104.775 18.0327 104.598 18.098 104.355 18.098ZM108.642 18.098C108.455 18.098 108.306 18.056 108.194 17.972C108.082 17.888 108.016 17.776 107.998 17.636C107.979 17.496 108.007 17.3373 108.082 17.16L111.876 8.648C111.969 8.424 112.086 8.26533 112.226 8.172C112.375 8.07867 112.538 8.032 112.716 8.032C112.884 8.032 113.038 8.07867 113.178 8.172C113.327 8.26533 113.448 8.424 113.542 8.648L117.336 17.16C117.42 17.3373 117.452 17.5007 117.434 17.65C117.415 17.79 117.354 17.902 117.252 17.986C117.149 18.0607 117.004 18.098 116.818 18.098C116.612 18.098 116.449 18.0467 116.328 17.944C116.206 17.8413 116.099 17.6827 116.006 17.468L115.026 15.2L115.684 15.592H109.72L110.364 15.2L109.398 17.468C109.304 17.692 109.202 17.8553 109.09 17.958C108.978 18.0513 108.828 18.098 108.642 18.098ZM112.688 9.74L110.574 14.752L110.224 14.416H115.166L114.844 14.752L112.716 9.74H112.688ZM119.734 18.098C119.501 18.098 119.319 18.0327 119.188 17.902C119.067 17.7713 119.006 17.5893 119.006 17.356V8.872C119.006 8.62933 119.072 8.44733 119.202 8.326C119.333 8.19533 119.515 8.13 119.748 8.13H123.094C124.158 8.13 124.98 8.382 125.558 8.886C126.137 9.39 126.426 10.104 126.426 11.028C126.426 11.6253 126.296 12.1387 126.034 12.568C125.773 12.9973 125.39 13.324 124.886 13.548C124.392 13.772 123.794 13.884 123.094 13.884L123.22 13.688H123.584C123.958 13.688 124.28 13.7813 124.55 13.968C124.83 14.1547 125.082 14.4533 125.306 14.864L126.51 17.104C126.604 17.272 126.646 17.4353 126.636 17.594C126.636 17.7433 126.58 17.8647 126.468 17.958C126.366 18.0513 126.216 18.098 126.02 18.098C125.815 18.098 125.647 18.056 125.516 17.972C125.395 17.8787 125.283 17.7433 125.18 17.566L123.71 14.85C123.514 14.486 123.29 14.2433 123.038 14.122C122.786 13.9913 122.455 13.926 122.044 13.926H120.462V17.356C120.462 17.5893 120.402 17.7713 120.28 17.902C120.159 18.0327 119.977 18.098 119.734 18.098ZM120.462 12.834H122.856C123.566 12.834 124.102 12.6847 124.466 12.386C124.83 12.0873 125.012 11.644 125.012 11.056C125.012 10.4773 124.83 10.0387 124.466 9.74C124.102 9.44133 123.566 9.292 122.856 9.292H120.462V12.834ZM132.9 18.098C132.667 18.098 132.485 18.0327 132.354 17.902C132.233 17.7713 132.172 17.5893 132.172 17.356V8.872C132.172 8.62933 132.238 8.44733 132.368 8.326C132.499 8.19533 132.681 8.13 132.914 8.13H136.26C137.324 8.13 138.146 8.382 138.724 8.886C139.303 9.39 139.592 10.104 139.592 11.028C139.592 11.6253 139.462 12.1387 139.2 12.568C138.939 12.9973 138.556 13.324 138.052 13.548C137.558 13.772 136.96 13.884 136.26 13.884L136.386 13.688H136.75C137.124 13.688 137.446 13.7813 137.716 13.968C137.996 14.1547 138.248 14.4533 138.472 14.864L139.676 17.104C139.77 17.272 139.812 17.4353 139.802 17.594C139.802 17.7433 139.746 17.8647 139.634 17.958C139.532 18.0513 139.382 18.098 139.186 18.098C138.981 18.098 138.813 18.056 138.682 17.972C138.561 17.8787 138.449 17.7433 138.346 17.566L136.876 14.85C136.68 14.486 136.456 14.2433 136.204 14.122C135.952 13.9913 135.621 13.926 135.21 13.926H133.628V17.356C133.628 17.5893 133.568 17.7713 133.446 17.902C133.325 18.0327 133.143 18.098 132.9 18.098ZM133.628 12.834H136.022C136.732 12.834 137.268 12.6847 137.632 12.386C137.996 12.0873 138.178 11.644 138.178 11.056C138.178 10.4773 137.996 10.0387 137.632 9.74C137.268 9.44133 136.732 9.292 136.022 9.292H133.628V12.834ZM142.431 18C142.179 18 141.983 17.9347 141.843 17.804C141.712 17.664 141.647 17.468 141.647 17.216V8.914C141.647 8.662 141.712 8.47067 141.843 8.34C141.983 8.2 142.179 8.13 142.431 8.13H147.541C147.737 8.13 147.886 8.18133 147.989 8.284C148.092 8.37733 148.143 8.51733 148.143 8.704C148.143 8.9 148.092 9.04933 147.989 9.152C147.886 9.25467 147.737 9.306 147.541 9.306H143.047V12.4H147.233C147.438 12.4 147.588 12.4513 147.681 12.554C147.784 12.6567 147.835 12.8013 147.835 12.988C147.835 13.184 147.784 13.3333 147.681 13.436C147.588 13.5293 147.438 13.576 147.233 13.576H143.047V16.824H147.541C147.737 16.824 147.886 16.8753 147.989 16.978C148.092 17.0807 148.143 17.2253 148.143 17.412C148.143 17.608 148.092 17.7573 147.989 17.86C147.886 17.9533 147.737 18 147.541 18H142.431ZM153.141 18.098C152.935 18.098 152.767 18.0467 152.637 17.944C152.515 17.8413 152.413 17.6827 152.329 17.468L149.319 8.886C149.235 8.64333 149.249 8.44267 149.361 8.284C149.482 8.116 149.678 8.032 149.949 8.032C150.154 8.032 150.313 8.07867 150.425 8.172C150.546 8.26533 150.639 8.41467 150.705 8.62L153.435 16.656H152.917L155.717 8.648C155.801 8.44267 155.899 8.28867 156.011 8.186C156.123 8.08333 156.272 8.032 156.459 8.032C156.645 8.032 156.79 8.08333 156.893 8.186C157.005 8.28867 157.103 8.44733 157.187 8.662L159.931 16.656H159.469L162.227 8.62C162.292 8.424 162.381 8.27933 162.493 8.186C162.614 8.08333 162.773 8.032 162.969 8.032C163.211 8.032 163.389 8.116 163.501 8.284C163.622 8.44267 163.636 8.64333 163.543 8.886L160.519 17.482C160.435 17.6873 160.332 17.8413 160.211 17.944C160.089 18.0467 159.926 18.098 159.721 18.098C159.506 18.098 159.338 18.0467 159.217 17.944C159.095 17.8413 158.997 17.6827 158.923 17.468L156.277 9.894H156.585L153.911 17.482C153.836 17.6873 153.738 17.8413 153.617 17.944C153.505 18.0467 153.346 18.098 153.141 18.098ZM164.478 18.098C164.291 18.098 164.142 18.056 164.03 17.972C163.918 17.888 163.852 17.776 163.834 17.636C163.815 17.496 163.843 17.3373 163.918 17.16L167.712 8.648C167.805 8.424 167.922 8.26533 168.062 8.172C168.211 8.07867 168.374 8.032 168.552 8.032C168.72 8.032 168.874 8.07867 169.014 8.172C169.163 8.26533 169.284 8.424 169.378 8.648L173.172 17.16C173.256 17.3373 173.288 17.5007 173.27 17.65C173.251 17.79 173.19 17.902 173.088 17.986C172.985 18.0607 172.84 18.098 172.654 18.098C172.448 18.098 172.285 18.0467 172.164 17.944C172.042 17.8413 171.935 17.6827 171.842 17.468L170.862 15.2L171.52 15.592H165.556L166.2 15.2L165.234 17.468C165.14 17.692 165.038 17.8553 164.926 17.958C164.814 18.0513 164.664 18.098 164.478 18.098ZM168.524 9.74L166.41 14.752L166.06 14.416H171.002L170.68 14.752L168.552 9.74H168.524ZM175.57 18.098C175.337 18.098 175.155 18.0327 175.024 17.902C174.903 17.7713 174.842 17.5893 174.842 17.356V8.872C174.842 8.62933 174.908 8.44733 175.038 8.326C175.169 8.19533 175.351 8.13 175.584 8.13H178.93C179.994 8.13 180.816 8.382 181.394 8.886C181.973 9.39 182.262 10.104 182.262 11.028C182.262 11.6253 182.132 12.1387 181.87 12.568C181.609 12.9973 181.226 13.324 180.722 13.548C180.228 13.772 179.63 13.884 178.93 13.884L179.056 13.688H179.42C179.794 13.688 180.116 13.7813 180.386 13.968C180.666 14.1547 180.918 14.4533 181.142 14.864L182.346 17.104C182.44 17.272 182.482 17.4353 182.472 17.594C182.472 17.7433 182.416 17.8647 182.304 17.958C182.202 18.0513 182.052 18.098 181.856 18.098C181.651 18.098 181.483 18.056 181.352 17.972C181.231 17.8787 181.119 17.7433 181.016 17.566L179.546 14.85C179.35 14.486 179.126 14.2433 178.874 14.122C178.622 13.9913 178.291 13.926 177.88 13.926H176.298V17.356C176.298 17.5893 176.238 17.7713 176.116 17.902C175.995 18.0327 175.813 18.098 175.57 18.098ZM176.298 12.834H178.692C179.402 12.834 179.938 12.6847 180.302 12.386C180.666 12.0873 180.848 11.644 180.848 11.056C180.848 10.4773 180.666 10.0387 180.302 9.74C179.938 9.44133 179.402 9.292 178.692 9.292H176.298V12.834ZM185.101 18C184.849 18 184.653 17.9347 184.513 17.804C184.382 17.664 184.317 17.468 184.317 17.216V8.914C184.317 8.662 184.382 8.47067 184.513 8.34C184.653 8.2 184.849 8.13 185.101 8.13H187.803C189.427 8.13 190.678 8.55467 191.555 9.404C192.442 10.244 192.885 11.462 192.885 13.058C192.885 13.8513 192.773 14.556 192.549 15.172C192.325 15.788 191.994 16.306 191.555 16.726C191.126 17.1367 190.598 17.454 189.973 17.678C189.348 17.8927 188.624 18 187.803 18H185.101ZM185.773 16.782H187.719C188.335 16.782 188.867 16.7073 189.315 16.558C189.772 16.3993 190.155 16.166 190.463 15.858C190.771 15.55 191 15.1627 191.149 14.696C191.298 14.2293 191.373 13.6833 191.373 13.058C191.373 11.8167 191.065 10.888 190.449 10.272C189.842 9.656 188.932 9.348 187.719 9.348H185.773V16.782Z" fill="#0071BC"/>
<path d="M71.1093 39.18C69.7893 39.18 68.6553 38.916 67.7073 38.388C66.7713 37.848 66.0513 37.092 65.5473 36.12C65.0433 35.136 64.7913 33.978 64.7913 32.646C64.7913 31.65 64.9353 30.756 65.2233 29.964C65.5113 29.16 65.9253 28.476 66.4653 27.912C67.0053 27.336 67.6653 26.898 68.4453 26.598C69.2373 26.286 70.1253 26.13 71.1093 26.13C71.7693 26.13 72.4173 26.214 73.0533 26.382C73.6893 26.55 74.2473 26.79 74.7273 27.102C74.9793 27.258 75.1473 27.45 75.2313 27.678C75.3153 27.894 75.3333 28.11 75.2853 28.326C75.2373 28.53 75.1353 28.704 74.9793 28.848C74.8353 28.992 74.6493 29.076 74.4213 29.1C74.2053 29.112 73.9653 29.034 73.7013 28.866C73.3293 28.626 72.9273 28.452 72.4953 28.344C72.0633 28.236 71.6253 28.182 71.1813 28.182C70.3293 28.182 69.6093 28.356 69.0213 28.704C68.4333 29.052 67.9893 29.556 67.6893 30.216C67.3893 30.876 67.2393 31.686 67.2393 32.646C67.2393 33.594 67.3893 34.404 67.6893 35.076C67.9893 35.748 68.4333 36.258 69.0213 36.606C69.6093 36.954 70.3293 37.128 71.1813 37.128C71.6373 37.128 72.0873 37.074 72.5313 36.966C72.9753 36.846 73.3953 36.666 73.7913 36.426C74.0553 36.27 74.2893 36.204 74.4933 36.228C74.7093 36.24 74.8893 36.312 75.0333 36.444C75.1773 36.576 75.2733 36.744 75.3213 36.948C75.3693 37.14 75.3573 37.344 75.2853 37.56C75.2133 37.764 75.0693 37.944 74.8533 38.1C74.3733 38.448 73.7973 38.718 73.1253 38.91C72.4653 39.09 71.7933 39.18 71.1093 39.18ZM82.7234 39.18C81.4994 39.18 80.4254 38.91 79.5014 38.37C78.5894 37.83 77.8814 37.074 77.3774 36.102C76.8734 35.118 76.6214 33.966 76.6214 32.646C76.6214 31.65 76.7654 30.756 77.0534 29.964C77.3414 29.16 77.7494 28.476 78.2774 27.912C78.8174 27.336 79.4594 26.898 80.2034 26.598C80.9594 26.286 81.7994 26.13 82.7234 26.13C83.9594 26.13 85.0334 26.4 85.9454 26.94C86.8574 27.468 87.5654 28.218 88.0694 29.19C88.5734 30.162 88.8254 31.308 88.8254 32.628C88.8254 33.624 88.6814 34.524 88.3934 35.328C88.1054 36.132 87.6914 36.822 87.1514 37.398C86.6234 37.974 85.9814 38.418 85.2254 38.73C84.4814 39.03 83.6474 39.18 82.7234 39.18ZM82.7234 37.2C83.5034 37.2 84.1634 37.02 84.7034 36.66C85.2554 36.3 85.6754 35.778 85.9634 35.094C86.2634 34.41 86.4134 33.594 86.4134 32.646C86.4134 31.206 86.0894 30.09 85.4414 29.298C84.8054 28.506 83.8994 28.11 82.7234 28.11C81.9554 28.11 81.2954 28.29 80.7434 28.65C80.1914 28.998 79.7654 29.514 79.4654 30.198C79.1774 30.87 79.0334 31.686 79.0334 32.646C79.0334 34.074 79.3574 35.19 80.0054 35.994C80.6534 36.798 81.5594 37.2 82.7234 37.2ZM92.2482 39.144C91.9122 39.144 91.6542 39.048 91.4742 38.856C91.2942 38.664 91.2042 38.4 91.2042 38.064V27.246C91.2042 26.898 91.3002 26.634 91.4922 26.454C91.6842 26.262 91.9482 26.166 92.2842 26.166C92.5842 26.166 92.8182 26.226 92.9862 26.346C93.1662 26.454 93.3282 26.646 93.4722 26.922L97.9182 35.148H97.3422L101.788 26.922C101.932 26.646 102.088 26.454 102.256 26.346C102.424 26.226 102.658 26.166 102.958 26.166C103.294 26.166 103.552 26.262 103.732 26.454C103.912 26.634 104.002 26.898 104.002 27.246V38.064C104.002 38.4 103.912 38.664 103.732 38.856C103.564 39.048 103.306 39.144 102.958 39.144C102.622 39.144 102.364 39.048 102.184 38.856C102.004 38.664 101.914 38.4 101.914 38.064V29.73H102.31L98.5302 36.624C98.4102 36.828 98.2842 36.978 98.1522 37.074C98.0202 37.17 97.8402 37.218 97.6122 37.218C97.3842 37.218 97.1982 37.17 97.0542 37.074C96.9102 36.966 96.7842 36.816 96.6762 36.624L92.8602 29.712H93.2922V38.064C93.2922 38.4 93.2022 38.664 93.0222 38.856C92.8542 39.048 92.5962 39.144 92.2482 39.144ZM107.947 39.144C107.575 39.144 107.287 39.042 107.083 38.838C106.891 38.622 106.795 38.328 106.795 37.956V27.354C106.795 26.97 106.891 26.676 107.083 26.472C107.287 26.268 107.575 26.166 107.947 26.166C108.319 26.166 108.601 26.268 108.793 26.472C108.997 26.676 109.099 26.97 109.099 27.354V37.956C109.099 38.328 109.003 38.622 108.811 38.838C108.619 39.042 108.331 39.144 107.947 39.144ZM112.955 39.144C112.607 39.144 112.337 39.048 112.145 38.856C111.965 38.664 111.875 38.388 111.875 38.028V27.318C111.875 26.946 111.965 26.664 112.145 26.472C112.337 26.268 112.583 26.166 112.883 26.166C113.159 26.166 113.363 26.22 113.495 26.328C113.639 26.424 113.807 26.592 113.999 26.832L120.893 35.778H120.425V27.264C120.425 26.916 120.515 26.646 120.695 26.454C120.887 26.262 121.157 26.166 121.505 26.166C121.853 26.166 122.117 26.262 122.297 26.454C122.477 26.646 122.567 26.916 122.567 27.264V38.064C122.567 38.4 122.483 38.664 122.315 38.856C122.147 39.048 121.919 39.144 121.631 39.144C121.355 39.144 121.133 39.09 120.965 38.982C120.809 38.874 120.635 38.7 120.443 38.46L113.567 29.514H114.017V38.028C114.017 38.388 113.927 38.664 113.747 38.856C113.567 39.048 113.303 39.144 112.955 39.144ZM131.442 39.18C130.038 39.18 128.85 38.916 127.878 38.388C126.918 37.86 126.186 37.11 125.682 36.138C125.178 35.166 124.926 34.014 124.926 32.682C124.926 31.674 125.07 30.768 125.358 29.964C125.658 29.16 126.084 28.476 126.636 27.912C127.2 27.336 127.884 26.898 128.688 26.598C129.492 26.286 130.404 26.13 131.424 26.13C132.096 26.13 132.768 26.214 133.44 26.382C134.124 26.538 134.766 26.808 135.366 27.192C135.57 27.324 135.702 27.486 135.762 27.678C135.834 27.87 135.846 28.068 135.798 28.272C135.75 28.464 135.66 28.632 135.528 28.776C135.396 28.92 135.228 29.01 135.024 29.046C134.832 29.082 134.616 29.034 134.376 28.902C133.92 28.638 133.458 28.446 132.99 28.326C132.522 28.206 132 28.146 131.424 28.146C130.536 28.146 129.786 28.326 129.174 28.686C128.562 29.034 128.1 29.544 127.788 30.216C127.488 30.888 127.338 31.71 127.338 32.682C127.338 34.158 127.692 35.28 128.4 36.048C129.108 36.816 130.158 37.2 131.55 37.2C132.03 37.2 132.516 37.152 133.008 37.056C133.5 36.96 133.98 36.828 134.448 36.66L133.998 37.686V33.852H132.018C131.718 33.852 131.484 33.774 131.316 33.618C131.16 33.462 131.082 33.252 131.082 32.988C131.082 32.712 131.16 32.502 131.316 32.358C131.484 32.214 131.718 32.142 132.018 32.142H134.988C135.288 32.142 135.516 32.226 135.672 32.394C135.84 32.55 135.924 32.778 135.924 33.078V37.452C135.924 37.716 135.87 37.938 135.762 38.118C135.666 38.298 135.504 38.43 135.276 38.514C134.748 38.706 134.142 38.868 133.458 39C132.774 39.12 132.102 39.18 131.442 39.18ZM147.855 39.18C147.327 39.18 146.799 39.138 146.271 39.054C145.743 38.982 145.245 38.868 144.777 38.712C144.309 38.544 143.889 38.34 143.517 38.1C143.301 37.956 143.151 37.782 143.067 37.578C142.983 37.374 142.953 37.176 142.977 36.984C143.013 36.78 143.091 36.606 143.211 36.462C143.343 36.306 143.505 36.21 143.697 36.174C143.889 36.138 144.099 36.192 144.327 36.336C144.855 36.648 145.413 36.876 146.001 37.02C146.589 37.164 147.207 37.236 147.855 37.236C148.803 37.236 149.493 37.08 149.925 36.768C150.357 36.444 150.573 36.03 150.573 35.526C150.573 35.106 150.417 34.776 150.105 34.536C149.805 34.296 149.283 34.098 148.539 33.942L146.559 33.528C145.419 33.288 144.567 32.886 144.003 32.322C143.451 31.746 143.175 30.99 143.175 30.054C143.175 29.466 143.295 28.932 143.535 28.452C143.775 27.972 144.111 27.558 144.543 27.21C144.987 26.862 145.509 26.598 146.109 26.418C146.721 26.226 147.393 26.13 148.125 26.13C148.845 26.13 149.529 26.22 150.177 26.4C150.825 26.58 151.407 26.844 151.923 27.192C152.115 27.324 152.241 27.486 152.301 27.678C152.373 27.87 152.391 28.062 152.355 28.254C152.319 28.434 152.235 28.59 152.103 28.722C151.971 28.854 151.803 28.932 151.599 28.956C151.407 28.98 151.185 28.92 150.933 28.776C150.489 28.524 150.039 28.344 149.583 28.236C149.127 28.128 148.635 28.074 148.107 28.074C147.555 28.074 147.081 28.152 146.685 28.308C146.289 28.464 145.983 28.686 145.767 28.974C145.563 29.25 145.461 29.58 145.461 29.964C145.461 30.396 145.605 30.744 145.893 31.008C146.181 31.26 146.673 31.458 147.369 31.602L149.331 32.016C150.519 32.268 151.401 32.664 151.977 33.204C152.565 33.744 152.859 34.464 152.859 35.364C152.859 35.94 152.739 36.462 152.499 36.93C152.271 37.398 151.935 37.8 151.491 38.136C151.059 38.472 150.537 38.73 149.925 38.91C149.313 39.09 148.623 39.18 147.855 39.18ZM160.524 39.18C159.3 39.18 158.226 38.91 157.302 38.37C156.39 37.83 155.682 37.074 155.178 36.102C154.674 35.118 154.422 33.966 154.422 32.646C154.422 31.65 154.566 30.756 154.854 29.964C155.142 29.16 155.55 28.476 156.078 27.912C156.618 27.336 157.26 26.898 158.004 26.598C158.76 26.286 159.6 26.13 160.524 26.13C161.76 26.13 162.834 26.4 163.746 26.94C164.658 27.468 165.366 28.218 165.87 29.19C166.374 30.162 166.626 31.308 166.626 32.628C166.626 33.624 166.482 34.524 166.194 35.328C165.906 36.132 165.492 36.822 164.952 37.398C164.424 37.974 163.782 38.418 163.026 38.73C162.282 39.03 161.448 39.18 160.524 39.18ZM160.524 37.2C161.304 37.2 161.964 37.02 162.504 36.66C163.056 36.3 163.476 35.778 163.764 35.094C164.064 34.41 164.214 33.594 164.214 32.646C164.214 31.206 163.89 30.09 163.242 29.298C162.606 28.506 161.7 28.11 160.524 28.11C159.756 28.11 159.096 28.29 158.544 28.65C157.992 28.998 157.566 29.514 157.266 30.198C156.978 30.87 156.834 31.686 156.834 32.646C156.834 34.074 157.158 35.19 157.806 35.994C158.454 36.798 159.36 37.2 160.524 37.2ZM174.657 39.18C173.433 39.18 172.359 38.91 171.435 38.37C170.523 37.83 169.815 37.074 169.311 36.102C168.807 35.118 168.555 33.966 168.555 32.646C168.555 31.65 168.699 30.756 168.987 29.964C169.275 29.16 169.683 28.476 170.211 27.912C170.751 27.336 171.393 26.898 172.137 26.598C172.893 26.286 173.733 26.13 174.657 26.13C175.893 26.13 176.967 26.4 177.879 26.94C178.791 27.468 179.499 28.218 180.003 29.19C180.507 30.162 180.759 31.308 180.759 32.628C180.759 33.624 180.615 34.524 180.327 35.328C180.039 36.132 179.625 36.822 179.085 37.398C178.557 37.974 177.915 38.418 177.159 38.73C176.415 39.03 175.581 39.18 174.657 39.18ZM174.657 37.2C175.437 37.2 176.097 37.02 176.637 36.66C177.189 36.3 177.609 35.778 177.897 35.094C178.197 34.41 178.347 33.594 178.347 32.646C178.347 31.206 178.023 30.09 177.375 29.298C176.739 28.506 175.833 28.11 174.657 28.11C173.889 28.11 173.229 28.29 172.677 28.65C172.125 28.998 171.699 29.514 171.399 30.198C171.111 30.87 170.967 31.686 170.967 32.646C170.967 34.074 171.291 35.19 171.939 35.994C172.587 36.798 173.493 37.2 174.657 37.2ZM184.182 39.144C183.834 39.144 183.564 39.048 183.372 38.856C183.192 38.664 183.102 38.388 183.102 38.028V27.318C183.102 26.946 183.192 26.664 183.372 26.472C183.564 26.268 183.81 26.166 184.11 26.166C184.386 26.166 184.59 26.22 184.722 26.328C184.866 26.424 185.034 26.592 185.226 26.832L192.12 35.778H191.652V27.264C191.652 26.916 191.742 26.646 191.922 26.454C192.114 26.262 192.384 26.166 192.732 26.166C193.08 26.166 193.344 26.262 193.524 26.454C193.704 26.646 193.794 26.916 193.794 27.264V38.064C193.794 38.4 193.71 38.664 193.542 38.856C193.374 39.048 193.146 39.144 192.858 39.144C192.582 39.144 192.36 39.09 192.192 38.982C192.036 38.874 191.862 38.7 191.67 38.46L184.794 29.514H185.244V38.028C185.244 38.388 185.154 38.664 184.974 38.856C184.794 39.048 184.53 39.144 184.182 39.144Z" fill="#0071BC"/>
</g>
</svg>
