<svg width="21" height="21" viewBox="0 0 21 21" fill="none" xmlns="http://www.w3.org/2000/svg">
<path d="M15.0883 20.5382H2.19856C1.05434 20.5382 0.227196 19.4492 0.537376 18.3532L1.86081 13.6247C2.15721 12.5563 2.95678 11.6947 3.99761 11.3155L5.67258 10.709C5.9483 10.6125 6.12751 10.3505 6.12751 10.061V8.82031H8.88467V10.061C8.88467 10.3505 9.06389 10.6125 9.3396 10.709L11.0146 11.3155C12.0554 11.6947 12.855 12.5563 13.1514 13.6247C13.8545 16.1337 15.0883 20.5382 15.0883 20.5382Z" fill="#AEE6FF"/>
<path d="M9.91878 5.37256V6.40649C9.91878 9.14986 8.32652 9.85294 7.50626 9.85294C6.68601 9.85294 5.09375 9.16365 5.09375 6.40649V5.37256C5.09375 4.22834 6.0174 3.30469 7.16162 3.30469H7.85091C8.99513 3.30469 9.91878 4.22834 9.91878 5.37256Z" fill="#9FE6FF"/>
<path d="M7.85046 3.30469H7.16117C7.0433 3.30469 6.92956 3.32054 6.81652 3.33915C7.79531 3.5032 8.53974 4.3462 8.53974 5.37256V6.40649C8.53974 8.49573 7.61679 9.40007 6.81445 9.71301C7.06742 9.81158 7.30867 9.85294 7.50581 9.85294C8.32607 9.85294 9.91832 9.14986 9.91832 6.40649V5.37256C9.91832 4.22834 8.99468 3.30469 7.85046 3.30469Z" fill="#AEE6FF"/>
<path d="M19.5684 13.6465L17.2731 20.5394H8.09863L10.394 13.6465H19.5684Z" fill="#78909C"/>
<path d="M5.0935 7.44092H4.74886C4.36837 7.44092 4.05957 7.13211 4.05957 6.75163V6.06234C4.05957 5.68185 4.36837 5.37305 4.74886 5.37305H5.0935C5.28375 5.37305 5.43815 5.52745 5.43815 5.71769V7.09627C5.43815 7.28651 5.28375 7.44092 5.0935 7.44092Z" fill="#CFD8DC"/>
<path d="M9.91846 7.44092H10.2631C10.6443 7.44092 10.9524 7.13211 10.9524 6.75163V6.06234C10.9524 5.68185 10.6443 5.37305 10.2631 5.37305H9.91846V7.44092Z" fill="#CFD8DC"/>
<path d="M20.2512 4.33992C20.2512 6.43398 18.5542 8.13101 16.4601 8.13101C15.6874 8.13101 14.9685 7.9001 14.3688 7.50238L12.4009 8.39915L13.2852 6.41192C12.8958 5.81638 12.669 5.10434 12.669 4.33992C12.669 2.24586 14.366 0.548828 16.4601 0.548828C18.5542 0.548828 20.2512 2.24586 20.2512 4.33992Z" fill="#FFF176"/>
</svg>
