<svg width="26" height="30" viewBox="0 0 26 30" fill="none" xmlns="http://www.w3.org/2000/svg">
<path fill-rule="evenodd" clip-rule="evenodd" d="M6.26643 6.37987L2.50224 5.38421C2.42054 5.36239 2.34986 5.30557 2.30593 5.22622C2.262 5.1469 2.24809 5.05143 2.26755 4.9607L2.53998 3.6727C2.54951 3.62729 2.56703 3.58444 2.59164 3.54659C2.6163 3.50879 2.64738 3.47668 2.68323 3.4522C2.71888 3.42767 2.75889 3.41137 2.80043 3.40404C2.84197 3.39671 2.88434 3.39853 2.92507 3.40946L7.53328 4.63287C7.59696 4.65016 7.65428 4.68869 7.69749 4.7432C7.74071 4.79776 7.76771 4.86572 7.77492 4.93793L8.00845 7.48371L24.1989 10.5504C24.2576 10.5614 24.3135 10.586 24.363 10.6225C24.4125 10.659 24.4545 10.7067 24.4862 10.7624C24.518 10.8181 24.5388 10.8807 24.5473 10.9459C24.5558 11.0112 24.5518 11.0777 24.5356 11.1412L21.4137 23.4695C21.3941 23.5468 21.3512 23.6144 21.2922 23.6612C21.2333 23.708 21.1617 23.7311 21.0894 23.7267L6.94381 22.7096C6.34996 22.6649 5.98197 21.939 6.291 21.3736L6.33264 21.3046C6.4288 21.1692 6.48848 21.113 6.61661 21.0406C6.7447 20.9682 6.8877 20.9346 7.03109 20.9432L19.9326 21.8925C19.9994 21.8965 20.0658 21.8771 20.1222 21.8369C20.1786 21.7967 20.2222 21.7379 20.2467 21.6687L20.4237 21.1718C20.436 21.1372 20.4407 21.0998 20.4375 21.0627C20.4343 21.0257 20.4231 20.9901 20.405 20.9588C20.3869 20.9275 20.3623 20.9015 20.3333 20.8828C20.3043 20.8641 20.2717 20.8533 20.2381 20.8513L8.0774 20.1297C7.97645 20.1235 7.88089 20.0777 7.8079 20.0004C7.7349 19.9232 7.68916 19.8196 7.67898 19.7082L6.73709 9.17516L6.50279 6.68581C6.49622 6.61417 6.4701 6.54651 6.42786 6.49184C6.38561 6.43717 6.3293 6.39813 6.26643 6.37987ZM19.7464 18.8697L21.0905 18.938L22.8079 12.2028L20.8627 11.751L19.7464 18.8697ZM10.3173 18.235L8.96006 18.1643L8.39764 9.42648L9.85271 9.62001L10.3173 18.235ZM14.3452 18.5118L15.5939 18.5763L16.3347 10.8497L14.3705 10.5129L14.3452 18.5118ZM19.6767 11.532L17.7198 11.1966L16.9951 18.688L18.3428 18.7569L19.6767 11.532ZM13.0952 10.1737L11.1262 9.83596L11.5967 18.3328L12.8484 18.3978L13.0952 10.1737Z" fill="#53BDF2"/>
<path d="M2.41016 3.03274L6.39572 4.13735C6.41781 4.14346 6.43151 4.16799 6.42625 4.1921L5.97035 6.29912C5.96507 6.32321 5.94289 6.33775 5.9208 6.33164L1.93526 5.22707C1.91333 5.22103 1.89963 5.19649 1.90473 5.17232L2.36062 3.06529C2.36588 3.04119 2.38808 3.0266 2.41016 3.03274Z" fill="#53BDF2"/>
<path d="M17.1434 27.3983C16.3592 27.0616 15.9594 26.0953 16.2504 25.2399C16.5414 24.3844 17.4131 23.9638 18.1973 24.3005C18.9815 24.6372 19.3813 25.6037 19.0902 26.4592C18.7992 27.3146 17.9276 27.735 17.1434 27.3983Z" fill="#53BDF2"/>
<path d="M7.98815 27.1483C7.20393 26.8116 6.80416 25.8453 7.09522 24.9897C7.38621 24.1343 8.25776 23.7138 9.04198 24.0505C9.82617 24.3872 10.226 25.3536 9.93504 26.2089C9.64397 27.0645 8.77234 27.485 7.98815 27.1483Z" fill="#53BDF2"/>
</svg>
