<svg width="27" height="30" viewBox="0 0 27 30" fill="none" xmlns="http://www.w3.org/2000/svg">
<path d="M24.8564 6.58645L14.274 0.332474C13.899 0.114586 13.475 0 13.0435 0C12.612 0 12.188 0.114586 11.813 0.332474L1.23053 6.58645C0.856822 6.80672 0.546416 7.12341 0.33044 7.5048C0.114464 7.88618 0.000512831 8.31882 1.187e-05 8.75935V21.2401C-0.00133391 21.6819 0.111778 22.1163 0.32788 22.4991C0.543982 22.8819 0.855388 23.1995 1.23053 23.4198L11.813 29.6602C12.1864 29.8828 12.6111 30 13.0435 30C13.4759 30 13.9005 29.8828 14.274 29.6602L24.8564 23.4198C25.2296 23.2007 25.5398 22.8852 25.7558 22.5049C25.9717 22.1247 26.086 21.6932 26.087 21.2537V8.75935C26.0865 8.31882 25.9725 7.88618 25.7565 7.5048C25.5406 7.12341 25.2301 6.80672 24.8564 6.58645ZM13.0235 27.7385L4.45648 22.6933L12.7043 17.8246C12.8054 17.765 12.9201 17.7336 13.0368 17.7336C13.1536 17.7336 13.2683 17.765 13.3694 17.8246L21.6172 22.6865L13.0235 27.7385ZM23.6658 21.2401L20.6527 19.5154V11.9508C20.6533 11.6462 20.5748 11.3469 20.4252 11.0833C20.2757 10.8197 20.0604 10.6013 19.8013 10.4502L18.1451 9.47913C18.0025 9.39428 17.8405 9.34937 17.6755 9.34891C17.5104 9.34844 17.3482 9.39247 17.2051 9.47652C17.062 9.56056 16.9432 9.68164 16.8607 9.82756C16.7782 9.97348 16.7348 10.1391 16.735 10.3076V17.2066L14.3272 15.7874C13.9522 15.5092 13.5005 15.3593 13.0368 15.3593C12.5732 15.3593 12.1215 15.5092 11.7465 15.7874L2.47435 21.2198V8.75935L13.0634 2.51896L23.6525 8.75935L23.6658 21.2401Z" fill="#53BDF2"/>
</svg>
