<svg width="34" height="30" viewBox="0 0 34 30" fill="none" xmlns="http://www.w3.org/2000/svg">
<path d="M14.4745 0H10.5677C10.2624 9.35666e-05 9.96242 0.0796697 9.69789 0.230759C9.43335 0.381849 9.21352 0.599149 9.06041 0.860898L7.10869 4.21413C6.95554 4.47596 6.87488 4.77322 6.87488 5.07585C6.87488 5.37848 6.95554 5.67574 7.10869 5.93757L9.06041 9.28916C9.21352 9.55091 9.43335 9.76821 9.69789 9.9193C9.96242 10.0704 10.2624 10.15 10.5677 10.1501H14.4745C14.7796 10.15 15.0794 10.0704 15.3436 9.91932C15.6079 9.76822 15.8274 9.55089 15.9801 9.28916L17.9335 5.93757C18.0859 5.67546 18.166 5.37831 18.166 5.07585C18.166 4.77339 18.0859 4.47623 17.9335 4.21413L15.9801 0.860898C15.8274 0.599166 15.6079 0.381839 15.3436 0.23073C15.0794 0.0796221 14.7796 4.95116e-05 14.4745 0V0Z" fill="#53BDF2"/>
<path d="M20.4341 27.9611L30.2789 18.2054C30.2358 18.1594 30.1529 18.0674 30.0667 17.9819C29.1713 17.0893 28.2753 16.1988 27.3787 15.3105C27.0471 14.9819 27.0587 14.9918 26.7436 15.3105C24.0595 17.9765 21.3699 20.643 18.6748 23.31C18.1773 23.8029 17.6898 24.2957 17.2122 24.7706L20.4341 27.9611ZM31.1893 17.4151C32.0383 16.5789 32.8956 15.7722 33.7131 14.9179C34.1359 14.4776 34.0779 13.827 33.6319 13.3669C33.1211 12.8412 32.5955 12.327 32.0715 11.8144C31.4961 11.2525 30.8494 11.2492 30.2773 11.8144C29.5725 12.5044 28.8778 13.2026 28.178 13.8993C28.0851 13.9929 27.9972 14.0931 27.9243 14.1703L31.1893 17.4151ZM16.3234 25.712L15.2489 29.9836L19.5603 28.9157L16.3234 25.712Z" fill="#53BDF2"/>
<path d="M20.4341 27.9611L17.2122 24.7705C17.6897 24.2925 18.1806 23.7996 18.6747 23.31C21.3699 20.6419 24.0595 17.9732 26.7436 15.304C27.0586 14.9918 27.0537 14.9885 27.3787 15.304C28.2741 16.1944 29.1701 17.0849 30.0666 17.9754C30.1529 18.0608 30.2324 18.1528 30.2789 18.1988L20.4341 27.9611Z" fill="#53BDF2"/>
<path d="M31.1893 17.4151L27.9243 14.1604C27.9973 14.0832 28.0901 13.983 28.178 13.8893C28.8778 13.1927 29.5726 12.4945 30.2773 11.8045C30.8494 11.2426 31.4961 11.2459 32.0715 11.8045C32.5955 12.3171 33.1212 12.8313 33.6319 13.357C34.0779 13.8171 34.1294 14.4677 33.7131 14.908C32.8956 15.7606 32.0383 16.5723 31.1893 17.4151Z" fill="#53BDF2"/>
<path d="M16.3233 25.7053L19.5535 28.9156L15.2422 29.9835L16.3233 25.7053Z" fill="#53BDF2"/>
<path d="M15.559 24.4124L22.0625 17.8291L19.9898 14.2722C19.7423 13.8468 19.3861 13.4937 18.957 13.2482C18.5279 13.0027 18.041 12.8737 17.5456 12.874H7.49678C7.00129 12.8737 6.51447 13.0027 6.08536 13.2482C5.65626 13.4937 5.30003 13.8468 5.05258 14.2722L0.378073 22.2913C0.0493205 22.8541 -0.070936 23.5129 0.0380388 24.1542C0.147014 24.7954 0.47839 25.3788 0.97503 25.8039L5.07082 29.3182C5.58368 29.7583 6.23956 30.0004 6.91807 30H14.1346L15.559 24.4124ZM12.6936 17.8751V17.0865C12.6936 16.9034 12.7669 16.7277 12.8975 16.598C13.0281 16.4683 13.2052 16.3953 13.3901 16.3948H17.4328C17.6177 16.3953 17.7948 16.4683 17.9254 16.598C18.0559 16.7277 18.1292 16.9034 18.1292 17.0865V17.8735C18.1292 18.0566 18.0559 18.2323 17.9254 18.362C17.7948 18.4917 17.6177 18.5647 17.4328 18.5652H13.3901C13.2055 18.5647 13.0286 18.4919 12.8981 18.3626C12.7676 18.2333 12.6941 18.058 12.6936 17.8751Z" fill="#53BDF2"/>
</svg>
