<svg width="26" height="30" viewBox="0 0 26 30" fill="none" xmlns="http://www.w3.org/2000/svg">
<path d="M14.8188 1.16799H11.1801C10.8943 1.16648 10.6133 1.23729 10.3659 1.37313C10.1185 1.50898 9.91364 1.70495 9.77246 1.94089L7.9531 4.93246C7.80736 5.16652 7.73047 5.43345 7.73047 5.70536C7.73047 5.97728 7.80736 6.2442 7.9531 6.47826L9.77246 9.47893C9.91318 9.71594 10.1176 9.91322 10.3649 10.0506C10.6123 10.188 10.8935 10.2606 11.1801 10.2609H14.8188C15.1034 10.2624 15.3834 10.1926 15.6306 10.0585C15.8777 9.92437 16.0832 9.73074 16.2264 9.49711L18.0553 6.49645C18.1963 6.26087 18.2705 5.99453 18.2705 5.72355C18.2705 5.45257 18.1963 5.18623 18.0553 4.95065L16.2264 1.94089C16.0852 1.70495 15.8804 1.50898 15.633 1.37313C15.3856 1.23729 15.1046 1.16648 14.8188 1.16799V1.16799Z" stroke="white" stroke-width="2"/>
<path d="M24.2989 21.11L19.9707 13.8994C19.7396 13.5192 19.4075 13.2033 19.0076 12.9831C18.6077 12.7629 18.154 12.6462 17.6917 12.6445H8.31727C7.85339 12.6446 7.39769 12.7605 6.99597 12.9808C6.59425 13.2011 6.26065 13.5179 6.02871 13.8994L1.67183 21.11C1.37027 21.6174 1.26548 22.2091 1.37569 22.7822C1.48591 23.3554 1.80415 23.8737 2.27509 24.2471L6.10532 27.3933C6.58495 27.785 7.19626 28.0011 7.82892 28.0025H18.228C18.8606 28.0011 19.4719 27.785 19.9516 27.3933L23.7818 24.2471C24.2388 23.8629 24.5404 23.3395 24.6348 22.7669C24.7292 22.1943 24.6104 21.6084 24.2989 21.11Z" stroke="white" stroke-width="2"/>
<rect x="12.2217" y="17.418" width="4.66667" height="2.9543" rx="0.2" stroke="white" stroke-width="1.5"/>
</svg>
