<svg width="500" height="172" viewBox="0 0 500 172" fill="none" xmlns="http://www.w3.org/2000/svg">
<path d="M468.573 4.28476L469.3 3.59801L468.573 4.28476ZM1.1955 144.947L2.17678 145.139L1.1955 144.947ZM498.471 160.678H499.471H498.471ZM498.471 39.9075H497.471H498.471ZM497.471 39.9075L497.471 160.678H499.471L499.471 39.9075H497.471ZM488.471 169.678H11.0083V171.678H488.471V169.678ZM2.0083 160.678V146.872H0.00830078V160.678H2.0083ZM26.8509 9.03388L0.214223 144.754L2.17678 145.139L28.8134 9.41905L26.8509 9.03388ZM461.304 0.152344H37.645V2.15234H461.304V0.152344ZM496.467 32.3531L469.3 3.59801L467.846 4.97152L495.013 33.7266L496.467 32.3531ZM461.304 2.15234C463.779 2.15234 466.146 3.17206 467.846 4.97152L469.3 3.59801C467.222 1.39866 464.33 0.152344 461.304 0.152344V2.15234ZM28.8134 9.41905C29.642 5.19729 33.3427 2.15234 37.645 2.15234V0.152344C32.3866 0.152344 27.8636 3.87395 26.8509 9.03388L28.8134 9.41905ZM2.0083 146.872C2.0083 146.291 2.06473 145.71 2.17678 145.139L0.214223 144.754C0.0772643 145.452 0.00830078 146.161 0.00830078 146.872H2.0083ZM11.0083 169.678C6.03775 169.678 2.0083 165.648 2.0083 160.678H0.00830078C0.00830078 166.753 4.93319 171.678 11.0083 171.678V169.678ZM497.471 160.678C497.471 165.648 493.442 169.678 488.471 169.678V171.678C494.547 171.678 499.471 166.753 499.471 160.678H497.471ZM499.471 39.9075C499.471 37.0981 498.397 34.3952 496.467 32.3531L495.013 33.7266C496.592 35.3974 497.471 37.6089 497.471 39.9075H499.471Z" fill="#8CB9FF"/>
</svg>
