<svg width="9" height="10" viewBox="0 0 9 10" fill="none" xmlns="http://www.w3.org/2000/svg">
<path d="M2.58851 1.25655C2.72183 1.24752 2.85561 1.26529 2.98196 1.30878C3.10831 1.35228 3.22468 1.42063 3.32419 1.50981C3.49984 1.71316 3.58862 1.97734 3.57143 2.24549V7.15405H6.17647C6.39618 7.14355 6.6117 7.21683 6.77948 7.35908C6.85518 7.43927 6.91351 7.5342 6.95087 7.63795C6.98822 7.74171 7.00378 7.85206 6.99656 7.9621C7.00271 8.07204 6.98665 8.18209 6.94936 8.28569C6.91206 8.38929 6.8543 8.48432 6.77948 8.56511C6.61389 8.71174 6.39736 8.78752 6.17647 8.77616H2.60056C2.4672 8.79043 2.33234 8.77466 2.20587 8.73C2.07939 8.68534 1.96453 8.61294 1.86969 8.5181C1.77485 8.42326 1.70245 8.30839 1.6578 8.18192C1.61314 8.05545 1.59736 7.92058 1.61163 7.78722V2.23947C1.6026 2.10614 1.62036 1.97236 1.66385 1.84601C1.70735 1.71966 1.77572 1.6033 1.8649 1.50379C1.9622 1.41496 2.07647 1.34672 2.20082 1.3032C2.32518 1.25967 2.45705 1.24176 2.58851 1.25052V1.25655ZM2.58851 0.0444876C2.29898 0.0329192 2.01013 0.0804185 1.73954 0.18409C1.46896 0.287761 1.22232 0.445434 1.01465 0.647504C0.812516 0.857624 0.654908 1.10641 0.551287 1.37893C0.447666 1.65146 0.400166 1.94211 0.41163 2.23344V7.78119C0.39787 8.07309 0.445221 8.36464 0.550661 8.63718C0.656101 8.90972 0.817307 9.15723 1.02394 9.36386C1.23057 9.57049 1.47808 9.73169 1.75062 9.83713C2.02316 9.94257 2.3147 9.98993 2.6066 9.97617H6.18248C6.45133 9.98561 6.71938 9.94141 6.97096 9.84616C7.22255 9.75091 7.45264 9.60651 7.64783 9.4214C8.02306 9.02217 8.23194 8.4949 8.23194 7.94702C8.23194 7.39913 8.02306 6.87187 7.64783 6.47265C7.25122 6.11224 6.73021 5.91983 6.19456 5.93596H4.79555V2.23344C4.80517 1.94323 4.75679 1.654 4.65325 1.38272C4.5497 1.11143 4.39308 0.863532 4.19254 0.653531C3.98141 0.449317 3.73072 0.290472 3.4559 0.186767C3.18108 0.0830626 2.88795 0.0366916 2.59455 0.0505145L2.58851 0.0444876Z" fill="#2B2B56"/>
</svg>
