<svg width="12" height="12" viewBox="0 0 12 12" fill="none" xmlns="http://www.w3.org/2000/svg">
<path d="M6 11.25C4.775 11.25 3.69097 10.878 2.74792 10.1341C1.80486 9.39014 1.19236 8.43989 0.910419 7.28333C0.87153 7.1375 0.900696 7.00392 0.997919 6.88258C1.09514 6.76125 1.22639 6.69067 1.39167 6.67083C1.54722 6.65139 1.6882 6.68056 1.81459 6.75833C1.94097 6.83611 2.02847 6.95278 2.07709 7.10833C2.31042 7.98333 2.79167 8.69792 3.52084 9.25208C4.25 9.80625 5.07639 10.0833 6 10.0833C7.1375 10.0833 8.10253 9.68706 8.89509 8.8945C9.68764 8.10194 10.0837 7.13711 10.0833 6C10.0833 4.8625 9.68706 3.89747 8.8945 3.10492C8.10195 2.31236 7.13711 1.91628 6 1.91667C5.32917 1.91667 4.70209 2.07222 4.11875 2.38333C3.53542 2.69444 3.04445 3.12222 2.64584 3.66667H3.66667C3.83195 3.66667 3.97059 3.72267 4.08259 3.83467C4.19459 3.94667 4.25039 4.08511 4.25 4.25C4.25 4.41528 4.194 4.55392 4.082 4.66592C3.97 4.77792 3.83156 4.83372 3.66667 4.83333H1.33334C1.16806 4.83333 1.02942 4.77733 0.917419 4.66533C0.805419 4.55333 0.749613 4.41489 0.750002 4.25V1.91667C0.750002 1.75139 0.806002 1.61275 0.918002 1.50075C1.03 1.38875 1.16845 1.33294 1.33334 1.33333C1.49861 1.33333 1.63725 1.38933 1.74925 1.50133C1.86125 1.61333 1.91706 1.75178 1.91667 1.91667V2.70417C2.4125 2.08194 3.01781 1.60069 3.73259 1.26042C4.44736 0.920139 5.20317 0.75 6 0.75C6.72917 0.75 7.41225 0.888639 8.04925 1.16592C8.68625 1.44319 9.24042 1.81731 9.71175 2.28825C10.1831 2.75997 10.5574 3.31414 10.8347 3.95075C11.1119 4.58736 11.2504 5.27044 11.25 6C11.25 6.72917 11.1114 7.41225 10.8341 8.04925C10.5568 8.68625 10.1827 9.24042 9.71175 9.71175C9.24003 10.1831 8.68586 10.5574 8.04925 10.8347C7.41264 11.1119 6.72956 11.2504 6 11.25ZM6.58334 5.76667L8.04167 7.225C8.14861 7.33194 8.20209 7.46806 8.20209 7.63333C8.20209 7.79861 8.14861 7.93472 8.04167 8.04167C7.93472 8.14861 7.79861 8.20208 7.63334 8.20208C7.46806 8.20208 7.33195 8.14861 7.225 8.04167L5.59167 6.40833C5.53334 6.35 5.48959 6.28447 5.46042 6.21175C5.43125 6.13903 5.41667 6.06358 5.41667 5.98542V3.66667C5.41667 3.50139 5.47267 3.36275 5.58467 3.25075C5.69667 3.13875 5.83511 3.08294 6 3.08333C6.16528 3.08333 6.30392 3.13933 6.41592 3.25133C6.52792 3.36333 6.58372 3.50178 6.58334 3.66667V5.76667Z" fill="white"/>
</svg>
