<svg width="212" height="53" viewBox="0 0 212 53" fill="none" xmlns="http://www.w3.org/2000/svg">
<path opacity="0.35" d="M21.1895 1H1V20.9883H21.1895V1Z" fill="#7289AA" stroke="white" stroke-width="0.56254" stroke-miterlimit="10"/>
<path opacity="0.5" d="M206.992 4.43774H5.10181V49.3739H206.992V4.43774Z" fill="url(#paint0_linear_506_147294)"/>
<path d="M204.205 6.62598H7.89355V47.1856H204.205V6.62598Z" fill="#4C7BC1"/>
<path d="M203.921 6.90456V46.9017H8.17289V6.90456H203.921ZM204.484 6.34204H7.61035V47.4643H204.484V6.34204Z" fill="#F2F2F2"/>
<path d="M211.213 46.6394H205.855V52.239H211.213V46.6394Z" fill="#F2F2F2"/>
<path d="M49.7606 32.2051C49.901 32.4157 49.9712 32.6204 49.9712 32.8193C49.9712 33.0884 49.86 33.3106 49.6378 33.4861C49.4272 33.6616 49.1757 33.7493 48.8832 33.7493C48.6961 33.7493 48.5147 33.7084 48.3393 33.6265C48.1755 33.5329 48.0351 33.3984 47.9181 33.2229L45.5844 29.6784C45.3504 29.304 45.0989 29.0408 44.8298 28.8887C44.5725 28.7367 44.2332 28.6606 43.8121 28.6606H42.0925V32.5912C42.0925 32.9421 41.9931 33.2229 41.7942 33.4334C41.5953 33.6323 41.3263 33.7317 40.987 33.7317C40.6478 33.7317 40.3729 33.6323 40.1623 33.4334C39.9634 33.2229 39.864 32.9421 39.864 32.5912V22.3261C39.864 21.9869 39.9576 21.7237 40.1448 21.5365C40.3436 21.3493 40.6127 21.2557 40.9519 21.2557H45.3387C46.7425 21.2557 47.807 21.5716 48.5323 22.2033C49.2693 22.8233 49.6378 23.724 49.6378 24.9055C49.6378 25.8648 49.3629 26.6544 48.813 27.2744C48.2749 27.8827 47.5087 28.2746 46.5144 28.4501C46.8536 28.5319 47.1519 28.6782 47.4093 28.8887C47.6666 29.0993 47.9181 29.3918 48.1638 29.7661L49.7606 32.2051ZM45.0229 26.9235C45.8768 26.9235 46.5027 26.7655 46.9004 26.4497C47.2981 26.1221 47.497 25.625 47.497 24.9582C47.497 24.2797 47.2981 23.7884 46.9004 23.4842C46.5027 23.1684 45.8768 23.0105 45.0229 23.0105H42.0749V26.9235H45.0229ZM58.6625 31.2751C58.8613 31.2751 59.0193 31.3512 59.1362 31.5033C59.2649 31.6553 59.3293 31.8601 59.3293 32.1174C59.3293 32.4801 59.1128 32.7842 58.68 33.0299C58.2823 33.2521 57.8319 33.4334 57.3289 33.5738C56.8259 33.7025 56.3462 33.7668 55.89 33.7668C54.5096 33.7668 53.4159 33.3691 52.6087 32.5736C51.8015 31.7782 51.398 30.6902 51.398 29.3099C51.398 28.4325 51.5734 27.6546 51.9244 26.9761C52.2753 26.2976 52.7666 25.7712 53.3983 25.3969C54.0417 25.0225 54.767 24.8354 55.5742 24.8354C56.3462 24.8354 57.0189 25.005 57.5921 25.3442C58.1653 25.6835 58.6098 26.1631 58.9257 26.7831C59.2415 27.4031 59.3994 28.1342 59.3994 28.9765C59.3994 29.4795 59.1772 29.731 58.7327 29.731H53.5563C53.6264 30.5382 53.8546 31.1348 54.2406 31.5208C54.6266 31.8951 55.1881 32.0823 55.9251 32.0823C56.2995 32.0823 56.627 32.0355 56.9078 31.9419C57.2002 31.8484 57.5278 31.7197 57.8904 31.5559C58.2413 31.3687 58.4987 31.2751 58.6625 31.2751ZM55.6268 26.3795C55.0302 26.3795 54.5506 26.5667 54.1879 26.941C53.837 27.3153 53.6264 27.8535 53.5563 28.5553H57.5219C57.4985 27.8418 57.323 27.3036 56.9955 26.941C56.6679 26.5667 56.2117 26.3795 55.6268 26.3795ZM75.5732 26.941C75.8423 26.941 76.0587 27.0229 76.2225 27.1867C76.3863 27.3387 76.4681 27.5435 76.4681 27.8008V31.5735C76.4681 32.1116 76.398 32.4918 76.2576 32.714C76.1172 32.9363 75.8306 33.1176 75.3978 33.258C74.9298 33.4217 74.3859 33.5504 73.7659 33.644C73.1459 33.7376 72.5493 33.7844 71.9761 33.7844C70.701 33.7844 69.5955 33.5329 68.6597 33.0299C67.7238 32.5268 67.0044 31.8016 66.5014 30.854C66.0101 29.8948 65.7644 28.7542 65.7644 27.4323C65.7644 26.1338 66.0101 25.0108 66.5014 24.0633C67.0044 23.104 67.7121 22.3729 68.6246 21.8699C69.537 21.3552 70.6133 21.0978 71.8532 21.0978C73.5027 21.0978 74.8538 21.5423 75.9066 22.4314C76.047 22.5601 76.1464 22.6888 76.2049 22.8174C76.2751 22.9461 76.3102 23.0982 76.3102 23.2737C76.3102 23.531 76.24 23.7474 76.0997 23.9229C75.9593 24.0984 75.7897 24.1861 75.5908 24.1861C75.4621 24.1861 75.3451 24.1686 75.2398 24.1335C75.1346 24.0867 75.0117 24.0165 74.8714 23.9229C74.3566 23.5603 73.877 23.3088 73.4325 23.1684C72.988 23.0163 72.4849 22.9403 71.9234 22.9403C70.6483 22.9403 69.6833 23.3204 69.0282 24.0808C68.3848 24.8295 68.0631 25.9467 68.0631 27.4323C68.0631 30.4738 69.3966 31.9946 72.0638 31.9946C72.8593 31.9946 73.6548 31.8834 74.4502 31.6612V28.5553H72.4674C72.1866 28.5553 71.9644 28.4852 71.8006 28.3448C71.6485 28.2044 71.5725 28.0055 71.5725 27.7482C71.5725 27.4908 71.6485 27.292 71.8006 27.1516C71.9644 27.0112 72.1866 26.941 72.4674 26.941H75.5732ZM85.6172 31.2751C85.8161 31.2751 85.974 31.3512 86.091 31.5033C86.2196 31.6553 86.284 31.8601 86.284 32.1174C86.284 32.4801 86.0676 32.7842 85.6347 33.0299C85.237 33.2521 84.7866 33.4334 84.2836 33.5738C83.7806 33.7025 83.301 33.7668 82.8447 33.7668C81.4644 33.7668 80.3706 33.3691 79.5634 32.5736C78.7563 31.7782 78.3527 30.6902 78.3527 29.3099C78.3527 28.4325 78.5282 27.6546 78.8791 26.9761C79.23 26.2976 79.7214 25.7712 80.3531 25.3969C80.9964 25.0225 81.7217 24.8354 82.5289 24.8354C83.301 24.8354 83.9736 25.005 84.5468 25.3442C85.12 25.6835 85.5646 26.1631 85.8804 26.7831C86.1962 27.4031 86.3542 28.1342 86.3542 28.9765C86.3542 29.4795 86.1319 29.731 85.6874 29.731H80.511C80.5812 30.5382 80.8093 31.1348 81.1953 31.5208C81.5814 31.8951 82.1429 32.0823 82.8798 32.0823C83.2542 32.0823 83.5817 32.0355 83.8625 31.9419C84.1549 31.8484 84.4825 31.7197 84.8451 31.5559C85.1961 31.3687 85.4534 31.2751 85.6172 31.2751ZM82.5815 26.3795C81.9849 26.3795 81.5053 26.5667 81.1427 26.941C80.7917 27.3153 80.5812 27.8535 80.511 28.5553H84.4766C84.4532 27.8418 84.2778 27.3036 83.9502 26.941C83.6227 26.5667 83.1664 26.3795 82.5815 26.3795ZM93.1317 24.8354C94.1612 24.8354 94.9274 25.1278 95.4304 25.7127C95.9334 26.2976 96.185 27.1808 96.185 28.3623V32.6789C96.185 33.0065 96.0855 33.2638 95.8866 33.451C95.6995 33.6382 95.4363 33.7317 95.097 33.7317C94.7578 33.7317 94.4887 33.6382 94.2899 33.451C94.091 33.2638 93.9916 33.0065 93.9916 32.6789V28.4852C93.9916 27.8184 93.8629 27.3329 93.6055 27.0287C93.3599 26.7246 92.968 26.5725 92.4299 26.5725C91.7982 26.5725 91.2893 26.7714 90.9033 27.1691C90.5289 27.5669 90.3418 28.0991 90.3418 28.7659V32.6789C90.3418 33.0065 90.2423 33.2638 90.0435 33.451C89.8446 33.6382 89.5755 33.7317 89.2363 33.7317C88.897 33.7317 88.628 33.6382 88.4291 33.451C88.2419 33.2638 88.1484 33.0065 88.1484 32.6789V25.8882C88.1484 25.584 88.2478 25.3384 88.4467 25.1512C88.6455 24.964 88.9146 24.8704 89.2538 24.8704C89.558 24.8704 89.8036 24.964 89.9908 25.1512C90.1897 25.3267 90.2891 25.5606 90.2891 25.8531V26.3269C90.5816 25.8472 90.9735 25.4787 91.4648 25.2214C91.9561 24.964 92.5118 24.8354 93.1317 24.8354ZM105.203 31.2751C105.402 31.2751 105.56 31.3512 105.677 31.5033C105.806 31.6553 105.87 31.8601 105.87 32.1174C105.87 32.4801 105.654 32.7842 105.221 33.0299C104.823 33.2521 104.373 33.4334 103.87 33.5738C103.367 33.7025 102.887 33.7668 102.431 33.7668C101.051 33.7668 99.9569 33.3691 99.1497 32.5736C98.3426 31.7782 97.939 30.6902 97.939 29.3099C97.939 28.4325 98.1144 27.6546 98.4654 26.9761C98.8163 26.2976 99.3077 25.7712 99.9394 25.3969C100.583 25.0225 101.308 24.8354 102.115 24.8354C102.887 24.8354 103.56 25.005 104.133 25.3442C104.706 25.6835 105.151 26.1631 105.467 26.7831C105.783 27.4031 105.94 28.1342 105.94 28.9765C105.94 29.4795 105.718 29.731 105.274 29.731H100.097C100.167 30.5382 100.396 31.1348 100.782 31.5208C101.168 31.8951 101.729 32.0823 102.466 32.0823C102.84 32.0823 103.168 32.0355 103.449 31.9419C103.741 31.8484 104.069 31.7197 104.431 31.5559C104.782 31.3687 105.04 31.2751 105.203 31.2751ZM102.168 26.3795C101.571 26.3795 101.092 26.5667 100.729 26.941C100.378 27.3153 100.167 27.8535 100.097 28.5553H104.063C104.04 27.8418 103.864 27.3036 103.537 26.941C103.209 26.5667 102.753 26.3795 102.168 26.3795ZM112.525 24.8704C112.829 24.847 113.069 24.9114 113.244 25.0635C113.42 25.2155 113.508 25.4437 113.508 25.7478C113.508 26.0637 113.432 26.2976 113.28 26.4497C113.127 26.6018 112.853 26.7012 112.455 26.748L111.928 26.8006C111.238 26.8708 110.729 27.1048 110.402 27.5025C110.086 27.9003 109.928 28.3974 109.928 28.994V32.6789C109.928 33.0182 109.823 33.2814 109.612 33.4685C109.402 33.644 109.138 33.7317 108.823 33.7317C108.507 33.7317 108.244 33.644 108.033 33.4685C107.834 33.2814 107.735 33.0182 107.735 32.6789V25.8882C107.735 25.5606 107.834 25.3091 108.033 25.1337C108.244 24.9582 108.501 24.8704 108.805 24.8704C109.109 24.8704 109.355 24.9582 109.542 25.1337C109.729 25.2974 109.823 25.5372 109.823 25.8531V26.555C110.045 26.0403 110.373 25.6425 110.805 25.3618C111.25 25.081 111.741 24.9231 112.279 24.888L112.525 24.8704ZM118.138 24.8354C119.331 24.8354 120.214 25.1337 120.787 25.7303C121.372 26.3152 121.665 27.2101 121.665 28.415V32.6965C121.665 33.0123 121.571 33.2638 121.384 33.451C121.197 33.6265 120.939 33.7142 120.612 33.7142C120.308 33.7142 120.056 33.6206 119.857 33.4334C119.67 33.2463 119.577 33.0006 119.577 32.6965V32.3104C119.378 32.7667 119.062 33.1234 118.629 33.3808C118.208 33.6382 117.717 33.7668 117.155 33.7668C116.582 33.7668 116.061 33.6499 115.593 33.4159C115.125 33.1819 114.757 32.8602 114.488 32.4508C114.219 32.0414 114.084 31.5851 114.084 31.0821C114.084 30.4504 114.242 29.9533 114.558 29.5906C114.886 29.228 115.412 28.9648 116.137 28.801C116.863 28.6372 117.863 28.5553 119.138 28.5553H119.577V28.1518C119.577 27.5786 119.454 27.1633 119.208 26.9059C118.962 26.6369 118.565 26.5023 118.015 26.5023C117.676 26.5023 117.33 26.555 116.98 26.6603C116.629 26.7538 116.213 26.8942 115.734 27.0814C115.43 27.2335 115.207 27.3095 115.067 27.3095C114.856 27.3095 114.681 27.2335 114.54 27.0814C114.412 26.9293 114.347 26.7304 114.347 26.4848C114.347 26.2859 114.394 26.1163 114.488 25.9759C114.593 25.8238 114.763 25.6835 114.997 25.5548C115.406 25.3325 115.892 25.157 116.453 25.0284C117.026 24.8997 117.588 24.8354 118.138 24.8354ZM117.594 32.1876C118.179 32.1876 118.652 31.9946 119.015 31.6085C119.389 31.2108 119.577 30.7019 119.577 30.0819V29.7135H119.261C118.477 29.7135 117.869 29.7485 117.436 29.8187C117.003 29.8889 116.693 30.0118 116.506 30.1872C116.319 30.3627 116.225 30.6025 116.225 30.9067C116.225 31.281 116.354 31.591 116.611 31.8367C116.88 32.0706 117.208 32.1876 117.594 32.1876ZM128.351 32.0999C128.936 32.135 129.228 32.3982 129.228 32.8895C129.228 33.1702 129.111 33.3867 128.877 33.5387C128.655 33.6791 128.333 33.7376 127.912 33.7142L127.438 33.6791C125.473 33.5387 124.49 32.4859 124.49 30.5206V26.6953H123.613C123.297 26.6953 123.052 26.6252 122.876 26.4848C122.712 26.3444 122.63 26.1397 122.63 25.8706C122.63 25.6016 122.712 25.3969 122.876 25.2565C123.052 25.1161 123.297 25.0459 123.613 25.0459H124.49V23.4316C124.49 23.1157 124.59 22.8642 124.789 22.6771C124.988 22.4899 125.257 22.3963 125.596 22.3963C125.923 22.3963 126.187 22.4899 126.385 22.6771C126.584 22.8642 126.684 23.1157 126.684 23.4316V25.0459H128.175C128.491 25.0459 128.731 25.1161 128.895 25.2565C129.07 25.3969 129.158 25.6016 129.158 25.8706C129.158 26.1397 129.07 26.3444 128.895 26.4848C128.731 26.6252 128.491 26.6953 128.175 26.6953H126.684V30.6785C126.684 31.5442 127.082 32.0063 127.877 32.0648L128.351 32.0999ZM137.162 31.2751C137.361 31.2751 137.519 31.3512 137.636 31.5033C137.764 31.6553 137.829 31.8601 137.829 32.1174C137.829 32.4801 137.612 32.7842 137.179 33.0299C136.782 33.2521 136.331 33.4334 135.828 33.5738C135.325 33.7025 134.846 33.7668 134.389 33.7668C133.009 33.7668 131.915 33.3691 131.108 32.5736C130.301 31.7782 129.897 30.6902 129.897 29.3099C129.897 28.4325 130.073 27.6546 130.424 26.9761C130.775 26.2976 131.266 25.7712 131.898 25.3969C132.541 25.0225 133.266 24.8354 134.074 24.8354C134.846 24.8354 135.518 25.005 136.092 25.3442C136.665 25.6835 137.109 26.1631 137.425 26.7831C137.741 27.4031 137.899 28.1342 137.899 28.9765C137.899 29.4795 137.677 29.731 137.232 29.731H132.056C132.126 30.5382 132.354 31.1348 132.74 31.5208C133.126 31.8951 133.688 32.0823 134.425 32.0823C134.799 32.0823 135.126 32.0355 135.407 31.9419C135.7 31.8484 136.027 31.7197 136.39 31.5559C136.741 31.3687 136.998 31.2751 137.162 31.2751ZM134.126 26.3795C133.53 26.3795 133.05 26.5667 132.687 26.941C132.336 27.3153 132.126 27.8535 132.056 28.5553H136.021C135.998 27.8418 135.822 27.3036 135.495 26.941C135.167 26.5667 134.711 26.3795 134.126 26.3795ZM145.773 33.7317C145.434 33.7317 145.159 33.6323 144.948 33.4334C144.749 33.2229 144.65 32.9421 144.65 32.5912V22.3261C144.65 21.9869 144.743 21.7237 144.931 21.5365C145.129 21.3493 145.399 21.2557 145.738 21.2557H150.054C151.376 21.2557 152.406 21.5891 153.143 22.2559C153.88 22.911 154.248 23.8352 154.248 25.0284C154.248 26.2216 153.88 27.1516 153.143 27.8184C152.406 28.4852 151.376 28.8186 150.054 28.8186H146.913V32.5912C146.913 32.9421 146.808 33.2229 146.598 33.4334C146.399 33.6323 146.124 33.7317 145.773 33.7317ZM149.774 27.0814C151.329 27.0814 152.107 26.4029 152.107 25.0459C152.107 23.6889 151.329 23.0105 149.774 23.0105H146.913V27.0814H149.774ZM157.357 33.7317C157.017 33.7317 156.743 33.6265 156.532 33.4159C156.333 33.2053 156.234 32.9304 156.234 32.5912V22.291C156.234 21.9518 156.333 21.6827 156.532 21.4838C156.743 21.2733 157.017 21.168 157.357 21.168C157.708 21.168 157.983 21.2733 158.181 21.4838C158.392 21.6827 158.497 21.9518 158.497 22.291V32.5912C158.497 32.9304 158.392 33.2053 158.181 33.4159C157.983 33.6265 157.708 33.7317 157.357 33.7317ZM170.539 21.168C170.867 21.168 171.124 21.2733 171.311 21.4838C171.51 21.6827 171.609 21.9518 171.609 22.291V32.5912C171.609 32.9304 171.51 33.2053 171.311 33.4159C171.112 33.6265 170.855 33.7317 170.539 33.7317C170.165 33.7317 169.878 33.5972 169.679 33.3282L163.274 24.9933V32.5912C163.274 32.9304 163.181 33.2053 162.994 33.4159C162.807 33.6265 162.549 33.7317 162.222 33.7317C161.894 33.7317 161.637 33.6265 161.45 33.4159C161.262 33.2053 161.169 32.9304 161.169 32.5912V22.291C161.169 21.9518 161.268 21.6827 161.467 21.4838C161.666 21.2733 161.929 21.168 162.257 21.168C162.619 21.168 162.9 21.3025 163.099 21.5716L169.486 29.8714V22.291C169.486 21.9518 169.58 21.6827 169.767 21.4838C169.966 21.2733 170.223 21.168 170.539 21.168Z" fill="#F2F2F2"/>
<defs>
<linearGradient id="paint0_linear_506_147294" x1="79.4139" y1="84.0243" x2="132.685" y2="-30.2127" gradientUnits="userSpaceOnUse">
<stop stop-color="#A8F5FF"/>
<stop offset="0.52" stop-color="#C3F4F9"/>
<stop offset="1" stop-color="#DFF2F2"/>
</linearGradient>
</defs>
</svg>
