<svg width="156" height="39" viewBox="0 0 156 39" fill="none" xmlns="http://www.w3.org/2000/svg">
<path opacity="0.35" d="M15.8111 0.820068H1V15.4835H15.8111V0.820068Z" fill="#7289AA" stroke="white" stroke-width="0.412682" stroke-miterlimit="10"/>
<path opacity="0.5" d="M152.116 3.34204H4.00891V36.3073H152.116V3.34204Z" fill="url(#paint0_linear_506_147287)"/>
<path d="M150.072 4.94727H6.05762V34.702H150.072V4.94727Z" fill="#4C7BC1"/>
<path d="M149.864 5.15168V34.4937H6.26205V5.15168H149.864ZM150.277 4.73901H5.84937V34.9064H150.277V4.73901Z" fill="#F2F2F2"/>
<path d="M155.212 34.3013H151.282V38.4092H155.212V34.3013Z" fill="#F2F2F2"/>
<path d="M49.4901 23.5074C49.5931 23.6618 49.6446 23.812 49.6446 23.9579C49.6446 24.1553 49.5631 24.3183 49.4 24.4471C49.2456 24.5758 49.061 24.6402 48.8465 24.6402C48.7092 24.6402 48.5762 24.6101 48.4474 24.55C48.3273 24.4814 48.2243 24.3827 48.1385 24.254L46.4264 21.6537C46.2548 21.3791 46.0703 21.186 45.8729 21.0744C45.6841 20.9629 45.4353 20.9071 45.1263 20.9071H43.8648V23.7906C43.8648 24.048 43.7918 24.254 43.646 24.4084C43.5001 24.5543 43.3027 24.6273 43.0538 24.6273C42.8049 24.6273 42.6033 24.5543 42.4488 24.4084C42.3029 24.254 42.23 24.048 42.23 23.7906V16.2601C42.23 16.0112 42.2986 15.8181 42.4359 15.6808C42.5818 15.5435 42.7792 15.4748 43.0281 15.4748H46.2462C47.276 15.4748 48.057 15.7065 48.589 16.17C49.1297 16.6248 49.4 17.2856 49.4 18.1523C49.4 18.8561 49.1984 19.4353 48.795 19.8902C48.4002 20.3364 47.8381 20.6239 47.1087 20.7526C47.3576 20.8127 47.5764 20.92 47.7652 21.0744C47.954 21.2289 48.1385 21.4435 48.3187 21.7181L49.4901 23.5074ZM46.0145 19.6327C46.641 19.6327 47.1001 19.5168 47.3919 19.2851C47.6837 19.0449 47.8296 18.6801 47.8296 18.191C47.8296 17.6932 47.6837 17.3328 47.3919 17.1097C47.1001 16.878 46.641 16.7621 46.0145 16.7621H43.8519V19.6327H46.0145ZM56.0206 22.8251C56.1665 22.8251 56.2823 22.8809 56.3681 22.9925C56.4625 23.104 56.5097 23.2542 56.5097 23.443C56.5097 23.709 56.351 23.9322 56.0335 24.1124C55.7417 24.2754 55.4113 24.4084 55.0423 24.5114C54.6732 24.6058 54.3214 24.653 53.9867 24.653C52.9741 24.653 52.1717 24.3613 51.5795 23.7777C50.9874 23.1941 50.6913 22.396 50.6913 21.3834C50.6913 20.7397 50.82 20.1691 51.0775 19.6713C51.3349 19.1736 51.6954 18.7874 52.1588 18.5128C52.6308 18.2382 53.1629 18.1009 53.755 18.1009C54.3214 18.1009 54.8148 18.2253 55.2353 18.4742C55.6559 18.723 55.982 19.0749 56.2137 19.5297C56.4454 19.9846 56.5612 20.5209 56.5612 21.1388C56.5612 21.5078 56.3982 21.6923 56.0721 21.6923H52.2746C52.3261 22.2845 52.4935 22.7221 52.7767 23.0053C53.0599 23.2799 53.4718 23.4173 54.0124 23.4173C54.2871 23.4173 54.5274 23.3829 54.7333 23.3143C54.9479 23.2456 55.1881 23.1512 55.4542 23.0311C55.7116 22.8938 55.9004 22.8251 56.0206 22.8251ZM53.7936 19.2337C53.3559 19.2337 53.0041 19.371 52.7381 19.6456C52.4806 19.9202 52.3261 20.315 52.2746 20.8299H55.1839C55.1667 20.3064 55.038 19.9116 54.7977 19.6456C54.5574 19.371 54.2227 19.2337 53.7936 19.2337ZM65.3565 18.1009C66.043 18.1009 66.5665 18.3068 66.9269 18.7187C67.2959 19.1221 67.4804 19.7786 67.4804 20.6883V23.8549C67.4804 24.1038 67.4032 24.2969 67.2487 24.4342C67.1028 24.5629 66.9098 24.6273 66.6695 24.6273C66.4378 24.6273 66.2447 24.5629 66.0902 24.4342C65.9443 24.2969 65.8714 24.1038 65.8714 23.8549V20.6883C65.8714 20.2163 65.7855 19.8816 65.6139 19.6842C65.4509 19.4782 65.1977 19.3752 64.8544 19.3752C64.4339 19.3752 64.0992 19.5211 63.8504 19.8129C63.6015 20.0961 63.4771 20.4866 63.4771 20.9843V23.8549C63.4771 24.1038 63.3998 24.2969 63.2453 24.4342C63.0995 24.5629 62.9107 24.6273 62.679 24.6273C62.4472 24.6273 62.2542 24.5629 62.0997 24.4342C61.9452 24.2969 61.868 24.1038 61.868 23.8549V20.6883C61.868 20.2163 61.7822 19.8816 61.6105 19.6842C61.4475 19.4782 61.1943 19.3752 60.851 19.3752C60.4305 19.3752 60.0958 19.5211 59.847 19.8129C59.6067 20.0961 59.4865 20.4866 59.4865 20.9843V23.8549C59.4865 24.1038 59.4093 24.2969 59.2548 24.4342C59.1004 24.5629 58.9073 24.6273 58.6756 24.6273C58.4439 24.6273 58.2508 24.5629 58.0963 24.4342C57.9504 24.2969 57.8775 24.1038 57.8775 23.8549V18.8732C57.8775 18.6329 57.9547 18.4484 58.1092 18.3197C58.2636 18.191 58.4567 18.1266 58.6884 18.1266C58.9116 18.1266 59.0918 18.191 59.2291 18.3197C59.375 18.4398 59.4479 18.6158 59.4479 18.8475V19.1564C59.6453 18.8131 59.907 18.5514 60.2332 18.3712C60.5678 18.191 60.9497 18.1009 61.3788 18.1009C62.3228 18.1009 62.9536 18.4956 63.2711 19.2851C63.4599 18.9247 63.7388 18.6372 64.1078 18.4227C64.4768 18.2081 64.893 18.1009 65.3565 18.1009ZM71.9865 24.653C71.3428 24.653 70.7764 24.52 70.2873 24.254C69.8067 23.9879 69.4334 23.6061 69.1674 23.1083C68.9013 22.6106 68.7683 22.0313 68.7683 21.3705C68.7683 20.7097 68.9013 20.1347 69.1674 19.6456C69.4334 19.1478 69.8067 18.7659 70.2873 18.4999C70.7764 18.2339 71.3428 18.1009 71.9865 18.1009C72.6301 18.1009 73.1922 18.2339 73.6728 18.4999C74.1619 18.7659 74.5353 19.1478 74.7927 19.6456C75.0587 20.1347 75.1918 20.7097 75.1918 21.3705C75.1918 22.0313 75.0587 22.6106 74.7927 23.1083C74.5353 23.6061 74.1619 23.9879 73.6728 24.254C73.1922 24.52 72.6301 24.653 71.9865 24.653ZM71.9736 23.4044C72.4971 23.4044 72.8961 23.2327 73.1708 22.8895C73.4454 22.5462 73.5827 22.0399 73.5827 21.3705C73.5827 20.7097 73.4454 20.2077 73.1708 19.8644C72.8961 19.5126 72.5014 19.3366 71.9865 19.3366C71.4716 19.3366 71.0725 19.5126 70.7893 19.8644C70.5147 20.2077 70.3774 20.7097 70.3774 21.3705C70.3774 22.0399 70.5147 22.5462 70.7893 22.8895C71.0639 23.2327 71.4587 23.4044 71.9736 23.4044ZM80.8092 18.59C80.8778 18.4355 80.9679 18.3197 81.0795 18.2425C81.1996 18.1652 81.3283 18.1266 81.4657 18.1266C81.663 18.1266 81.839 18.1953 81.9934 18.3326C82.1565 18.4613 82.238 18.6243 82.238 18.8217C82.238 18.9247 82.2123 19.0277 82.1608 19.1307L79.7793 24.1124C79.7021 24.2754 79.5905 24.3999 79.4447 24.4857C79.3073 24.5715 79.1529 24.6144 78.9812 24.6144C78.8182 24.6144 78.6594 24.5715 78.505 24.4857C78.3591 24.3999 78.2475 24.2754 78.1703 24.1124L75.776 19.1307C75.733 19.0449 75.7116 18.9462 75.7116 18.8346C75.7116 18.6372 75.7931 18.4699 75.9562 18.3326C76.1278 18.1953 76.3209 18.1266 76.5354 18.1266C76.8444 18.1266 77.0718 18.2768 77.2177 18.5771L79.0199 22.5548L80.8092 18.59ZM88.0765 22.8251C88.2224 22.8251 88.3382 22.8809 88.424 22.9925C88.5184 23.104 88.5656 23.2542 88.5656 23.443C88.5656 23.709 88.4069 23.9322 88.0893 24.1124C87.7976 24.2754 87.4672 24.4084 87.0981 24.5114C86.7291 24.6058 86.3773 24.653 86.0426 24.653C85.0299 24.653 84.2275 24.3613 83.6354 23.7777C83.0433 23.1941 82.7472 22.396 82.7472 21.3834C82.7472 20.7397 82.8759 20.1691 83.1334 19.6713C83.3908 19.1736 83.7513 18.7874 84.2147 18.5128C84.6867 18.2382 85.2187 18.1009 85.8109 18.1009C86.3773 18.1009 86.8707 18.2253 87.2912 18.4742C87.7117 18.723 88.0378 19.0749 88.2696 19.5297C88.5013 19.9846 88.6171 20.5209 88.6171 21.1388C88.6171 21.5078 88.4541 21.6923 88.128 21.6923H84.3305C84.382 22.2845 84.5494 22.7221 84.8326 23.0053C85.1158 23.2799 85.5277 23.4173 86.0683 23.4173C86.3429 23.4173 86.5832 23.3829 86.7892 23.3143C87.0037 23.2456 87.244 23.1512 87.5101 23.0311C87.7675 22.8938 87.9563 22.8251 88.0765 22.8251ZM85.8495 19.2337C85.4118 19.2337 85.06 19.371 84.7939 19.6456C84.5365 19.9202 84.382 20.315 84.3305 20.8299H87.2397C87.2226 20.3064 87.0939 19.9116 86.8536 19.6456C86.6133 19.371 86.2786 19.2337 85.8495 19.2337ZM94.3935 24.6273C94.1446 24.6273 93.943 24.5543 93.7885 24.4084C93.6426 24.254 93.5697 24.048 93.5697 23.7906V16.2601C93.5697 16.0112 93.6383 15.8181 93.7756 15.6808C93.9215 15.5435 94.1189 15.4748 94.3678 15.4748H97.5344C98.5042 15.4748 99.2594 15.7194 99.8 16.2086C100.341 16.6892 100.611 17.3671 100.611 18.2425C100.611 19.1178 100.341 19.8 99.8 20.2892C99.2594 20.7784 98.5042 21.0229 97.5344 21.0229H95.2302V23.7906C95.2302 24.048 95.153 24.254 94.9985 24.4084C94.8526 24.5543 94.651 24.6273 94.3935 24.6273ZM97.3285 19.7486C98.4698 19.7486 99.0405 19.2508 99.0405 18.2553C99.0405 17.2598 98.4698 16.7621 97.3285 16.7621H95.2302V19.7486H97.3285ZM102.891 24.6273C102.643 24.6273 102.441 24.55 102.286 24.3956C102.141 24.2411 102.068 24.0394 102.068 23.7906V16.2343C102.068 15.9855 102.141 15.7881 102.286 15.6422C102.441 15.4877 102.643 15.4105 102.891 15.4105C103.149 15.4105 103.351 15.4877 103.496 15.6422C103.651 15.7881 103.728 15.9855 103.728 16.2343V23.7906C103.728 24.0394 103.651 24.2411 103.496 24.3956C103.351 24.55 103.149 24.6273 102.891 24.6273ZM112.562 15.4105C112.802 15.4105 112.991 15.4877 113.128 15.6422C113.274 15.7881 113.347 15.9855 113.347 16.2343V23.7906C113.347 24.0394 113.274 24.2411 113.128 24.3956C112.983 24.55 112.794 24.6273 112.562 24.6273C112.287 24.6273 112.077 24.5286 111.931 24.3312L107.233 18.2167V23.7906C107.233 24.0394 107.164 24.2411 107.027 24.3956C106.889 24.55 106.701 24.6273 106.46 24.6273C106.22 24.6273 106.031 24.55 105.894 24.3956C105.757 24.2411 105.688 24.0394 105.688 23.7906V16.2343C105.688 15.9855 105.761 15.7881 105.907 15.6422C106.053 15.4877 106.246 15.4105 106.486 15.4105C106.752 15.4105 106.958 15.5092 107.104 15.7065L111.79 21.7953V16.2343C111.79 15.9855 111.858 15.7881 111.996 15.6422C112.142 15.4877 112.33 15.4105 112.562 15.4105Z" fill="#F2F2F2"/>
<defs>
<linearGradient id="paint0_linear_506_147287" x1="58.5245" y1="61.727" x2="97.6043" y2="-22.0776" gradientUnits="userSpaceOnUse">
<stop stop-color="#A8F5FF"/>
<stop offset="0.52" stop-color="#C3F4F9"/>
<stop offset="1" stop-color="#DFF2F2"/>
</linearGradient>
</defs>
</svg>
