<svg width="86" height="77" viewBox="0 0 86 77" fill="none" xmlns="http://www.w3.org/2000/svg">
<g filter="url(#filter0_d_3358_10816)">
<path d="M83.9737 59.331V3C83.9737 1.89543 83.0782 1 81.9737 1H4.96289C3.85832 1 2.96289 1.89543 2.96289 3V71.3926C2.96289 72.4972 3.85832 73.3926 4.96289 73.3926H69.2665C69.7789 73.3926 70.2718 73.1959 70.6434 72.8432L83.3505 60.7816C83.7484 60.4039 83.9737 59.8795 83.9737 59.331Z" fill="#FFF380"/>
<path d="M83.9737 59.331V3C83.9737 1.89543 83.0782 1 81.9737 1H4.96289C3.85832 1 2.96289 1.89543 2.96289 3V71.3926C2.96289 72.4972 3.85832 73.3926 4.96289 73.3926H69.2665C69.7789 73.3926 70.2718 73.1959 70.6434 72.8432L83.3505 60.7816C83.7484 60.4039 83.9737 59.8795 83.9737 59.331Z" stroke="white"/>
</g>
<path d="M84.186 65.6064L74.5113 74.9033L70.8296 74.8128L84.1872 61.9768L84.186 65.6064Z" fill="white"/>
<defs>
<filter id="filter0_d_3358_10816" x="0.462891" y="0.5" width="84.0107" height="75.3945" filterUnits="userSpaceOnUse" color-interpolation-filters="sRGB">
<feFlood flood-opacity="0" result="BackgroundImageFix"/>
<feColorMatrix in="SourceAlpha" type="matrix" values="0 0 0 0 0 0 0 0 0 0 0 0 0 0 0 0 0 0 127 0" result="hardAlpha"/>
<feOffset dx="-2" dy="2"/>
<feComposite in2="hardAlpha" operator="out"/>
<feColorMatrix type="matrix" values="0 0 0 0 1 0 0 0 0 0.952941 0 0 0 0 0.501961 0 0 0 1 0"/>
<feBlend mode="normal" in2="BackgroundImageFix" result="effect1_dropShadow_3358_10816"/>
<feBlend mode="normal" in="SourceGraphic" in2="effect1_dropShadow_3358_10816" result="shape"/>
</filter>
</defs>
</svg>
