<svg width="362" height="10" viewBox="0 0 362 10" fill="none" xmlns="http://www.w3.org/2000/svg">
<line x1="0.75" y1="-0.75" x2="9.25" y2="-0.75" transform="matrix(-4.37115e-08 -1 -1 4.37115e-08 0 10)" stroke="#D5DDEB" stroke-opacity="0.4" stroke-width="1.5" stroke-linecap="round"/>
<line x1="0.75" y1="-0.75" x2="9.25" y2="-0.75" transform="matrix(-4.37115e-08 -1 -1 4.37115e-08 40 10)" stroke="#D5DDEB" stroke-opacity="0.4" stroke-width="1.5" stroke-linecap="round"/>
<line x1="0.75" y1="-0.75" x2="5.25" y2="-0.75" transform="matrix(-4.37115e-08 -1 -1 4.37115e-08 8 6)" stroke="#D5DDEB" stroke-opacity="0.4" stroke-width="1.5" stroke-linecap="round"/>
<line x1="0.75" y1="-0.75" x2="5.25" y2="-0.75" transform="matrix(-4.37115e-08 -1 -1 4.37115e-08 16 6)" stroke="#D5DDEB" stroke-opacity="0.4" stroke-width="1.5" stroke-linecap="round"/>
<line x1="0.75" y1="-0.75" x2="5.25" y2="-0.75" transform="matrix(-4.37115e-08 -1 -1 4.37115e-08 24 6)" stroke="#D5DDEB" stroke-opacity="0.4" stroke-width="1.5" stroke-linecap="round"/>
<line x1="0.75" y1="-0.75" x2="5.25" y2="-0.75" transform="matrix(-4.37115e-08 -1 -1 4.37115e-08 32 6)" stroke="#D5DDEB" stroke-opacity="0.4" stroke-width="1.5" stroke-linecap="round"/>
<line x1="0.75" y1="-0.75" x2="9.25" y2="-0.75" transform="matrix(-4.37115e-08 -1 -1 4.37115e-08 80 10)" stroke="#D5DDEB" stroke-opacity="0.4" stroke-width="1.5" stroke-linecap="round"/>
<line x1="0.75" y1="-0.75" x2="5.25" y2="-0.75" transform="matrix(-4.37115e-08 -1 -1 4.37115e-08 48 6)" stroke="#D5DDEB" stroke-opacity="0.4" stroke-width="1.5" stroke-linecap="round"/>
<line x1="0.75" y1="-0.75" x2="5.25" y2="-0.75" transform="matrix(-4.37115e-08 -1 -1 4.37115e-08 56 6)" stroke="#D5DDEB" stroke-opacity="0.4" stroke-width="1.5" stroke-linecap="round"/>
<line x1="0.75" y1="-0.75" x2="5.25" y2="-0.75" transform="matrix(-4.37115e-08 -1 -1 4.37115e-08 64 6)" stroke="#D5DDEB" stroke-opacity="0.4" stroke-width="1.5" stroke-linecap="round"/>
<line x1="0.75" y1="-0.75" x2="5.25" y2="-0.75" transform="matrix(-4.37115e-08 -1 -1 4.37115e-08 72 6)" stroke="#D5DDEB" stroke-opacity="0.4" stroke-width="1.5" stroke-linecap="round"/>
<line x1="0.75" y1="-0.75" x2="9.25" y2="-0.75" transform="matrix(-4.37115e-08 -1 -1 4.37115e-08 120 10)" stroke="#D5DDEB" stroke-opacity="0.4" stroke-width="1.5" stroke-linecap="round"/>
<line x1="0.75" y1="-0.75" x2="5.25" y2="-0.75" transform="matrix(-4.37115e-08 -1 -1 4.37115e-08 88 6)" stroke="#D5DDEB" stroke-opacity="0.4" stroke-width="1.5" stroke-linecap="round"/>
<line x1="0.75" y1="-0.75" x2="5.25" y2="-0.75" transform="matrix(-4.37115e-08 -1 -1 4.37115e-08 96 6)" stroke="#D5DDEB" stroke-opacity="0.4" stroke-width="1.5" stroke-linecap="round"/>
<line x1="0.75" y1="-0.75" x2="5.25" y2="-0.75" transform="matrix(-4.37115e-08 -1 -1 4.37115e-08 104 6)" stroke="#D5DDEB" stroke-opacity="0.4" stroke-width="1.5" stroke-linecap="round"/>
<line x1="0.75" y1="-0.75" x2="5.25" y2="-0.75" transform="matrix(-4.37115e-08 -1 -1 4.37115e-08 112 6)" stroke="#D5DDEB" stroke-opacity="0.4" stroke-width="1.5" stroke-linecap="round"/>
<line x1="0.75" y1="-0.75" x2="9.25" y2="-0.75" transform="matrix(-4.37115e-08 -1 -1 4.37115e-08 160 10)" stroke="#D5DDEB" stroke-opacity="0.4" stroke-width="1.5" stroke-linecap="round"/>
<line x1="0.75" y1="-0.75" x2="5.25" y2="-0.75" transform="matrix(-4.37115e-08 -1 -1 4.37115e-08 128 6)" stroke="#D5DDEB" stroke-opacity="0.4" stroke-width="1.5" stroke-linecap="round"/>
<line x1="0.75" y1="-0.75" x2="5.25" y2="-0.75" transform="matrix(-4.37115e-08 -1 -1 4.37115e-08 136 6)" stroke="#D5DDEB" stroke-opacity="0.4" stroke-width="1.5" stroke-linecap="round"/>
<line x1="0.75" y1="-0.75" x2="5.25" y2="-0.75" transform="matrix(-4.37115e-08 -1 -1 4.37115e-08 144 6)" stroke="#D5DDEB" stroke-opacity="0.4" stroke-width="1.5" stroke-linecap="round"/>
<line x1="0.75" y1="-0.75" x2="5.25" y2="-0.75" transform="matrix(-4.37115e-08 -1 -1 4.37115e-08 152 6)" stroke="#D5DDEB" stroke-opacity="0.4" stroke-width="1.5" stroke-linecap="round"/>
<line x1="0.75" y1="-0.75" x2="9.25" y2="-0.75" transform="matrix(-4.37115e-08 -1 -1 4.37115e-08 200 10)" stroke="#D5DDEB" stroke-opacity="0.4" stroke-width="1.5" stroke-linecap="round"/>
<line x1="0.75" y1="-0.75" x2="5.25" y2="-0.75" transform="matrix(-4.37115e-08 -1 -1 4.37115e-08 168 6)" stroke="#D5DDEB" stroke-opacity="0.4" stroke-width="1.5" stroke-linecap="round"/>
<line x1="0.75" y1="-0.75" x2="5.25" y2="-0.75" transform="matrix(-4.37115e-08 -1 -1 4.37115e-08 176 6)" stroke="#D5DDEB" stroke-opacity="0.4" stroke-width="1.5" stroke-linecap="round"/>
<line x1="0.75" y1="-0.75" x2="5.25" y2="-0.75" transform="matrix(-4.37115e-08 -1 -1 4.37115e-08 184 6)" stroke="#D5DDEB" stroke-opacity="0.4" stroke-width="1.5" stroke-linecap="round"/>
<line x1="0.75" y1="-0.75" x2="5.25" y2="-0.75" transform="matrix(-4.37115e-08 -1 -1 4.37115e-08 192 6)" stroke="#D5DDEB" stroke-opacity="0.4" stroke-width="1.5" stroke-linecap="round"/>
<line x1="0.75" y1="-0.75" x2="9.25" y2="-0.75" transform="matrix(-4.37115e-08 -1 -1 4.37115e-08 240 10)" stroke="#D5DDEB" stroke-opacity="0.4" stroke-width="1.5" stroke-linecap="round"/>
<line x1="0.75" y1="-0.75" x2="5.25" y2="-0.75" transform="matrix(-4.37115e-08 -1 -1 4.37115e-08 208 6)" stroke="#D5DDEB" stroke-opacity="0.4" stroke-width="1.5" stroke-linecap="round"/>
<line x1="0.75" y1="-0.75" x2="5.25" y2="-0.75" transform="matrix(-4.37115e-08 -1 -1 4.37115e-08 216 6)" stroke="#D5DDEB" stroke-opacity="0.4" stroke-width="1.5" stroke-linecap="round"/>
<line x1="0.75" y1="-0.75" x2="5.25" y2="-0.75" transform="matrix(-4.37115e-08 -1 -1 4.37115e-08 224 6)" stroke="#D5DDEB" stroke-opacity="0.4" stroke-width="1.5" stroke-linecap="round"/>
<line x1="0.75" y1="-0.75" x2="5.25" y2="-0.75" transform="matrix(-4.37115e-08 -1 -1 4.37115e-08 232 6)" stroke="#D5DDEB" stroke-opacity="0.4" stroke-width="1.5" stroke-linecap="round"/>
<line x1="0.75" y1="-0.75" x2="9.25" y2="-0.75" transform="matrix(-4.37115e-08 -1 -1 4.37115e-08 280 10)" stroke="#D5DDEB" stroke-opacity="0.4" stroke-width="1.5" stroke-linecap="round"/>
<line x1="0.75" y1="-0.75" x2="5.25" y2="-0.75" transform="matrix(-4.37115e-08 -1 -1 4.37115e-08 248 6)" stroke="#D5DDEB" stroke-opacity="0.4" stroke-width="1.5" stroke-linecap="round"/>
<line x1="0.75" y1="-0.75" x2="5.25" y2="-0.75" transform="matrix(-4.37115e-08 -1 -1 4.37115e-08 256 6)" stroke="#D5DDEB" stroke-opacity="0.4" stroke-width="1.5" stroke-linecap="round"/>
<line x1="0.75" y1="-0.75" x2="5.25" y2="-0.75" transform="matrix(-4.37115e-08 -1 -1 4.37115e-08 264 6)" stroke="#D5DDEB" stroke-opacity="0.4" stroke-width="1.5" stroke-linecap="round"/>
<line x1="0.75" y1="-0.75" x2="5.25" y2="-0.75" transform="matrix(-4.37115e-08 -1 -1 4.37115e-08 272 6)" stroke="#D5DDEB" stroke-opacity="0.4" stroke-width="1.5" stroke-linecap="round"/>
<line x1="0.75" y1="-0.75" x2="9.25" y2="-0.75" transform="matrix(-4.37115e-08 -1 -1 4.37115e-08 320 10)" stroke="#D5DDEB" stroke-opacity="0.4" stroke-width="1.5" stroke-linecap="round"/>
<line x1="0.75" y1="-0.75" x2="5.25" y2="-0.75" transform="matrix(-4.37115e-08 -1 -1 4.37115e-08 288 6)" stroke="#D5DDEB" stroke-opacity="0.4" stroke-width="1.5" stroke-linecap="round"/>
<line x1="0.75" y1="-0.75" x2="5.25" y2="-0.75" transform="matrix(-4.37115e-08 -1 -1 4.37115e-08 296 6)" stroke="#D5DDEB" stroke-opacity="0.4" stroke-width="1.5" stroke-linecap="round"/>
<line x1="0.75" y1="-0.75" x2="5.25" y2="-0.75" transform="matrix(-4.37115e-08 -1 -1 4.37115e-08 304 6)" stroke="#D5DDEB" stroke-opacity="0.4" stroke-width="1.5" stroke-linecap="round"/>
<line x1="0.75" y1="-0.75" x2="5.25" y2="-0.75" transform="matrix(-4.37115e-08 -1 -1 4.37115e-08 312 6)" stroke="#D5DDEB" stroke-opacity="0.4" stroke-width="1.5" stroke-linecap="round"/>
<line x1="0.75" y1="-0.75" x2="9.25" y2="-0.75" transform="matrix(-4.37115e-08 -1 -1 4.37115e-08 360 10)" stroke="#D5DDEB" stroke-opacity="0.4" stroke-width="1.5" stroke-linecap="round"/>
<line x1="0.75" y1="-0.75" x2="5.25" y2="-0.75" transform="matrix(-4.37115e-08 -1 -1 4.37115e-08 328 6)" stroke="#D5DDEB" stroke-opacity="0.4" stroke-width="1.5" stroke-linecap="round"/>
<line x1="0.75" y1="-0.75" x2="5.25" y2="-0.75" transform="matrix(-4.37115e-08 -1 -1 4.37115e-08 336 6)" stroke="#D5DDEB" stroke-opacity="0.4" stroke-width="1.5" stroke-linecap="round"/>
<line x1="0.75" y1="-0.75" x2="5.25" y2="-0.75" transform="matrix(-4.37115e-08 -1 -1 4.37115e-08 344 6)" stroke="#D5DDEB" stroke-opacity="0.4" stroke-width="1.5" stroke-linecap="round"/>
<line x1="0.75" y1="-0.75" x2="5.25" y2="-0.75" transform="matrix(-4.37115e-08 -1 -1 4.37115e-08 352 6)" stroke="#D5DDEB" stroke-opacity="0.4" stroke-width="1.5" stroke-linecap="round"/>
</svg>
