<svg width="29" height="33" viewBox="0 0 29 33" fill="none" xmlns="http://www.w3.org/2000/svg">
<path fill-rule="evenodd" clip-rule="evenodd" d="M7.26559 6.87213L3.21185 5.79989C3.12386 5.77639 3.04774 5.71519 3.00044 5.62974C2.95313 5.54432 2.93814 5.44151 2.9591 5.34379L3.25249 3.95672C3.26275 3.90782 3.28162 3.86167 3.30813 3.82091C3.33467 3.7802 3.36815 3.74562 3.40676 3.71926C3.44516 3.69284 3.48824 3.67529 3.53298 3.6674C3.57771 3.6595 3.62334 3.66146 3.6672 3.67323L8.62989 4.99074C8.69847 5.00937 8.7602 5.05086 8.80673 5.10957C8.85327 5.16832 8.88235 5.24151 8.89011 5.31927L9.14161 8.06088L26.5775 11.3634C26.6407 11.3753 26.7009 11.4018 26.7542 11.4411C26.8075 11.4805 26.8528 11.5318 26.8869 11.5918C26.9211 11.6518 26.9435 11.7191 26.9527 11.7894C26.9619 11.8597 26.9575 11.9313 26.9401 11.9997L23.578 25.2763C23.5569 25.3596 23.5108 25.4324 23.4472 25.4828C23.3838 25.5332 23.3067 25.5581 23.2287 25.5534L7.99507 24.458C7.35555 24.4099 6.95925 23.6282 7.29205 23.0193L7.3369 22.9449C7.44045 22.7991 7.50472 22.7386 7.6427 22.6606C7.78065 22.5827 7.93465 22.5465 8.08907 22.5558L21.983 23.5781C22.055 23.5824 22.1265 23.5614 22.1872 23.5182C22.248 23.4748 22.2949 23.4115 22.3213 23.3371L22.5118 22.8019C22.5251 22.7646 22.5302 22.7244 22.5268 22.6845C22.5233 22.6446 22.5113 22.6062 22.4918 22.5725C22.4722 22.5389 22.4458 22.5108 22.4145 22.4907C22.3833 22.4705 22.3482 22.4589 22.312 22.4568L9.21587 21.6796C9.10715 21.673 9.00424 21.6236 8.92563 21.5404C8.84702 21.4572 8.79776 21.3456 8.7868 21.2257L7.77246 9.88244L7.52013 7.20161C7.51305 7.12445 7.48493 7.05159 7.43943 6.99271C7.39394 6.93383 7.33329 6.89179 7.26559 6.87213ZM21.7825 20.3227L23.23 20.3963L25.0795 13.143L22.9846 12.6564L21.7825 20.3227ZM11.628 19.6392L10.1664 19.563L9.56073 10.1531L11.1277 10.3615L11.628 19.6392ZM15.9658 19.9373L17.3106 20.0068L18.1084 11.6858L15.993 11.3231L15.9658 19.9373ZM21.7074 12.4205L19.6 12.0594L18.8195 20.127L20.2709 20.2013L21.7074 12.4205ZM14.6196 10.9577L12.4992 10.5941L13.0059 19.7445L14.3539 19.8146L14.6196 10.9577Z" fill="white"/>
<path d="M3.11276 3.26693L7.4049 4.45651C7.42869 4.46309 7.44344 4.48951 7.43778 4.51547L6.94681 6.78457C6.94113 6.81051 6.91724 6.82617 6.89345 6.81959L2.60132 5.63005C2.57771 5.62354 2.56296 5.59712 2.56845 5.57109L3.05941 3.30199C3.06507 3.27603 3.08898 3.26032 3.11276 3.26693Z" fill="white"/>
<path d="M18.9785 29.5077C18.134 29.1451 17.7034 28.1045 18.0168 27.1833C18.3302 26.2619 19.2689 25.809 20.1134 26.1716C20.958 26.5342 21.3885 27.575 21.0751 28.4963C20.7617 29.4175 19.8231 29.8703 18.9785 29.5077Z" fill="white"/>
<path d="M9.12012 29.2382C8.27558 28.8756 7.84506 27.8349 8.15851 26.9135C8.47188 25.9923 9.41048 25.5395 10.255 25.9021C11.0995 26.2646 11.5301 27.3053 11.2168 28.2265C10.9033 29.1479 9.96464 29.6007 9.12012 29.2382Z" fill="white"/>
</svg>
