<svg width="264" height="260" viewBox="0 0 264 260" fill="none" xmlns="http://www.w3.org/2000/svg">
<g filter="url(#filter0_f_3024_264452)">
<path d="M123.22 66.7377C124.851 60.8855 133.149 60.8855 134.78 66.7377L135.683 69.9785C136.984 74.6481 142.999 75.9266 146.088 72.1901L148.231 69.5969C152.101 64.914 159.681 68.2888 158.791 74.2985L158.298 77.6265C157.588 82.4217 162.562 86.0362 166.903 83.8788L169.916 82.3815C175.357 79.6777 180.909 85.8439 177.651 90.9718L175.847 93.8116C173.248 97.9033 176.322 103.229 181.165 103.024L184.527 102.881C190.597 102.624 193.161 110.515 188.099 113.875L185.296 115.735C181.257 118.416 181.9 124.532 186.408 126.314L189.536 127.551C195.186 129.785 194.319 138.037 188.328 139.047L185.011 139.607C180.231 140.413 178.33 146.261 181.723 149.723L184.079 152.126C188.331 156.464 184.182 163.65 178.299 162.137L175.041 161.298C170.346 160.091 166.231 164.66 167.923 169.203L169.097 172.356C171.217 178.049 164.505 182.926 159.745 179.15L157.11 177.059C153.312 174.047 147.694 176.548 147.392 181.386L147.183 184.744C146.804 190.807 138.688 192.532 135.876 187.147L134.319 184.165C132.075 179.868 125.925 179.868 123.681 184.165L122.124 187.147C119.312 192.532 111.196 190.807 110.817 184.744L110.608 181.386C110.306 176.548 104.688 174.047 100.89 177.059L98.2546 179.15C93.4952 182.926 86.7825 178.049 88.9028 172.356L90.077 169.203C91.7688 164.66 87.6541 160.091 82.9594 161.298L79.7012 162.137C73.8175 163.65 69.6688 156.464 73.9215 152.126L76.2765 149.723C79.6697 146.261 77.7695 140.413 72.9895 139.607L69.672 139.047C63.6814 138.037 62.8141 129.785 68.4637 127.551L71.5924 126.314C76.1003 124.532 76.7431 118.416 72.7042 115.735L69.9011 113.875C64.8394 110.515 67.4034 102.624 73.4732 102.881L76.8345 103.024C81.6777 103.229 84.7524 97.9033 82.153 93.8116L80.349 90.9718C77.0914 85.8438 82.6434 79.6777 88.0838 82.3815L91.0966 83.8788C95.4375 86.0362 100.412 82.4217 99.7021 77.6265L99.2091 74.2985C98.3188 68.2888 105.899 64.914 109.769 69.5969L111.912 72.1901C115.001 75.9266 121.016 74.6481 122.317 69.9785L123.22 66.7377Z" fill="#FFCF24" fill-opacity="0.3" style="mix-blend-mode:color-dodge"/>
</g>
<g filter="url(#filter1_d_3024_264452)">
<path d="M128.999 44.5332L137.984 84.7317L162.542 51.6628L154.399 92.0403L190.284 71.8189L166.423 105.394L207.43 101.516L171.975 122.483L211.014 135.62L170.097 140.353L200.418 168.233L161.113 155.915L177.472 193.717L146.576 166.477L146.145 207.665L128.999 170.213L111.854 207.665L111.423 166.477L80.5266 193.717L96.8862 155.915L57.581 168.233L87.9017 140.353L46.9844 135.62L86.0235 122.483L50.5688 101.516L91.5762 105.394L67.7146 71.8189L103.6 92.0403L95.4571 51.6628L120.015 84.7317L128.999 44.5332Z" fill="#FFE794" fill-opacity="0.5" style="mix-blend-mode:color-dodge" shape-rendering="crispEdges"/>
</g>
<defs>
<filter id="filter0_f_3024_264452" x="48.6682" y="46.3477" width="160.664" height="160.029" filterUnits="userSpaceOnUse" color-interpolation-filters="sRGB">
<feFlood flood-opacity="0" result="BackgroundImageFix"/>
<feBlend mode="normal" in="SourceGraphic" in2="BackgroundImageFix" result="shape"/>
<feGaussianBlur stdDeviation="8" result="effect1_foregroundBlur_3024_264452"/>
</filter>
<filter id="filter1_d_3024_264452" x="37.9844" y="35.5332" width="182.03" height="181.131" filterUnits="userSpaceOnUse" color-interpolation-filters="sRGB">
<feFlood flood-opacity="0" result="BackgroundImageFix"/>
<feColorMatrix in="SourceAlpha" type="matrix" values="0 0 0 0 0 0 0 0 0 0 0 0 0 0 0 0 0 0 127 0" result="hardAlpha"/>
<feOffset/>
<feGaussianBlur stdDeviation="4.5"/>
<feComposite in2="hardAlpha" operator="out"/>
<feColorMatrix type="matrix" values="0 0 0 0 1 0 0 0 0 0.952941 0 0 0 0 0.501961 0 0 0 0.64 0"/>
<feBlend mode="normal" in2="BackgroundImageFix" result="effect1_dropShadow_3024_264452"/>
<feBlend mode="normal" in="SourceGraphic" in2="effect1_dropShadow_3024_264452" result="shape"/>
</filter>
</defs>
</svg>
