<svg width="23" height="22" viewBox="0 0 23 22" fill="none" xmlns="http://www.w3.org/2000/svg">
<path fill-rule="evenodd" clip-rule="evenodd" d="M7.85439 4.16143L4.96566 3.4152C4.90296 3.39884 4.84885 3.35534 4.81537 3.29427C4.78188 3.23322 4.77152 3.15949 4.78677 3.08922L5.00047 2.09169C5.00794 2.05652 5.02155 2.02328 5.04059 1.99386C5.05966 1.96448 5.08365 1.93946 5.11128 1.92031C5.13876 1.90112 5.16955 1.88827 5.2015 1.88234C5.23344 1.87641 5.26598 1.87755 5.29723 1.88575L8.83367 2.80278C8.88254 2.81575 8.92645 2.84518 8.95946 2.88706C8.99248 2.92897 9.013 2.98135 9.01829 3.03713L9.18907 5.00396L21.6181 7.2736C21.6632 7.28177 21.7061 7.30042 21.744 7.32834C21.7819 7.35628 21.814 7.39288 21.8382 7.43575C21.8624 7.47863 21.8782 7.52684 21.8845 7.57726C21.8908 7.62764 21.8875 7.67911 21.8748 7.72831L19.4343 17.2796C19.4189 17.3395 19.3858 17.392 19.3403 17.4286C19.2949 17.4651 19.2398 17.4834 19.1842 17.4805L8.31934 16.7826C7.86323 16.7518 7.58295 16.1929 7.82231 15.7538L7.85454 15.7002C7.92888 15.5949 7.97493 15.5511 8.07361 15.4943C8.17228 15.4376 8.28226 15.4107 8.3924 15.4164L18.3017 16.0696C18.353 16.0723 18.4041 16.0568 18.4476 16.0254C18.491 15.994 18.5247 15.9482 18.5438 15.8946L18.6814 15.5093C18.691 15.4825 18.6948 15.4535 18.6925 15.4249C18.6901 15.3963 18.6817 15.3688 18.6678 15.3447C18.654 15.3207 18.6352 15.3007 18.613 15.2864C18.5908 15.2721 18.5658 15.264 18.54 15.2627L9.19907 14.7809C9.12153 14.7767 9.04826 14.7419 8.99244 14.6826C8.93662 14.6234 8.90183 14.5435 8.89439 14.4575L8.20651 6.31968L8.03495 4.39649C8.03014 4.34114 8.0103 4.28899 7.97803 4.24699C7.94576 4.20498 7.90263 4.17515 7.85439 4.16143ZM18.1883 13.7748L19.221 13.8217L20.5454 8.63365L19.0512 8.2943L18.1883 13.7748ZM10.9323 13.2806L9.88931 13.2319L9.46425 6.50657L10.5824 6.64947L10.9323 13.2806ZM14.0325 13.4989L14.9921 13.5434L15.5671 7.59335L14.0579 7.34229L14.0325 13.4989ZM18.1372 8.11797L16.6338 7.86807L16.0715 13.6349L17.1071 13.6823L18.1372 8.11797ZM13.0758 7.07341L11.5629 6.82165L11.9177 13.3612L12.8796 13.406L13.0758 7.07341Z" fill="white"/>
<path d="M4.86294 1.58888L7.92068 2.4193C7.93762 2.42389 7.94804 2.44279 7.94389 2.46147L7.58402 4.09449C7.57985 4.11316 7.56274 4.12454 7.54579 4.11995L4.48807 3.28956C4.47125 3.28502 4.46083 3.26612 4.46486 3.24738L4.82473 1.61437C4.82888 1.59569 4.846 1.58426 4.86294 1.58888Z" fill="white"/>
</svg>
