<svg width="184" height="182" viewBox="0 0 184 182" fill="none" xmlns="http://www.w3.org/2000/svg">
<g filter="url(#filter0_d_3024_225826)">
<path d="M91.9992 9.53516L100.984 49.7336L125.541 16.6648L117.399 57.0422L153.284 36.8209L129.422 70.3956L170.43 66.5183L134.975 87.485L174.014 100.622L133.097 105.355L163.418 133.235L124.112 120.917L140.472 158.719L109.575 131.479L109.145 172.667L91.9992 135.215L74.8534 172.667L74.4231 131.479L43.5265 158.719L59.886 120.917L20.5809 133.235L50.9016 105.355L9.98423 100.622L49.0234 87.485L13.5687 66.5183L54.576 70.3956L30.7145 36.8209L66.5995 57.0422L58.457 16.6648L83.0148 49.7336L91.9992 9.53516Z" fill="#FFE794" fill-opacity="0.5" style="mix-blend-mode:color-dodge" shape-rendering="crispEdges"/>
</g>
<defs>
<filter id="filter0_d_3024_225826" x="0.984131" y="0.535156" width="182.03" height="181.133" filterUnits="userSpaceOnUse" color-interpolation-filters="sRGB">
<feFlood flood-opacity="0" result="BackgroundImageFix"/>
<feColorMatrix in="SourceAlpha" type="matrix" values="0 0 0 0 0 0 0 0 0 0 0 0 0 0 0 0 0 0 127 0" result="hardAlpha"/>
<feOffset/>
<feGaussianBlur stdDeviation="4.5"/>
<feComposite in2="hardAlpha" operator="out"/>
<feColorMatrix type="matrix" values="0 0 0 0 1 0 0 0 0 0.952941 0 0 0 0 0.501961 0 0 0 0.64 0"/>
<feBlend mode="normal" in2="BackgroundImageFix" result="effect1_dropShadow_3024_225826"/>
<feBlend mode="normal" in="SourceGraphic" in2="effect1_dropShadow_3024_225826" result="shape"/>
</filter>
</defs>
</svg>
