<svg width="162" height="161" viewBox="0 0 162 161" fill="none" xmlns="http://www.w3.org/2000/svg">
<g filter="url(#filter0_f_3024_225825)">
<path d="M75.2203 20.7377C76.8513 14.8855 85.1487 14.8855 86.7797 20.7377L87.683 23.9785C88.9844 28.6481 94.9993 29.9266 98.0875 26.1901L100.231 23.5969C104.101 18.914 111.681 22.2888 110.791 28.2985L110.298 31.6265C109.588 36.4217 114.562 40.0362 118.903 37.8788L121.916 36.3815C127.357 33.6777 132.909 39.8439 129.651 44.9718L127.847 47.8116C125.248 51.9033 128.322 57.2288 133.165 57.0235L136.527 56.8811C142.597 56.6239 145.161 64.5151 140.099 67.8748L137.296 69.7353C133.257 72.416 133.9 78.5316 138.408 80.314L141.536 81.5511C147.186 83.7849 146.319 92.0368 140.328 93.0472L137.011 93.6067C132.231 94.4129 130.33 100.261 133.723 103.723L136.079 106.126C140.331 110.464 136.182 117.65 130.299 116.137L127.041 115.298C122.346 114.091 118.231 118.66 119.923 123.203L121.097 126.356C123.217 132.049 116.505 136.926 111.745 133.15L109.11 131.059C105.312 128.047 99.6945 130.548 99.3923 135.386L99.1827 138.744C98.804 144.807 90.688 146.532 87.8758 141.147L86.3185 138.165C84.0747 133.868 77.9253 133.868 75.6815 138.165L74.1242 141.147C71.312 146.532 63.196 144.807 62.8173 138.744L62.6077 135.386C62.3055 130.548 56.6878 128.047 52.8903 131.059L50.2546 133.15C45.4952 136.926 38.7825 132.049 40.9028 126.356L42.077 123.203C43.7688 118.66 39.6541 114.091 34.9594 115.298L31.7012 116.137C25.8175 117.65 21.6688 110.464 25.9215 106.126L28.2765 103.723C31.6697 100.261 29.7695 94.4129 24.9895 93.6067L21.672 93.0472C15.6814 92.0368 14.8141 83.7849 20.4637 81.5511L23.5924 80.314C28.1003 78.5316 28.7431 72.416 24.7042 69.7353L21.9011 67.8748C16.8394 64.5151 19.4034 56.6239 25.4732 56.8811L28.8345 57.0235C33.6777 57.2288 36.7524 51.9033 34.153 47.8116L32.349 44.9718C29.0914 39.8438 34.6434 33.6777 40.0838 36.3815L43.0966 37.8788C47.4375 40.0362 52.4125 36.4217 51.7021 31.6265L51.2091 28.2985C50.3188 22.2888 57.8988 18.914 61.7692 23.5969L63.9125 26.1901C67.0007 29.9266 73.0156 28.6481 74.317 23.9785L75.2203 20.7377Z" fill="#FFCF24" fill-opacity="0.3" style="mix-blend-mode:color-dodge"/>
</g>
<defs>
<filter id="filter0_f_3024_225825" x="0.668213" y="0.347656" width="160.664" height="160.027" filterUnits="userSpaceOnUse" color-interpolation-filters="sRGB">
<feFlood flood-opacity="0" result="BackgroundImageFix"/>
<feBlend mode="normal" in="SourceGraphic" in2="BackgroundImageFix" result="shape"/>
<feGaussianBlur stdDeviation="8" result="effect1_foregroundBlur_3024_225825"/>
</filter>
</defs>
</svg>
