<svg width="19" height="17" viewBox="0 0 19 17" fill="none" xmlns="http://www.w3.org/2000/svg">
<path d="M9.5 0.266663L0 4.7L2.53333 5.84V7.99333C1.77333 8.24666 1.26667 9.00666 1.26667 9.76666C1.26667 10.5267 1.77333 11.2867 2.53333 11.54V11.6667L1.39333 14.3267C1.01333 15.4667 1.26667 16.7333 3.16667 16.7333C5.06667 16.7333 5.32 15.4667 4.94 14.3267L3.8 11.6667C4.56 11.2867 5.06667 10.6533 5.06667 9.76666C5.06667 8.88 4.56 8.24666 3.8 7.99333V6.47333L9.5 9.13333L19 4.7L9.5 0.266663ZM15.0733 8.5L9.37333 11.0333L6.33333 9.64V9.76666C6.33333 10.6533 5.95333 11.4133 5.32 12.0467L6.08 13.82V13.9467C6.20667 14.4533 6.33333 14.96 6.20667 15.4667C7.09333 15.8467 8.10667 16.1 9.37333 16.1C13.5533 16.1 15.0733 13.5667 15.0733 12.3V8.5V8.5Z" fill="#3B69BC"/>
</svg>
