<svg width="11" height="12" viewBox="0 0 11 12" fill="none" xmlns="http://www.w3.org/2000/svg">
<path d="M8.87586 2.16613C9.07232 2.16088 9.26508 2.22019 9.42461 2.33497C9.50023 2.38976 9.56422 2.45901 9.61287 2.53872C9.66152 2.61842 9.69386 2.707 9.70803 2.7993C9.74601 3.02828 9.70789 3.2634 9.59949 3.46865L7.00651 9.16715C6.92382 9.3815 6.78412 9.56916 6.6025 9.70986C6.40812 9.83219 6.18056 9.89118 5.95123 9.87871C5.72011 9.89009 5.49096 9.83123 5.29394 9.70986C5.10653 9.57068 4.96061 9.38305 4.87184 9.16715L2.30299 3.46865C2.19458 3.2634 2.15646 3.02828 2.19445 2.7993C2.23241 2.61188 2.34019 2.4459 2.49596 2.33497C2.67373 2.21565 2.88508 2.15647 3.09897 2.16613C3.33424 2.14845 3.56789 2.21704 3.75626 2.35909C3.92082 2.51966 4.05019 2.71269 4.13616 2.92593L6.01153 7.27368L7.88692 2.91386C7.97113 2.69995 8.10312 2.50813 8.27284 2.35306C8.44803 2.22654 8.65983 2.16088 8.87586 2.16613ZM8.87586 0.960096C8.36615 0.942479 7.86722 1.1095 7.47084 1.43045C7.15403 1.70585 6.90794 2.05327 6.75325 2.44351L5.98139 4.25256L5.20953 2.47366C5.05833 2.09442 4.82331 1.75428 4.52208 1.47869C4.11545 1.13987 3.5977 0.963708 3.06881 0.984212C2.61294 0.976963 2.16613 1.11185 1.79042 1.37014C1.38344 1.6561 1.10261 2.08816 1.0065 2.57618C0.911711 3.06021 0.977338 3.56196 1.19344 4.00533L3.77435 9.69177C3.94976 10.1116 4.24033 10.4733 4.61253 10.735C5.00958 10.9952 5.4767 11.1277 5.95123 11.1149C6.42685 11.1295 6.89508 10.9945 7.28993 10.729C7.65946 10.4623 7.94591 10.0964 8.11607 9.67368L10.697 3.9993C10.9076 3.56296 10.9771 3.07191 10.896 2.59427C10.8074 2.11095 10.5378 1.67961 10.1422 1.38823C9.77502 1.1199 9.3306 0.97811 8.87586 0.984212V0.960096Z" fill="#2B2B56"/>
</svg>
