<svg width="66" height="62" viewBox="0 0 66 62" fill="none" xmlns="http://www.w3.org/2000/svg">
<path d="M1.22487 1.22487H57.2195L64.7751 9.28177V60.7751H1.22487V1.22487Z" fill="white" stroke="url(#paint0_linear_3134_245436)" stroke-width="2.44974"/>
<path d="M10.9854 13.8826L15.1248 9.18359H50.8707L55.0101 13.8826V27.6108H52.5643H51.5248L47.6727 23.6785H42.781L39.2868 18.4355H27.9316L24.4374 23.6785H18.3228L14.4706 27.6108H13.4312H10.9854V13.8826Z" fill="#02253F"/>
<path d="M10.9854 30.9013L13.4081 47.4432H52.5874L55.0101 30.9013H52.5643H50.3019L46.4497 26.969H42.781L39.1123 33.5228H28.1061L24.4374 26.969H19.5457L15.6936 30.9013H13.4312H10.9854Z" fill="#02253F"/>
<path d="M29.5752 20.7109L26.8848 24.5241V26.4306L29.5752 31.1971H37.6464L40.3368 26.4306V24.5241L37.6464 20.7109H29.5752Z" fill="#132C51"/>
<path d="M50.4424 49.6973H54.0419L55.011 43.9844H57.7106L56.7415 52.8135H50.4424V49.6973Z" fill="#132C51"/>
<path d="M51.4126 49.6973H11.9018L10.9327 43.9844H8.28771L9.25681 52.8135H51.4126V49.6973Z" fill="#132C51"/>
<defs>
<linearGradient id="paint0_linear_3134_245436" x1="33" y1="0" x2="33" y2="62" gradientUnits="userSpaceOnUse">
<stop stop-color="#E5F0F8"/>
<stop offset="1" stop-color="#2C6BCA"/>
</linearGradient>
</defs>
</svg>
