<svg width="349" height="231" viewBox="0 0 349 231" fill="none" xmlns="http://www.w3.org/2000/svg">
<g filter="url(#filter0_d_898_36792)">
<path fill-rule="evenodd" clip-rule="evenodd" d="M180.674 16.7561C166.912 16.7561 155.756 27.9122 155.756 41.674C155.756 55.4357 166.912 66.5918 180.674 66.5918C194.436 66.5918 205.592 55.4357 205.592 41.674C205.592 37.0469 209.343 33.2959 213.97 33.2959C218.597 33.2959 222.348 37.0469 222.348 41.674C222.348 64.6899 203.69 83.3479 180.674 83.3479C157.658 83.3479 139 64.6899 139 41.674C139 18.6581 157.658 0 180.674 0C185.301 0 189.052 3.75098 189.052 8.37806C189.052 13.0051 185.301 16.7561 180.674 16.7561Z" fill="#FFCF24"/>
<path d="M191.985 42.2122C191.688 48.4597 186.383 53.2838 180.135 52.987C173.888 52.6902 169.064 47.385 169.361 41.1375C169.657 34.89 174.963 30.066 181.21 30.3628C187.458 30.6595 192.282 35.9647 191.985 42.2122Z" fill="#2C6BCA"/>
</g>
<g filter="url(#filter1_d_898_36792)">
<path d="M143.629 117.732C141.829 117.732 140.245 117.384 138.877 116.688C137.509 115.968 136.453 114.96 135.709 113.664C134.965 112.368 134.593 110.88 134.593 109.2V100.488C134.593 98.7843 134.965 97.2963 135.709 96.0243C136.453 94.7283 137.509 93.7323 138.877 93.0363C140.245 92.3163 141.829 91.9563 143.629 91.9563C145.405 91.9563 146.965 92.3043 148.309 93.0003C149.677 93.6963 150.733 94.6443 151.477 95.8443C152.221 97.0443 152.593 98.4003 152.593 99.9123V100.2C152.593 100.32 152.545 100.428 152.449 100.524C152.377 100.596 152.281 100.632 152.161 100.632H148.885C148.765 100.632 148.657 100.596 148.561 100.524C148.489 100.428 148.453 100.32 148.453 100.2V100.02C148.453 98.7243 148.009 97.6563 147.121 96.8163C146.257 95.9763 145.093 95.5563 143.629 95.5563C142.165 95.5563 140.989 96.0003 140.101 96.8883C139.213 97.7523 138.769 98.9043 138.769 100.344V109.344C138.769 110.784 139.237 111.948 140.173 112.836C141.109 113.7 142.321 114.132 143.809 114.132C145.249 114.132 146.377 113.76 147.193 113.016C148.033 112.248 148.453 111.204 148.453 109.884V107.652C148.453 107.532 148.393 107.472 148.273 107.472H143.845C143.725 107.472 143.617 107.436 143.521 107.364C143.449 107.268 143.413 107.16 143.413 107.04V104.376C143.413 104.256 143.449 104.16 143.521 104.088C143.617 103.992 143.725 103.944 143.845 103.944H152.161C152.281 103.944 152.377 103.992 152.449 104.088C152.545 104.16 152.593 104.256 152.593 104.376V108.984C152.593 111.744 151.777 113.892 150.145 115.428C148.537 116.964 146.365 117.732 143.629 117.732ZM164.664 117.732C162.768 117.732 161.136 117.252 159.768 116.292C158.424 115.332 157.476 114 156.924 112.296C156.516 111 156.312 109.632 156.312 108.192C156.312 106.656 156.504 105.288 156.888 104.088C157.44 102.408 158.4 101.1 159.768 100.164C161.136 99.2283 162.78 98.7603 164.7 98.7603C166.524 98.7603 168.096 99.2283 169.416 100.164C170.76 101.1 171.708 102.396 172.26 104.052C172.692 105.204 172.908 106.572 172.908 108.156C172.908 109.668 172.704 111.036 172.296 112.26C171.744 113.964 170.796 115.308 169.452 116.292C168.108 117.252 166.512 117.732 164.664 117.732ZM164.664 114.132C165.552 114.132 166.308 113.88 166.932 113.376C167.58 112.872 168.048 112.164 168.336 111.252C168.576 110.46 168.696 109.452 168.696 108.228C168.696 106.932 168.576 105.924 168.336 105.204C168.072 104.292 167.616 103.596 166.968 103.116C166.32 102.612 165.528 102.36 164.592 102.36C163.704 102.36 162.936 102.612 162.288 103.116C161.64 103.596 161.172 104.292 160.884 105.204C160.644 106.044 160.524 107.052 160.524 108.228C160.524 109.404 160.644 110.412 160.884 111.252C161.148 112.164 161.604 112.872 162.252 113.376C162.924 113.88 163.728 114.132 164.664 114.132ZM185.676 117.732C183.876 117.732 182.292 117.384 180.924 116.688C179.556 115.968 178.5 114.96 177.756 113.664C177.012 112.368 176.64 110.88 176.64 109.2V100.488C176.64 98.7843 177.012 97.2963 177.756 96.0243C178.5 94.7283 179.556 93.7323 180.924 93.0363C182.292 92.3163 183.876 91.9563 185.676 91.9563C187.452 91.9563 189.012 92.3043 190.356 93.0003C191.724 93.6963 192.78 94.6443 193.524 95.8443C194.268 97.0443 194.64 98.4003 194.64 99.9123V100.2C194.64 100.32 194.592 100.428 194.496 100.524C194.424 100.596 194.328 100.632 194.208 100.632H190.932C190.812 100.632 190.704 100.596 190.608 100.524C190.536 100.428 190.5 100.32 190.5 100.2V100.02C190.5 98.7243 190.056 97.6563 189.168 96.8163C188.304 95.9763 187.14 95.5563 185.676 95.5563C184.212 95.5563 183.036 96.0003 182.148 96.8883C181.26 97.7523 180.816 98.9043 180.816 100.344V109.344C180.816 110.784 181.284 111.948 182.22 112.836C183.156 113.7 184.368 114.132 185.856 114.132C187.296 114.132 188.424 113.76 189.24 113.016C190.08 112.248 190.5 111.204 190.5 109.884V107.652C190.5 107.532 190.44 107.472 190.32 107.472H185.892C185.772 107.472 185.664 107.436 185.568 107.364C185.496 107.268 185.46 107.16 185.46 107.04V104.376C185.46 104.256 185.496 104.16 185.568 104.088C185.664 103.992 185.772 103.944 185.892 103.944H194.208C194.328 103.944 194.424 103.992 194.496 104.088C194.592 104.16 194.64 104.256 194.64 104.376V108.984C194.64 111.744 193.824 113.892 192.192 115.428C190.584 116.964 188.412 117.732 185.676 117.732ZM214.415 106.176C214.511 106.776 214.559 107.448 214.559 108.192L214.523 109.308C214.523 109.596 214.379 109.74 214.091 109.74H202.823C202.703 109.74 202.643 109.8 202.643 109.92C202.715 110.712 202.823 111.252 202.967 111.54C203.543 113.268 204.947 114.144 207.179 114.168C208.811 114.168 210.107 113.496 211.067 112.152C211.163 112.008 211.283 111.936 211.427 111.936C211.523 111.936 211.607 111.972 211.679 112.044L213.911 113.88C214.127 114.048 214.163 114.24 214.019 114.456C213.275 115.512 212.279 116.328 211.031 116.904C209.807 117.48 208.439 117.768 206.927 117.768C205.055 117.768 203.459 117.348 202.139 116.508C200.843 115.668 199.895 114.492 199.295 112.98C198.743 111.684 198.467 109.884 198.467 107.58C198.467 106.188 198.611 105.06 198.899 104.196C199.379 102.516 200.279 101.196 201.599 100.236C202.943 99.2523 204.551 98.7603 206.423 98.7603C211.151 98.7603 213.815 101.232 214.415 106.176ZM206.423 102.36C205.535 102.36 204.791 102.588 204.191 103.044C203.615 103.476 203.207 104.088 202.967 104.88C202.823 105.288 202.727 105.816 202.679 106.464C202.631 106.584 202.679 106.644 202.823 106.644H210.131C210.251 106.644 210.311 106.584 210.311 106.464C210.263 105.864 210.191 105.408 210.095 105.096C209.879 104.232 209.447 103.56 208.799 103.08C208.175 102.6 207.383 102.36 206.423 102.36ZM227.78 102C227.78 102.12 227.732 102.228 227.636 102.324C227.564 102.396 227.468 102.432 227.348 102.432H223.676C223.556 102.432 223.496 102.492 223.496 102.612V111.288C223.496 112.2 223.688 112.86 224.072 113.268C224.48 113.676 225.116 113.88 225.98 113.88H227.06C227.18 113.88 227.276 113.928 227.348 114.024C227.444 114.096 227.492 114.192 227.492 114.312V117.012C227.492 117.276 227.348 117.432 227.06 117.48L225.188 117.516C223.292 117.516 221.876 117.192 220.94 116.544C220.004 115.896 219.524 114.672 219.5 112.872V102.612C219.5 102.492 219.44 102.432 219.32 102.432H217.268C217.148 102.432 217.04 102.396 216.944 102.324C216.872 102.228 216.836 102.12 216.836 102V99.4803C216.836 99.3603 216.872 99.2643 216.944 99.1923C217.04 99.0963 217.148 99.0483 217.268 99.0483H219.32C219.44 99.0483 219.5 98.9883 219.5 98.8683V94.6563C219.5 94.5363 219.536 94.4403 219.608 94.3683C219.704 94.2723 219.812 94.2243 219.932 94.2243H223.064C223.184 94.2243 223.28 94.2723 223.352 94.3683C223.448 94.4403 223.496 94.5363 223.496 94.6563V98.8683C223.496 98.9883 223.556 99.0483 223.676 99.0483H227.348C227.468 99.0483 227.564 99.0963 227.636 99.1923C227.732 99.2643 227.78 99.3603 227.78 99.4803V102Z" fill="#FFCF24"/>
</g>
<g filter="url(#filter2_d_898_36792)">
<path d="M20.7057 151H349V161.277L340.865 218.536H20.7057L12.0916 204.589L20.7057 151Z" fill="#EAFFFF"/>
<path d="M20.7057 151H349V161.277L340.865 218.536H20.7057L12.0916 204.589L20.7057 151Z" fill="url(#paint0_linear_898_36792)" fill-opacity="0.2"/>
</g>
<g filter="url(#filter3_i_898_36792)">
<path d="M23.659 159.711L16.6246 196.471C16.4172 197.555 16.5743 198.678 17.0714 199.663L23.0497 211.513C23.8998 213.198 25.6264 214.261 27.5138 214.261H330.846C333.191 214.261 335.221 212.631 335.727 210.341L343.986 173.026C344.268 171.75 344.04 170.415 343.35 169.305L336.327 158.01C335.415 156.543 333.809 155.65 332.081 155.65H28.5699C26.1709 155.65 24.1099 157.354 23.659 159.711Z" fill="white"/>
</g>
<path d="M23.659 159.711L16.6246 196.471C16.4172 197.555 16.5743 198.678 17.0714 199.663L23.0497 211.513C23.8998 213.198 25.6264 214.261 27.5138 214.261H330.846C333.191 214.261 335.221 212.631 335.727 210.341L343.986 173.026C344.268 171.75 344.04 170.415 343.35 169.305L336.327 158.01C335.415 156.543 333.809 155.65 332.081 155.65H28.5699C26.1709 155.65 24.1099 157.354 23.659 159.711Z" stroke="white" stroke-width="2"/>
<mask id="mask0_898_36792" style="mask-type:alpha" maskUnits="userSpaceOnUse" x="12" y="151" width="337" height="68">
<path d="M20.3883 155.549C20.7921 153.14 22.8771 151.375 25.3195 151.375L343.731 151.375C346.493 151.375 348.731 153.614 348.731 156.375V161.999L341.328 214.238C340.979 216.703 338.868 218.536 336.378 218.536H17C14.2386 218.536 12 216.298 12 213.536V206.006C12 205.729 12.023 205.453 12.0688 205.18L20.3883 155.549Z" fill="url(#paint1_linear_898_36792)" fill-opacity="0.7"/>
</mask>
<g mask="url(#mask0_898_36792)">
<g style="mix-blend-mode:overlay" opacity="0.1">
<path d="M332.194 150.543L343.468 153.31L347.387 169.353L340.277 182.827L329.146 180.449L325.084 164.016L332.194 150.543Z" fill="#02243F" stroke="#8CB9FF"/>
<path d="M316.119 130.642L327.393 133.408L331.313 149.452L324.203 162.925L313.071 160.548L309.009 144.115L316.119 130.642Z" fill="#02243F" stroke="#8CB9FF"/>
<path d="M309.411 193.716L320.685 196.483L324.605 212.526L317.495 226L306.363 223.622L302.302 207.189L309.411 193.716Z" fill="#02243F" stroke="#8CB9FF"/>
<path d="M293.337 173.814L304.611 176.581L308.53 192.624L301.42 206.098L290.289 203.72L286.227 187.287L293.337 173.814Z" fill="#02243F" stroke="#8CB9FF"/>
<path d="M273.167 185.517L284.44 188.283L288.36 204.327L281.25 217.8L270.119 215.423L266.057 198.99L273.167 185.517Z" fill="#02243F" stroke="#8CB9FF"/>
<path d="M289.159 205.998L300.433 208.764L304.352 224.808L297.242 238.281L286.111 235.904L282.049 219.471L289.159 205.998Z" fill="#02243F" stroke="#8CB9FF"/>
<path d="M348.269 170.445L359.542 173.211L363.462 189.255L356.352 202.728L345.221 200.351L341.159 183.918L348.269 170.445Z" fill="#02243F" stroke="#8CB9FF"/>
<path d="M325.486 213.618L336.76 216.384L340.68 232.428L333.57 245.901L322.438 243.524L318.376 227.091L325.486 213.618Z" fill="#02243F" stroke="#8CB9FF"/>
<path d="M344.928 202.084L356.202 204.851L360.121 220.894L353.011 234.368L341.88 231.99L337.818 215.557L344.928 202.084Z" fill="#02243F" stroke="#8CB9FF"/>
<path d="M312.716 162.204L323.99 164.97L327.91 181.014L320.8 194.487L309.668 192.11L305.606 175.677L312.716 162.204Z" fill="#02243F" stroke="#8CB9FF"/>
<path d="M335.491 119.046L346.765 121.813L350.684 137.857L343.574 151.33L332.443 148.953L328.381 132.52L335.491 119.046Z" fill="#02243F" stroke="#8CB9FF"/>
<path d="M328.772 182.081L340.046 184.848L343.966 200.892L336.856 214.365L325.724 211.988L321.662 195.555L328.772 182.081Z" fill="#02243F" stroke="#8CB9FF"/>
<path d="M351.547 138.924L362.821 141.691L366.74 157.735L359.63 171.208L348.499 168.831L344.437 152.397L351.547 138.924Z" fill="#02243F" stroke="#8CB9FF"/>
<path d="M296.561 142.202L307.834 144.969L311.754 161.013L304.644 174.486L293.513 172.109L289.451 155.675L296.561 142.202Z" fill="#02243F" stroke="#8CB9FF"/>
</g>
</g>
<mask id="mask1_898_36792" style="mask-type:alpha" maskUnits="userSpaceOnUse" x="12" y="151" width="337" height="56">
<path d="M20.2266 155.253C20.7295 152.958 22.7617 151.323 25.1106 151.323L343.731 151.323C346.493 151.323 348.731 153.562 348.731 156.323V159.693C348.731 159.976 348.707 160.258 348.659 160.537L341.431 202.77C341.02 205.171 338.938 206.926 336.502 206.926H17C14.2386 206.926 12 204.688 12 201.926V193.324C12 192.964 12.0389 192.605 12.116 192.253L20.2266 155.253Z" fill="url(#paint2_linear_898_36792)" fill-opacity="0.7"/>
</mask>
<g mask="url(#mask1_898_36792)">
<g style="mix-blend-mode:overlay" opacity="0.2">
<path d="M45.7003 129.563L51.5664 128.875C53.4255 128.656 55.3457 129.785 56.4123 131.724L59.6766 137.656C60.5336 139.213 60.7123 141.069 60.1543 142.617L57.2267 150.742C56.6741 152.276 55.4684 153.315 53.9961 153.526L48.2993 154.343C46.4205 154.613 44.4558 153.491 43.3659 151.527L39.9603 145.388C39.0942 143.827 38.9114 141.963 39.4718 140.407L42.3714 132.36C42.9371 130.79 44.1858 129.741 45.7003 129.563Z" fill="#02243F" stroke="#8CB9FF"/>
<path d="M30.6383 171.366L36.5044 170.677C38.3635 170.459 40.2837 171.588 41.3503 173.526L44.6146 179.458C45.4716 181.016 45.6503 182.871 45.0923 184.42L42.1647 192.545C41.6121 194.078 40.4064 195.117 38.9341 195.329L33.2373 196.146C31.3585 196.415 29.3938 195.294 28.3039 193.329L24.8983 187.191C24.0322 185.63 23.8494 183.765 24.4098 182.21L27.3094 174.162C27.8751 172.592 29.1237 171.543 30.6383 171.366Z" fill="#02243F" stroke="#8CB9FF"/>
<path d="M11.8387 160.472L17.7049 159.784C19.5639 159.566 21.4842 160.694 22.5507 162.633L25.815 168.565C26.672 170.123 26.8507 171.978 26.2928 173.526L23.3651 181.651C22.8125 183.185 21.6068 184.224 20.1346 184.435L14.4377 185.253C12.559 185.522 10.5942 184.4 9.50437 182.436L6.09872 176.297C5.23266 174.736 5.0498 172.872 5.61021 171.317L8.50987 163.269C9.07553 161.699 10.3242 160.65 11.8387 160.472Z" fill="#02243F" stroke="#8CB9FF"/>
<path d="M-5.79971 176.214L0.06644 175.525C1.92549 175.307 3.84573 176.436 4.91227 178.374L8.17659 184.307C9.03362 185.864 9.21228 187.72 8.65434 189.268L5.72671 197.393C5.17406 198.927 3.96841 199.966 2.49614 200.177L-3.20072 200.994C-5.07948 201.264 -7.0442 200.142 -8.13406 198.178L-11.5397 192.039C-12.4058 190.478 -12.5886 188.614 -12.0282 187.058L-9.12856 179.011C-8.56289 177.441 -7.31424 176.392 -5.79971 176.214Z" fill="#02243F" stroke="#8CB9FF"/>
<path d="M13.0145 187.598L18.8806 186.909C20.7397 186.691 22.6599 187.82 23.7265 189.758L26.9908 195.69C27.8478 197.248 28.0265 199.103 27.4685 200.652L24.5409 208.777C23.9883 210.311 22.7826 211.35 21.3103 211.561L15.6135 212.378C13.7347 212.648 11.77 211.526 10.6801 209.561L7.2745 203.423C6.40844 201.862 6.22558 199.997 6.786 198.442L9.68565 190.395C10.2513 188.825 11.5 187.776 13.0145 187.598Z" fill="#02243F" stroke="#8CB9FF"/>
<path d="M64.5001 140.457L70.3662 139.768C72.2253 139.55 74.1455 140.679 75.2121 142.617L78.4764 148.549C79.3334 150.107 79.5121 151.962 78.9541 153.511L76.0265 161.636C75.4739 163.169 74.2682 164.208 72.7959 164.42L67.0991 165.237C65.2203 165.506 63.2556 164.385 62.1657 162.42L58.7601 156.282C57.894 154.721 57.7112 152.856 58.2716 151.301L61.1712 143.253C61.7369 141.683 62.9856 140.634 64.5001 140.457Z" fill="#02243F" stroke="#8CB9FF"/>
<path d="M49.4378 182.259L55.304 181.57C57.163 181.352 59.0833 182.481 60.1498 184.419L63.4141 190.352C64.2712 191.909 64.4498 193.764 63.8919 195.313L60.9643 203.438C60.4116 204.972 59.206 206.011 57.7337 206.222L52.0368 207.039C50.1581 207.309 48.1933 206.187 47.1035 204.222L43.6978 198.084C42.8318 196.523 42.6489 194.658 43.2093 193.103L46.109 185.056C46.6747 183.486 47.9233 182.437 49.4378 182.259Z" fill="#02243F" stroke="#8CB9FF"/>
<path d="M83.2997 151.35L89.1658 150.661C91.0249 150.443 92.9451 151.572 94.0116 153.51L97.276 159.443C98.133 161 98.3116 162.855 97.7537 164.404L94.8261 172.529C94.2734 174.063 93.0678 175.102 91.5955 175.313L85.8986 176.13C84.0199 176.4 82.0552 175.278 80.9653 173.313L77.5597 167.175C76.6936 165.614 76.5107 163.749 77.0712 162.194L79.9708 154.147C80.5365 152.577 81.7851 151.528 83.2997 151.35Z" fill="#02243F" stroke="#8CB9FF"/>
<path d="M68.2374 193.152L74.1035 192.463C75.9626 192.245 77.8828 193.374 78.9494 195.312L82.2137 201.244C83.0707 202.802 83.2494 204.657 82.6914 206.206L79.7638 214.331C79.2112 215.865 78.0055 216.904 76.5332 217.115L70.8364 217.932C68.9576 218.201 66.9929 217.08 65.903 215.115L62.4974 208.977C61.6313 207.416 61.4485 205.551 62.0089 203.996L64.9086 195.949C65.4742 194.379 66.7229 193.33 68.2374 193.152Z" fill="#02243F" stroke="#8CB9FF"/>
<path d="M66.398 166.882L72.2642 166.193C74.1232 165.975 76.0435 167.104 77.11 169.042L80.3743 174.975C81.2314 176.532 81.41 178.387 80.8521 179.936L77.9245 188.061C77.3718 189.595 76.1662 190.634 74.6939 190.845L68.997 191.662C67.1183 191.932 65.1536 190.81 64.0637 188.845L60.658 182.707C59.792 181.146 59.6091 179.281 60.1695 177.726L63.0692 169.679C63.6349 168.109 64.8835 167.06 66.398 166.882Z" fill="#02243F" stroke="#8CB9FF"/>
<path d="M81.4549 125.094L87.3211 124.406C89.1801 124.187 91.1004 125.316 92.1669 127.255L95.4312 133.187C96.2883 134.744 96.4669 136.6 95.909 138.148L92.9813 146.273C92.4287 147.807 91.223 148.846 89.7508 149.057L84.0539 149.874C82.1752 150.144 80.2104 149.022 79.1206 147.058L75.7149 140.919C74.8489 139.358 74.666 137.494 75.2264 135.938L78.1261 127.891C78.6917 126.321 79.9404 125.272 81.4549 125.094Z" fill="#02243F" stroke="#8CB9FF"/>
<path d="M100.184 135.946L106.05 135.258C107.909 135.04 109.829 136.168 110.896 138.107L114.16 144.039C115.017 145.597 115.196 147.452 114.638 149L111.71 157.125C111.158 158.659 109.952 159.698 108.48 159.909L102.783 160.727C100.904 160.996 98.9394 159.874 97.8496 157.91L94.4439 151.771C93.5779 150.21 93.395 148.346 93.9554 146.791L96.8551 138.743C97.4207 137.173 98.6694 136.124 100.184 135.946Z" fill="#02243F" stroke="#8CB9FF"/>
<path d="M28.7264 145.053L34.5926 144.365C36.4516 144.146 38.3719 145.275 39.4384 147.214L42.7027 153.146C43.5597 154.703 43.7384 156.559 43.1805 158.107L40.2528 166.232C39.7002 167.766 38.4945 168.805 37.0223 169.016L31.3254 169.833C29.4466 170.103 27.4819 168.981 26.3921 167.017L22.9864 160.878C22.1204 159.317 21.9375 157.453 22.4979 155.897L25.3976 147.85C25.9632 146.28 27.2119 145.231 28.7264 145.053Z" fill="#02243F" stroke="#8CB9FF"/>
<path d="M47.5038 155.934L53.3699 155.245C55.229 155.027 57.1492 156.156 58.2157 158.094L61.4801 164.026C62.3371 165.584 62.5157 167.439 61.9578 168.988L59.0302 177.113C58.4775 178.646 57.2719 179.685 55.7996 179.897L50.1027 180.714C48.224 180.983 46.2593 179.862 45.1694 177.897L41.7638 171.759C40.8977 170.198 40.7148 168.333 41.2753 166.778L44.1749 158.73C44.7406 157.16 45.9892 156.111 47.5038 155.934Z" fill="#02243F" stroke="#8CB9FF"/>
<path d="M9.83188 134.106L15.698 133.417C17.5571 133.199 19.4773 134.328 20.5439 136.266L23.8082 142.198C24.6652 143.756 24.8439 145.611 24.2859 147.159L21.3583 155.285C20.8057 156.818 19.6 157.857 18.1277 158.068L12.4309 158.886C10.5521 159.155 8.58739 158.033 7.49753 156.069L4.09188 149.93C3.22583 148.369 3.04297 146.505 3.60338 144.95L6.50304 136.902C7.0687 135.332 8.31735 134.283 9.83188 134.106Z" fill="#02243F" stroke="#8CB9FF"/>
</g>
</g>
<defs>
<filter id="filter0_d_898_36792" x="135" y="0" width="91.3479" height="91.3479" filterUnits="userSpaceOnUse" color-interpolation-filters="sRGB">
<feFlood flood-opacity="0" result="BackgroundImageFix"/>
<feColorMatrix in="SourceAlpha" type="matrix" values="0 0 0 0 0 0 0 0 0 0 0 0 0 0 0 0 0 0 127 0" result="hardAlpha"/>
<feOffset dy="4"/>
<feGaussianBlur stdDeviation="2"/>
<feComposite in2="hardAlpha" operator="out"/>
<feColorMatrix type="matrix" values="0 0 0 0 0 0 0 0 0 0 0 0 0 0 0 0 0 0 0.25 0"/>
<feBlend mode="normal" in2="BackgroundImageFix" result="effect1_dropShadow_898_36792"/>
<feBlend mode="normal" in="SourceGraphic" in2="effect1_dropShadow_898_36792" result="shape"/>
</filter>
<filter id="filter1_d_898_36792" x="130.593" y="91.9563" width="101.187" height="33.812" filterUnits="userSpaceOnUse" color-interpolation-filters="sRGB">
<feFlood flood-opacity="0" result="BackgroundImageFix"/>
<feColorMatrix in="SourceAlpha" type="matrix" values="0 0 0 0 0 0 0 0 0 0 0 0 0 0 0 0 0 0 127 0" result="hardAlpha"/>
<feOffset dy="4"/>
<feGaussianBlur stdDeviation="2"/>
<feComposite in2="hardAlpha" operator="out"/>
<feColorMatrix type="matrix" values="0 0 0 0 0 0 0 0 0 0 0 0 0 0 0 0 0 0 0.25 0"/>
<feBlend mode="normal" in2="BackgroundImageFix" result="effect1_dropShadow_898_36792"/>
<feBlend mode="normal" in="SourceGraphic" in2="effect1_dropShadow_898_36792" result="shape"/>
</filter>
<filter id="filter2_d_898_36792" x="0.0915527" y="151" width="348.909" height="79.5361" filterUnits="userSpaceOnUse" color-interpolation-filters="sRGB">
<feFlood flood-opacity="0" result="BackgroundImageFix"/>
<feColorMatrix in="SourceAlpha" type="matrix" values="0 0 0 0 0 0 0 0 0 0 0 0 0 0 0 0 0 0 127 0" result="hardAlpha"/>
<feOffset dx="-6" dy="6"/>
<feGaussianBlur stdDeviation="3"/>
<feComposite in2="hardAlpha" operator="out"/>
<feColorMatrix type="matrix" values="0 0 0 0 0.113725 0 0 0 0 0.121569 0 0 0 0 0.364706 0 0 0 0.6 0"/>
<feBlend mode="normal" in2="BackgroundImageFix" result="effect1_dropShadow_898_36792"/>
<feBlend mode="normal" in="SourceGraphic" in2="effect1_dropShadow_898_36792" result="shape"/>
</filter>
<filter id="filter3_i_898_36792" x="9.5354" y="154.65" width="335.569" height="66.6106" filterUnits="userSpaceOnUse" color-interpolation-filters="sRGB">
<feFlood flood-opacity="0" result="BackgroundImageFix"/>
<feBlend mode="normal" in="SourceGraphic" in2="BackgroundImageFix" result="shape"/>
<feColorMatrix in="SourceAlpha" type="matrix" values="0 0 0 0 0 0 0 0 0 0 0 0 0 0 0 0 0 0 127 0" result="hardAlpha"/>
<feOffset dx="-6" dy="6"/>
<feGaussianBlur stdDeviation="3"/>
<feComposite in2="hardAlpha" operator="arithmetic" k2="-1" k3="1"/>
<feColorMatrix type="matrix" values="0 0 0 0 0.117647 0 0 0 0 0.290196 0 0 0 0 0.568627 0 0 0 0.6 0"/>
<feBlend mode="normal" in2="shape" result="effect1_innerShadow_898_36792"/>
</filter>
<linearGradient id="paint0_linear_898_36792" x1="180.546" y1="151" x2="180.546" y2="218.536" gradientUnits="userSpaceOnUse">
<stop stop-opacity="0"/>
<stop offset="1" stop-color="#4C5D73"/>
</linearGradient>
<linearGradient id="paint1_linear_898_36792" x1="343.709" y1="223.906" x2="262.79" y2="154.935" gradientUnits="userSpaceOnUse">
<stop stop-color="#184885"/>
<stop offset="1" stop-color="#184885" stop-opacity="0"/>
</linearGradient>
<linearGradient id="paint2_linear_898_36792" x1="42.7374" y1="148.568" x2="103.271" y2="191.207" gradientUnits="userSpaceOnUse">
<stop stop-color="#184885"/>
<stop offset="1" stop-color="#184885" stop-opacity="0"/>
</linearGradient>
</defs>
</svg>
