<svg width="629" height="100" viewBox="0 0 629 100" fill="none" xmlns="http://www.w3.org/2000/svg">
<g filter="url(#filter0_i_608_812)">
<path d="M22.1013 35.0864L8.92902 75.1413C8.37945 76.8124 8.74854 78.6494 9.90093 79.9786L21.7367 93.6302C22.6864 94.7256 24.0648 95.3549 25.5146 95.3549H599.644C601.719 95.3549 603.579 94.0724 604.317 92.1323L619.768 51.5072C620.489 49.6104 619.993 47.4657 618.511 46.079L604.533 32.9977C603.607 32.1308 602.385 31.6484 601.117 31.6484H26.8511C24.6915 31.6484 22.776 33.0349 22.1013 35.0864Z" fill="white"/>
</g>
<path d="M22.1013 35.0864L8.92902 75.1413C8.37945 76.8124 8.74854 78.6494 9.90093 79.9786L21.7367 93.6302C22.6864 94.7256 24.0648 95.3549 25.5146 95.3549H599.644C601.719 95.3549 603.579 94.0724 604.317 92.1323L619.768 51.5072C620.489 49.6104 619.993 47.4657 618.511 46.079L604.533 32.9977C603.607 32.1308 602.385 31.6484 601.117 31.6484H26.8511C24.6915 31.6484 22.776 33.0349 22.1013 35.0864Z" stroke="#1D1F5D" stroke-width="2"/>
<mask id="mask0_608_812" style="mask-type:alpha" maskUnits="userSpaceOnUse" x="0" y="27" width="629" height="73">
<path d="M15.9342 30.6159C16.5511 28.4746 18.5105 27 20.7388 27L624 27C626.761 27 629 29.2386 629 32V37.9467C629 38.3453 628.952 38.7425 628.858 39.1298L614.964 96.183C614.418 98.4233 612.412 100 610.106 100H4.99998C2.23855 100 0 97.7614 0 95V86.6342C0 86.166 0.0657723 85.7001 0.195389 85.2501L15.9342 30.6159Z" fill="url(#paint0_linear_608_812)" fill-opacity="0.7"/>
</mask>
<g mask="url(#mask0_608_812)">
<g style="mix-blend-mode:overlay" opacity="0.1">
<path d="M598.111 26.0976L619.17 29.1048L626.492 46.5435L613.21 61.188L592.417 58.6041L584.83 40.7421L598.111 26.0976Z" fill="#02243F" stroke="#8CB9FF"/>
<path d="M568.084 4.46524L589.143 7.47246L596.464 24.9112L583.183 39.5557L562.39 36.9718L554.803 19.1098L568.084 4.46524Z" fill="#02243F" stroke="#8CB9FF"/>
<path d="M555.555 73.0219L576.614 76.0291L583.936 93.4678L570.655 108.112L549.862 105.528L542.274 87.6665L555.555 73.0219Z" fill="#02243F" stroke="#8CB9FF"/>
<path d="M525.53 51.392L546.589 54.3992L553.91 71.8379L540.629 86.4825L519.836 83.8986L512.249 66.0366L525.53 51.392Z" fill="#02243F" stroke="#8CB9FF"/>
<path d="M487.852 64.1078L508.911 67.115L516.233 84.5537L502.952 99.1983L482.159 96.6144L474.571 78.7524L487.852 64.1078Z" fill="#02243F" stroke="#8CB9FF"/>
<path d="M517.723 86.3715L538.782 89.3787L546.104 106.817L532.823 121.462L512.03 118.878L504.442 101.016L517.723 86.3715Z" fill="#02243F" stroke="#8CB9FF"/>
<path d="M628.137 47.7255L649.196 50.7327L656.518 68.1714L643.237 82.816L622.444 80.2321L614.856 62.3701L628.137 47.7255Z" fill="#02243F" stroke="#8CB9FF"/>
<path d="M585.581 94.6542L606.64 97.6614L613.961 115.1L600.68 129.745L579.887 127.161L572.3 109.299L585.581 94.6542Z" fill="#02243F" stroke="#8CB9FF"/>
<path d="M621.895 82.1181L642.954 85.1253L650.276 102.564L636.995 117.209L616.202 114.625L608.614 96.7626L621.895 82.1181Z" fill="#02243F" stroke="#8CB9FF"/>
<path d="M561.729 38.7694L582.788 41.7767L590.11 59.2154L576.829 73.8599L556.036 71.276L548.448 53.414L561.729 38.7694Z" fill="#02243F" stroke="#8CB9FF"/>
<path d="M604.272 -8.13974L625.331 -5.13252L632.653 12.3062L619.372 26.9507L598.578 24.3668L590.991 6.50483L604.272 -8.13974Z" fill="#02243F" stroke="#8CB9FF"/>
<path d="M591.721 60.3793L612.78 63.3865L620.102 80.8252L606.821 95.4698L586.028 92.8859L578.44 75.0239L591.721 60.3793Z" fill="#02243F" stroke="#8CB9FF"/>
<path d="M634.262 13.4662L655.321 16.4734L662.643 33.9121L649.362 48.5567L628.569 45.9728L620.981 28.1108L634.262 13.4662Z" fill="#02243F" stroke="#8CB9FF"/>
<path d="M531.55 17.0277L552.609 20.035L559.931 37.4737L546.65 52.1182L525.857 49.5343L518.269 31.6723L531.55 17.0277Z" fill="#02243F" stroke="#8CB9FF"/>
</g>
</g>
<path d="M9.22886 29.4936L17.8579 2.09869C18.2514 0.849548 19.4097 0 20.7193 0H192.237C194.172 0 195.601 1.80594 195.156 3.68974L188.684 31.0846C188.365 32.4385 187.156 33.3949 185.765 33.3949H84.2631H78.4691H68.6075L59.4033 33.3949L44.9396 33.3949H28.5036H12.0903C10.0635 33.3949 8.61995 31.4267 9.22886 29.4936Z" fill="url(#paint1_linear_608_812)"/>
<path d="M54.8774 23.2598C54.8174 23.2598 54.7634 23.2418 54.7154 23.2058C54.6794 23.1578 54.6614 23.1038 54.6614 23.0438V10.8758C54.6614 10.8158 54.6794 10.7678 54.7154 10.7318C54.7634 10.6838 54.8174 10.6598 54.8774 10.6598H56.9834C57.0434 10.6598 57.0914 10.6838 57.1274 10.7318C57.1754 10.7678 57.1994 10.8158 57.1994 10.8758V20.9918C57.1994 21.0518 57.2294 21.0818 57.2894 21.0818H61.0694C61.1294 21.0818 61.1774 21.1058 61.2134 21.1538C61.2614 21.1898 61.2854 21.2378 61.2854 21.2978V23.0438C61.2854 23.1038 61.2614 23.1578 61.2134 23.2058C61.1774 23.2418 61.1294 23.2598 61.0694 23.2598H54.8774ZM63.655 23.3318C63.247 23.3318 62.905 23.1998 62.629 22.9358C62.365 22.6598 62.233 22.3178 62.233 21.9098C62.233 21.4898 62.365 21.1478 62.629 20.8838C62.893 20.6198 63.235 20.4878 63.655 20.4878C64.075 20.4878 64.417 20.6198 64.681 20.8838C64.945 21.1478 65.077 21.4898 65.077 21.9098C65.077 22.3178 64.939 22.6598 64.663 22.9358C64.399 23.1998 64.063 23.3318 63.655 23.3318ZM66.6548 23.2598C66.5948 23.2598 66.5408 23.2418 66.4928 23.2058C66.4568 23.1578 66.4388 23.1038 66.4388 23.0438V10.8758C66.4388 10.8158 66.4568 10.7678 66.4928 10.7318C66.5408 10.6838 66.5948 10.6598 66.6548 10.6598H68.7608C68.8208 10.6598 68.8688 10.6838 68.9048 10.7318C68.9528 10.7678 68.9768 10.8158 68.9768 10.8758V23.0438C68.9768 23.1038 68.9528 23.1578 68.9048 23.2058C68.8688 23.2418 68.8208 23.2598 68.7608 23.2598H66.6548ZM71.8112 23.3318C71.4032 23.3318 71.0612 23.1998 70.7852 22.9358C70.5212 22.6598 70.3892 22.3178 70.3892 21.9098C70.3892 21.4898 70.5212 21.1478 70.7852 20.8838C71.0492 20.6198 71.3912 20.4878 71.8112 20.4878C72.2312 20.4878 72.5732 20.6198 72.8372 20.8838C73.1012 21.1478 73.2332 21.4898 73.2332 21.9098C73.2332 22.3178 73.0952 22.6598 72.8192 22.9358C72.5552 23.1998 72.2192 23.3318 71.8112 23.3318ZM77.997 23.4038C76.917 23.4038 76.047 23.0978 75.387 22.4858C74.739 21.8618 74.415 21.0338 74.415 20.0018V13.9178C74.415 12.8858 74.739 12.0638 75.387 11.4518C76.047 10.8278 76.917 10.5158 77.997 10.5158C79.077 10.5158 79.947 10.8278 80.607 11.4518C81.267 12.0758 81.597 12.9038 81.597 13.9358V14.6198C81.597 14.6798 81.573 14.7338 81.525 14.7818C81.489 14.8178 81.441 14.8358 81.381 14.8358H79.275C79.215 14.8358 79.161 14.8178 79.113 14.7818C79.077 14.7338 79.059 14.6798 79.059 14.6198V13.8998C79.059 13.5398 78.963 13.2518 78.771 13.0358C78.579 12.8078 78.321 12.6938 77.997 12.6938C77.685 12.6938 77.433 12.8078 77.241 13.0358C77.049 13.2518 76.953 13.5398 76.953 13.8998V20.0198C76.953 20.3798 77.049 20.6738 77.241 20.9018C77.433 21.1178 77.685 21.2258 77.997 21.2258C78.321 21.2258 78.579 21.1178 78.771 20.9018C78.963 20.6738 79.059 20.3798 79.059 20.0198V18.5798C79.059 18.5198 79.029 18.4898 78.969 18.4898H78.177C78.117 18.4898 78.063 18.4718 78.015 18.4358C77.979 18.3878 77.961 18.3338 77.961 18.2738V16.6718C77.961 16.6118 77.979 16.5638 78.015 16.5278C78.063 16.4798 78.117 16.4558 78.177 16.4558H81.381C81.441 16.4558 81.489 16.4798 81.525 16.5278C81.573 16.5638 81.597 16.6118 81.597 16.6718V20.0018C81.597 21.0338 81.267 21.8618 80.607 22.4858C79.947 23.0978 79.077 23.4038 77.997 23.4038ZM84.1686 23.3318C83.7606 23.3318 83.4186 23.1998 83.1426 22.9358C82.8786 22.6598 82.7466 22.3178 82.7466 21.9098C82.7466 21.4898 82.8786 21.1478 83.1426 20.8838C83.4066 20.6198 83.7486 20.4878 84.1686 20.4878C84.5886 20.4878 84.9306 20.6198 85.1946 20.8838C85.4586 21.1478 85.5906 21.4898 85.5906 21.9098C85.5906 22.3178 85.4526 22.6598 85.1766 22.9358C84.9126 23.1998 84.5766 23.3318 84.1686 23.3318ZM91.4704 10.8758C91.4704 10.8158 91.4884 10.7678 91.5244 10.7318C91.5724 10.6838 91.6264 10.6598 91.6864 10.6598H93.7924C93.8524 10.6598 93.9004 10.6838 93.9364 10.7318C93.9844 10.7678 94.0084 10.8158 94.0084 10.8758V23.0438C94.0084 23.1038 93.9844 23.1578 93.9364 23.2058C93.9004 23.2418 93.8524 23.2598 93.7924 23.2598H91.6864C91.6264 23.2598 91.5724 23.2418 91.5244 23.2058C91.4884 23.1578 91.4704 23.1038 91.4704 23.0438V18.1298C91.4704 18.0698 91.4404 18.0398 91.3804 18.0398H89.5804C89.5204 18.0398 89.4904 18.0698 89.4904 18.1298V23.0438C89.4904 23.1038 89.4664 23.1578 89.4184 23.2058C89.3824 23.2418 89.3344 23.2598 89.2744 23.2598H87.1684C87.1084 23.2598 87.0544 23.2418 87.0064 23.2058C86.9704 23.1578 86.9524 23.1038 86.9524 23.0438V10.8758C86.9524 10.8158 86.9704 10.7678 87.0064 10.7318C87.0544 10.6838 87.1084 10.6598 87.1684 10.6598H89.2744C89.3344 10.6598 89.3824 10.6838 89.4184 10.7318C89.4664 10.7678 89.4904 10.8158 89.4904 10.8758V15.7718C89.4904 15.8318 89.5204 15.8618 89.5804 15.8618H91.3804C91.4404 15.8618 91.4704 15.8318 91.4704 15.7718V10.8758ZM96.8249 23.3318C96.4169 23.3318 96.0749 23.1998 95.7989 22.9358C95.5349 22.6598 95.4029 22.3178 95.4029 21.9098C95.4029 21.4898 95.5349 21.1478 95.7989 20.8838C96.0629 20.6198 96.4049 20.4878 96.8249 20.4878C97.2449 20.4878 97.5869 20.6198 97.8509 20.8838C98.1149 21.1478 98.2469 21.4898 98.2469 21.9098C98.2469 22.3178 98.1089 22.6598 97.8329 22.9358C97.5689 23.1998 97.2329 23.3318 96.8249 23.3318ZM105.626 10.6598C105.686 10.6598 105.734 10.6838 105.77 10.7318C105.818 10.7678 105.842 10.8158 105.842 10.8758V12.6218C105.842 12.6818 105.818 12.7358 105.77 12.7838C105.734 12.8198 105.686 12.8378 105.626 12.8378H103.376C103.316 12.8378 103.286 12.8678 103.286 12.9278V23.0438C103.286 23.1038 103.262 23.1578 103.214 23.2058C103.178 23.2418 103.13 23.2598 103.07 23.2598H100.964C100.904 23.2598 100.85 23.2418 100.802 23.2058C100.766 23.1578 100.748 23.1038 100.748 23.0438V12.9278C100.748 12.8678 100.718 12.8378 100.658 12.8378H98.4979C98.4379 12.8378 98.3839 12.8198 98.3359 12.7838C98.2999 12.7358 98.2819 12.6818 98.2819 12.6218V10.8758C98.2819 10.8158 98.2999 10.7678 98.3359 10.7318C98.3839 10.6838 98.4379 10.6598 98.4979 10.6598H105.626ZM107.512 23.3318C107.104 23.3318 106.762 23.1998 106.486 22.9358C106.222 22.6598 106.09 22.3178 106.09 21.9098C106.09 21.4898 106.222 21.1478 106.486 20.8838C106.75 20.6198 107.092 20.4878 107.512 20.4878C107.932 20.4878 108.274 20.6198 108.538 20.8838C108.802 21.1478 108.934 21.4898 108.934 21.9098C108.934 22.3178 108.796 22.6598 108.52 22.9358C108.256 23.1998 107.92 23.3318 107.512 23.3318Z" fill="white"/>
<path d="M37.216 60.216C37.084 60.216 37.036 60.15 37.072 60.018L38.278 56.544C38.314 56.448 38.386 56.4 38.494 56.4H39.466C39.598 56.4 39.646 56.466 39.61 56.598L38.746 60.054C38.734 60.162 38.668 60.216 38.548 60.216H37.216ZM39.736 60.216C39.604 60.216 39.556 60.15 39.592 60.018L40.762 56.544C40.798 56.448 40.87 56.4 40.978 56.4H41.968C42.1 56.4 42.148 56.466 42.112 56.598L41.266 60.054C41.254 60.162 41.188 60.216 41.068 60.216H39.736ZM45.228 69C45.12 69 45.054 68.946 45.03 68.838L42.636 56.598V56.562C42.636 56.454 42.69 56.4 42.798 56.4H44.22C44.34 56.4 44.406 56.454 44.418 56.562L45.876 65.004C45.888 65.028 45.9 65.04 45.912 65.04C45.924 65.04 45.936 65.028 45.948 65.004L47.244 56.562C47.256 56.454 47.316 56.4 47.424 56.4H48.63C48.738 56.4 48.798 56.454 48.81 56.562L50.196 65.004C50.208 65.028 50.22 65.04 50.232 65.04C50.244 65.04 50.256 65.028 50.268 65.004L51.6 56.562C51.624 56.454 51.684 56.4 51.78 56.4H53.184C53.244 56.4 53.286 56.418 53.31 56.454C53.346 56.49 53.358 56.538 53.346 56.598L51.078 68.838C51.066 68.946 51 69 50.88 69H49.602C49.506 69 49.446 68.946 49.422 68.838L48.054 60.324C48.042 60.3 48.024 60.288 48 60.288C47.988 60.288 47.982 60.3 47.982 60.324L46.686 68.838C46.674 68.946 46.614 69 46.506 69H45.228ZM59.8708 64.95C59.8708 65.07 59.8108 65.13 59.6908 65.13H55.6228C55.5748 65.13 55.5508 65.154 55.5508 65.202V66.174C55.5508 66.606 55.6708 66.96 55.9108 67.236C56.1508 67.512 56.4628 67.65 56.8468 67.65C57.1828 67.65 57.4648 67.548 57.6928 67.344C57.9208 67.14 58.0648 66.876 58.1248 66.552C58.1608 66.456 58.2268 66.408 58.3228 66.408L59.6548 66.48C59.7148 66.48 59.7568 66.498 59.7808 66.534C59.8168 66.57 59.8288 66.612 59.8168 66.66C59.7328 67.44 59.4328 68.052 58.9168 68.496C58.4128 68.928 57.7228 69.144 56.8468 69.144C55.9228 69.144 55.1848 68.886 54.6328 68.37C54.0928 67.854 53.8228 67.164 53.8228 66.3V62.556C53.8228 61.704 54.0928 61.014 54.6328 60.486C55.1848 59.958 55.9228 59.694 56.8468 59.694C57.7828 59.694 58.5208 59.958 59.0608 60.486C59.6008 61.014 59.8708 61.704 59.8708 62.556V64.95ZM56.8468 61.188C56.4628 61.188 56.1508 61.326 55.9108 61.602C55.6708 61.878 55.5508 62.232 55.5508 62.664V63.618C55.5508 63.666 55.5748 63.69 55.6228 63.69H58.0888C58.1368 63.69 58.1608 63.666 58.1608 63.618V62.664C58.1608 62.232 58.0408 61.878 57.8008 61.602C57.5608 61.326 57.2428 61.188 56.8468 61.188ZM61.5987 69C61.4787 69 61.4187 68.94 61.4187 68.82V56.58C61.4187 56.46 61.4787 56.4 61.5987 56.4H62.9667C63.0867 56.4 63.1467 56.46 63.1467 56.58V68.82C63.1467 68.94 63.0867 69 62.9667 69H61.5987ZM67.798 69.144C66.874 69.144 66.136 68.886 65.584 68.37C65.044 67.854 64.774 67.158 64.774 66.282V62.556C64.774 61.704 65.044 61.014 65.584 60.486C66.136 59.958 66.874 59.694 67.798 59.694C68.41 59.694 68.944 59.814 69.4 60.054C69.868 60.282 70.222 60.6 70.462 61.008C70.714 61.404 70.84 61.854 70.84 62.358V62.592C70.84 62.712 70.78 62.772 70.66 62.772L69.292 62.826C69.172 62.826 69.112 62.766 69.112 62.646V62.466C69.112 62.118 68.986 61.818 68.734 61.566C68.482 61.314 68.17 61.188 67.798 61.188C67.414 61.188 67.102 61.326 66.862 61.602C66.622 61.878 66.502 62.232 66.502 62.664V66.174C66.502 66.606 66.622 66.96 66.862 67.236C67.102 67.512 67.414 67.65 67.798 67.65C68.17 67.65 68.482 67.524 68.734 67.272C68.986 67.02 69.112 66.72 69.112 66.372V66.192C69.112 66.072 69.172 66.012 69.292 66.012L70.66 66.03C70.78 66.03 70.84 66.09 70.84 66.21V66.48C70.84 67.26 70.564 67.902 70.012 68.406C69.46 68.898 68.722 69.144 67.798 69.144ZM75.2515 69.144C74.3155 69.144 73.5715 68.886 73.0195 68.37C72.4795 67.842 72.2095 67.146 72.2095 66.282V62.556C72.2095 61.704 72.4855 61.014 73.0375 60.486C73.5895 59.958 74.3275 59.694 75.2515 59.694C76.1875 59.694 76.9315 59.958 77.4835 60.486C78.0355 61.014 78.3115 61.704 78.3115 62.556V66.282C78.3115 67.146 78.0355 67.842 77.4835 68.37C76.9315 68.886 76.1875 69.144 75.2515 69.144ZM75.2515 67.632C75.6355 67.632 75.9535 67.5 76.2055 67.236C76.4575 66.96 76.5835 66.6 76.5835 66.156V62.664C76.5835 62.232 76.4575 61.878 76.2055 61.602C75.9535 61.326 75.6355 61.188 75.2515 61.188C74.8675 61.188 74.5495 61.326 74.2975 61.602C74.0575 61.878 73.9375 62.232 73.9375 62.664V66.156C73.9375 66.6 74.0575 66.96 74.2975 67.236C74.5495 67.5 74.8675 67.632 75.2515 67.632ZM87.7045 59.712C88.4485 59.712 89.0185 59.982 89.4145 60.522C89.8225 61.05 90.0265 61.794 90.0265 62.754V68.82C90.0265 68.94 89.9665 69 89.8465 69H88.4965C88.3765 69 88.3165 68.94 88.3165 68.82V62.88C88.3165 62.352 88.2085 61.944 87.9925 61.656C87.7765 61.356 87.4885 61.206 87.1285 61.206C86.7445 61.206 86.4385 61.356 86.2105 61.656C85.9825 61.944 85.8685 62.346 85.8685 62.862V68.82C85.8685 68.94 85.8085 69 85.6885 69H84.3385C84.2185 69 84.1585 68.94 84.1585 68.82V62.88C84.1585 62.352 84.0505 61.944 83.8345 61.656C83.6185 61.356 83.3305 61.206 82.9705 61.206C82.5865 61.206 82.2805 61.356 82.0525 61.656C81.8245 61.944 81.7105 62.346 81.7105 62.862V68.82C81.7105 68.94 81.6505 69 81.5305 69H80.1805C80.0605 69 80.0005 68.94 80.0005 68.82V60.018C80.0005 59.898 80.0605 59.838 80.1805 59.838H81.5305C81.6505 59.838 81.7105 59.898 81.7105 60.018V60.468C81.7105 60.492 81.7165 60.51 81.7285 60.522C81.7525 60.534 81.7765 60.528 81.8005 60.504C82.0405 60.24 82.3165 60.042 82.6285 59.91C82.9405 59.778 83.2525 59.712 83.5645 59.712C84.4765 59.712 85.1305 60.114 85.5265 60.918C85.5385 60.942 85.5565 60.954 85.5805 60.954C85.6045 60.942 85.6225 60.912 85.6345 60.864C85.8745 60.456 86.1805 60.162 86.5525 59.982C86.9245 59.802 87.3085 59.712 87.7045 59.712ZM97.7165 64.95C97.7165 65.07 97.6565 65.13 97.5365 65.13H93.4685C93.4205 65.13 93.3965 65.154 93.3965 65.202V66.174C93.3965 66.606 93.5165 66.96 93.7565 67.236C93.9965 67.512 94.3085 67.65 94.6925 67.65C95.0285 67.65 95.3105 67.548 95.5385 67.344C95.7665 67.14 95.9105 66.876 95.9705 66.552C96.0065 66.456 96.0725 66.408 96.1685 66.408L97.5005 66.48C97.5605 66.48 97.6025 66.498 97.6265 66.534C97.6625 66.57 97.6745 66.612 97.6625 66.66C97.5785 67.44 97.2785 68.052 96.7625 68.496C96.2585 68.928 95.5685 69.144 94.6925 69.144C93.7685 69.144 93.0305 68.886 92.4785 68.37C91.9385 67.854 91.6685 67.164 91.6685 66.3V62.556C91.6685 61.704 91.9385 61.014 92.4785 60.486C93.0305 59.958 93.7685 59.694 94.6925 59.694C95.6285 59.694 96.3665 59.958 96.9065 60.486C97.4465 61.014 97.7165 61.704 97.7165 62.556V64.95ZM94.6925 61.188C94.3085 61.188 93.9965 61.326 93.7565 61.602C93.5165 61.878 93.3965 62.232 93.3965 62.664V63.618C93.3965 63.666 93.4205 63.69 93.4685 63.69H95.9345C95.9825 63.69 96.0065 63.666 96.0065 63.618V62.664C96.0065 62.232 95.8865 61.878 95.6465 61.602C95.4065 61.326 95.0885 61.188 94.6925 61.188ZM106.522 60.918C106.522 61.038 106.462 61.098 106.342 61.098H105.082C105.034 61.098 105.01 61.122 105.01 61.17V66.228C105.01 66.708 105.094 67.044 105.262 67.236C105.43 67.416 105.694 67.5 106.054 67.488H106.216C106.336 67.488 106.396 67.548 106.396 67.668V68.82C106.396 68.94 106.336 69 106.216 69H105.658C104.89 69 104.308 68.85 103.912 68.55C103.528 68.25 103.336 67.68 103.336 66.84V61.17C103.336 61.122 103.312 61.098 103.264 61.098H102.562C102.442 61.098 102.382 61.038 102.382 60.918V60.018C102.382 59.898 102.442 59.838 102.562 59.838H103.264C103.312 59.838 103.336 59.814 103.336 59.766V57.732C103.336 57.612 103.396 57.552 103.516 57.552H104.83C104.95 57.552 105.01 57.612 105.01 57.732V59.766C105.01 59.814 105.034 59.838 105.082 59.838H106.342C106.462 59.838 106.522 59.898 106.522 60.018V60.918ZM110.777 69.144C109.841 69.144 109.097 68.886 108.545 68.37C108.005 67.842 107.735 67.146 107.735 66.282V62.556C107.735 61.704 108.011 61.014 108.563 60.486C109.115 59.958 109.853 59.694 110.777 59.694C111.713 59.694 112.457 59.958 113.009 60.486C113.561 61.014 113.837 61.704 113.837 62.556V66.282C113.837 67.146 113.561 67.842 113.009 68.37C112.457 68.886 111.713 69.144 110.777 69.144ZM110.777 67.632C111.161 67.632 111.479 67.5 111.731 67.236C111.983 66.96 112.109 66.6 112.109 66.156V62.664C112.109 62.232 111.983 61.878 111.731 61.602C111.479 61.326 111.161 61.188 110.777 61.188C110.393 61.188 110.075 61.326 109.823 61.602C109.583 61.878 109.463 62.232 109.463 62.664V66.156C109.463 66.6 109.583 66.96 109.823 67.236C110.075 67.5 110.393 67.632 110.777 67.632ZM122.711 60.918C122.711 61.038 122.651 61.098 122.531 61.098H121.271C121.223 61.098 121.199 61.122 121.199 61.17V66.228C121.199 66.708 121.283 67.044 121.451 67.236C121.619 67.416 121.883 67.5 122.243 67.488H122.405C122.525 67.488 122.585 67.548 122.585 67.668V68.82C122.585 68.94 122.525 69 122.405 69H121.847C121.079 69 120.497 68.85 120.101 68.55C119.717 68.25 119.525 67.68 119.525 66.84V61.17C119.525 61.122 119.501 61.098 119.453 61.098H118.751C118.631 61.098 118.571 61.038 118.571 60.918V60.018C118.571 59.898 118.631 59.838 118.751 59.838H119.453C119.501 59.838 119.525 59.814 119.525 59.766V57.732C119.525 57.612 119.585 57.552 119.705 57.552H121.019C121.139 57.552 121.199 57.612 121.199 57.732V59.766C121.199 59.814 121.223 59.838 121.271 59.838H122.531C122.651 59.838 122.711 59.898 122.711 60.018V60.918ZM127.74 59.712C128.496 59.712 129.072 59.97 129.468 60.486C129.876 60.99 130.08 61.71 130.08 62.646V68.82C130.08 68.94 130.02 69 129.9 69H128.532C128.412 69 128.352 68.94 128.352 68.82V62.79C128.352 62.286 128.244 61.896 128.028 61.62C127.812 61.344 127.512 61.206 127.128 61.206C126.732 61.206 126.42 61.344 126.192 61.62C125.976 61.884 125.856 62.262 125.832 62.754C125.832 62.826 125.826 62.862 125.814 62.862V68.82C125.814 68.94 125.754 69 125.634 69H124.266C124.146 69 124.086 68.94 124.086 68.82V56.58C124.086 56.46 124.146 56.4 124.266 56.4H125.634C125.754 56.4 125.814 56.46 125.814 56.58V60.504C125.814 60.528 125.826 60.546 125.85 60.558C125.874 60.558 125.898 60.54 125.922 60.504C126.354 59.976 126.96 59.712 127.74 59.712ZM137.742 64.95C137.742 65.07 137.682 65.13 137.562 65.13H133.494C133.446 65.13 133.422 65.154 133.422 65.202V66.174C133.422 66.606 133.542 66.96 133.782 67.236C134.022 67.512 134.334 67.65 134.718 67.65C135.054 67.65 135.336 67.548 135.564 67.344C135.792 67.14 135.936 66.876 135.996 66.552C136.032 66.456 136.098 66.408 136.194 66.408L137.526 66.48C137.586 66.48 137.628 66.498 137.652 66.534C137.688 66.57 137.7 66.612 137.688 66.66C137.604 67.44 137.304 68.052 136.788 68.496C136.284 68.928 135.594 69.144 134.718 69.144C133.794 69.144 133.056 68.886 132.504 68.37C131.964 67.854 131.694 67.164 131.694 66.3V62.556C131.694 61.704 131.964 61.014 132.504 60.486C133.056 59.958 133.794 59.694 134.718 59.694C135.654 59.694 136.392 59.958 136.932 60.486C137.472 61.014 137.742 61.704 137.742 62.556V64.95ZM134.718 61.188C134.334 61.188 134.022 61.326 133.782 61.602C133.542 61.878 133.422 62.232 133.422 62.664V63.618C133.422 63.666 133.446 63.69 133.494 63.69H135.96C136.008 63.69 136.032 63.666 136.032 63.618V62.664C136.032 62.232 135.912 61.878 135.672 61.602C135.432 61.326 135.114 61.188 134.718 61.188ZM143.325 69C143.205 69 143.145 68.94 143.145 68.82V56.58C143.145 56.46 143.205 56.4 143.325 56.4H144.693C144.813 56.4 144.873 56.46 144.873 56.58V67.434C144.873 67.482 144.897 67.506 144.945 67.506H148.977C149.097 67.506 149.157 67.566 149.157 67.686V68.82C149.157 68.94 149.097 69 148.977 69H143.325ZM151.249 58.398C150.913 58.398 150.637 58.29 150.421 58.074C150.205 57.858 150.097 57.582 150.097 57.246C150.097 56.91 150.205 56.634 150.421 56.418C150.637 56.202 150.913 56.094 151.249 56.094C151.597 56.094 151.873 56.202 152.077 56.418C152.293 56.622 152.401 56.898 152.401 57.246C152.401 57.582 152.293 57.858 152.077 58.074C151.861 58.29 151.585 58.398 151.249 58.398ZM150.583 69C150.463 69 150.403 68.94 150.403 68.82V60.018C150.403 59.898 150.463 59.838 150.583 59.838H151.951C152.071 59.838 152.131 59.898 152.131 60.018V68.82C152.131 68.94 152.071 69 151.951 69H150.583ZM157.584 59.694C158.376 59.694 159 59.952 159.456 60.468C159.912 60.972 160.14 61.668 160.14 62.556V66.3C160.14 67.152 159.906 67.842 159.438 68.37C158.982 68.886 158.364 69.144 157.584 69.144C157.296 69.144 157.002 69.09 156.702 68.982C156.414 68.874 156.156 68.712 155.928 68.496C155.904 68.472 155.88 68.466 155.856 68.478C155.844 68.49 155.838 68.508 155.838 68.532V68.82C155.838 68.94 155.778 69 155.658 69H154.29C154.17 69 154.11 68.94 154.11 68.82V56.58C154.11 56.46 154.17 56.4 154.29 56.4H155.658C155.778 56.4 155.838 56.46 155.838 56.58V60.324C155.838 60.348 155.85 60.366 155.874 60.378C155.898 60.378 155.922 60.36 155.946 60.324C156.402 59.904 156.948 59.694 157.584 59.694ZM158.43 62.664C158.43 62.232 158.304 61.878 158.052 61.602C157.812 61.326 157.5 61.188 157.116 61.188C156.744 61.188 156.438 61.326 156.198 61.602C155.958 61.878 155.838 62.232 155.838 62.664V66.174C155.838 66.606 155.958 66.96 156.198 67.236C156.438 67.512 156.744 67.65 157.116 67.65C157.5 67.65 157.812 67.512 158.052 67.236C158.304 66.96 158.43 66.606 158.43 66.174V62.664ZM165.336 59.748C165.636 59.748 165.894 59.814 166.11 59.946C166.194 59.994 166.224 60.072 166.2 60.18L165.93 61.548C165.918 61.656 165.846 61.692 165.714 61.656C165.558 61.596 165.39 61.566 165.21 61.566C165.138 61.566 165.03 61.578 164.886 61.602C164.514 61.638 164.202 61.842 163.95 62.214C163.71 62.586 163.59 63.036 163.59 63.564V68.82C163.59 68.94 163.53 69 163.41 69H162.042C161.922 69 161.862 68.94 161.862 68.82V60.018C161.862 59.898 161.922 59.838 162.042 59.838H163.41C163.53 59.838 163.59 59.898 163.59 60.018V61.062C163.59 61.098 163.596 61.122 163.608 61.134C163.632 61.134 163.65 61.116 163.662 61.08C164.01 60.192 164.568 59.748 165.336 59.748ZM170.228 59.694C171.104 59.694 171.818 59.97 172.37 60.522C172.934 61.074 173.216 61.8 173.216 62.7V68.82C173.216 68.94 173.156 69 173.036 69H171.668C171.548 69 171.488 68.94 171.488 68.82V68.424C171.488 68.4 171.476 68.382 171.452 68.37C171.44 68.358 171.422 68.364 171.398 68.388C170.978 68.892 170.36 69.144 169.544 69.144C168.86 69.144 168.254 68.952 167.726 68.568C167.21 68.172 166.952 67.476 166.952 66.48C166.952 65.436 167.264 64.674 167.888 64.194C168.524 63.702 169.352 63.456 170.372 63.456H171.416C171.464 63.456 171.488 63.432 171.488 63.384V62.862C171.488 62.358 171.368 61.956 171.128 61.656C170.888 61.344 170.576 61.188 170.192 61.188C169.892 61.188 169.64 61.29 169.436 61.494C169.232 61.698 169.112 61.962 169.076 62.286C169.076 62.406 169.016 62.466 168.896 62.466H167.438C167.318 62.466 167.258 62.406 167.258 62.286C167.318 61.518 167.624 60.894 168.176 60.414C168.728 59.934 169.412 59.694 170.228 59.694ZM169.922 67.632C170.342 67.632 170.708 67.5 171.02 67.236C171.332 66.972 171.488 66.6 171.488 66.12V64.896C171.488 64.848 171.464 64.824 171.416 64.824H170.318C169.838 64.824 169.454 64.956 169.166 65.22C168.878 65.472 168.734 65.844 168.734 66.336C168.734 66.768 168.842 67.092 169.058 67.308C169.274 67.524 169.562 67.632 169.922 67.632ZM178.396 59.748C178.696 59.748 178.954 59.814 179.17 59.946C179.254 59.994 179.284 60.072 179.26 60.18L178.99 61.548C178.978 61.656 178.906 61.692 178.774 61.656C178.618 61.596 178.45 61.566 178.27 61.566C178.198 61.566 178.09 61.578 177.946 61.602C177.574 61.638 177.262 61.842 177.01 62.214C176.77 62.586 176.65 63.036 176.65 63.564V68.82C176.65 68.94 176.59 69 176.47 69H175.102C174.982 69 174.922 68.94 174.922 68.82V60.018C174.922 59.898 174.982 59.838 175.102 59.838H176.47C176.59 59.838 176.65 59.898 176.65 60.018V61.062C176.65 61.098 176.656 61.122 176.668 61.134C176.692 61.134 176.71 61.116 176.722 61.08C177.07 60.192 177.628 59.748 178.396 59.748ZM180.402 72.582C180.378 72.582 180.354 72.564 180.33 72.528C180.306 72.492 180.294 72.45 180.294 72.402V71.34C180.294 71.22 180.354 71.16 180.474 71.16C180.858 71.148 181.158 71.088 181.374 70.98C181.602 70.872 181.782 70.668 181.914 70.368C182.058 70.068 182.178 69.63 182.274 69.054L182.256 68.964L179.952 60.036L179.934 59.982C179.934 59.886 179.994 59.838 180.114 59.838H181.59C181.71 59.838 181.776 59.892 181.788 60L183.102 66.498C183.114 66.534 183.126 66.552 183.138 66.552C183.15 66.552 183.162 66.534 183.174 66.498L184.47 60C184.494 59.892 184.56 59.838 184.668 59.838L186.162 59.856C186.222 59.856 186.264 59.874 186.288 59.91C186.324 59.946 186.33 59.994 186.306 60.054L183.84 69.63C183.612 70.458 183.384 71.07 183.156 71.466C182.928 71.874 182.61 72.162 182.202 72.33C181.806 72.498 181.236 72.582 180.492 72.582H180.402ZM188.443 64.824C188.323 64.824 188.263 64.764 188.263 64.644L188.101 56.58C188.101 56.46 188.161 56.4 188.281 56.4H189.649C189.769 56.4 189.829 56.46 189.829 56.58L189.649 64.644C189.649 64.764 189.589 64.824 189.469 64.824H188.443ZM188.965 68.946C188.629 68.946 188.353 68.838 188.137 68.622C187.921 68.406 187.813 68.13 187.813 67.794C187.813 67.446 187.921 67.17 188.137 66.966C188.353 66.75 188.629 66.642 188.965 66.642C189.301 66.642 189.577 66.75 189.793 66.966C190.009 67.182 190.117 67.458 190.117 67.794C190.117 68.13 190.009 68.406 189.793 68.622C189.577 68.838 189.301 68.946 188.965 68.946ZM197.964 69C197.856 69 197.79 68.946 197.766 68.838L195.372 56.598V56.562C195.372 56.454 195.426 56.4 195.534 56.4H196.956C197.076 56.4 197.142 56.454 197.154 56.562L198.612 65.004C198.624 65.028 198.636 65.04 198.648 65.04C198.66 65.04 198.672 65.028 198.684 65.004L199.98 56.562C199.992 56.454 200.052 56.4 200.16 56.4H201.366C201.474 56.4 201.534 56.454 201.546 56.562L202.932 65.004C202.944 65.028 202.956 65.04 202.968 65.04C202.98 65.04 202.992 65.028 203.004 65.004L204.336 56.562C204.36 56.454 204.42 56.4 204.516 56.4H205.92C205.98 56.4 206.022 56.418 206.046 56.454C206.082 56.49 206.094 56.538 206.082 56.598L203.814 68.838C203.802 68.946 203.736 69 203.616 69H202.338C202.242 69 202.182 68.946 202.158 68.838L200.79 60.324C200.778 60.3 200.76 60.288 200.736 60.288C200.724 60.288 200.718 60.3 200.718 60.324L199.422 68.838C199.41 68.946 199.35 69 199.242 69H197.964ZM211.131 59.712C211.887 59.712 212.463 59.97 212.859 60.486C213.267 60.99 213.471 61.71 213.471 62.646V68.82C213.471 68.94 213.411 69 213.291 69H211.923C211.803 69 211.743 68.94 211.743 68.82V62.79C211.743 62.286 211.635 61.896 211.419 61.62C211.203 61.344 210.903 61.206 210.519 61.206C210.123 61.206 209.811 61.344 209.583 61.62C209.367 61.884 209.247 62.262 209.223 62.754C209.223 62.826 209.217 62.862 209.205 62.862V68.82C209.205 68.94 209.145 69 209.025 69H207.657C207.537 69 207.477 68.94 207.477 68.82V56.58C207.477 56.46 207.537 56.4 207.657 56.4H209.025C209.145 56.4 209.205 56.46 209.205 56.58V60.504C209.205 60.528 209.217 60.546 209.241 60.558C209.265 60.558 209.289 60.54 209.313 60.504C209.745 59.976 210.351 59.712 211.131 59.712ZM218.199 59.694C219.075 59.694 219.789 59.97 220.341 60.522C220.905 61.074 221.187 61.8 221.187 62.7V68.82C221.187 68.94 221.127 69 221.007 69H219.639C219.519 69 219.459 68.94 219.459 68.82V68.424C219.459 68.4 219.447 68.382 219.423 68.37C219.411 68.358 219.393 68.364 219.369 68.388C218.949 68.892 218.331 69.144 217.515 69.144C216.831 69.144 216.225 68.952 215.697 68.568C215.181 68.172 214.923 67.476 214.923 66.48C214.923 65.436 215.235 64.674 215.859 64.194C216.495 63.702 217.323 63.456 218.343 63.456H219.387C219.435 63.456 219.459 63.432 219.459 63.384V62.862C219.459 62.358 219.339 61.956 219.099 61.656C218.859 61.344 218.547 61.188 218.163 61.188C217.863 61.188 217.611 61.29 217.407 61.494C217.203 61.698 217.083 61.962 217.047 62.286C217.047 62.406 216.987 62.466 216.867 62.466H215.409C215.289 62.466 215.229 62.406 215.229 62.286C215.289 61.518 215.595 60.894 216.147 60.414C216.699 59.934 217.383 59.694 218.199 59.694ZM217.893 67.632C218.313 67.632 218.679 67.5 218.991 67.236C219.303 66.972 219.459 66.6 219.459 66.12V64.896C219.459 64.848 219.435 64.824 219.387 64.824H218.289C217.809 64.824 217.425 64.956 217.137 65.22C216.849 65.472 216.705 65.844 216.705 66.336C216.705 66.768 216.813 67.092 217.029 67.308C217.245 67.524 217.533 67.632 217.893 67.632ZM226.475 60.918C226.475 61.038 226.415 61.098 226.295 61.098H225.035C224.987 61.098 224.963 61.122 224.963 61.17V66.228C224.963 66.708 225.047 67.044 225.215 67.236C225.383 67.416 225.647 67.5 226.007 67.488H226.169C226.289 67.488 226.349 67.548 226.349 67.668V68.82C226.349 68.94 226.289 69 226.169 69H225.611C224.843 69 224.261 68.85 223.865 68.55C223.481 68.25 223.289 67.68 223.289 66.84V61.17C223.289 61.122 223.265 61.098 223.217 61.098H222.515C222.395 61.098 222.335 61.038 222.335 60.918V60.018C222.335 59.898 222.395 59.838 222.515 59.838H223.217C223.265 59.838 223.289 59.814 223.289 59.766V57.732C223.289 57.612 223.349 57.552 223.469 57.552H224.783C224.903 57.552 224.963 57.612 224.963 57.732V59.766C224.963 59.814 224.987 59.838 225.035 59.838H226.295C226.415 59.838 226.475 59.898 226.475 60.018V60.918ZM235.594 56.58C235.594 56.46 235.654 56.4 235.774 56.4H237.142C237.262 56.4 237.322 56.46 237.322 56.58V68.82C237.322 68.94 237.262 69 237.142 69H235.774C235.654 69 235.594 68.94 235.594 68.82V68.532C235.594 68.508 235.582 68.49 235.558 68.478C235.546 68.466 235.528 68.472 235.504 68.496C235.276 68.712 235.018 68.874 234.73 68.982C234.442 69.09 234.154 69.144 233.866 69.144C233.074 69.144 232.444 68.886 231.976 68.37C231.52 67.842 231.292 67.152 231.292 66.3V62.556C231.292 61.668 231.52 60.972 231.976 60.468C232.444 59.952 233.074 59.694 233.866 59.694C234.154 59.694 234.442 59.748 234.73 59.856C235.018 59.964 235.276 60.126 235.504 60.342C235.528 60.366 235.546 60.372 235.558 60.36C235.582 60.348 235.594 60.33 235.594 60.306V56.58ZM234.316 67.65C234.652 67.65 234.934 67.542 235.162 67.326C235.402 67.098 235.546 66.804 235.594 66.444V62.394C235.546 62.034 235.402 61.746 235.162 61.53C234.934 61.302 234.652 61.188 234.316 61.188C233.932 61.188 233.614 61.326 233.362 61.602C233.122 61.878 233.002 62.232 233.002 62.664V66.174C233.002 66.606 233.122 66.96 233.362 67.236C233.614 67.512 233.932 67.65 234.316 67.65ZM242.086 69.144C241.15 69.144 240.406 68.886 239.854 68.37C239.314 67.842 239.044 67.146 239.044 66.282V62.556C239.044 61.704 239.32 61.014 239.872 60.486C240.424 59.958 241.162 59.694 242.086 59.694C243.022 59.694 243.766 59.958 244.318 60.486C244.87 61.014 245.146 61.704 245.146 62.556V66.282C245.146 67.146 244.87 67.842 244.318 68.37C243.766 68.886 243.022 69.144 242.086 69.144ZM242.086 67.632C242.47 67.632 242.788 67.5 243.04 67.236C243.292 66.96 243.418 66.6 243.418 66.156V62.664C243.418 62.232 243.292 61.878 243.04 61.602C242.788 61.326 242.47 61.188 242.086 61.188C241.702 61.188 241.384 61.326 241.132 61.602C240.892 61.878 240.772 62.232 240.772 62.664V66.156C240.772 66.6 240.892 66.96 241.132 67.236C241.384 67.5 241.702 67.632 242.086 67.632ZM250.258 72.582C250.234 72.582 250.21 72.564 250.186 72.528C250.162 72.492 250.15 72.45 250.15 72.402V71.34C250.15 71.22 250.21 71.16 250.33 71.16C250.714 71.148 251.014 71.088 251.23 70.98C251.458 70.872 251.638 70.668 251.77 70.368C251.914 70.068 252.034 69.63 252.13 69.054L252.112 68.964L249.808 60.036L249.79 59.982C249.79 59.886 249.85 59.838 249.97 59.838H251.446C251.566 59.838 251.632 59.892 251.644 60L252.958 66.498C252.97 66.534 252.982 66.552 252.994 66.552C253.006 66.552 253.018 66.534 253.03 66.498L254.326 60C254.35 59.892 254.416 59.838 254.524 59.838L256.018 59.856C256.078 59.856 256.12 59.874 256.144 59.91C256.18 59.946 256.186 59.994 256.162 60.054L253.696 69.63C253.468 70.458 253.24 71.07 253.012 71.466C252.784 71.874 252.466 72.162 252.058 72.33C251.662 72.498 251.092 72.582 250.348 72.582H250.258ZM260.103 69.144C259.167 69.144 258.423 68.886 257.871 68.37C257.331 67.842 257.061 67.146 257.061 66.282V62.556C257.061 61.704 257.337 61.014 257.889 60.486C258.441 59.958 259.179 59.694 260.103 59.694C261.039 59.694 261.783 59.958 262.335 60.486C262.887 61.014 263.163 61.704 263.163 62.556V66.282C263.163 67.146 262.887 67.842 262.335 68.37C261.783 68.886 261.039 69.144 260.103 69.144ZM260.103 67.632C260.487 67.632 260.805 67.5 261.057 67.236C261.309 66.96 261.435 66.6 261.435 66.156V62.664C261.435 62.232 261.309 61.878 261.057 61.602C260.805 61.326 260.487 61.188 260.103 61.188C259.719 61.188 259.401 61.326 259.149 61.602C258.909 61.878 258.789 62.232 258.789 62.664V66.156C258.789 66.6 258.909 66.96 259.149 67.236C259.401 67.5 259.719 67.632 260.103 67.632ZM269.01 60.018C269.01 59.898 269.07 59.838 269.19 59.838H270.558C270.678 59.838 270.738 59.898 270.738 60.018V68.82C270.738 68.94 270.678 69 270.558 69H269.19C269.07 69 269.01 68.94 269.01 68.82V68.298C269.01 68.262 268.998 68.244 268.974 68.244C268.962 68.244 268.944 68.256 268.92 68.28C268.56 68.844 267.984 69.126 267.192 69.126C266.472 69.126 265.89 68.91 265.446 68.478C265.002 68.034 264.78 67.362 264.78 66.462V60.018C264.78 59.898 264.84 59.838 264.96 59.838H266.328C266.448 59.838 266.508 59.898 266.508 60.018V66.084C266.508 67.116 266.916 67.632 267.732 67.632C268.14 67.632 268.452 67.488 268.668 67.2C268.896 66.9 269.01 66.492 269.01 65.976V60.018ZM277.791 69C277.683 69 277.617 68.946 277.593 68.838L275.667 60.036V60C275.667 59.892 275.721 59.838 275.829 59.838H277.143C277.263 59.838 277.329 59.892 277.341 60L278.457 66.21C278.469 66.234 278.481 66.246 278.493 66.246C278.505 66.246 278.517 66.234 278.529 66.21L279.663 60C279.687 59.892 279.753 59.838 279.861 59.838H281.049C281.169 59.838 281.235 59.892 281.247 60L282.417 66.21C282.429 66.234 282.441 66.246 282.453 66.246C282.465 66.246 282.477 66.234 282.489 66.21L283.623 60C283.647 59.892 283.713 59.838 283.821 59.838L285.117 59.856C285.177 59.856 285.219 59.874 285.243 59.91C285.279 59.946 285.291 59.994 285.279 60.054L283.335 68.838C283.323 68.946 283.257 69 283.137 69H281.787C281.679 69 281.613 68.946 281.589 68.838L280.455 62.934C280.443 62.91 280.431 62.898 280.419 62.898C280.407 62.898 280.395 62.91 280.383 62.934L279.285 68.838C279.273 68.946 279.207 69 279.087 69H277.791ZM289.372 59.694C290.248 59.694 290.962 59.97 291.514 60.522C292.078 61.074 292.36 61.8 292.36 62.7V68.82C292.36 68.94 292.3 69 292.18 69H290.812C290.692 69 290.632 68.94 290.632 68.82V68.424C290.632 68.4 290.62 68.382 290.596 68.37C290.584 68.358 290.566 68.364 290.542 68.388C290.122 68.892 289.504 69.144 288.688 69.144C288.004 69.144 287.398 68.952 286.87 68.568C286.354 68.172 286.096 67.476 286.096 66.48C286.096 65.436 286.408 64.674 287.032 64.194C287.668 63.702 288.496 63.456 289.516 63.456H290.56C290.608 63.456 290.632 63.432 290.632 63.384V62.862C290.632 62.358 290.512 61.956 290.272 61.656C290.032 61.344 289.72 61.188 289.336 61.188C289.036 61.188 288.784 61.29 288.58 61.494C288.376 61.698 288.256 61.962 288.22 62.286C288.22 62.406 288.16 62.466 288.04 62.466H286.582C286.462 62.466 286.402 62.406 286.402 62.286C286.462 61.518 286.768 60.894 287.32 60.414C287.872 59.934 288.556 59.694 289.372 59.694ZM289.066 67.632C289.486 67.632 289.852 67.5 290.164 67.236C290.476 66.972 290.632 66.6 290.632 66.12V64.896C290.632 64.848 290.608 64.824 290.56 64.824H289.462C288.982 64.824 288.598 64.956 288.31 65.22C288.022 65.472 287.878 65.844 287.878 66.336C287.878 66.768 287.986 67.092 288.202 67.308C288.418 67.524 288.706 67.632 289.066 67.632ZM297.721 59.712C298.477 59.712 299.053 59.97 299.449 60.486C299.857 60.99 300.061 61.71 300.061 62.646V68.82C300.061 68.94 300.001 69 299.881 69H298.513C298.393 69 298.333 68.94 298.333 68.82V62.79C298.333 62.286 298.225 61.896 298.009 61.62C297.793 61.344 297.493 61.206 297.109 61.206C296.713 61.206 296.401 61.344 296.173 61.62C295.957 61.884 295.837 62.262 295.813 62.754C295.813 62.826 295.807 62.862 295.795 62.862V68.82C295.795 68.94 295.735 69 295.615 69H294.247C294.127 69 294.067 68.94 294.067 68.82V60.018C294.067 59.898 294.127 59.838 294.247 59.838H295.615C295.735 59.838 295.795 59.898 295.795 60.018V60.504C295.795 60.528 295.807 60.546 295.831 60.558C295.855 60.558 295.879 60.54 295.903 60.504C296.335 59.976 296.941 59.712 297.721 59.712ZM305.418 60.918C305.418 61.038 305.358 61.098 305.238 61.098H303.978C303.93 61.098 303.906 61.122 303.906 61.17V66.228C303.906 66.708 303.99 67.044 304.158 67.236C304.326 67.416 304.59 67.5 304.95 67.488H305.112C305.232 67.488 305.292 67.548 305.292 67.668V68.82C305.292 68.94 305.232 69 305.112 69H304.554C303.786 69 303.204 68.85 302.808 68.55C302.424 68.25 302.232 67.68 302.232 66.84V61.17C302.232 61.122 302.208 61.098 302.16 61.098H301.458C301.338 61.098 301.278 61.038 301.278 60.918V60.018C301.278 59.898 301.338 59.838 301.458 59.838H302.16C302.208 59.838 302.232 59.814 302.232 59.766V57.732C302.232 57.612 302.292 57.552 302.412 57.552H303.726C303.846 57.552 303.906 57.612 303.906 57.732V59.766C303.906 59.814 303.93 59.838 303.978 59.838H305.238C305.358 59.838 305.418 59.898 305.418 60.018V60.918ZM313.979 60.918C313.979 61.038 313.919 61.098 313.799 61.098H312.539C312.491 61.098 312.467 61.122 312.467 61.17V66.228C312.467 66.708 312.551 67.044 312.719 67.236C312.887 67.416 313.151 67.5 313.511 67.488H313.673C313.793 67.488 313.853 67.548 313.853 67.668V68.82C313.853 68.94 313.793 69 313.673 69H313.115C312.347 69 311.765 68.85 311.369 68.55C310.985 68.25 310.793 67.68 310.793 66.84V61.17C310.793 61.122 310.769 61.098 310.721 61.098H310.019C309.899 61.098 309.839 61.038 309.839 60.918V60.018C309.839 59.898 309.899 59.838 310.019 59.838H310.721C310.769 59.838 310.793 59.814 310.793 59.766V57.732C310.793 57.612 310.853 57.552 310.973 57.552H312.287C312.407 57.552 312.467 57.612 312.467 57.732V59.766C312.467 59.814 312.491 59.838 312.539 59.838H313.799C313.919 59.838 313.979 59.898 313.979 60.018V60.918ZM318.234 69.144C317.298 69.144 316.554 68.886 316.002 68.37C315.462 67.842 315.192 67.146 315.192 66.282V62.556C315.192 61.704 315.468 61.014 316.02 60.486C316.572 59.958 317.31 59.694 318.234 59.694C319.17 59.694 319.914 59.958 320.466 60.486C321.018 61.014 321.294 61.704 321.294 62.556V66.282C321.294 67.146 321.018 67.842 320.466 68.37C319.914 68.886 319.17 69.144 318.234 69.144ZM318.234 67.632C318.618 67.632 318.936 67.5 319.188 67.236C319.44 66.96 319.566 66.6 319.566 66.156V62.664C319.566 62.232 319.44 61.878 319.188 61.602C318.936 61.326 318.618 61.188 318.234 61.188C317.85 61.188 317.532 61.326 317.28 61.602C317.04 61.878 316.92 62.232 316.92 62.664V66.156C316.92 66.6 317.04 66.96 317.28 67.236C317.532 67.5 317.85 67.632 318.234 67.632ZM326.694 69C326.574 69 326.514 68.94 326.514 68.82V56.58C326.514 56.46 326.574 56.4 326.694 56.4H328.062C328.182 56.4 328.242 56.46 328.242 56.58V68.82C328.242 68.94 328.182 69 328.062 69H326.694ZM335.918 64.95C335.918 65.07 335.858 65.13 335.738 65.13H331.67C331.622 65.13 331.598 65.154 331.598 65.202V66.174C331.598 66.606 331.718 66.96 331.958 67.236C332.198 67.512 332.51 67.65 332.894 67.65C333.23 67.65 333.512 67.548 333.74 67.344C333.968 67.14 334.112 66.876 334.172 66.552C334.208 66.456 334.274 66.408 334.37 66.408L335.702 66.48C335.762 66.48 335.804 66.498 335.828 66.534C335.864 66.57 335.876 66.612 335.864 66.66C335.78 67.44 335.48 68.052 334.964 68.496C334.46 68.928 333.77 69.144 332.894 69.144C331.97 69.144 331.232 68.886 330.68 68.37C330.14 67.854 329.87 67.164 329.87 66.3V62.556C329.87 61.704 330.14 61.014 330.68 60.486C331.232 59.958 331.97 59.694 332.894 59.694C333.83 59.694 334.568 59.958 335.108 60.486C335.648 61.014 335.918 61.704 335.918 62.556V64.95ZM332.894 61.188C332.51 61.188 332.198 61.326 331.958 61.602C331.718 61.878 331.598 62.232 331.598 62.664V63.618C331.598 63.666 331.622 63.69 331.67 63.69H334.136C334.184 63.69 334.208 63.666 334.208 63.618V62.664C334.208 62.232 334.088 61.878 333.848 61.602C333.608 61.326 333.29 61.188 332.894 61.188ZM340.402 59.694C341.278 59.694 341.992 59.97 342.544 60.522C343.108 61.074 343.39 61.8 343.39 62.7V68.82C343.39 68.94 343.33 69 343.21 69H341.842C341.722 69 341.662 68.94 341.662 68.82V68.424C341.662 68.4 341.65 68.382 341.626 68.37C341.614 68.358 341.596 68.364 341.572 68.388C341.152 68.892 340.534 69.144 339.718 69.144C339.034 69.144 338.428 68.952 337.9 68.568C337.384 68.172 337.126 67.476 337.126 66.48C337.126 65.436 337.438 64.674 338.062 64.194C338.698 63.702 339.526 63.456 340.546 63.456H341.59C341.638 63.456 341.662 63.432 341.662 63.384V62.862C341.662 62.358 341.542 61.956 341.302 61.656C341.062 61.344 340.75 61.188 340.366 61.188C340.066 61.188 339.814 61.29 339.61 61.494C339.406 61.698 339.286 61.962 339.25 62.286C339.25 62.406 339.19 62.466 339.07 62.466H337.612C337.492 62.466 337.432 62.406 337.432 62.286C337.492 61.518 337.798 60.894 338.35 60.414C338.902 59.934 339.586 59.694 340.402 59.694ZM340.096 67.632C340.516 67.632 340.882 67.5 341.194 67.236C341.506 66.972 341.662 66.6 341.662 66.12V64.896C341.662 64.848 341.638 64.824 341.59 64.824H340.492C340.012 64.824 339.628 64.956 339.34 65.22C339.052 65.472 338.908 65.844 338.908 66.336C338.908 66.768 339.016 67.092 339.232 67.308C339.448 67.524 339.736 67.632 340.096 67.632ZM348.57 59.748C348.87 59.748 349.128 59.814 349.344 59.946C349.428 59.994 349.458 60.072 349.434 60.18L349.164 61.548C349.152 61.656 349.08 61.692 348.948 61.656C348.792 61.596 348.624 61.566 348.444 61.566C348.372 61.566 348.264 61.578 348.12 61.602C347.748 61.638 347.436 61.842 347.184 62.214C346.944 62.586 346.824 63.036 346.824 63.564V68.82C346.824 68.94 346.764 69 346.644 69H345.276C345.156 69 345.096 68.94 345.096 68.82V60.018C345.096 59.898 345.156 59.838 345.276 59.838H346.644C346.764 59.838 346.824 59.898 346.824 60.018V61.062C346.824 61.098 346.83 61.122 346.842 61.134C346.866 61.134 346.884 61.116 346.896 61.08C347.244 60.192 347.802 59.748 348.57 59.748ZM354.217 59.712C354.973 59.712 355.549 59.97 355.945 60.486C356.353 60.99 356.557 61.71 356.557 62.646V68.82C356.557 68.94 356.497 69 356.377 69H355.009C354.889 69 354.829 68.94 354.829 68.82V62.79C354.829 62.286 354.721 61.896 354.505 61.62C354.289 61.344 353.989 61.206 353.605 61.206C353.209 61.206 352.897 61.344 352.669 61.62C352.453 61.884 352.333 62.262 352.309 62.754C352.309 62.826 352.303 62.862 352.291 62.862V68.82C352.291 68.94 352.231 69 352.111 69H350.743C350.623 69 350.563 68.94 350.563 68.82V60.018C350.563 59.898 350.623 59.838 350.743 59.838H352.111C352.231 59.838 352.291 59.898 352.291 60.018V60.504C352.291 60.528 352.303 60.546 352.327 60.558C352.351 60.558 352.375 60.54 352.399 60.504C352.831 59.976 353.437 59.712 354.217 59.712ZM365.518 60.918C365.518 61.038 365.458 61.098 365.338 61.098H364.078C364.03 61.098 364.006 61.122 364.006 61.17V66.228C364.006 66.708 364.09 67.044 364.258 67.236C364.426 67.416 364.69 67.5 365.05 67.488H365.212C365.332 67.488 365.392 67.548 365.392 67.668V68.82C365.392 68.94 365.332 69 365.212 69H364.654C363.886 69 363.304 68.85 362.908 68.55C362.524 68.25 362.332 67.68 362.332 66.84V61.17C362.332 61.122 362.308 61.098 362.26 61.098H361.558C361.438 61.098 361.378 61.038 361.378 60.918V60.018C361.378 59.898 361.438 59.838 361.558 59.838H362.26C362.308 59.838 362.332 59.814 362.332 59.766V57.732C362.332 57.612 362.392 57.552 362.512 57.552H363.826C363.946 57.552 364.006 57.612 364.006 57.732V59.766C364.006 59.814 364.03 59.838 364.078 59.838H365.338C365.458 59.838 365.518 59.898 365.518 60.018V60.918ZM369.773 69.144C368.837 69.144 368.093 68.886 367.541 68.37C367.001 67.842 366.731 67.146 366.731 66.282V62.556C366.731 61.704 367.007 61.014 367.559 60.486C368.111 59.958 368.849 59.694 369.773 59.694C370.709 59.694 371.453 59.958 372.005 60.486C372.557 61.014 372.833 61.704 372.833 62.556V66.282C372.833 67.146 372.557 67.842 372.005 68.37C371.453 68.886 370.709 69.144 369.773 69.144ZM369.773 67.632C370.157 67.632 370.475 67.5 370.727 67.236C370.979 66.96 371.105 66.6 371.105 66.156V62.664C371.105 62.232 370.979 61.878 370.727 61.602C370.475 61.326 370.157 61.188 369.773 61.188C369.389 61.188 369.071 61.326 368.819 61.602C368.579 61.878 368.459 62.232 368.459 62.664V66.156C368.459 66.6 368.579 66.96 368.819 67.236C369.071 67.5 369.389 67.632 369.773 67.632ZM378.662 56.58C378.662 56.46 378.722 56.4 378.842 56.4H380.21C380.33 56.4 380.39 56.46 380.39 56.58V68.82C380.39 68.94 380.33 69 380.21 69H378.842C378.722 69 378.662 68.94 378.662 68.82V68.532C378.662 68.508 378.65 68.49 378.626 68.478C378.614 68.466 378.596 68.472 378.572 68.496C378.344 68.712 378.086 68.874 377.798 68.982C377.51 69.09 377.222 69.144 376.934 69.144C376.142 69.144 375.512 68.886 375.044 68.37C374.588 67.842 374.36 67.152 374.36 66.3V62.556C374.36 61.668 374.588 60.972 375.044 60.468C375.512 59.952 376.142 59.694 376.934 59.694C377.222 59.694 377.51 59.748 377.798 59.856C378.086 59.964 378.344 60.126 378.572 60.342C378.596 60.366 378.614 60.372 378.626 60.36C378.65 60.348 378.662 60.33 378.662 60.306V56.58ZM377.384 67.65C377.72 67.65 378.002 67.542 378.23 67.326C378.47 67.098 378.614 66.804 378.662 66.444V62.394C378.614 62.034 378.47 61.746 378.23 61.53C378.002 61.302 377.72 61.188 377.384 61.188C377 61.188 376.682 61.326 376.43 61.602C376.19 61.878 376.07 62.232 376.07 62.664V66.174C376.07 66.606 376.19 66.96 376.43 67.236C376.682 67.512 377 67.65 377.384 67.65ZM385.226 59.694C386.102 59.694 386.816 59.97 387.368 60.522C387.932 61.074 388.214 61.8 388.214 62.7V68.82C388.214 68.94 388.154 69 388.034 69H386.666C386.546 69 386.486 68.94 386.486 68.82V68.424C386.486 68.4 386.474 68.382 386.45 68.37C386.438 68.358 386.42 68.364 386.396 68.388C385.976 68.892 385.358 69.144 384.542 69.144C383.858 69.144 383.252 68.952 382.724 68.568C382.208 68.172 381.95 67.476 381.95 66.48C381.95 65.436 382.262 64.674 382.886 64.194C383.522 63.702 384.35 63.456 385.37 63.456H386.414C386.462 63.456 386.486 63.432 386.486 63.384V62.862C386.486 62.358 386.366 61.956 386.126 61.656C385.886 61.344 385.574 61.188 385.19 61.188C384.89 61.188 384.638 61.29 384.434 61.494C384.23 61.698 384.11 61.962 384.074 62.286C384.074 62.406 384.014 62.466 383.894 62.466H382.436C382.316 62.466 382.256 62.406 382.256 62.286C382.316 61.518 382.622 60.894 383.174 60.414C383.726 59.934 384.41 59.694 385.226 59.694ZM384.92 67.632C385.34 67.632 385.706 67.5 386.018 67.236C386.33 66.972 386.486 66.6 386.486 66.12V64.896C386.486 64.848 386.462 64.824 386.414 64.824H385.316C384.836 64.824 384.452 64.956 384.164 65.22C383.876 65.472 383.732 65.844 383.732 66.336C383.732 66.768 383.84 67.092 384.056 67.308C384.272 67.524 384.56 67.632 384.92 67.632ZM389.582 72.582C389.558 72.582 389.534 72.564 389.51 72.528C389.486 72.492 389.474 72.45 389.474 72.402V71.34C389.474 71.22 389.534 71.16 389.654 71.16C390.038 71.148 390.338 71.088 390.554 70.98C390.782 70.872 390.962 70.668 391.094 70.368C391.238 70.068 391.358 69.63 391.454 69.054L391.436 68.964L389.132 60.036L389.114 59.982C389.114 59.886 389.174 59.838 389.294 59.838H390.77C390.89 59.838 390.956 59.892 390.968 60L392.282 66.498C392.294 66.534 392.306 66.552 392.318 66.552C392.33 66.552 392.342 66.534 392.354 66.498L393.65 60C393.674 59.892 393.74 59.838 393.848 59.838L395.342 59.856C395.402 59.856 395.444 59.874 395.468 59.91C395.504 59.946 395.51 59.994 395.486 60.054L393.02 69.63C392.792 70.458 392.564 71.07 392.336 71.466C392.108 71.874 391.79 72.162 391.382 72.33C390.986 72.498 390.416 72.582 389.672 72.582H389.582ZM398.397 65.256C398.277 65.256 398.217 65.196 398.217 65.076V64.176C398.217 63.636 398.325 63.192 398.541 62.844C398.757 62.496 399.075 62.124 399.495 61.728C399.879 61.368 400.167 61.038 400.359 60.738C400.563 60.426 400.665 60.036 400.665 59.568C400.665 59.028 400.545 58.602 400.305 58.29C400.065 57.966 399.747 57.804 399.351 57.804C398.919 57.804 398.577 57.972 398.325 58.308C398.073 58.632 397.947 59.064 397.947 59.604V60.072C397.947 60.192 397.887 60.252 397.767 60.252L396.399 60.18C396.279 60.18 396.219 60.12 396.219 60V59.604C396.219 58.596 396.507 57.786 397.083 57.174C397.671 56.55 398.439 56.238 399.387 56.238C400.299 56.238 401.031 56.538 401.583 57.138C402.135 57.726 402.411 58.518 402.411 59.514C402.411 60.042 402.339 60.498 402.195 60.882C402.051 61.266 401.877 61.578 401.673 61.818C401.481 62.058 401.229 62.328 400.917 62.628C400.581 62.94 400.335 63.21 400.179 63.438C400.023 63.666 399.945 63.942 399.945 64.266V65.076C399.945 65.196 399.885 65.256 399.765 65.256H398.397ZM399.099 68.982C398.763 68.982 398.487 68.874 398.271 68.658C398.055 68.442 397.947 68.166 397.947 67.83C397.947 67.494 398.055 67.218 398.271 67.002C398.487 66.786 398.763 66.678 399.099 66.678C399.435 66.678 399.711 66.786 399.927 67.002C400.143 67.218 400.251 67.494 400.251 67.83C400.251 68.166 400.137 68.442 399.909 68.658C399.693 68.874 399.423 68.982 399.099 68.982Z" fill="#082337"/>
<defs>
<filter id="filter0_i_608_812" x="1.67871" y="30.6484" width="619.416" height="71.7065" filterUnits="userSpaceOnUse" color-interpolation-filters="sRGB">
<feFlood flood-opacity="0" result="BackgroundImageFix"/>
<feBlend mode="normal" in="SourceGraphic" in2="BackgroundImageFix" result="shape"/>
<feColorMatrix in="SourceAlpha" type="matrix" values="0 0 0 0 0 0 0 0 0 0 0 0 0 0 0 0 0 0 127 0" result="hardAlpha"/>
<feOffset dx="-6" dy="6"/>
<feGaussianBlur stdDeviation="3"/>
<feComposite in2="hardAlpha" operator="arithmetic" k2="-1" k3="1"/>
<feColorMatrix type="matrix" values="0 0 0 0 0.117647 0 0 0 0 0.290196 0 0 0 0 0.568627 0 0 0 0.6 0"/>
<feBlend mode="normal" in2="shape" result="effect1_innerShadow_608_812"/>
</filter>
<linearGradient id="paint0_linear_608_812" x1="619.619" y1="105.837" x2="536.658" y2="-15.6849" gradientUnits="userSpaceOnUse">
<stop stop-color="#184885"/>
<stop offset="1" stop-color="#184885" stop-opacity="0"/>
</linearGradient>
<linearGradient id="paint1_linear_608_812" x1="102.014" y1="8.2452" x2="102.014" y2="98.5032" gradientUnits="userSpaceOnUse">
<stop stop-color="#1D4468"/>
<stop offset="0.359375" stop-color="#02253F"/>
</linearGradient>
</defs>
</svg>
