<svg width="124" height="40" viewBox="0 0 124 40" fill="none" xmlns="http://www.w3.org/2000/svg">
<g filter="url(#filter0_d_3024_263969)">
<path d="M100.349 31.9233L107.754 7H23.105L15.6943 31.9233H100.349Z" fill="#F5FBFF"/>
<path d="M108 7H69.5L71.5 8H106.407L103 19L103.5 21.5L108 7Z" fill="#A2CFF4"/>
<path d="M109.697 31.9233L117.102 7H111.529L104.118 31.9233H109.697Z" fill="#FFF380"/>
<path d="M53.3402 24C52.9949 24 52.7382 23.9207 52.5702 23.762C52.4115 23.594 52.3322 23.3513 52.3322 23.034C52.3322 22.8287 52.3835 22.6373 52.4862 22.46C52.5889 22.2827 52.7289 22.1007 52.9062 21.914L55.5382 19.142C55.9302 18.722 56.2102 18.3487 56.3782 18.022C56.5555 17.6953 56.6442 17.3687 56.6442 17.042C56.6442 16.6313 56.5089 16.3187 56.2382 16.104C55.9769 15.8893 55.5942 15.782 55.0902 15.782C54.8195 15.782 54.5395 15.824 54.2502 15.908C53.9702 15.9827 53.6762 16.1087 53.3682 16.286C53.1629 16.398 52.9715 16.44 52.7942 16.412C52.6262 16.3747 52.4815 16.2953 52.3602 16.174C52.2389 16.0433 52.1595 15.8893 52.1222 15.712C52.0849 15.5347 52.1035 15.3573 52.1782 15.18C52.2529 15.0027 52.3929 14.8533 52.5982 14.732C53.0089 14.48 53.4569 14.2933 53.9422 14.172C54.4275 14.0413 54.9082 13.976 55.3842 13.976C56.1215 13.976 56.7422 14.088 57.2462 14.312C57.7502 14.5267 58.1329 14.844 58.3942 15.264C58.6555 15.684 58.7862 16.1973 58.7862 16.804C58.7862 17.196 58.7255 17.5787 58.6042 17.952C58.4829 18.3253 58.2915 18.7033 58.0302 19.086C57.7782 19.4593 57.4422 19.8607 57.0222 20.29L54.5722 22.782V22.222H58.3662C58.6649 22.222 58.8889 22.2967 59.0382 22.446C59.1969 22.5953 59.2762 22.8147 59.2762 23.104C59.2762 23.3933 59.1969 23.6173 59.0382 23.776C58.8889 23.9253 58.6649 24 58.3662 24H53.3402ZM64.0027 24.154C62.8081 24.154 61.8934 23.7107 61.2587 22.824C60.6334 21.928 60.3207 20.6633 60.3207 19.03C60.3207 17.938 60.4607 17.0187 60.7407 16.272C61.0301 15.516 61.4454 14.9467 61.9867 14.564C62.5374 14.172 63.2094 13.976 64.0027 13.976C65.2067 13.976 66.1214 14.41 66.7467 15.278C67.3721 16.1367 67.6847 17.3873 67.6847 19.03C67.6847 20.122 67.5401 21.0507 67.2507 21.816C66.9707 22.572 66.5601 23.1507 66.0187 23.552C65.4774 23.9533 64.8054 24.154 64.0027 24.154ZM64.0027 22.39C64.5441 22.39 64.9454 22.124 65.2067 21.592C65.4681 21.0507 65.5987 20.1967 65.5987 19.03C65.5987 17.8633 65.4681 17.0233 65.2067 16.51C64.9454 15.9967 64.5441 15.74 64.0027 15.74C63.4614 15.74 63.0601 15.9967 62.7987 16.51C62.5374 17.0233 62.4067 17.8633 62.4067 19.03C62.4067 20.1967 62.5374 21.0507 62.7987 21.592C63.0601 22.124 63.4614 22.39 64.0027 22.39ZM72.3973 24.154C71.2026 24.154 70.2879 23.7107 69.6533 22.824C69.0279 21.928 68.7153 20.6633 68.7153 19.03C68.7153 17.938 68.8553 17.0187 69.1353 16.272C69.4246 15.516 69.8399 14.9467 70.3813 14.564C70.9319 14.172 71.6039 13.976 72.3973 13.976C73.6013 13.976 74.5159 14.41 75.1413 15.278C75.7666 16.1367 76.0793 17.3873 76.0793 19.03C76.0793 20.122 75.9346 21.0507 75.6453 21.816C75.3653 22.572 74.9546 23.1507 74.4133 23.552C73.8719 23.9533 73.1999 24.154 72.3973 24.154ZM72.3973 22.39C72.9386 22.39 73.3399 22.124 73.6013 21.592C73.8626 21.0507 73.9933 20.1967 73.9933 19.03C73.9933 17.8633 73.8626 17.0233 73.6013 16.51C73.3399 15.9967 72.9386 15.74 72.3973 15.74C71.8559 15.74 71.4546 15.9967 71.1933 16.51C70.9319 17.0233 70.8013 17.8633 70.8013 19.03C70.8013 20.1967 70.9319 21.0507 71.1933 21.592C71.4546 22.124 71.8559 22.39 72.3973 22.39Z" fill="#0071BC"/>
<g filter="url(#filter1_d_3024_263969)">
<circle cx="19.4994" cy="17.4975" r="12.9256" fill="#F4E763" stroke="#044067" stroke-width="0.8"/>
<circle cx="19.5003" cy="17.5003" r="12.2151" fill="#FF8A00" fill-opacity="0.25"/>
<g filter="url(#filter2_f_3024_263969)">
<path fill-rule="evenodd" clip-rule="evenodd" d="M19.4996 29.9933C26.3991 29.9933 31.9923 24.4001 31.9923 17.5006C31.9923 10.601 26.3991 5.00781 19.4996 5.00781C12.6 5.00781 7.00684 10.601 7.00684 17.5006C7.00684 24.4001 12.6 29.9933 19.4996 29.9933ZM19.4991 29.1415C25.9283 29.1415 31.1401 23.9297 31.1401 17.5005C31.1401 11.0714 25.9283 5.85957 19.4991 5.85957C13.07 5.85957 7.85816 11.0714 7.85816 17.5005C7.85816 23.9297 13.07 29.1415 19.4991 29.1415Z" fill="#F4E763"/>
</g>
<g filter="url(#filter3_f_3024_263969)">
<path fill-rule="evenodd" clip-rule="evenodd" d="M19.5014 30.8231C26.8609 30.8231 32.827 24.857 32.827 17.4975C32.827 10.1379 26.8609 4.17188 19.5014 4.17188C12.1419 4.17188 6.17578 10.1379 6.17578 17.4975C6.17578 24.857 12.1419 30.8231 19.5014 30.8231ZM19.5005 29.9142C26.3583 29.9142 31.9176 24.3549 31.9176 17.4971C31.9176 10.6394 26.3583 5.08008 19.5005 5.08008C12.6428 5.08008 7.0835 10.6394 7.0835 17.4971C7.0835 24.3549 12.6428 29.9142 19.5005 29.9142Z" fill="#85CFFF" fill-opacity="0.31"/>
</g>
<path fill-rule="evenodd" clip-rule="evenodd" d="M29.2164 17.4978C29.2164 22.8642 24.8661 27.2144 19.4998 27.2144C14.1335 27.2144 9.7832 22.8642 9.7832 17.4978C9.7832 12.1315 14.1335 7.78125 19.4998 7.78125C24.8661 7.78125 29.2164 12.1315 29.2164 17.4978ZM28.7845 17.4978C28.7845 22.6257 24.6276 26.7826 19.4998 26.7826C14.372 26.7826 10.2151 22.6257 10.2151 17.4978C10.2151 12.37 14.372 8.2131 19.4998 8.2131C24.6276 8.2131 28.7845 12.37 28.7845 17.4978Z" fill="#FFDA7B" fill-opacity="0.69" style="mix-blend-mode:color-dodge"/>
<path d="M16.3674 6.13297C10.0893 7.86309 6.40254 14.355 8.13265 20.633C9.86277 26.911 16.3546 30.5978 22.6327 28.8677C28.9107 27.1376 32.5975 20.6457 30.8674 14.3677L30.3621 14.5069C32.0154 20.5059 28.4924 26.7092 22.4934 28.3625C16.4944 30.0157 10.2911 26.4927 8.63787 20.4937C6.98465 14.4948 10.5076 8.29141 16.5066 6.63819L16.3674 6.13297Z" fill="#FFE86D" fill-opacity="0.9" style="mix-blend-mode:color-dodge"/>
<path d="M23.8827 7.62872C18.4316 5.20826 12.0505 7.66504 9.63007 13.1161C7.20962 18.5671 9.66639 24.9482 15.1174 27.3687C20.5685 29.7892 26.9496 27.3324 29.3701 21.8813L28.9314 21.6865C26.6185 26.8953 20.521 29.2429 15.3122 26.93C10.1034 24.6172 7.75586 18.5196 10.0687 13.3109C12.3816 8.10209 18.4791 5.7545 23.6879 8.06738L23.8827 7.62872Z" fill="#FFE86D" fill-opacity="0.85" style="mix-blend-mode:color-dodge"/>
<g filter="url(#filter4_f_3024_263969)">
<path fill-rule="evenodd" clip-rule="evenodd" d="M13.6645 14.2812H13.3301L13.5302 14.5492L15.1167 16.6735L15.167 16.7408H15.251H17.603L17.7589 16.9367H16.5203H16.4362L16.386 17.004L14.7994 19.1283L14.7661 19.1729V19.2286V22.3089V22.7923L15.0654 22.4126L17.075 19.8635L17.111 19.8178V19.7597V19.1838H18.2126H18.2966L18.3469 19.1165L19.9334 16.9922L20.01 16.8897L19.9313 16.7888L18.0275 14.3458L17.9772 14.2812H17.8953H13.6645ZM15.3351 16.4056L13.9989 14.6165H17.8134L19.5883 16.894L18.1285 18.8485H16.9433H16.7757V19.0162V19.7016L15.1014 21.8255V19.2843L16.6043 17.2719H18.1068H18.4547L18.2379 16.9998L17.8148 16.4688L17.7645 16.4056H17.6837H15.3351ZM22.7213 14.2812H22.6371L22.5868 14.3487L18.7595 19.4858H17.6909H17.3662L17.5542 19.7505L19.4406 22.4059L19.5727 22.5919L19.7107 22.4103L25.6843 14.5503L25.8888 14.2812H25.5508H22.7213ZM18.9781 19.7536L22.8054 14.6165H25.2129L19.5818 22.0258L18.0156 19.8211H18.8437H18.9278L18.9781 19.7536Z" fill="#629CD0" style="mix-blend-mode:screen"/>
</g>
<path fill-rule="evenodd" clip-rule="evenodd" d="M13.6645 14.2812H13.3301L13.5302 14.5492L15.1167 16.6735L15.167 16.7408H15.251H17.603L17.7589 16.9367H16.5203H16.4362L16.386 17.004L14.7994 19.1283L14.7661 19.1729V19.2286V22.3089V22.7923L15.0654 22.4126L17.075 19.8635L17.111 19.8178V19.7597V19.1838H18.2126H18.2966L18.3469 19.1165L19.9334 16.9922L20.01 16.8897L19.9313 16.7888L18.0275 14.3458L17.9772 14.2812H17.8953H13.6645ZM15.3351 16.4056L13.9989 14.6165H17.8134L19.5883 16.894L18.1285 18.8485H16.9433H16.7757V19.0162V19.7016L15.1014 21.8255V19.2843L16.6043 17.2719H18.1068H18.4547L18.2379 16.9998L17.8148 16.4688L17.7645 16.4056H17.6837H15.3351ZM22.7213 14.2812H22.6371L22.5868 14.3487L18.7595 19.4858H17.6909H17.3662L17.5542 19.7505L19.4406 22.4059L19.5727 22.5919L19.7107 22.4103L25.6843 14.5503L25.8888 14.2812H25.5508H22.7213ZM18.9781 19.7536L22.8054 14.6165H25.2129L19.5818 22.0258L18.0156 19.8211H18.8437H18.9278L18.9781 19.7536Z" fill="#196697"/>
</g>
</g>
<defs>
<filter id="filter0_d_3024_263969" x="0.173828" y="0.171875" width="122.928" height="39.75" filterUnits="userSpaceOnUse" color-interpolation-filters="sRGB">
<feFlood flood-opacity="0" result="BackgroundImageFix"/>
<feColorMatrix in="SourceAlpha" type="matrix" values="0 0 0 0 0 0 0 0 0 0 0 0 0 0 0 0 0 0 127 0" result="hardAlpha"/>
<feOffset dy="2"/>
<feGaussianBlur stdDeviation="3"/>
<feComposite in2="hardAlpha" operator="out"/>
<feColorMatrix type="matrix" values="0 0 0 0 0 0 0 0 0 0 0 0 0 0 0 0 0 0 0.1 0"/>
<feBlend mode="normal" in2="BackgroundImageFix" result="effect1_dropShadow_3024_263969"/>
<feBlend mode="normal" in="SourceGraphic" in2="effect1_dropShadow_3024_263969" result="shape"/>
</filter>
<filter id="filter1_d_3024_263969" x="2.17383" y="0.171875" width="34.6533" height="34.6523" filterUnits="userSpaceOnUse" color-interpolation-filters="sRGB">
<feFlood flood-opacity="0" result="BackgroundImageFix"/>
<feColorMatrix in="SourceAlpha" type="matrix" values="0 0 0 0 0 0 0 0 0 0 0 0 0 0 0 0 0 0 127 0" result="hardAlpha"/>
<feOffset/>
<feGaussianBlur stdDeviation="2"/>
<feComposite in2="hardAlpha" operator="out"/>
<feColorMatrix type="matrix" values="0 0 0 0 0 0 0 0 0 0 0 0 0 0 0 0 0 0 0.25 0"/>
<feBlend mode="normal" in2="BackgroundImageFix" result="effect1_dropShadow_3024_263969"/>
<feBlend mode="normal" in="SourceGraphic" in2="effect1_dropShadow_3024_263969" result="shape"/>
</filter>
<filter id="filter2_f_3024_263969" x="6.67158" y="4.67255" width="25.6559" height="25.6549" filterUnits="userSpaceOnUse" color-interpolation-filters="sRGB">
<feFlood flood-opacity="0" result="BackgroundImageFix"/>
<feBlend mode="normal" in="SourceGraphic" in2="BackgroundImageFix" result="shape"/>
<feGaussianBlur stdDeviation="0.16763" result="effect1_foregroundBlur_3024_263969"/>
</filter>
<filter id="filter3_f_3024_263969" x="6.00815" y="4.00424" width="26.9866" height="26.9876" filterUnits="userSpaceOnUse" color-interpolation-filters="sRGB">
<feFlood flood-opacity="0" result="BackgroundImageFix"/>
<feBlend mode="normal" in="SourceGraphic" in2="BackgroundImageFix" result="shape"/>
<feGaussianBlur stdDeviation="0.083815" result="effect1_foregroundBlur_3024_263969"/>
</filter>
<filter id="filter4_f_3024_263969" x="12.8272" y="13.7784" width="13.5644" height="9.5175" filterUnits="userSpaceOnUse" color-interpolation-filters="sRGB">
<feFlood flood-opacity="0" result="BackgroundImageFix"/>
<feBlend mode="normal" in="SourceGraphic" in2="BackgroundImageFix" result="shape"/>
<feGaussianBlur stdDeviation="0.251445" result="effect1_foregroundBlur_3024_263969"/>
</filter>
</defs>
</svg>
