<svg width="115" height="37" viewBox="0 0 115 37" fill="none" xmlns="http://www.w3.org/2000/svg">
<g filter="url(#filter0_d_3024_263997)">
<path d="M91.653 28.9233L99.0577 4H14.4087L6.99805 28.9233H91.653Z" fill="#F5FBFF"/>
<path d="M99.3037 4H60.8037L62.8037 5H97.7107L94.3037 16L94.8037 18.5L99.3037 4Z" fill="#A2CFF4"/>
<path d="M101.001 28.9233L108.405 4H102.833L95.4219 28.9233H101.001Z" fill="#FFF380"/>
<path d="M52.8044 21C52.5058 21 52.2771 20.9207 52.1184 20.762C51.9598 20.6033 51.8804 20.384 51.8804 20.104C51.8804 19.8147 51.9598 19.5953 52.1184 19.446C52.2771 19.2967 52.5058 19.222 52.8044 19.222H54.2184V12.908H55.2404L53.1964 14.154C52.9818 14.2847 52.7811 14.336 52.5944 14.308C52.4171 14.28 52.2631 14.2007 52.1324 14.07C52.0018 13.9393 51.9131 13.7853 51.8664 13.608C51.8291 13.4213 51.8478 13.2393 51.9224 13.062C51.9971 12.8753 52.1371 12.7167 52.3424 12.586L54.2884 11.41C54.4844 11.2887 54.6804 11.1907 54.8764 11.116C55.0818 11.0413 55.2824 11.004 55.4784 11.004C55.7584 11.004 55.9778 11.0787 56.1364 11.228C56.3044 11.368 56.3884 11.5873 56.3884 11.886V19.222H57.6624C57.9518 19.222 58.1758 19.2967 58.3344 19.446C58.4931 19.5953 58.5724 19.8147 58.5724 20.104C58.5724 20.3933 58.4931 20.6173 58.3344 20.776C58.1758 20.9253 57.9518 21 57.6624 21H52.8044Z" fill="#0071BC"/>
</g>
<g clip-path="url(#clip0_3024_263997)">
<mask id="mask0_3024_263997" style="mask-type:luminance" maskUnits="userSpaceOnUse" x="-7" y="-13" width="46" height="53">
<path d="M38.4385 -12.4453H-6.05469V39.9991H38.4385V-12.4453Z" fill="white"/>
</mask>
<g mask="url(#mask0_3024_263997)">
<mask id="mask1_3024_263997" style="mask-type:luminance" maskUnits="userSpaceOnUse" x="-7" y="-13" width="46" height="53">
<path d="M-6.05469 -12.4453H38.4385V39.9991H-6.05469V-12.4453Z" fill="white"/>
</mask>
<g mask="url(#mask1_3024_263997)">
<path d="M1.99902 11.4688L16.0589 28.1985L6.05902 11.4688H1.99902Z" fill="#2961B5"/>
<path d="M12.5883 4.183C12.5883 4.32067 6.04785 11.4695 6.04785 11.4695H16.0588C16.0588 11.4695 12.5883 3.99987 12.5883 4.183Z" fill="#D9D9D9"/>
<path d="M16.0588 11.4688H6.04785L16.0588 28.1985V11.4688Z" fill="#C3C3C3"/>
<path d="M19.3511 4.17969C19.3511 4.17969 16.0586 11.5612 16.0586 11.4695C16.3033 11.4695 25.9806 11.4695 25.9806 11.4695L19.3511 4.17969Z" fill="#2B5BA3"/>
<path d="M16.0584 4.17969L12.5879 4.18294L16.0584 11.4695V4.17969Z" fill="#A5A7AB"/>
<path d="M16.0561 4.1875L19.3486 4.19075L16.0561 11.4773V4.1875Z" fill="#4E8DEB"/>
<path d="M29.9405 11.4727H25.9806L16.0586 28.2024L29.9405 11.4727Z" fill="#B4B4B4"/>
<path d="M23.9336 4.18359L25.9803 11.4701H29.9402L23.9336 4.18359Z" fill="#A2A2A2"/>
<path d="M8.02785 4.18359L1.99902 11.4701H6.0479L8.02785 4.18359Z" fill="#4E8DEB"/>
<path d="M8.05009 4.18294L8.02785 4.17969L1.99902 11.4695L8.05009 4.18294Z" fill="#A2A2A2"/>
<path d="M12.5883 4.17969H8.0278L6.04785 11.4695L12.5883 4.17969Z" fill="#2961B5"/>
<path d="M19.2842 4.18359H23.9534L25.9805 11.4734L19.2842 4.18359Z" fill="#154CA0"/>
<path d="M8.0278 4.18359L6.04785 11.4701L8.0278 4.1869V4.18359Z" fill="#D3D2D2"/>
<path d="M25.9583 11.4688L16.0586 11.4753V28.1985L25.9583 11.4688Z" fill="#132C51"/>
</g>
</g>
<path fill-rule="evenodd" clip-rule="evenodd" d="M10.1678 14.1406H9.84375L10.031 14.4051L10.6647 15.3002L10.7148 15.371H10.8015H11.1428L10.5379 16.2253L10.5071 16.2689V16.3222V17.6201V18.1244L10.809 17.7204L11.6117 16.6463L11.6441 16.603L12.3921 17.7137L12.5265 17.9133L12.6671 17.7181L15.053 14.4062L15.2444 14.1406H14.917H13.7868H13.7L13.6499 14.2116L12.1513 16.3336H12.1183L12.1212 16.3295L12.7548 15.4345L12.8249 15.3355L12.7528 15.238L11.9924 14.2087L11.9422 14.1406H11.8576H10.1678ZM10.8882 15.0357L10.4919 14.4759H11.773L12.4112 15.3397L12.2539 15.5618L12.0759 15.3261L11.9069 15.1023L11.8566 15.0357H11.7731H10.8882ZM11.9421 15.5947H12.2306L11.8976 16.0651H11.4774H11.3098V16.2327V16.4903L10.8424 17.1157V16.3755L11.3951 15.5947H11.9421ZM12.375 16.5979L13.8737 14.4759H14.5896L12.5358 17.3269L12.0926 16.6688H12.2381H12.3249L12.375 16.5979Z" fill="#196697"/>
</g>
<defs>
<filter id="filter0_d_3024_263997" x="0.998047" y="0" width="113.407" height="36.9219" filterUnits="userSpaceOnUse" color-interpolation-filters="sRGB">
<feFlood flood-opacity="0" result="BackgroundImageFix"/>
<feColorMatrix in="SourceAlpha" type="matrix" values="0 0 0 0 0 0 0 0 0 0 0 0 0 0 0 0 0 0 127 0" result="hardAlpha"/>
<feOffset dy="2"/>
<feGaussianBlur stdDeviation="3"/>
<feComposite in2="hardAlpha" operator="out"/>
<feColorMatrix type="matrix" values="0 0 0 0 0 0 0 0 0 0 0 0 0 0 0 0 0 0 0.1 0"/>
<feBlend mode="normal" in2="BackgroundImageFix" result="effect1_dropShadow_3024_263997"/>
<feBlend mode="normal" in="SourceGraphic" in2="effect1_dropShadow_3024_263997" result="shape"/>
</filter>
<clipPath id="clip0_3024_263997">
<rect width="28" height="24" fill="white" transform="translate(2 4)"/>
</clipPath>
</defs>
</svg>
