<svg width="34" height="34" viewBox="0 0 34 34" fill="none" xmlns="http://www.w3.org/2000/svg">
<rect x="1.00043" y="1" width="32" height="32" rx="1" fill="white" stroke="#5D93CE" stroke-width="2"/>
<path d="M21.2236 7.55725H25.363L27.5127 9.80747V12.5794H29.0004V9.1651L25.9804 6H21.2236V7.55725Z" fill="#27528D"/>
<path d="M6.48811 12.5794V9.80747L8.63781 7.55725H12.781V6H8.02414L5.00043 9.1651V12.5794H6.48811Z" fill="#27528D"/>
<path d="M12.781 26.4428H8.63781L6.48811 24.1925V21.4167H5.00043V24.8349L8.02414 28H12.781V26.4428Z" fill="#27528D"/>
<path d="M27.5127 21.4167V24.1925L25.363 26.4428H21.2236V28H25.9804L29.0004 24.8349V21.4167H27.5127Z" fill="#27528D"/>
<path d="M22.5179 12.8402H20.6397V12.4509C20.6406 12.3451 20.6217 12.2401 20.5839 12.1419C20.5461 12.0437 20.4902 11.9543 20.4194 11.8788C20.3486 11.8032 20.2643 11.743 20.1713 11.7016C20.0783 11.6601 19.9783 11.6383 19.8772 11.6372H14.8154C14.6112 11.6372 14.4154 11.7221 14.271 11.8733C14.1266 12.0244 14.0455 12.2294 14.0455 12.4431V12.8324H12.1673C11.9282 12.8324 11.6914 12.8818 11.4705 12.9777C11.2496 13.0736 11.0489 13.2142 10.88 13.3914C10.7111 13.5686 10.5772 13.7789 10.486 14.0103C10.3948 14.2418 10.3481 14.4897 10.3486 14.7401V21.1131C10.3486 21.618 10.5402 22.1022 10.8813 22.4592C11.2224 22.8162 11.685 23.0168 12.1673 23.0168H22.5179C22.757 23.0173 22.9939 22.9685 23.215 22.873C23.4361 22.7776 23.637 22.6374 23.8063 22.4606C23.9755 22.2838 24.1098 22.0737 24.2015 21.8425C24.2931 21.6113 24.3403 21.3634 24.3403 21.1131V14.7478C24.3408 14.4972 24.294 14.2489 24.2025 14.0172C24.1111 13.7855 23.9769 13.575 23.8076 13.3978C23.6383 13.2206 23.4372 13.0801 23.2158 12.9844C22.9945 12.8887 22.7573 12.8397 22.5179 12.8402ZM20.6583 18.5281C20.5501 19.158 20.2792 19.7449 19.8749 20.225C19.4707 20.7051 18.9485 21.0602 18.3651 21.2517C17.7816 21.4431 17.1593 21.4636 16.5655 21.311C15.9717 21.1584 15.4292 20.8384 14.9969 20.3859C14.5645 19.9333 14.2589 19.3654 14.1131 18.7439C13.9672 18.1224 13.9869 17.4709 14.1698 16.8602C14.3527 16.2495 14.6919 15.7029 15.1506 15.2797C15.6093 14.8565 16.1699 14.573 16.7717 14.4597C17.3023 14.3654 17.8467 14.4054 18.3595 14.5764C18.8723 14.7475 19.3384 15.0446 19.719 15.443C20.0995 15.8413 20.3834 16.3293 20.5468 16.866C20.7102 17.4028 20.7484 17.9727 20.6583 18.5281Z" fill="#27528D"/>
<path d="M16.9539 15.5537C16.5381 15.6286 16.1499 15.8217 15.8318 16.1119C15.5136 16.4021 15.2778 16.7782 15.1501 17.1992C15.0224 17.6202 15.0077 18.0698 15.1075 18.499C15.2074 18.9282 15.418 19.3203 15.7164 19.6327C16.0148 19.945 16.3894 20.1655 16.7994 20.27C17.2094 20.3746 17.639 20.3591 18.0411 20.2254C18.4433 20.0917 18.8027 19.8449 19.0799 19.5119C19.3571 19.1789 19.5416 18.7726 19.6132 18.3373C19.6765 17.957 19.6515 17.5663 19.5403 17.1983C19.4291 16.8302 19.2349 16.4956 18.9741 16.2226C18.7134 15.9496 18.3937 15.7464 18.0421 15.6299C17.6904 15.5135 17.3172 15.4874 16.9539 15.5537Z" fill="#27528D"/>
</svg>
