<svg width="62" height="62" viewBox="0 0 62 62" fill="none" xmlns="http://www.w3.org/2000/svg">
<path d="M30.89 5.56998C35.9007 5.568 40.7993 7.05215 44.9664 9.83469C49.1334 12.6172 52.3816 16.5731 54.3 21.202C56.2184 25.8309 56.7208 30.9247 55.7438 35.8392C54.7668 40.7536 52.3541 45.2679 48.811 48.811C45.268 52.3541 40.7537 54.7667 35.8392 55.7438C30.9247 56.7208 25.8309 56.2184 21.202 54.3C16.5732 52.3815 12.6173 49.1334 9.83472 44.9663C7.05218 40.7993 5.56804 35.9006 5.57001 30.89C5.57795 24.1771 8.24814 17.7415 12.9948 12.9948C17.7415 8.24811 24.1772 5.57792 30.89 5.56998ZM30.89 0C24.7786 0.00197813 18.805 1.81615 13.7246 5.21313C8.6442 8.61012 4.68523 13.4373 2.34831 19.0843C0.0113902 24.7313 -0.598522 30.9445 0.595701 36.9381C1.78992 42.9317 4.73464 48.4366 9.05749 52.7567C13.3803 57.0767 18.8871 60.0178 24.8815 61.2082C30.8759 62.3985 37.0887 61.7846 42.7342 59.444C48.3797 57.1035 53.2043 53.1414 56.598 48.0588C59.9917 42.9762 61.802 37.0014 61.8 30.89C61.7974 22.6965 58.5407 14.8396 52.7461 9.04684C46.9515 3.25413 39.0935 -4.29062e-07 30.9 0H30.89Z" fill="#FFB140"/>
<path d="M34.18 11.9609H27.6V41.1609H34.18V11.9609Z" fill="#FFB140"/>
<path d="M34.18 44.3496H27.6V49.8296H34.18V44.3496Z" fill="#FFB140"/>
</svg>
