<?xml version="1.0" standalone="no"?>
<!DOCTYPE svg PUBLIC "-//W3C//DTD SVG 20010904//EN"
 "http://www.w3.org/TR/2001/REC-SVG-20010904/DTD/svg10.dtd">
<svg version="1.0" xmlns="http://www.w3.org/2000/svg"
 width="522.000000pt" height="421.000000pt" viewBox="0 0 522.000000 421.000000"
 preserveAspectRatio="xMidYMid meet">

<g transform="translate(0.000000,421.000000) scale(0.100000,-0.100000)"
fill="#000000" stroke="none">
<path d="M0 2105 l0 -2105 2610 0 2610 0 0 2105 0 2105 -2610 0 -2610 0 0
-2105z m1985 1989 c9 -9 42 -51 75 -93 54 -70 324 -416 353 -451 33 -41 116
-147 199 -255 91 -118 93 -121 93 -175 0 -53 -2 -58 -76 -150 -41 -52 -136
-174 -209 -270 -231 -301 -283 -365 -318 -388 -23 -15 -63 -18 -297 -22 l-270
-5 -5 -125 c-3 -75 -10 -134 -18 -148 -7 -12 -75 -102 -150 -199 -75 -96 -155
-199 -177 -228 -22 -30 -108 -140 -191 -247 -82 -106 -163 -210 -178 -230 -34
-46 -61 -56 -87 -32 -19 17 -19 33 -17 624 l3 606 75 97 c41 53 86 112 100
130 210 277 419 543 442 562 l30 25 286 0 c158 0 293 4 301 9 9 6 11 18 8 32
-10 36 -86 120 -124 135 -26 11 -128 14 -505 14 -433 0 -475 2 -500 18 -15 9
-107 121 -205 247 -98 127 -227 293 -287 370 -60 77 -114 146 -119 153 -8 9
168 12 871 12 796 0 882 -2 897 -16z m3043 6 c-3 -10 -55 -78 -321 -418 -75
-98 -171 -220 -211 -272 -41 -52 -158 -203 -261 -335 -103 -132 -246 -316
-319 -409 -72 -94 -231 -298 -354 -455 -122 -157 -238 -306 -257 -331 -19 -25
-89 -115 -156 -200 -195 -251 -341 -439 -387 -499 -65 -85 -90 -109 -122 -116
-45 -10 -76 15 -170 136 -47 61 -105 136 -130 168 -25 32 -161 207 -302 389
-142 182 -258 333 -258 336 0 3 110 6 244 6 l245 0 138 178 c76 97 168 215
203 262 36 46 72 92 80 101 8 9 40 49 70 88 30 40 75 99 100 130 82 105 199
254 316 406 64 83 146 188 183 235 67 84 335 429 419 538 23 31 48 60 55 64
19 12 1199 10 1195 -2z m-2338 -3332 c5 -13 38 -105 74 -206 36 -100 69 -189
73 -197 6 -9 24 31 54 118 l45 132 63 3 c58 3 63 1 56 -15 -4 -10 -20 -54 -36
-98 -16 -44 -34 -89 -39 -100 -5 -11 -24 -62 -42 -112 l-33 -93 -62 0 -62 0
-19 53 c-11 28 -50 131 -87 227 -85 223 -105 280 -105 297 0 9 16 13 55 13 48
0 57 -3 65 -22z m-2165 -160 c39 -18 55 -57 55 -137 0 -127 -27 -151 -170
-151 l-90 0 0 -60 0 -60 -55 0 -55 0 0 210 0 210 145 0 c90 0 154 -4 170 -12z
m535 -33 l0 -45 -165 0 -165 0 0 45 0 45 165 0 165 0 0 -45z m478 -2 l3 -43
-65 0 -66 0 0 -165 0 -165 -55 0 -55 0 0 165 0 165 -60 0 -60 0 0 45 0 45 178
-2 177 -3 3 -42z m477 15 c45 -52 44 -190 -1 -235 -13 -13 -24 -28 -24 -33 0
-5 14 -32 30 -58 17 -27 30 -52 30 -56 0 -3 -27 -6 -59 -6 l-60 0 -53 97 c-29
54 -54 101 -56 105 -2 5 16 8 41 8 55 0 69 15 65 72 l-3 43 -67 3 -68 3 -2
-163 -3 -163 -55 0 -55 0 -2 195 c-2 107 0 201 2 208 4 11 38 13 161 10 155
-3 156 -3 179 -30z m465 -80 c137 -363 160 -424 160 -430 0 -5 -26 -8 -58 -8
l-58 0 -68 188 c-37 104 -71 194 -76 201 -4 8 -13 -6 -24 -39 -9 -28 -30 -89
-47 -135 l-31 -85 -59 0 c-32 0 -59 2 -59 4 0 13 37 113 101 271 17 44 36 95
41 113 9 32 9 32 72 32 l64 0 42 -112z m1050 67 l0 -45 -165 0 -165 0 0 45 0
45 165 0 165 0 0 -45z m469 29 c65 -46 68 -226 4 -262 -17 -10 -16 -14 15 -71
17 -34 32 -63 32 -66 0 -3 -27 -5 -59 -5 -55 0 -61 2 -74 27 -8 16 -33 63 -56
106 l-43 77 44 0 c61 0 70 9 66 66 l-3 49 -67 3 -68 3 0 -166 0 -165 -55 0
-55 0 0 210 0 210 148 0 c120 0 152 -3 171 -16z m511 -29 l0 -44 -102 -3 -103
-3 0 -30 0 -30 98 -5 c88 -5 101 -8 118 -28 25 -31 34 -85 23 -141 -7 -35 -16
-50 -43 -68 -31 -21 -45 -23 -172 -23 l-139 0 0 45 0 45 115 0 c103 0 115 2
125 19 13 25 13 27 -6 45 -11 12 -36 16 -92 16 -92 0 -123 14 -139 60 -16 44
-8 128 15 153 28 31 50 36 180 36 l122 1 0 -45z m520 0 l0 -45 -165 0 -165 0
0 45 0 45 165 0 165 0 0 -45z m-4320 -49 c16 -20 9 -56 -12 -70 -40 -24 -80
44 -42 71 23 17 39 16 54 -1z m2464 1 c38 -27 -2 -95 -41 -71 -22 14 -29 50
-13 70 15 17 31 18 54 1z m1497 3 c37 -20 15 -87 -27 -78 -9 2 -23 12 -30 23
-12 18 -11 24 2 43 17 25 27 27 55 12z m-3653 -117 l3 -43 -91 0 -91 0 3 -37
3 -38 108 -3 107 -3 0 -44 0 -45 -165 0 -165 0 0 130 0 131 143 -3 142 -3 3
-42z m2467 2 l0 -40 -87 -3 -88 -3 0 -39 0 -40 110 0 110 0 0 -45 0 -45 -165
0 -165 0 0 130 0 131 143 -3 142 -3 0 -40z m1500 0 l0 -40 -87 -3 -88 -3 0
-39 0 -40 110 0 110 0 0 -45 0 -45 -165 0 -165 0 0 130 0 131 143 -3 142 -3 0
-40z"/>
<path d="M320 470 l0 -60 70 0 c65 0 70 2 76 24 3 13 4 38 2 57 l-3 34 -72 3
-73 3 0 -61z"/>
</g>
</svg>
