<svg width="34" height="30" viewBox="0 0 34 30" fill="none" xmlns="http://www.w3.org/2000/svg">
<path d="M14.4746 0H10.5678C10.2625 9.35666e-05 9.96255 0.0796697 9.69801 0.230759C9.43347 0.381849 9.21364 0.599149 9.06053 0.860898L7.10882 4.21413C6.95566 4.47596 6.875 4.77322 6.875 5.07585C6.875 5.37848 6.95566 5.67574 7.10882 5.93757L9.06053 9.28916C9.21364 9.55091 9.43347 9.76821 9.69801 9.9193C9.96255 10.0704 10.2625 10.15 10.5678 10.1501H14.4746C14.7797 10.15 15.0795 10.0704 15.3438 9.91932C15.608 9.76822 15.8275 9.55089 15.9803 9.28916L17.9336 5.93757C18.086 5.67546 18.1662 5.37831 18.1662 5.07585C18.1662 4.77339 18.086 4.47623 17.9336 4.21413L15.9803 0.860898C15.8275 0.599166 15.608 0.381839 15.3438 0.23073C15.0795 0.0796221 14.7797 4.95116e-05 14.4746 0V0Z" fill="#53BDF2"/>
<path d="M20.4345 27.9611L30.2793 18.2054C30.2362 18.1594 30.1533 18.0673 30.0671 17.9819C29.1716 17.0893 28.2756 16.1988 27.3791 15.3105C27.0475 14.9819 27.0591 14.9918 26.744 15.3105C24.0599 17.9764 21.3703 20.6429 18.6751 23.31C18.1777 23.8028 17.6902 24.2957 17.2126 24.7705L20.4345 27.9611ZM31.1897 17.4151C32.0387 16.5789 32.896 15.7722 33.7135 14.9178C34.1363 14.4775 34.0783 13.8269 33.6322 13.3669C33.1215 12.8412 32.5958 12.3269 32.0718 11.8143C31.4964 11.2525 30.8497 11.2492 30.2777 11.8143C29.5729 12.5044 28.8781 13.2026 28.1784 13.8992C28.0855 13.9929 27.9976 14.0931 27.9246 14.1703L31.1897 17.4151ZM16.3238 25.7119L15.2493 29.9836L19.5606 28.9157L16.3238 25.7119Z" fill="#53BDF2"/>
<path d="M20.4348 27.9611L17.2129 24.7705C17.6905 24.2925 18.1813 23.7996 18.6754 23.31C21.3706 20.6419 24.0602 17.9732 26.7443 15.304C27.0594 14.9918 27.0544 14.9885 27.3794 15.304C28.2748 16.1944 29.1708 17.0849 30.0674 17.9754C30.1536 18.0608 30.2332 18.1528 30.2796 18.1988L20.4348 27.9611Z" fill="#53BDF2"/>
<path d="M31.1896 17.4151L27.9246 14.1605C27.9976 14.0832 28.0904 13.983 28.1783 13.8894C28.8781 13.1928 29.5729 12.4945 30.2776 11.8045C30.8497 11.2426 31.4964 11.2459 32.0718 11.8045C32.5958 12.3171 33.1215 12.8313 33.6322 13.3571C34.0783 13.8171 34.1297 14.4677 33.7134 14.908C32.8959 15.7607 32.0386 16.5723 31.1896 17.4151Z" fill="#53BDF2"/>
<path d="M16.3233 25.7053L19.5535 28.9156L15.2422 29.9835L16.3233 25.7053Z" fill="#53BDF2"/>
<path d="M15.5593 24.4124L22.0628 17.8291L19.9901 14.2722C19.7426 13.8469 19.3864 13.4937 18.9573 13.2482C18.5282 13.0028 18.0413 12.8737 17.5459 12.8741H7.49709C7.0016 12.8737 6.51477 13.0028 6.08567 13.2482C5.65656 13.4937 5.30033 13.8469 5.05288 14.2722L0.378378 22.2914C0.0496256 22.8541 -0.0706309 23.513 0.0383439 24.1542C0.147319 24.7954 0.478695 25.3789 0.975335 25.804L5.07112 29.3182C5.58399 29.7583 6.23987 30.0004 6.91837 30H14.1349L15.5593 24.4124ZM12.6939 17.8752V17.0865C12.6939 16.9034 12.7672 16.7277 12.8978 16.598C13.0284 16.4684 13.2055 16.3953 13.3904 16.3949H17.4331C17.618 16.3953 17.7951 16.4684 17.9257 16.598C18.0562 16.7277 18.1295 16.9034 18.1295 17.0865V17.8735C18.1295 18.0567 18.0562 18.2323 17.9257 18.362C17.7951 18.4917 17.618 18.5647 17.4331 18.5652H13.3904C13.2058 18.5647 13.0289 18.4919 12.8984 18.3626C12.7679 18.2333 12.6944 18.058 12.6939 17.8752Z" fill="#53BDF2"/>
</svg>
