<svg width="14" height="18" viewBox="0 0 14 18" fill="none" xmlns="http://www.w3.org/2000/svg">
<path d="M1.57009 8.1656C1.57009 7.26695 1.57009 6.40404 1.57009 5.54624C1.56711 4.24569 2.03299 2.98763 2.88232 2.0027C3.38573 1.36368 4.03065 0.850285 4.76626 0.502959C5.50188 0.155634 6.3081 -0.0161336 7.12141 0.00119188C7.93472 0.0185173 8.73289 0.224461 9.45305 0.602798C10.1732 0.981135 10.7957 1.52153 11.2714 2.18141C12.0654 3.18806 12.4874 4.43796 12.4662 5.71984C12.4662 6.45 12.4662 7.17504 12.4662 7.9052V8.1656C12.6347 8.1656 12.7879 8.1656 12.936 8.1656C13.2348 8.18914 13.5128 8.32808 13.7111 8.55299C13.9093 8.77791 14.0122 9.07114 13.998 9.37061C13.998 11.8215 13.998 14.2706 13.998 16.7181C14.0076 16.8818 13.9825 17.0456 13.9244 17.1989C13.8663 17.3522 13.7764 17.4915 13.6607 17.6077C13.545 17.7238 13.4061 17.8143 13.2531 17.873C13.1 17.9318 12.9363 17.9575 12.7726 17.9486H1.20245C1.03895 17.9511 0.876707 17.9197 0.72594 17.8563C0.575174 17.793 0.43915 17.6992 0.326435 17.5807C0.213719 17.4622 0.126753 17.3217 0.0710118 17.168C0.0152706 17.0142 -0.00803766 16.8506 0.00255349 16.6875V9.40635C-0.00818132 9.24454 0.0150091 9.08227 0.0706378 8.92994C0.126267 8.77761 0.213106 8.63859 0.325591 8.52178C0.438077 8.40497 0.573728 8.31294 0.723848 8.25161C0.873969 8.19027 1.03525 8.16098 1.19735 8.1656C1.30968 8.16049 1.42712 8.1656 1.57009 8.1656ZM10.1124 8.1656C10.1124 7.32822 10.1124 6.51637 10.1124 5.70453C10.1232 5.27344 10.0443 4.84481 9.88084 4.44578C9.71736 4.04675 9.4728 3.68601 9.16266 3.38642C8.75086 2.93431 8.20711 2.6234 7.6086 2.49784C7.0101 2.37227 6.38724 2.43842 5.82846 2.6869C5.24675 2.93553 4.75111 3.34991 4.40335 3.87837C4.05559 4.40682 3.87109 5.02596 3.87287 5.65857C3.87287 6.42957 3.87287 7.19036 3.87287 7.96136C3.87287 8.02774 3.87287 8.08901 3.87287 8.15028L10.1124 8.1656ZM7.71256 12.8988L7.90148 12.761C8.18313 12.5484 8.39018 12.252 8.49293 11.9145C8.59567 11.5769 8.58882 11.2154 8.47335 10.882C8.36468 10.5631 8.15805 10.2868 7.88296 10.0924C7.60786 9.898 7.27838 9.79549 6.94156 9.79951C6.61113 9.82542 6.29655 9.95183 6.04007 10.1618C5.78359 10.3717 5.59749 10.6551 5.50679 10.9739C5.41554 11.3055 5.42831 11.6572 5.54337 11.9814C5.65842 12.3055 5.87022 12.5866 6.15014 12.7865C6.17611 12.798 6.19948 12.8146 6.21881 12.8355C6.23814 12.8563 6.25304 12.8808 6.2626 12.9075C6.27215 12.9343 6.27616 12.9627 6.27438 12.991C6.2726 13.0194 6.26508 13.0471 6.25226 13.0724C5.99185 13.9558 5.74166 14.8442 5.49147 15.7275C5.38424 16.1054 5.53742 16.3198 5.91526 16.3198C6.64031 16.3198 7.36536 16.3198 8.0904 16.3198C8.48867 16.3198 8.64185 16.1003 8.52441 15.702C8.24869 14.7574 7.98318 13.8281 7.71256 12.8835V12.8988Z" fill="white"/>
</svg>
